<?xml version="1.0" encoding="utf-8"?>
<!-- Generator: Adobe Illustrator 21.0.2, SVG Export Plug-In . SVG Version: 6.00 Build 0)  -->
<svg version="1.1" id="_x30_" xmlns="http://www.w3.org/2000/svg" xmlns:xlink="http://www.w3.org/1999/xlink" x="0px" y="0px"
	 viewBox="0 0 456 460" enable-background="new 0 0 456 460" xml:space="preserve">
<path d="M228.5,17.5c-110.46,0-200,89.54-200,200s89.54,200,200,200s200-89.54,200-200S338.96,17.5,228.5,17.5z M331.22,61.39
	c21.24,13.98,39.41,32.15,53.39,53.39c-16.42-10.74-37.69-10.54-53.9,0.51C341.76,99.08,341.96,77.81,331.22,61.39z M313.99,58.41
	c6.71,5.76,11.4,14.22,12.49,22.94c0.84,6.74-0.48,13.64-3.39,19.92c-3.69,7.95-9.92,14.9-17.89,18.18
	c-6.92,2.85-15.17,2.92-22.19,0.94c-7.72-2.19-13.95-6.88-18.75-14.97c-2.73-4.6-4.99-10.31-1.91-13.52
	c1.46-1.52,4.11-2.48,6.15-1.99c1.79,0.43,3.12,1.98,4.44,3.52c0.22-1.11,0.42-2.22,0.47-3.33c0.02-0.33,0.02-0.66,0-0.99
	c-0.06-1.12-0.35-2.22-0.8-3.31c-0.47-1.14-1.12-2.27-2.03-3.14c-0.92-0.91-2.1-1.55-3.27-2.02c-1.83-0.74-3.62-1.05-5.52-1.5
	c1.38-1.26,2.76-2.51,4.28-3.58c2.89-2.05,6.27-3.41,9.94-3.9c4.6-0.62,9.66,0.13,13.03,2.95c2.97,2.48,4.63,6.57,4.16,11
	c-0.35,3.33-1.91,6.85-4.39,7.68c-2.29,0.77-5.37-0.75-7.8-2.39c-1.71-1.16-3.11-2.38-4.5-3.6c-0.07,0.98-0.15,1.96-0.19,2.93
	c-0.12,2.62-0.01,5.18,0.89,7.56c1.16,3.04,3.65,5.77,6.7,7.18c3.53,1.64,7.83,1.51,11.39-0.1c3.06-1.38,5.58-3.84,7-6.83
	c1.58-3.33,1.79-7.31,0.91-10.88c-0.54-2.21-1.51-4.26-2.47-6.32c1.88,0.52,3.76,1.05,5.44,0.59c2.07-0.56,3.83-2.61,4.69-4.88
	c1.42-3.74,0.42-8.07-1.87-11.01c-2.11-2.7-5.31-4.22-8.51-5.75c0.72,2.31,1.44,4.62,0.43,6.74c-0.62,1.28-1.88,2.5-3.13,2.65
	c-1.32,0.15-2.63-0.87-3.9-1.82c-3.15-2.36-6.03-4.32-9.3-5.2c-6.09-1.63-13.53,0.47-19.39,4.09c-6.21,3.85-10.63,9.4-13.72,15.92
	c-3.11,6.55-4.89,14.08-3.49,20.8c1.2,5.81,4.78,11.02,8.35,16.22c-2.7-0.42-5.4-0.84-7.77-0.14c-2.69,0.8-4.96,3.04-6.7,5.73
	c-3.07,4.73-4.52,10.86-2.61,15.26c1.7,3.92,6.06,6.47,10.42,9.02c-0.53-3.15-1.05-6.29-0.35-9.37c0.66-2.89,2.41-5.73,4.68-7.66
	c4.47-3.82,10.98-4.15,16.95-4.35c4.56-0.16,8.81-0.24,12.91-0.24c4.99,0,9.75,0.1,16.52-0.04c1.79-0.03,3.71-0.09,4.33,0.99
	c0.4,0.69,0.27,1.83-0.1,2.75c-0.55,1.37-1.64,2.24-2.8,2.91c-3.97,2.28-8.8,2.31-13.39,3.13c-8.73,1.55-16.56,5.96-23.53,11.41
	c-6.21,4.85-11.73,10.53-15.23,17.66c-2.59,5.27-4.08,11.33-4.06,16.76c0,2.36,0.29,4.6-0.75,7.47c-0.68,1.85-1.91,3.97-3.1,3.73
	c-0.72-0.14-1.43-1.15-2.03-2.13c-1.85-3.03-2.64-5.73-3.2-8.55c-1.67-8.38-1.37-17.87-1.33-27.08c0.07-14.94-0.55-29.18,1.08-43.95
	c1.91-17.36,6.92-35.47,18.95-48.05c7.68-8.03,18.22-13.81,29.38-14.93C295.01,48.49,305.95,51.5,313.99,58.41z M233.91,68.96
	c0.07-1.43,0.42-2.71,1.14-3.74c1.32-1.86,3.87-2.9,5.32-4.69c1.27-1.57,1.69-3.72,2.1-5.87c1.55,2.88,3.1,5.76,3.17,8.88
	c0.05,2.4-0.77,4.94-2.23,6.9c-1.06,1.41-2.44,2.51-4.24,3.06c-1.35,0.41-2.92,0.51-3.89-0.17
	C234.14,72.52,233.83,70.64,233.91,68.96z M235.28,357.23c0.97-0.68,2.54-0.58,3.89-0.17c1.8,0.55,3.18,1.65,4.24,3.06
	c1.46,1.95,2.28,4.5,2.23,6.9c-0.07,3.12-1.62,6-3.17,8.88c-0.41-2.15-0.83-4.3-2.1-5.87c-1.45-1.79-4-2.83-5.32-4.7
	c-0.72-1.02-1.07-2.3-1.14-3.73C233.83,359.92,234.14,358.03,235.28,357.23z M228.53,30.63c15.47,0,30.93,1.93,46.03,5.77
	c-10.91,0.05-21.67,2.53-31.51,7.26c-2.13-6.44-8.11-10.51-14.54-10.51c-1.6,0-3.24,0.26-4.84,0.79c-4.59,1.52-8.2,5.13-9.72,9.72
	c-9.84-4.73-20.6-7.21-31.51-7.26C197.56,32.55,213.05,30.63,228.53,30.63z M221.72,73.33c-0.97,0.68-2.54,0.58-3.89,0.17
	c-1.8-0.55-3.18-1.65-4.24-3.06c-1.46-1.96-2.28-4.5-2.23-6.9c0.07-3.12,1.62-6,3.17-8.88c0.41,2.15,0.83,4.3,2.1,5.87
	c1.45,1.79,4,2.83,5.32,4.69c0.72,1.03,1.07,2.31,1.14,3.74C223.17,70.64,222.86,72.52,221.72,73.33z M223.09,361.6
	c-0.07,1.43-0.42,2.71-1.14,3.73c-1.32,1.87-3.87,2.91-5.32,4.7c-1.27,1.57-1.69,3.72-2.1,5.87c-1.55-2.88-3.1-5.76-3.17-8.88
	c-0.05-2.4,0.77-4.95,2.23-6.9c1.06-1.41,2.44-2.51,4.24-3.06c1.35-0.41,2.92-0.51,3.89,0.17
	C222.86,358.03,223.17,359.92,223.09,361.6z M130.52,81.35c1.09-8.72,5.78-17.18,12.49-22.94c8.04-6.91,18.98-9.92,29.38-8.89
	c11.16,1.12,21.7,6.9,29.38,14.93c12.03,12.58,17.04,30.69,18.95,48.05c1.63,14.77,1.01,29.01,1.08,43.95
	c0.04,9.21,0.34,18.7-1.33,27.08c-0.56,2.82-1.35,5.52-3.2,8.55c-0.6,0.98-1.31,1.99-2.03,2.13c-1.19,0.24-2.42-1.88-3.1-3.73
	c-1.04-2.87-0.75-5.11-0.75-7.47c0.02-5.43-1.47-11.49-4.06-16.76c-3.5-7.13-9.02-12.81-15.23-17.66
	c-6.97-5.45-14.8-9.86-23.53-11.41c-4.59-0.82-9.42-0.85-13.39-3.13c-1.16-0.67-2.25-1.54-2.8-2.91c-0.37-0.92-0.5-2.06-0.1-2.75
	c0.62-1.08,2.54-1.02,4.33-0.99c6.77,0.14,11.53,0.04,16.52,0.04c4.1,0,8.35,0.08,12.91,0.24c5.97,0.2,12.48,0.53,16.95,4.35
	c2.27,1.93,4.02,4.77,4.68,7.66c0.7,3.08,0.18,6.22-0.35,9.37c4.36-2.55,8.72-5.1,10.42-9.02c1.91-4.4,0.46-10.53-2.61-15.26
	c-1.74-2.69-4.01-4.93-6.7-5.73c-2.37-0.7-5.07-0.28-7.77,0.14c3.57-5.2,7.15-10.41,8.35-16.22c1.4-6.72-0.38-14.25-3.49-20.8
	c-3.09-6.52-7.51-12.07-13.72-15.92c-5.86-3.62-13.3-5.72-19.39-4.09c-3.27,0.88-6.15,2.84-9.3,5.2c-1.27,0.95-2.58,1.97-3.9,1.82
	c-1.25-0.15-2.51-1.37-3.13-2.65c-1.01-2.12-0.29-4.43,0.43-6.74c-3.2,1.53-6.4,3.05-8.51,5.75c-2.29,2.94-3.29,7.27-1.87,11.01
	c0.86,2.27,2.62,4.32,4.69,4.88c1.68,0.46,3.56-0.07,5.44-0.59c-0.96,2.06-1.93,4.11-2.47,6.32c-0.88,3.57-0.67,7.55,0.91,10.88
	c1.42,2.99,3.94,5.45,7,6.83c3.56,1.61,7.86,1.74,11.39,0.1c3.05-1.41,5.54-4.14,6.7-7.18c0.9-2.38,1.01-4.94,0.89-7.56
	c-0.04-0.97-0.12-1.95-0.19-2.93c-1.39,1.22-2.79,2.44-4.5,3.6c-2.43,1.64-5.51,3.16-7.8,2.39c-2.48-0.83-4.04-4.35-4.39-7.68
	c-0.47-4.43,1.19-8.52,4.16-11c3.37-2.82,8.43-3.57,13.03-2.95c3.67,0.49,7.05,1.85,9.94,3.9c1.52,1.07,2.9,2.32,4.28,3.58
	c-1.9,0.45-3.69,0.76-5.52,1.5c-1.17,0.47-2.35,1.11-3.27,2.02c-0.91,0.87-1.56,2-2.03,3.14c-0.45,1.09-0.74,2.19-0.8,3.31
	c-0.02,0.33-0.02,0.66,0,0.99c0.05,1.11,0.25,2.22,0.47,3.33c1.32-1.54,2.65-3.09,4.44-3.52c2.04-0.49,4.69,0.47,6.15,1.99
	c3.08,3.21,0.82,8.92-1.91,13.52c-4.8,8.09-11.03,12.78-18.75,14.97c-7.02,1.98-15.27,1.91-22.19-0.94
	c-7.97-3.28-14.2-10.23-17.89-18.18C131,94.99,129.68,88.09,130.52,81.35z M125.78,61.39c-10.74,16.42-10.54,37.69,0.51,53.9
	c-16.21-11.05-37.48-11.25-53.9-0.51C86.37,93.54,104.54,75.37,125.78,61.39z M69.41,132.01c5.76-6.71,14.22-11.4,22.94-12.49
	c6.74-0.84,13.64,0.48,19.92,3.39c7.95,3.69,14.9,9.92,18.18,17.89c2.85,6.92,2.92,15.17,0.94,22.19
	c-2.19,7.72-6.88,13.95-14.97,18.75c-4.6,2.73-10.31,4.99-13.52,1.91c-1.52-1.46-2.48-4.11-1.99-6.15c0.43-1.79,1.98-3.12,3.52-4.44
	c-1.11-0.22-2.22-0.42-3.33-0.47c-0.33-0.02-0.66-0.02-0.99,0c-1.12,0.06-2.22,0.35-3.31,0.8c-1.14,0.47-2.27,1.12-3.14,2.03
	c-0.91,0.92-1.55,2.1-2.02,3.27c-0.74,1.83-1.05,3.62-1.5,5.52c-1.26-1.38-2.51-2.76-3.58-4.28c-2.05-2.89-3.41-6.27-3.9-9.94
	c-0.62-4.6,0.13-9.66,2.95-13.03c2.48-2.97,6.57-4.63,11-4.16c3.33,0.35,6.85,1.91,7.68,4.39c0.77,2.29-0.75,5.37-2.39,7.8
	c-1.16,1.71-2.38,3.11-3.6,4.5c0.98,0.07,1.96,0.15,2.93,0.19c2.62,0.12,5.18,0.01,7.56-0.89c3.04-1.16,5.77-3.65,7.18-6.7
	c1.64-3.53,1.51-7.83-0.1-11.39c-1.38-3.06-3.84-5.58-6.83-7c-3.33-1.58-7.31-1.79-10.88-0.91c-2.21,0.54-4.26,1.51-6.32,2.47
	c0.52-1.88,1.05-3.76,0.59-5.44c-0.56-2.07-2.61-3.83-4.88-4.69c-3.74-1.42-8.07-0.42-11.01,1.87c-2.7,2.11-4.22,5.31-5.75,8.51
	c2.31-0.72,4.62-1.44,6.74-0.43c1.28,0.62,2.5,1.88,2.65,3.13c0.15,1.32-0.87,2.63-1.82,3.9c-2.36,3.15-4.32,6.03-5.2,9.3
	c-1.63,6.09,0.47,13.53,4.09,19.39c3.85,6.21,9.4,10.63,15.92,13.72c6.55,3.11,14.08,4.89,20.8,3.49c5.81-1.2,11.02-4.78,16.22-8.35
	c-0.42,2.7-0.84,5.4-0.14,7.77c0.8,2.69,3.04,4.96,5.73,6.7c4.73,3.07,10.86,4.52,15.26,2.61c3.92-1.7,6.47-6.06,9.02-10.42
	c-3.15,0.53-6.29,1.05-9.37,0.35c-2.89-0.66-5.73-2.41-7.66-4.68c-3.82-4.47-4.15-10.98-4.35-16.95c-0.16-4.56-0.24-8.81-0.24-12.91
	c0-4.99,0.1-9.75-0.04-16.52c-0.03-1.79-0.09-3.71,0.99-4.33c0.69-0.4,1.83-0.27,2.75,0.1c1.37,0.55,2.24,1.64,2.91,2.8
	c2.28,3.97,2.31,8.8,3.13,13.39c1.55,8.73,5.96,16.56,11.41,23.53c4.85,6.21,10.53,11.73,17.66,15.23
	c5.27,2.59,11.33,4.08,16.76,4.06c2.36,0,4.6-0.29,7.47,0.75c1.85,0.68,3.97,1.91,3.73,3.1c-0.14,0.72-1.15,1.43-2.13,2.03
	c-3.03,1.85-5.73,2.64-8.55,3.2c-8.38,1.67-17.87,1.37-27.08,1.33c-14.94-0.07-29.18,0.55-43.95-1.08
	c-17.36-1.91-35.47-6.92-48.05-18.95c-8.03-7.68-13.81-18.22-14.93-29.38C59.49,150.99,62.5,140.05,69.41,132.01z M86.55,208.5
	c-0.81,1.14-2.69,1.45-4.37,1.37c-1.43-0.07-2.71-0.42-3.74-1.14c-1.86-1.32-2.9-3.87-4.69-5.32c-1.57-1.27-3.72-1.69-5.87-2.1
	c2.88-1.55,5.76-3.1,8.88-3.17c2.4-0.05,4.94,0.77,6.9,2.23c1.41,1.06,2.51,2.44,3.06,4.24C87.13,205.95,87.23,207.53,86.55,208.5z
	 M86.72,225.95c-0.55,1.8-1.65,3.18-3.06,4.23c-1.96,1.46-4.5,2.29-6.9,2.24c-3.12-0.07-6-1.62-8.88-3.17
	c2.15-0.41,4.3-0.83,5.87-2.1c1.79-1.45,2.83-4,4.69-5.32c1.03-0.73,2.31-1.08,3.74-1.14c1.68-0.08,3.56,0.23,4.37,1.37
	C87.23,223.03,87.13,224.6,86.72,225.95z M44.94,222.33c1.52,4.59,5.13,8.2,9.72,9.72c-4.73,9.84-7.21,20.6-7.26,31.51
	c-3.84-15.12-5.77-30.59-5.77-46.06c0-15.48,1.93-30.95,5.77-46.06c0.05,10.91,2.53,21.67,7.26,31.51
	c-6.44,2.13-10.51,8.11-10.51,14.54C44.15,219.09,44.41,220.73,44.94,222.33z M69.41,302.99c-6.91-8.04-9.92-18.98-8.89-29.38
	c1.12-11.16,6.9-21.7,14.93-29.38c12.58-12.03,30.69-17.04,48.05-18.95c14.77-1.63,29.01-1.01,43.95-1.08
	c9.21-0.04,18.7-0.34,27.08,1.33c2.82,0.56,5.52,1.35,8.55,3.2c0.98,0.6,1.99,1.31,2.13,2.03c0.24,1.19-1.88,2.42-3.73,3.1
	c-2.87,1.04-5.11,0.75-7.47,0.75c-5.43-0.02-11.49,1.47-16.76,4.06c-7.13,3.5-12.81,9.02-17.66,15.23
	c-5.45,6.97-9.86,14.8-11.41,23.53c-0.82,4.59-0.85,9.42-3.13,13.39c-0.67,1.16-1.54,2.25-2.91,2.8c-0.92,0.37-2.06,0.5-2.75,0.1
	c-1.08-0.62-1.02-2.54-0.99-4.33c0.14-6.77,0.04-11.53,0.04-16.52c0-4.1,0.08-8.35,0.24-12.91c0.2-5.97,0.53-12.48,4.35-16.95
	c1.93-2.27,4.77-4.02,7.66-4.68c3.08-0.7,6.22-0.18,9.37,0.35c-2.55-4.36-5.1-8.72-9.02-10.42c-4.4-1.91-10.53-0.46-15.26,2.61
	c-2.69,1.74-4.93,4.01-5.73,6.7c-0.7,2.37-0.28,5.07,0.14,7.77c-5.2-3.57-10.41-7.15-16.22-8.35c-6.72-1.4-14.25,0.38-20.8,3.49
	c-6.52,3.09-12.07,7.51-15.92,13.72c-3.62,5.86-5.72,13.3-4.09,19.39c0.88,3.27,2.84,6.15,5.2,9.3c0.95,1.27,1.97,2.58,1.82,3.9
	c-0.15,1.25-1.37,2.51-2.65,3.13c-2.12,1.01-4.43,0.29-6.74-0.43c1.53,3.2,3.05,6.4,5.75,8.51c2.94,2.29,7.27,3.29,11.01,1.87
	c2.27-0.86,4.32-2.62,4.88-4.69c0.46-1.68-0.07-3.56-0.59-5.44c2.06,0.96,4.11,1.93,6.32,2.47c3.57,0.88,7.55,0.67,10.88-0.91
	c2.99-1.42,5.45-3.94,6.83-7c1.61-3.56,1.74-7.86,0.1-11.39c-1.41-3.05-4.14-5.54-7.18-6.7c-2.38-0.9-4.94-1.01-7.56-0.89
	c-0.97,0.04-1.95,0.12-2.93,0.19c1.22,1.39,2.44,2.79,3.6,4.5c1.64,2.43,3.16,5.51,2.39,7.8c-0.83,2.48-4.35,4.04-7.68,4.39
	c-4.43,0.47-8.52-1.19-11-4.16c-2.82-3.37-3.57-8.43-2.95-13.03c0.49-3.67,1.85-7.05,3.9-9.94c1.07-1.52,2.32-2.9,3.58-4.28
	c0.45,1.9,0.76,3.69,1.5,5.52c0.47,1.17,1.11,2.35,2.02,3.27c0.87,0.91,2,1.56,3.14,2.03c1.09,0.45,2.19,0.74,3.31,0.8
	c0.33,0.02,0.66,0.02,0.99,0c1.11-0.05,2.22-0.25,3.33-0.47c-1.54-1.32-3.09-2.65-3.52-4.44c-0.49-2.04,0.47-4.69,1.99-6.15
	c3.21-3.08,8.92-0.82,13.52,1.91c8.09,4.8,12.78,11.03,14.97,18.75c1.98,7.02,1.91,15.27-0.94,22.19
	c-3.28,7.97-10.23,14.2-18.18,17.89c-6.28,2.91-13.18,4.23-19.92,3.39C83.63,314.39,75.17,309.7,69.41,302.99z M125.78,373.61
	c-21.24-13.98-39.41-32.15-53.39-53.39c16.42,10.74,37.69,10.54,53.9-0.51C115.24,335.92,115.04,357.19,125.78,373.61z
	 M143.01,376.59c-6.71-5.76-11.4-14.22-12.49-22.94c-0.84-6.74,0.48-13.64,3.39-19.92c3.69-7.95,9.92-14.9,17.89-18.18
	c6.92-2.85,15.17-2.92,22.19-0.94c7.72,2.19,13.95,6.88,18.75,14.97c2.73,4.6,4.99,10.31,1.91,13.52c-1.46,1.52-4.11,2.48-6.15,1.99
	c-1.79-0.43-3.12-1.98-4.44-3.52c-0.22,1.11-0.42,2.22-0.47,3.33c-0.02,0.33-0.02,0.66,0,0.99c0.06,1.12,0.35,2.22,0.8,3.31
	c0.47,1.14,1.12,2.27,2.03,3.14c0.92,0.91,2.1,1.55,3.27,2.02c1.83,0.74,3.62,1.05,5.52,1.5c-1.38,1.26-2.76,2.51-4.28,3.58
	c-2.89,2.05-6.27,3.41-9.94,3.9c-4.6,0.62-9.66-0.13-13.03-2.95c-2.97-2.48-4.63-6.57-4.16-11c0.35-3.33,1.91-6.85,4.39-7.68
	c2.29-0.77,5.37,0.75,7.8,2.39c1.71,1.16,3.11,2.38,4.5,3.6c0.07-0.98,0.15-1.96,0.19-2.93c0.12-2.62,0.01-5.18-0.89-7.56
	c-1.16-3.04-3.65-5.77-6.7-7.18c-3.53-1.64-7.83-1.51-11.39,0.1c-3.06,1.38-5.58,3.84-7,6.83c-1.58,3.33-1.79,7.31-0.91,10.88
	c0.54,2.21,1.51,4.26,2.47,6.32c-1.88-0.52-3.76-1.05-5.44-0.59c-2.07,0.56-3.83,2.61-4.69,4.88c-1.42,3.74-0.42,8.07,1.87,11.01
	c2.11,2.7,5.31,4.22,8.51,5.75c-0.72-2.31-1.44-4.62-0.43-6.74c0.62-1.28,1.88-2.5,3.13-2.65c1.32-0.15,2.63,0.87,3.9,1.82
	c3.15,2.36,6.03,4.32,9.3,5.2c6.09,1.63,13.53-0.47,19.39-4.09c6.21-3.85,10.63-9.4,13.72-15.92c3.11-6.55,4.89-14.08,3.49-20.8
	c-1.2-5.81-4.78-11.02-8.35-16.22c2.7,0.42,5.4,0.84,7.77,0.14c2.69-0.8,4.96-3.04,6.7-5.73c3.07-4.73,4.52-10.86,2.61-15.26
	c-1.7-3.92-6.06-6.47-10.42-9.02c0.53,3.15,1.05,6.29,0.35,9.37c-0.66,2.89-2.41,5.73-4.68,7.66c-4.47,3.82-10.98,4.15-16.95,4.35
	c-4.56,0.16-8.81,0.24-12.91,0.24c-4.99,0-9.75-0.1-16.52,0.04c-1.79,0.03-3.71,0.09-4.33-0.99c-0.4-0.69-0.27-1.83,0.1-2.75
	c0.55-1.37,1.64-2.24,2.8-2.91c3.97-2.28,8.8-2.31,13.39-3.13c8.73-1.55,16.56-5.96,23.53-11.41c6.21-4.85,11.73-10.53,15.23-17.66
	c2.59-5.27,4.08-11.33,4.06-16.76c0-2.36-0.29-4.6,0.75-7.47c0.68-1.85,1.91-3.97,3.1-3.73c0.72,0.14,1.43,1.15,2.03,2.13
	c1.85,3.03,2.64,5.73,3.2,8.55c1.67,8.38,1.37,17.87,1.33,27.08c-0.07,14.94,0.55,29.18-1.08,43.95
	c-1.91,17.36-6.92,35.47-18.95,48.05c-7.68,8.03-18.22,13.81-29.38,14.93C161.99,386.51,151.05,383.5,143.01,376.59z M228.47,404.37
	c-15.47,0-30.93-1.93-46.03-5.77c10.91-0.05,21.67-2.53,31.51-7.26c2.13,6.44,8.11,10.51,14.54,10.51c1.6,0,3.24-0.26,4.84-0.79
	c4.59-1.52,8.2-5.13,9.72-9.72c9.84,4.73,20.6,7.21,31.51,7.26C259.44,402.45,243.95,404.37,228.47,404.37z M326.48,353.65
	c-1.09,8.72-5.78,17.18-12.49,22.94c-8.04,6.91-18.98,9.92-29.38,8.89c-11.16-1.12-21.7-6.9-29.38-14.93
	c-12.03-12.58-17.04-30.69-18.95-48.05c-1.63-14.77-1.01-29.01-1.08-43.95c-0.04-9.21-0.34-18.7,1.33-27.08
	c0.56-2.82,1.35-5.52,3.2-8.55c0.6-0.98,1.31-1.99,2.03-2.13c1.19-0.24,2.42,1.88,3.1,3.73c1.04,2.87,0.75,5.11,0.75,7.47
	c-0.02,5.43,1.47,11.49,4.06,16.76c3.5,7.13,9.02,12.81,15.23,17.66c6.97,5.45,14.8,9.86,23.53,11.41
	c4.59,0.82,9.42,0.85,13.39,3.13c1.16,0.67,2.25,1.54,2.8,2.91c0.37,0.92,0.5,2.06,0.1,2.75c-0.62,1.08-2.54,1.02-4.33,0.99
	c-6.77-0.14-11.53-0.04-16.52-0.04c-4.1,0-8.35-0.08-12.91-0.24c-5.97-0.2-12.48-0.53-16.95-4.35c-2.27-1.93-4.02-4.77-4.68-7.66
	c-0.7-3.08-0.18-6.22,0.35-9.37c-4.36,2.55-8.72,5.1-10.42,9.02c-1.91,4.4-0.46,10.53,2.61,15.26c1.74,2.69,4.01,4.93,6.7,5.73
	c2.37,0.7,5.07,0.28,7.77-0.14c-3.57,5.2-7.15,10.41-8.35,16.22c-1.4,6.72,0.38,14.25,3.49,20.8c3.09,6.52,7.51,12.07,13.72,15.92
	c5.86,3.62,13.3,5.72,19.39,4.09c3.27-0.88,6.15-2.84,9.3-5.2c1.27-0.95,2.58-1.97,3.9-1.82c1.25,0.15,2.51,1.37,3.13,2.65
	c1.01,2.12,0.29,4.43-0.43,6.74c3.2-1.53,6.4-3.05,8.51-5.75c2.29-2.94,3.29-7.27,1.87-11.01c-0.86-2.27-2.62-4.32-4.69-4.88
	c-1.68-0.46-3.56,0.07-5.44,0.59c0.96-2.06,1.93-4.11,2.47-6.32c0.88-3.57,0.67-7.55-0.91-10.88c-1.42-2.99-3.94-5.45-7-6.83
	c-3.56-1.61-7.86-1.74-11.39-0.1c-3.05,1.41-5.54,4.14-6.7,7.18c-0.9,2.38-1.01,4.94-0.89,7.56c0.04,0.97,0.12,1.95,0.19,2.93
	c1.39-1.22,2.79-2.44,4.5-3.6c2.43-1.64,5.51-3.16,7.8-2.39c2.48,0.83,4.04,4.35,4.39,7.68c0.47,4.43-1.19,8.52-4.16,11
	c-3.37,2.82-8.43,3.57-13.03,2.95c-3.67-0.49-7.05-1.85-9.94-3.9c-1.52-1.07-2.9-2.32-4.28-3.58c1.9-0.45,3.69-0.76,5.52-1.5
	c1.17-0.47,2.35-1.11,3.27-2.02c0.91-0.87,1.56-2,2.03-3.14c0.45-1.09,0.74-2.19,0.8-3.31c0.02-0.33,0.02-0.66,0-0.99
	c-0.05-1.11-0.25-2.22-0.47-3.33c-1.32,1.54-2.65,3.09-4.44,3.52c-2.04,0.49-4.69-0.47-6.15-1.99c-3.08-3.21-0.82-8.92,1.91-13.52
	c4.8-8.09,11.03-12.78,18.75-14.97c7.02-1.98,15.27-1.91,22.19,0.94c7.97,3.28,14.2,10.23,17.89,18.18
	C326,340.01,327.32,346.91,326.48,353.65z M331.22,373.61c10.74-16.42,10.54-37.69-0.51-53.9c16.21,11.05,37.48,11.25,53.9,0.51
	C370.63,341.46,352.46,359.63,331.22,373.61z M387.59,302.99c-5.76,6.71-14.22,11.4-22.94,12.49c-6.74,0.84-13.64-0.48-19.92-3.39
	c-7.95-3.69-14.9-9.92-18.18-17.89c-2.85-6.92-2.92-15.17-0.94-22.19c2.19-7.72,6.88-13.95,14.97-18.75
	c4.6-2.73,10.31-4.99,13.52-1.91c1.52,1.46,2.48,4.11,1.99,6.15c-0.43,1.79-1.98,3.12-3.52,4.44c1.11,0.22,2.22,0.42,3.33,0.47
	c0.33,0.02,0.66,0.02,0.99,0c1.12-0.06,2.22-0.35,3.31-0.8c1.14-0.47,2.27-1.12,3.14-2.03c0.91-0.92,1.55-2.1,2.02-3.27
	c0.74-1.83,1.05-3.62,1.5-5.52c1.26,1.38,2.51,2.76,3.58,4.28c2.05,2.89,3.41,6.27,3.9,9.94c0.62,4.6-0.13,9.66-2.95,13.03
	c-2.48,2.97-6.57,4.63-11,4.16c-3.33-0.35-6.85-1.91-7.68-4.39c-0.77-2.29,0.75-5.37,2.39-7.8c1.16-1.71,2.38-3.11,3.6-4.5
	c-0.98-0.07-1.96-0.15-2.93-0.19c-2.62-0.12-5.18-0.01-7.56,0.89c-3.04,1.16-5.77,3.65-7.18,6.7c-1.64,3.53-1.51,7.83,0.1,11.39
	c1.38,3.06,3.84,5.58,6.83,7c3.33,1.58,7.31,1.79,10.88,0.91c2.21-0.54,4.26-1.51,6.32-2.47c-0.52,1.88-1.05,3.76-0.59,5.44
	c0.56,2.07,2.61,3.83,4.88,4.69c3.74,1.42,8.07,0.42,11.01-1.87c2.7-2.11,4.22-5.31,5.75-8.51c-2.31,0.72-4.62,1.44-6.74,0.43
	c-1.28-0.62-2.5-1.88-2.65-3.13c-0.15-1.32,0.87-2.63,1.82-3.9c2.36-3.15,4.32-6.03,5.2-9.3c1.63-6.09-0.47-13.53-4.09-19.39
	c-3.85-6.21-9.4-10.63-15.92-13.72c-6.55-3.11-14.08-4.89-20.8-3.49c-5.81,1.2-11.02,4.78-16.22,8.35c0.42-2.7,0.84-5.4,0.14-7.77
	c-0.8-2.69-3.04-4.96-5.73-6.7c-4.73-3.07-10.86-4.52-15.26-2.61c-3.92,1.7-6.47,6.06-9.02,10.42c3.15-0.53,6.29-1.05,9.37-0.35
	c2.89,0.66,5.73,2.41,7.66,4.68c3.82,4.47,4.15,10.98,4.35,16.95c0.16,4.56,0.24,8.81,0.24,12.91c0,4.99-0.1,9.75,0.04,16.52
	c0.03,1.79,0.09,3.71-0.99,4.33c-0.69,0.4-1.83,0.27-2.75-0.1c-1.37-0.55-2.24-1.64-2.91-2.8c-2.28-3.97-2.31-8.8-3.13-13.39
	c-1.55-8.73-5.96-16.56-11.41-23.53c-4.85-6.21-10.53-11.73-17.66-15.23c-5.27-2.59-11.33-4.08-16.76-4.06
	c-2.36,0-4.6,0.29-7.47-0.75c-1.85-0.68-3.97-1.91-3.73-3.1c0.14-0.72,1.15-1.43,2.13-2.03c3.03-1.85,5.73-2.64,8.55-3.2
	c8.38-1.67,17.87-1.37,27.08-1.33c14.94,0.07,29.18-0.55,43.95,1.08c17.36,1.91,35.47,6.92,48.05,18.95
	c8.03,7.68,13.81,18.22,14.93,29.38C397.51,284.01,394.5,294.95,387.59,302.99z M370.45,222.06c0.81-1.14,2.69-1.45,4.37-1.37
	c1.43,0.06,2.71,0.41,3.74,1.14c1.86,1.32,2.9,3.87,4.69,5.32c1.57,1.27,3.72,1.69,5.87,2.1c-2.88,1.55-5.76,3.1-8.88,3.17
	c-2.4,0.05-4.94-0.78-6.9-2.24c-1.41-1.05-2.51-2.43-3.06-4.23C369.87,224.6,369.77,223.03,370.45,222.06z M370.28,204.61
	c0.55-1.8,1.65-3.18,3.06-4.24c1.96-1.46,4.5-2.28,6.9-2.23c3.12,0.07,6,1.62,8.88,3.17c-2.15,0.41-4.3,0.83-5.87,2.1
	c-1.79,1.45-2.83,4-4.69,5.32c-1.03,0.72-2.31,1.07-3.74,1.14c-1.68,0.08-3.56-0.23-4.37-1.37
	C369.77,207.53,369.87,205.95,370.28,204.61z M396.48,161.39c-1.12,11.16-6.9,21.7-14.93,29.38
	c-12.58,12.03-30.69,17.04-48.05,18.95c-14.77,1.63-29.01,1.01-43.95,1.08c-9.21,0.04-18.7,0.34-27.08-1.33
	c-2.82-0.56-5.52-1.35-8.55-3.2c-0.98-0.6-1.99-1.31-2.13-2.03c-0.24-1.19,1.88-2.42,3.73-3.1c2.87-1.04,5.11-0.75,7.47-0.75
	c5.43,0.02,11.49-1.47,16.76-4.06c7.13-3.5,12.81-9.02,17.66-15.23c5.45-6.97,9.86-14.8,11.41-23.53c0.82-4.59,0.85-9.42,3.13-13.39
	c0.67-1.16,1.54-2.25,2.91-2.8c0.92-0.37,2.06-0.5,2.75-0.1c1.08,0.62,1.02,2.54,0.99,4.33c-0.14,6.77-0.04,11.53-0.04,16.52
	c0,4.1-0.08,8.35-0.24,12.91c-0.2,5.97-0.53,12.48-4.35,16.95c-1.93,2.27-4.77,4.02-7.66,4.68c-3.08,0.7-6.22,0.18-9.37-0.35
	c2.55,4.36,5.1,8.72,9.02,10.42c4.4,1.91,10.53,0.46,15.26-2.61c2.69-1.74,4.93-4.01,5.73-6.7c0.7-2.37,0.28-5.07-0.14-7.77
	c5.2,3.57,10.41,7.15,16.22,8.35c6.72,1.4,14.25-0.38,20.8-3.49c6.52-3.09,12.07-7.51,15.92-13.72c3.62-5.86,5.72-13.3,4.09-19.39
	c-0.88-3.27-2.84-6.15-5.2-9.3c-0.95-1.27-1.97-2.58-1.82-3.9c0.15-1.25,1.37-2.51,2.65-3.13c2.12-1.01,4.43-0.29,6.74,0.43
	c-1.53-3.2-3.05-6.4-5.75-8.51c-2.94-2.29-7.27-3.29-11.01-1.87c-2.27,0.86-4.32,2.62-4.88,4.69c-0.46,1.68,0.07,3.56,0.59,5.44
	c-2.06-0.96-4.11-1.93-6.32-2.47c-3.57-0.88-7.55-0.67-10.88,0.91c-2.99,1.42-5.45,3.94-6.83,7c-1.61,3.56-1.74,7.86-0.1,11.39
	c1.41,3.05,4.14,5.54,7.18,6.7c2.38,0.9,4.94,1.01,7.56,0.89c0.97-0.04,1.95-0.12,2.93-0.19c-1.22-1.39-2.44-2.79-3.6-4.5
	c-1.64-2.43-3.16-5.51-2.39-7.8c0.83-2.48,4.35-4.04,7.68-4.39c4.43-0.47,8.52,1.19,11,4.16c2.82,3.37,3.57,8.43,2.95,13.03
	c-0.49,3.67-1.85,7.05-3.9,9.94c-1.07,1.52-2.32,2.9-3.58,4.28c-0.45-1.9-0.76-3.69-1.5-5.52c-0.47-1.17-1.11-2.35-2.02-3.27
	c-0.87-0.91-2-1.56-3.14-2.03c-1.09-0.45-2.19-0.74-3.31-0.8c-0.33-0.02-0.66-0.02-0.99,0c-1.11,0.05-2.22,0.25-3.33,0.47
	c1.54,1.32,3.09,2.65,3.52,4.44c0.49,2.04-0.47,4.69-1.99,6.15c-3.21,3.08-8.92,0.82-13.52-1.91c-8.09-4.8-12.78-11.03-14.97-18.75
	c-1.98-7.02-1.91-15.27,0.94-22.19c3.28-7.97,10.23-14.2,18.18-17.89c6.28-2.91,13.18-4.23,19.92-3.39
	c8.72,1.09,17.18,5.78,22.94,12.49C394.5,140.05,397.51,150.99,396.48,161.39z M402.34,232.05c6.44-2.13,10.51-8.11,10.51-14.54
	c0-1.6-0.26-3.24-0.79-4.84c-1.52-4.59-5.13-8.2-9.72-9.72c4.73-9.84,7.21-20.6,7.26-31.51c3.84,15.12,5.77,30.59,5.77,46.06
	c0,15.48-1.93,30.95-5.77,46.06C409.55,252.65,407.07,241.89,402.34,232.05z"/>
<text transform="matrix(1 0 0 1 155 449)" font-family="'MyriadPro-Regular'" font-size="17px">freepaternsarea.com</text>
</svg>
