<?xml version="1.0" encoding="UTF-8" standalone="no"?>
<!-- Created with Inkscape (http://www.inkscape.org/) -->

<svg
   xmlns:dc="http://purl.org/dc/elements/1.1/"
   xmlns:cc="http://creativecommons.org/ns#"
   xmlns:rdf="http://www.w3.org/1999/02/22-rdf-syntax-ns#"
   xmlns:svg="http://www.w3.org/2000/svg"
   xmlns="http://www.w3.org/2000/svg"
   xmlns:sodipodi="http://sodipodi.sourceforge.net/DTD/sodipodi-0.dtd"
   xmlns:inkscape="http://www.inkscape.org/namespaces/inkscape"
   width="350mm"
   height="210mm"
   viewBox="0 0 350 210"
   version="1.1"
   id="svg8"
   inkscape:version="0.92.2 (5c3e80d, 2017-08-06)"
   sodipodi:docname="optical_illusion.svg">
  <sodipodi:namedview
     id="base"
     pagecolor="#ffffff"
     bordercolor="#666666"
     borderopacity="1.0"
     inkscape:pageopacity="0.0"
     inkscape:pageshadow="2"
     inkscape:zoom="0.49497475"
     inkscape:cx="473.9219"
     inkscape:cy="480.13686"
     inkscape:document-units="mm"
     inkscape:current-layer="layer1"
     showgrid="false"
     inkscape:window-width="1920"
     inkscape:window-height="986"
     inkscape:window-x="-11"
     inkscape:window-y="-11"
     inkscape:window-maximized="1" />
  <defs
     id="defs2" />
  <metadata
     id="metadata5">
    <rdf:RDF>
      <cc:Work
         rdf:about="">
        <dc:format>image/svg+xml</dc:format>
        <dc:type
           rdf:resource="http://purl.org/dc/dcmitype/StillImage" />
        <dc:title></dc:title>
      </cc:Work>
    </rdf:RDF>
  </metadata>
  <g
     transform="translate(0,-87)"
     id="layer1"
     inkscape:groupmode="layer"
     inkscape:label="Layer 1">
    <path
       style="fill:#000000;stroke-width:0.24062665"
       d="m 23.595995,218.42449 c 0.44787,-0.88819 0.811579,-1.20877 2.105479,-1.85594 1.82886,-0.91472 4.561054,-1.3639 7.409758,-1.21818 1.630562,0.0834 2.014097,0.19792 3.177818,0.94884 4.969635,3.20677 9.297887,3.35007 17.325119,0.57362 1.744517,-0.60339 2.021337,-0.62644 8.301615,-0.69132 3.573304,-0.0369 8.657722,-0.20792 11.298697,-0.38004 3.896982,-0.25396 5.506599,-0.25568 8.542251,-0.009 4.169624,0.33862 4.221727,0.33866 7.590494,0.005 1.323448,-0.13119 3.739479,-0.35678 5.368959,-0.5013 1.62947,-0.14453 3.416122,-0.42597 3.970335,-0.62543 1.70316,-0.61298 6.30747,-1.03379 11.39735,-1.04165 5.06448,-0.008 8.1406,0.27579 9.25794,0.85359 0.49286,0.25487 0.70169,0.26958 0.83206,0.0587 0.0957,-0.15489 0.18833,-1.53508 0.20579,-3.0671 0.0356,-3.12952 0.37344,-4.26691 1.48275,-4.99256 0.58207,-0.38076 1.20964,-0.44056 4.67426,-0.44533 l 4.0019,-0.005 1.52561,-1.3806 c 0.96055,-0.86925 1.88623,-1.4777 2.49922,-1.64277 0.93704,-0.25231 3.23278,-0.17474 4.92103,0.1663 0.73978,0.14943 0.88565,0.074 1.71072,-0.88391 0.82046,-0.95263 0.9896,-1.04094 1.87158,-0.97726 1.85486,0.13392 4.3759,-0.87391 7.44818,-2.97755 0.9878,-0.67636 1.83535,-1.07605 2.28181,-1.07605 h 0.71029 l -0.48927,0.68711 c -1.18539,1.66473 -4.33562,4.20191 -7.6045,6.12462 -1.85282,1.0898 -3.68907,2.08843 -4.08055,2.21918 -0.80789,0.2698 -1.88075,1.70917 -2.2886,3.07042 -0.16909,0.56439 -0.47615,0.98998 -0.8024,1.11218 -0.694,0.25991 -4.26252,-0.4704 -5.76875,-1.1806 l -1.14958,-0.54205 -1.81796,0.79265 c -2.45806,1.07173 -2.98135,1.51322 -2.98135,2.51531 0,0.9083 0.4656,1.48127 1.5831,1.94819 0.61014,0.25493 1.32369,0.26511 3.61894,0.0516 1.57242,-0.14625 3.17644,-0.26458 3.56448,-0.26297 0.82662,0.004 1.63933,0.85889 1.53167,1.61223 -0.0778,0.54444 -0.39991,0.58047 -2.36352,0.26442 -1.05529,-0.16985 -1.12787,-0.14016 -2.35611,0.96414 -1.1618,1.04455 -1.96916,2.16005 -1.96916,2.7207 0,0.39287 1.46514,1.67287 2.0408,1.78292 0.30514,0.0583 1.82813,0.014 3.38441,-0.0985 l 2.8296,-0.20458 1.28305,0.7241 c 1.81016,1.02159 1.76899,1.0287 5.29689,-0.91511 0.77439,-0.42667 1.49717,-0.15194 1.66427,0.63259 0.37161,1.74474 0.27544,1.69747 3.40006,1.67118 2.47082,-0.0208 2.97188,0.0439 3.85322,0.49797 1.21322,0.62496 1.68653,0.64361 3.31397,0.13061 1.23454,-0.38915 1.24657,-0.38787 2.24217,0.24063 0.90732,0.57277 1.22089,0.6311 3.35185,0.62349 3.82143,-0.0136 6.24098,-0.60158 11.25408,-2.73464 1.57498,-0.67015 3.4298,-0.80657 5.008,-0.36832 0.72836,0.20225 1.15941,0.58619 2.09225,1.86352 1.16759,1.59878 1.93014,2.15755 3.67886,2.69573 0.64014,0.19702 1.09098,0.5624 1.50694,1.22131 0.54837,0.86869 0.67686,0.94019 1.68953,0.94019 0.97029,0 1.07924,0.0528 0.94976,0.4608 -0.0986,0.31056 0.0206,0.57766 0.36548,0.81922 0.42584,0.29828 0.46663,0.44271 0.24305,0.86048 -0.20773,0.38816 -0.18515,0.66358 0.0995,1.21415 0.20254,0.39166 0.36825,0.93404 0.36825,1.20531 0,0.27798 0.1575,0.4932 0.36094,0.4932 0.19852,0 0.36094,0.10828 0.36094,0.24063 0,0.13234 -0.32752,0.24062 -0.72784,0.24062 -0.55988,0 -0.78198,0.14244 -0.9625,0.61724 -0.33293,0.87568 -0.29122,1.30778 0.12627,1.30778 0.53838,0 0.43591,0.36977 -0.18047,0.65124 -0.29778,0.13598 -0.99532,0.62681 -1.5501,1.09074 -0.74171,0.62026 -1.16919,0.81284 -1.61509,0.7276 -0.57242,-0.10943 -0.6018,-0.0647 -0.52433,0.79863 0.0655,0.72978 0.29052,1.09231 1.11378,1.79432 0.9264,0.78996 1.03158,0.98791 1.03044,1.93911 -0.002,1.34072 -1.05341,5.14067 -2.31093,8.34896 l -0.97091,2.47706 0.57858,0.77139 c 0.52492,0.69986 0.56895,0.94992 0.47467,2.69641 -0.19328,3.5811 -0.1287,4.2647 0.52351,5.54175 0.6755,1.32263 1.35721,1.81266 2.46834,1.7743 0.39704,-0.0137 1.566,0.0727 2.59771,0.19197 1.80774,0.20903 1.87446,0.19898 1.83822,-0.27679 -0.0207,-0.27153 -0.0249,-0.65611 -0.009,-0.85463 0.0288,-0.36812 3.86767,-4.57191 4.17502,-4.57191 0.0929,0 0.33015,0.29778 0.52722,0.66172 0.70643,1.30464 0.7053,1.30393 1.53917,0.95331 l 0.76633,-0.32222 -1.40564,-1.30812 -1.40564,-1.30813 -0.64307,-3.38512 c -0.92602,-4.87465 -1.10635,-6.54697 -1.11469,-10.33763 -0.007,-3.35583 -9.1e-4,-3.39565 1.0785,-6.72682 0.59726,-1.84306 1.35523,-3.89144 1.68438,-4.55196 0.74013,-1.48523 0.75324,-2.29934 0.057,-3.54011 l -0.5414,-0.96492 1.14493,-1.00777 c 0.62971,-0.55427 1.14643,-1.17019 1.14827,-1.3687 0.002,-0.19852 0.20688,-0.80924 0.45568,-1.35716 0.33973,-0.74814 0.65914,-1.06445 1.28278,-1.27027 0.45673,-0.15073 1.07528,-0.5347 1.37456,-0.85327 1.08754,-1.15763 3.91791,-5.56896 4.21125,-6.56352 0.1668,-0.56557 -0.20697,-0.834 -1.55648,-1.11782 -0.33086,-0.0696 -0.8172,-0.28424 -1.08076,-0.47701 -0.47807,-0.34966 -0.47804,-0.35295 0.0145,-1.39405 0.60312,-1.27493 0.51655,-1.78437 -0.38223,-2.24915 -0.89026,-0.46038 -1.7415,-0.12822 -3.55207,1.38605 -0.43516,0.36396 -0.92439,0.66173 -1.08718,0.66173 -0.3442,0 -1.8457,0.76495 -3.05605,1.55691 -0.69699,0.45606 -1.03838,0.52493 -1.9801,0.39943 l -1.13791,-0.15164 1.37853,-1.4821 c 0.7582,-0.81516 1.95458,-2.08898 2.65862,-2.83071 0.93055,-0.98037 1.25979,-1.50336 1.2058,-1.91539 -0.0587,-0.44742 0.62205,-1.2863 3.23153,-3.98256 3.27546,-3.38441 4.06142,-4.34715 3.54893,-4.34715 -0.14044,0 -1.25414,0.52492 -2.47489,1.16649 -1.22076,0.64158 -3.41065,1.79384 -4.86644,2.56059 -2.95476,1.55624 -5.83073,3.32881 -7.82037,4.81999 -0.72789,0.54554 -1.94312,1.34237 -2.7005,1.77073 -0.75738,0.42836 -1.62363,1.08241 -1.92501,1.45343 -0.36022,0.44347 -0.95137,0.77263 -1.72539,0.96074 -1.38373,0.33629 -3.19696,1.51352 -3.56066,2.31177 -0.30703,0.67386 -3.53002,2.16966 -5.42433,2.51744 -0.69257,0.12715 -2.53336,0.29781 -4.09065,0.37923 l -2.83143,0.14805 -1.32345,-0.89772 c -1.55284,-1.05332 -3.86783,-2.13832 -5.03737,-2.36093 -1.11917,-0.21302 -1.70017,-0.79377 -1.70017,-1.69941 0,-0.71302 -0.51492,-1.73336 -1.06887,-2.11805 -0.43428,-0.30157 -1.74523,-0.20162 -2.04176,0.15568 -0.19399,0.23374 -0.23169,0.8954 -0.12077,2.11945 0.19302,2.13004 0.0157,2.39854 -1.87295,2.83678 -0.69975,0.16237 -2.08437,0.64539 -3.07695,1.07339 -0.99259,0.428 -2.3816,0.96811 -3.08669,1.20025 -1.18752,0.39098 -1.35608,0.39379 -2.28728,0.0382 -1.07382,-0.41009 -3.36311,-2.57844 -4.22147,-3.99846 -0.60566,-1.00194 -0.63532,-1.56842 -0.14375,-2.74491 0.31658,-0.75768 0.67275,-1.02849 2.58673,-1.9668 1.22078,-0.59848 2.32248,-1.19083 2.4482,-1.31636 0.12573,-0.12552 0.61597,-0.22822 1.08944,-0.22822 0.47346,0 1.07653,-0.15107 1.34014,-0.33572 0.26362,-0.18464 1.74,-0.83433 3.28085,-1.44376 2.21225,-0.87496 3.10002,-1.10804 4.22047,-1.10804 1.64138,0 2.21755,-0.32652 2.60458,-1.47604 0.22397,-0.66515 0.19213,-1.03538 -0.18012,-2.09448 -0.2487,-0.70759 -0.53888,-2.22621 -0.64486,-3.37471 -0.10598,-1.14851 -0.32122,-2.32835 -0.4783,-2.62188 -0.18803,-0.35132 -0.23195,-1.05754 -0.12854,-2.06683 0.19879,-1.94043 -0.12445,-2.94785 -1.4798,-4.61184 -2.48125,-3.0463 -3.23443,-5.39047 -3.23494,-10.06821 -2.3e-4,-2.49997 0.0256,-2.6326 0.60129,-3.08545 0.33086,-0.26026 0.60157,-0.66154 0.60157,-0.89173 0,-0.23019 0.30279,-0.6424 0.67288,-0.91602 0.37009,-0.27362 1.01207,-1.13386 1.42663,-1.91165 0.65969,-1.23771 1.0211,-1.58604 2.89664,-2.79184 1.1786,-0.75773 2.53185,-1.5402 3.00721,-1.73883 1.38369,-0.57814 3.2631,-0.68447 4.74984,-0.26873 0.7279,0.20353 3.48909,0.92569 6.13599,1.60478 5.15057,1.32144 7.5278,2.32722 11.91101,5.03941 1.12493,0.69607 2.38958,1.4726 2.81033,1.72562 0.69231,0.41632 2.44153,1.22034 7.77725,3.57476 4.09001,1.80473 11.07864,7.0436 11.46855,8.59712 0.0881,0.35128 0.37929,1.00986 0.64694,1.46349 0.34028,0.57671 0.53281,1.46479 0.64012,2.95257 0.0844,1.17026 0.21008,2.18435 0.27926,2.25353 0.12885,0.12886 3.52207,-0.91255 4.43909,-1.3624 0.90202,-0.44248 1.39176,-0.15869 1.73012,1.00261 0.4577,1.57088 0.58734,1.75613 1.572,2.24614 0.88896,0.4424 0.89589,0.44182 2.72239,-0.22433 1.58912,-0.57959 1.93889,-0.81781 2.64612,-1.80222 0.44821,-0.62389 1.07438,-1.19946 1.39147,-1.27905 1.17303,-0.2944 7.23673,0.51422 8.43762,1.1252 0.70184,0.35708 0.83441,0.65096 0.83851,1.85878 0.002,0.59643 0.10384,1.43361 0.22624,1.86042 0.27208,0.94867 2.05985,3.11475 2.9512,3.57568 0.74333,0.3844 1.78463,0.44475 1.98828,0.11524 0.0755,-0.12216 0.45633,-0.29219 0.84631,-0.37784 0.80094,-0.17592 1.9346,-1.35825 2.65352,-2.76746 0.66794,-1.30925 1.32231,-1.63028 2.1157,-1.03793 0.33613,0.25096 0.76348,0.88463 0.94966,1.40816 0.31485,0.88532 0.29192,1.09961 -0.32808,3.06536 -0.63532,2.01431 -0.65353,2.2031 -0.38832,4.02277 0.32183,2.20805 0.61299,2.84944 2.15036,4.73691 0.96293,1.18221 1.17074,1.63624 1.4615,3.19318 0.18643,0.99825 0.41224,2.58544 0.5018,3.52709 0.0896,0.94166 0.32357,1.90663 0.52002,2.1444 0.19644,0.23776 0.93053,0.68628 1.63131,0.99672 1.17683,0.52131 1.32853,0.68562 1.98604,2.15107 0.51968,1.15828 1.10741,1.95218 2.17694,2.94056 1.73763,1.6058 1.94954,1.97838 2.63351,4.63006 0.45781,1.77488 0.508,2.46432 0.40167,5.51743 -0.12571,3.60985 -0.3559,4.73618 -2.21244,10.82586 -0.75762,2.48511 -1.38364,5.94177 -1.18781,6.55875 0.0876,0.27583 -0.2164,1.17445 -0.77861,2.30196 -0.86624,1.7373 -0.92185,1.9809 -0.9164,4.01515 0.005,1.59186 0.11695,2.37247 0.42533,2.9463 0.37604,0.69973 0.47093,0.74962 0.91533,0.48125 0.27269,-0.16467 0.71597,-0.73253 0.98507,-1.26191 0.67297,-1.32387 1.13895,-1.8047 1.74893,-1.8047 0.55197,0 1.46793,0.85677 2.18664,2.04533 1.07042,1.7702 2.03287,2.25076 2.85706,1.42657 0.51507,-0.51507 0.47897,-1.10247 -0.20598,-3.35159 -0.32244,-1.05875 -0.80936,-2.69705 -1.08204,-3.64067 -0.35683,-1.23475 -0.66493,-1.82648 -1.09921,-2.11103 -0.7716,-0.50557 -0.77057,-1.22617 0.003,-1.73268 0.55922,-0.36642 0.71209,-0.36734 1.98518,-0.012 1.29967,0.36273 1.48345,0.35794 3.18398,-0.083 0.99259,-0.25738 2.45439,-0.54212 3.24847,-0.63274 1.76928,-0.20192 2.76291,-0.60227 4.17962,-1.684 0.97215,-0.74229 1.03506,-0.84598 0.58482,-0.96372 -0.29867,-0.0781 -0.47804,-0.29493 -0.43959,-0.53137 0.0357,-0.21969 -0.0333,-0.52338 -0.15323,-0.67489 -0.11999,-0.1515 -0.1873,-0.4222 -0.14957,-0.60157 0.0431,-0.20495 -0.19958,-0.35533 -0.65328,-0.40478 -1.0426,-0.11362 -1.35317,-0.52289 -0.39678,-0.52289 0.67595,0 0.83331,-0.12215 1.15777,-0.89868 0.42422,-1.01531 0.297,-3.15051 -0.20626,-3.46155 -0.62403,-0.38567 0.0507,-0.48562 0.78969,-0.11696 0.76506,0.38166 0.78366,0.37669 1.8436,-0.49184 0.73905,-0.60561 1.1252,-0.78927 1.24655,-0.59292 0.0967,0.15645 0.35665,0.21506 0.57767,0.13026 0.2411,-0.0925 0.40186,-0.0358 0.40186,0.14162 0,0.23237 0.0774,0.23158 0.36094,-0.004 0.2967,-0.24623 0.36094,-0.22693 0.36094,0.1085 0,0.25989 0.15289,0.37783 0.42109,0.32484 0.23919,-0.0473 0.53082,0.12702 0.67508,0.40345 0.13969,0.26766 0.42271,0.45823 0.62893,0.42349 0.28039,-0.0472 0.34581,0.0893 0.25938,0.54141 -0.0876,0.45822 -0.0143,0.60458 0.30289,0.60458 0.34467,0 0.36563,0.0637 0.11889,0.36094 -0.21778,0.26241 -0.2281,0.44703 -0.0378,0.67632 0.1935,0.23316 0.11027,0.68799 -0.31924,1.74455 -0.31954,0.78603 -0.50527,1.50161 -0.41275,1.59015 0.16431,0.15727 2.77123,0.69083 3.28042,0.67142 0.14112,-0.005 -0.0801,-0.30315 -0.49159,-0.66172 -1.19471,-1.04105 -1.37611,-1.56949 -0.79314,-2.31062 0.3539,-0.44989 0.71833,-0.62728 1.2887,-0.62728 0.87847,0 1.32701,0.39078 1.42713,1.24332 0.0363,0.30876 0.15733,0.76912 0.26904,1.02301 0.13415,0.30487 0.0738,0.68703 -0.17783,1.1254 -0.3238,0.56416 -0.32967,0.68345 -0.0392,0.79491 0.18796,0.0721 0.61856,0.0259 0.95688,-0.10273 1.04754,-0.39828 1.90215,-0.26363 3.4795,0.54816 1.30284,0.67051 1.7381,0.77483 3.05223,0.73155 1.41455,-0.0466 1.61676,0.0137 2.62336,0.78204 1.18401,0.90378 1.77568,1.05243 1.77568,0.44616 0,-0.2125 0.24363,-0.68526 0.54141,-1.05059 0.29777,-0.36532 0.67159,-0.86822 0.83072,-1.11756 0.27894,-0.43707 0.30503,-0.43369 0.72765,0.0943 0.33756,0.42178 0.5038,0.4822 0.72314,0.26286 0.21935,-0.21934 0.36377,-0.2193 0.62825,2e-4 0.27927,0.23178 0.37241,0.16959 0.49851,-0.33285 0.0853,-0.33984 0.26058,-0.55268 0.38953,-0.47298 0.12895,0.0797 0.16783,0.41036 0.0864,0.7348 -0.20304,0.80895 0.11361,2.74939 0.44865,2.74939 0.15008,0 0.5495,-0.25721 0.8876,-0.57155 0.33811,-0.31435 0.93959,-0.67539 1.33662,-0.80231 0.72081,-0.23043 0.72192,-0.23365 0.74646,-2.183 0.0279,-2.21713 0.49402,-4.73729 0.94542,-5.11192 0.2264,-0.1879 0.6013,0.0618 1.47159,0.97984 0.6423,0.67758 1.26121,1.39757 1.37537,1.59998 0.53061,0.94076 -0.3768,2.83454 -2.18363,4.55733 -0.84205,0.80288 -0.92961,1.13608 -0.55646,2.11752 0.27376,0.72007 1.02041,0.81244 2.08392,0.25778 1.03734,-0.54101 2.1856,-0.47359 2.38026,0.13975 0.46087,1.45206 -0.48297,2.75939 -2.19245,3.0368 -0.76098,0.12349 -0.91857,0.31546 -2.07634,2.52935 -1.23776,2.36686 -1.81782,3.04558 -3.28727,3.84633 -0.45088,0.24571 -0.7522,0.60059 -0.7522,0.88591 0,0.73752 -2.57885,4.37394 -3.82036,5.38707 -1.50171,1.22547 -3.05039,1.69762 -5.68439,1.73303 -1.33881,0.018 -2.71199,0.19725 -3.59665,0.46952 -1.96952,0.60614 -2.89718,0.35829 -3.8216,-1.02102 -0.91018,-1.35806 -1.47755,-1.55741 -3.17462,-1.11538 -2.09756,0.54635 -2.97713,1.35596 -2.18623,2.01235 0.18428,0.15295 0.46428,0.59004 0.62221,0.97134 0.40262,0.972 1.2204,1.21346 3.89608,1.15035 2.02198,-0.0477 2.41355,0.01 2.98923,0.43846 0.96336,0.7174 1.23228,1.22352 0.92053,1.73246 -0.39708,0.64825 -4.36549,3.3638 -6.11621,4.18527 -0.86024,0.40364 -2.32204,1.1031 -3.24846,1.55435 -0.92641,0.45126 -2.32797,0.93744 -3.11457,1.0804 -0.78661,0.14296 -1.97771,0.45995 -2.64689,0.70442 -0.6692,0.24448 -2.08296,0.57082 -3.14172,0.72522 -1.05876,0.1544 -2.57233,0.54301 -3.3635,0.86358 -1.565,0.63413 -3.20833,0.96581 -9.26941,1.87083 -6.28792,0.93889 -11.22639,0.84825 -23.46109,-0.43059 -1.72048,-0.17985 -5.02309,-0.34197 -7.33911,-0.36029 -4.83247,-0.0382 -9.76349,-0.39793 -12.03134,-0.87765 -0.86023,-0.18197 -2.97173,-0.71823 -4.69221,-1.19169 -1.72049,-0.47346 -4.62221,-1.24231 -6.44828,-1.70854 -1.82606,-0.46623 -3.82929,-1.07008 -4.45159,-1.34187 -1.54902,-0.67654 -3.22727,-0.66118 -4.86118,0.0445 -0.7279,0.31438 -1.37759,0.63144 -1.44376,0.70458 -0.0662,0.0731 -0.60075,0.29541 -1.18794,0.49393 -0.85161,0.2879 -1.10645,0.507 -1.25948,1.08282 -0.29931,1.12621 -0.0161,1.56447 1.44225,2.23214 1.73265,0.79323 1.23834,0.96648 -0.90236,0.31626 -2.91163,-0.88438 -3.83694,-0.54399 -3.49377,1.28523 0.13654,0.72786 0.0908,0.82912 -0.41083,0.90929 -0.31046,0.0496 -0.97054,-0.045 -1.46683,-0.2102 -0.5733,-0.19086 -0.90235,-0.21137 -0.90235,-0.0563 0,0.13429 -0.10367,0.18008 -0.23038,0.10178 -0.27281,-0.16862 -0.84611,0.87783 -1.0826,1.97607 -0.16893,0.78447 -0.52013,1.19753 -0.78933,0.92833 -0.0799,-0.0799 -0.20805,-0.87578 -0.28477,-1.76863 -0.16001,-1.86205 0.0368,-1.7838 -2.95138,-1.17313 -1.01715,0.20786 -2.54359,0.70593 -3.39208,1.10683 -1.69094,0.79893 -2.09955,0.88246 -2.09398,0.42811 0.006,-0.51054 0.31805,-0.81783 1.37188,-1.35207 1.26769,-0.64266 1.45464,-1.0059 1.41966,-2.75827 l -0.028,-1.40329 -1.92501,-0.71357 c -3.9923,-1.47985 -6.2894,-2.8666 -7.71208,-4.65573 -0.39042,-0.49098 -1.16521,-1.37923 -1.72175,-1.97388 l -1.01192,-1.08119 -7.28971,0.16706 c -9.52175,0.2182 -14.09563,-0.2588 -17.48091,-1.82303 -0.84074,-0.38849 -1.62683,-0.64564 -1.74686,-0.57147 -0.12003,0.0742 -0.50249,-0.0888 -0.84992,-0.36201 -0.76234,-0.59966 -0.99949,-0.61543 -1.56452,-0.10409 -0.40535,0.36684 -0.47867,0.34696 -1.10908,-0.30078 -0.37128,-0.38147 -0.88757,-0.8132 -1.14732,-0.95939 -0.38281,-0.21545 -0.41669,-0.33277 -0.17888,-0.61932 0.31119,-0.37496 4.9e-4,-0.919 -0.52531,-0.92012 -0.14547,-2.3e-4 -0.26403,-0.61565 -0.27946,-1.45051 -0.0147,-0.79749 -0.0912,-1.51435 -0.16986,-1.59302 -0.0787,-0.0787 -0.93288,-0.0465 -1.89822,0.0715 -2.23498,0.27323 -2.6816,0.19262 -2.51264,-0.4535 0.12621,-0.48259 0.0666,-0.49122 -2.44409,-0.3539 -1.4154,0.0774 -3.11486,0.25416 -3.77659,0.39276 -2.56655,0.53755 -5.90272,0.98094 -7.38095,0.98094 -1.68555,0 -2.24208,-0.29188 -1.87266,-0.98216 0.41619,-0.77767 2.61322,-1.00442 10.21612,-1.05435 6.05071,-0.0397 7.33561,-0.10895 7.94068,-0.42773 2.12572,-1.11991 2.91903,-3.35431 2.13659,-6.01785 -0.068,-0.2316 -0.32657,-0.42109 -0.57454,-0.42109 -0.54711,0 -0.84047,-0.39248 -0.42057,-0.5627 0.22869,-0.0927 0.21441,-0.18469 -0.0587,-0.37781 -0.50552,-0.35751 -3.88804,-0.32102 -9.38444,0.10125 -8.56159,0.65776 -11.30745,1.03164 -21.3931,2.91292 -4.857818,0.90614 -5.869623,0.82084 -6.493018,-0.54735 -0.575931,-1.26403 -0.145686,-3.467 0.780767,-3.99782 0.380953,-0.21827 2.815964,-0.29941 9.298971,-0.30989 6.89226,-0.0111 9.35265,-0.1 11.42977,-0.41274 1.45579,-0.2192 4.16285,-0.63067 6.01567,-0.91438 1.85283,-0.28371 4.66815,-0.54819 6.25629,-0.58775 1.58814,-0.0396 3.06191,-0.0819 3.27504,-0.0941 0.21314,-0.0122 0.76804,-0.28041 1.23314,-0.59604 0.64382,-0.4369 1.32655,-0.61478 2.86094,-0.74537 3.0929,-0.26324 5.26378,-1.41015 5.26378,-2.78092 0,-0.85911 -0.78588,-1.81991 -1.74831,-2.13747 -2.11765,-0.69871 -19.10436,-1.01147 -27.2472,-0.50167 -4.35439,0.27262 -11.196148,0.88379 -13.715721,1.22522 -7.984833,1.08204 -13.739374,1.35701 -15.230999,0.7278 -0.918422,-0.38742 -1.492561,-1.34423 -1.492561,-2.48735 0,-1.19856 0.570265,-1.81118 2.116702,-2.27399 1.23384,-0.36925 3.072922,-0.4129 18.216258,-0.43234 17.984181,-0.0231 20.265411,-0.13735 27.190811,-1.36186 1.58814,-0.2808 3.94327,-0.56097 5.23363,-0.62258 1.29036,-0.0617 2.34611,-0.19784 2.34611,-0.3027 0,-0.10486 -0.40055,-0.38074 -0.89012,-0.61305 -0.77485,-0.36769 -1.31233,-0.40063 -4.1508,-0.25434 -3.97894,0.20507 -4.66103,0.19099 -5.45986,-0.11273 -1.25822,-0.47838 -3.96961,-2.71761 -4.46396,-3.68661 -0.26868,-0.52665 -1.00253,-1.50691 -1.63078,-2.17834 -1.39261,-1.48833 -1.5895,-2.1869 -1.09544,-3.88643 l 0.37678,-1.29608 -1.02813,-0.90264 c -2.73742,-2.40329 -4.30329,-4.36606 -4.10082,-5.14027 0.11594,-0.44336 -0.0538,-0.46264 -4.0756,-0.46264 -2.30812,0 -6.19183,0.11288 -8.630472,0.25083 -4.611211,0.26086 -14.513112,1.11967 -15.141773,1.31328 -0.973599,0.29984 -11.382988,1.36094 -14.557914,1.48398 -5.543583,0.21485 -6.617231,-0.24158 -6.617231,-2.81308 v -1.44939 l -1.985177,0.15031 c -2.00362,0.15172 -3.566255,0.48737 -5.382119,1.15609 -1.570183,0.57824 -5.300495,0.85736 -15.247114,1.14085 -10.767248,0.30688 -13.766322,0.22256 -15.087623,-0.42417 -1.58578,-0.7762 -1.961885,-2.47755 -0.978701,-4.42726 z m 113.125225,10.59675 c 0.18232,0 0.46628,-0.16242 0.63103,-0.36094 0.2489,-0.29991 0.21998,-0.36094 -0.17106,-0.36094 -0.25884,0 -0.5428,0.0722 -0.63102,0.16042 -0.26875,0.26873 -0.17956,0.56146 0.17105,0.56146 z m 6.83085,5.67168 c 0.23786,0.34656 5.5028,2.99088 5.95498,2.99088 0.45113,0 0.4622,-0.91118 0.0306,-2.52658 -0.96581,-3.61557 -2.75971,-5.00698 -4.73104,-3.66956 -1.01754,0.69034 -1.73053,2.51186 -1.25463,3.20526 z m 21.47529,-6.39193 c 0.5884,0.31489 1.16205,-0.34826 0.7994,-0.92415 -0.32133,-0.51031 -1.04919,-0.66005 -1.29276,-0.26596 -0.24686,0.39945 -0.0367,0.90643 0.49336,1.19011 z m 3.19875,38.35518 c 0.44862,0.61354 1.46762,0.42463 1.56905,-0.29089 0.15358,-1.08332 -1.10188,-1.72438 -1.62342,-0.82895 -0.32003,0.54945 -0.31699,0.61198 0.0544,1.11984 z m 14.22339,-13.37031 c 0.35904,0.0696 0.38093,0.006 0.14845,-0.42783 -0.14996,-0.28022 -0.38122,-0.44239 -0.51391,-0.36038 -0.34827,0.21524 -0.12685,0.69277 0.36546,0.78821 z m 20.97322,11.76922 c 0.14497,0.70694 0.94299,0.71103 2.38138,0.0122 1.04129,-0.50589 1.40402,-0.91455 0.81178,-0.91455 -0.15262,0 -0.96502,-0.32484 -1.80534,-0.72188 -0.84033,-0.39704 -1.58663,-0.72188 -1.65844,-0.72188 -0.11993,0 -0.004,1.00963 0.27062,2.34611 z m 3.94867,1.68669 c 0.26292,0.1642 0.63638,0.67752 0.82992,1.1407 0.31048,0.7431 0.45946,0.84552 1.2665,0.87066 0.50305,0.0156 1.02291,-0.002 1.15526,-0.0394 0.13235,-0.0373 1.75657,-0.0772 3.6094,-0.0887 1.92296,-0.0119 3.42041,-0.12149 3.48908,-0.25539 0.0662,-0.12902 -0.85422,-0.67402 -2.04532,-1.2111 -1.1911,-0.53709 -2.67618,-1.27878 -3.30017,-1.6482 -0.85946,-0.50881 -1.56086,-0.7039 -2.89283,-0.80464 -2.04728,-0.15484 -2.17773,-0.0726 -2.56196,1.61485 -0.0154,0.0674 0.18721,0.25693 0.45012,0.42112 z m 9.02364,-56.83823 c 1.93309,0.28988 3.25154,-0.36093 3.25154,-1.60502 0,-1.16854 -0.63063,-1.23276 -2.58728,-0.26351 -2.11486,1.04763 -2.31849,1.62045 -0.66426,1.86853 z m 25.69929,63.34983 c 0.54013,0.10297 2.2475,-0.7645 3.1124,-1.58132 0.70652,-0.66725 1.51985,-2.74331 1.29959,-3.3173 -0.29609,-0.77158 -1.11978,-0.29802 -3.02662,1.74005 -1.97642,2.11246 -2.35425,2.97387 -1.38537,3.15857 z m 8.20809,-6.79062 c 0.9695,0.9695 1.63704,1.03171 2.44126,0.2275 0.67864,-0.67864 0.75138,-1.52869 0.21892,-2.55835 -0.34063,-0.65869 -0.44628,-0.70536 -1.26329,-0.55794 -2.33866,0.42196 -2.83574,1.44994 -1.39689,2.88879 z m 5.55825,10.44302 c 0.28757,0.23865 0.50718,0.23871 1.08283,2.3e-4 1.04532,-0.43295 0.93512,-0.96256 -0.20031,-0.96256 -1.25985,0 -1.5979,0.36861 -0.88252,0.96233 z M 48.906693,116.01793 c 0.451608,-1.03762 1.767544,-1.97549 3.55044,-2.53039 2.234631,-0.6955 7.592113,-0.98135 10.262391,-0.54757 4.347023,0.70619 11.002224,1.31961 18.085454,1.66699 6.875908,0.33721 11.10532,0.82206 13.473513,1.54455 1.287361,0.39275 2.916359,0.30879 5.358073,-0.27617 2.149116,-0.51486 2.608396,-0.53129 13.773336,-0.49248 6.35255,0.0221 12.68704,0.15818 14.07666,0.30244 6.18225,0.64179 6.14523,0.64417 11.30945,-0.72509 4.36052,-1.15617 4.94312,-1.25314 8.24147,-1.37172 3.26545,-0.11739 3.54924,-0.16369 3.54924,-0.57908 0,-0.64478 0.64119,-0.55769 1.10495,0.1501 0.46623,0.71155 0.74089,0.7478 1.36779,0.18047 0.49239,-0.44562 0.63674,-0.46408 3.99752,-0.51133 2.92423,-0.0411 3.27848,-0.32375 3.19628,-2.55009 -0.0676,-1.82907 0.0627,-2.42931 0.56925,-2.62368 0.61094,-0.23444 1.07329,0.11307 1.92788,1.449 1.45308,2.27153 0.91285,4.0426 -1.83535,6.01699 -0.83926,0.60295 -1.1371,0.9495 -0.96444,1.12216 0.17266,0.17266 0.38161,0.13403 0.67659,-0.1251 0.40964,-0.35986 1.5096,-0.80523 1.5096,-0.61124 0,0.0515 -0.1759,0.60994 -0.39091,1.24094 -0.35707,1.04794 -0.35784,1.18035 -0.009,1.5293 0.31925,0.31925 0.48836,0.33357 1.02908,0.0872 0.84752,-0.38616 1.34675,0.0398 0.53953,0.46039 -0.31199,0.16254 -0.60309,0.32571 -0.6469,0.36263 -0.0932,0.0786 0.44213,1.13524 0.66439,1.31146 0.26333,0.20878 1.46257,4.18208 1.46156,4.84244 -4.9e-4,0.3473 -0.16339,1.09182 -0.3619,1.65448 -0.19853,0.56265 -0.36095,1.81446 -0.36095,2.78179 0,1.97658 -0.28752,2.99325 -0.84651,2.99325 -0.20745,0 -0.94102,-0.41354 -1.63019,-0.91899 -2.9919,-2.1943 -4.18817,-2.46777 -4.59306,-1.04997 -0.29212,1.02293 0.15475,3.53571 0.77892,4.37996 0.96405,1.30395 0.83784,3.36404 -0.20609,3.36404 -0.58594,0 -0.9625,-0.83541 -0.9625,-2.13532 0,-0.49546 -0.14755,-1.10263 -0.32788,-1.34924 -0.31921,-0.43655 -0.34924,-0.43591 -1.13656,0.0239 -0.50107,0.29264 -1.13452,1.04881 -1.66522,1.98783 -0.4711,0.83355 -1.03404,1.61488 -1.251,1.73629 -0.37763,0.21133 -1.39438,1.66727 -1.39438,1.99668 0,0.0869 0.2707,0.26095 0.60156,0.38674 0.47471,0.18048 0.60037,0.39489 0.59586,1.01671 -0.01,1.33451 -1.61075,4.6541 -2.75923,5.72084 -0.21372,0.19851 -1.01889,0.99873 -1.78925,1.77825 -1.17874,1.19276 -1.4962,1.39335 -2.00362,1.26599 -0.39399,-0.0989 -0.80065,-0.005 -1.17338,0.27052 -0.59071,0.43684 -2.34794,0.50765 -4.00885,0.16154 -0.58747,-0.12242 -0.91186,-0.056 -1.25828,0.25745 -0.43362,0.39243 -0.47774,0.39373 -0.62175,0.0185 -0.0852,-0.22217 -0.57612,-0.61879 -1.09081,-0.88136 -0.80354,-0.40994 -0.9147,-0.56153 -0.78643,-1.07257 0.27684,-1.10301 -0.69204,-0.76363 -3.45308,1.20954 -1.16018,0.82913 -1.4995,1.68803 -1.50153,3.80081 -9.1e-4,1.16082 0.0976,1.49353 0.58928,1.98517 0.6914,0.69139 1.17798,0.73196 2.44246,0.20362 0.78141,-0.32649 1.12407,-0.34272 2.19152,-0.10384 l 1.26529,0.28316 -0.48415,0.94899 c -0.39566,0.77558 -0.45724,1.22327 -0.33698,2.44995 0.10697,1.09131 0.0567,1.62094 -0.18437,1.94055 -0.51192,0.67883 -3.38914,1.3747 -6.32659,1.53013 l -2.64689,0.14005 -1.04543,-0.87441 c -0.57499,-0.48094 -1.26221,-0.87442 -1.52715,-0.87442 -0.26495,0 -0.95213,0.41406 -1.52707,0.92015 -1.18602,1.04397 -2.55677,1.53573 -4.24432,1.52266 -1.45678,-0.0113 -2.2456,-0.39576 -3.16983,-1.54498 -0.68205,-0.84809 -0.74035,-1.08202 -0.89948,-3.6094 -0.0936,-1.4864 -0.243,-2.98369 -0.33202,-3.32732 -0.18256,-0.70471 -0.2986,-0.70896 -4.94077,-0.18128 -3.41181,0.38783 -17.218223,0.40667 -17.601413,0.024 -0.165667,-0.16543 -0.705628,-0.30078 -1.199926,-0.30078 -1.260741,0 -2.133182,-0.37917 -2.133182,-0.92709 0,-0.99911 0.508013,-1.09469 6.100125,-1.14773 2.93131,-0.0278 7.549426,-0.16596 10.262496,-0.307 2.71306,-0.14104 5.61167,-0.25838 6.44135,-0.26076 1.46867,-0.005 1.50469,-0.0195 1.36447,-0.57818 -0.17106,-0.6816 1.15637,-4.20488 1.75563,-4.65978 0.5624,-0.42692 0.73116,-0.38421 1.42052,0.35963 l 0.61204,0.66041 0.62117,-0.72056 0.62118,-0.72058 -2.26737,-0.13911 c -3.2864,-0.20165 -5.34742,-1.3575 -3.73257,-2.09329 0.89683,-0.40862 1.84051,-0.51864 6.67332,-0.77804 5.22192,-0.28028 6.8011,-0.53194 7.76115,-1.23682 0.5028,-0.36917 1.27469,-0.5703 2.76721,-0.72107 2.57777,-0.2604 3.3261,-0.50316 4.30388,-1.39621 1.22648,-1.12023 1.03763,-2.24265 -0.55264,-3.28464 -0.93667,-0.61372 -5.91579,-0.90193 -15.87832,-0.91907 -9.48364,-0.0163 -14.47448,0.21421 -20.332961,0.93915 -7.124635,0.88162 -14.779645,1.61752 -16.964175,1.63083 -3.185703,0.0194 -4.535161,-0.51084 -4.917951,-1.93244 -0.421214,-1.56426 -0.0027,-2.33353 1.629471,-2.99321 l 1.363464,-0.55116 15.881359,-0.0114 c 10.608253,-0.007 16.999903,-0.11078 19.250143,-0.31075 6.29135,-0.55909 9.86256,-1.01856 11.06882,-1.42413 1.44991,-0.48746 5.48037,-0.5399 8.54225,-0.11114 1.12493,0.15753 2.62852,0.31504 3.34133,0.35003 l 1.29599,0.0637 0.46514,-1.32345 c 0.37613,-1.07022 0.41892,-1.50761 0.22363,-2.28595 -0.38671,-1.54131 -0.85673,-2.76721 -1.06094,-2.76721 -0.10395,0 -0.85747,0.28136 -1.6745,0.62524 -2.21464,0.93213 -6.22138,1.77814 -9.20788,1.94423 l -2.6469,0.14719 0.45839,-0.51614 c 0.25212,-0.28387 0.41454,-0.5267 0.36095,-0.53961 -0.0536,-0.0129 -4.26631,-0.10426 -9.36158,-0.203 -8.70579,-0.16867 -9.33302,-0.21025 -10.40711,-0.68983 -1.19359,-0.53295 -1.28275,-0.65564 -0.9076,-1.24907 0.30157,-0.47705 2.27118,-0.6448 11.07408,-0.94318 10.82282,-0.36683 17.73019,-0.97145 19.61794,-1.7172 l 0.71501,-0.28246 -1.6415,-0.56405 c -0.90283,-0.31023 -2.74362,-1.1015 -4.09065,-1.75838 -1.34704,-0.65687 -2.88228,-1.30732 -3.41166,-1.44541 -0.52938,-0.1381 -4.48167,-0.36492 -8.78287,-0.50405 -4.4421,-0.1437 -8.62145,-0.39771 -9.67478,-0.58803 -1.58961,-0.28721 -2.20806,-0.28646 -4.33128,0.005 -1.36228,0.18722 -6.050183,0.44707 -10.41755,0.57745 -8.816512,0.2632 -14.146947,0.56044 -19.37045,1.08015 -8.729796,0.86855 -13.456088,1.186 -17.806376,1.19597 -5.115966,0.0117 -6.130136,-0.16892 -6.97442,-1.24225 -0.573102,-0.7286 -0.639537,-2.43934 -0.139319,-3.58861 z m 70.980077,37.44654 c 0.61019,0 1.10358,0.12244 1.15861,0.28753 0.072,0.21606 0.57031,0.18326 2.00482,-0.13195 1.04993,-0.2307 1.99512,-0.50562 2.10042,-0.61091 0.31634,-0.31634 -5.62311,-0.55086 -6.00132,-0.23697 -0.57693,0.47881 -0.34951,0.6923 0.73747,0.6923 z M 62.209084,200.1064 c 0.679071,-0.58373 0.924151,-0.68333 2.650388,-1.07724 1.273346,-0.29056 4.198045,-0.41331 13.418931,-0.56318 14.748196,-0.23973 19.438165,-0.63625 28.514257,-2.41082 3.94112,-0.77057 11.6377,0.37882 12.19096,1.82057 0.17647,0.45991 -0.30703,1.02215 -1.22597,1.42563 -0.69871,0.30677 -0.63255,0.32523 1.23261,0.3438 1.19676,0.0119 2.03535,-0.0846 2.13487,-0.24555 0.365,-0.59058 1.77614,-0.96011 2.7081,-0.70915 1.2401,0.33391 1.69668,0.72586 1.86916,1.60453 0.11472,0.58435 0.03,0.85981 -0.38258,1.2442 -0.50173,0.46743 -0.83252,0.49497 -6.21991,0.51771 -9.72302,0.041 -15.45398,0.63132 -19.954814,2.05526 -1.418487,0.44877 -3.221563,0.93109 -4.00685,1.07181 -3.46085,0.62018 -7.95665,0.0316 -7.95665,-1.04162 0,-1.29369 2.915049,-2.06384 12.70526,-3.35668 2.693084,-0.35564 3.163404,-0.51632 2.575264,-0.87981 -0.93831,-0.5799 -8.808023,-0.57914 -14.558644,0.002 -1.191095,0.12025 -5.197536,0.49809 -8.903183,0.83965 -3.705648,0.34156 -7.387243,0.72426 -8.181306,0.85044 -1.980966,0.31479 -3.459176,0.28835 -6.107064,-0.10925 -2.49881,-0.3752 -3.21426,-0.77017 -2.502829,-1.38172 z m 26.2158,-12.25909 c 0.242597,-0.20799 1.090782,-0.57116 1.884855,-0.80706 1.265279,-0.37586 3.0203,-0.45196 14.196971,-0.61561 7.01427,-0.10269 12.93923,-0.26196 13.16659,-0.35392 0.39377,-0.15928 13.19322,-0.56925 13.4026,-0.4293 0.3213,0.21477 -0.59092,0.38453 -4.22618,0.78647 -2.23046,0.24662 -4.75922,0.56509 -5.61945,0.70771 -1.79873,0.29822 -10.41004,1.08559 -15.88137,1.4521 -2.05134,0.13742 -5.2998,0.35631 -7.218803,0.48642 -1.918995,0.13013 -4.701219,0.23819 -6.182712,0.24015 -2.456265,0.004 -2.749583,-0.0446 -3.328605,-0.54261 -0.609845,-0.52457 -0.61752,-0.56115 -0.193896,-0.92435 z m 28.881226,-19.04616 c 0.21943,-0.84136 1.44931,-1.18852 4.62649,-1.30593 1.88453,-0.0697 3.46016,-0.25948 4.17383,-0.50287 0.91461,-0.31192 1.32822,-0.33808 2.04533,-0.12936 4.90428,1.42747 4.72313,1.34729 5.18648,2.29538 0.60452,1.23697 0.21398,1.96778 -1.63748,3.06415 l -1.44052,0.85302 h -4.69546 c -4.69018,0 -4.69718,-7.2e-4 -6.23138,-0.70894 -1.88694,-0.87097 -2.4649,-1.88746 -2.02729,-3.56545 z m 2.22946,23.92516 c 0.32909,-2.03835 1.49179,-2.00741 5.15705,0.13723 0.66197,0.38734 1.61786,0.3756 3.3955,-0.0417 0.79408,-0.18641 2.43874,-0.4493 3.65482,-0.58421 1.21608,-0.13491 2.54523,-0.41809 2.95367,-0.62931 0.40843,-0.21121 1.36253,-0.49493 2.12022,-0.63049 0.75768,-0.13555 2.16097,-0.51285 3.11842,-0.83843 1.7151,-0.58323 2.6658,-0.59367 3.37251,-0.037 0.68386,0.53864 0.2921,1.30593 -1.57454,3.08394 -3.15645,3.00656 -5.03778,4.30969 -6.22466,4.31162 -1.22724,0.002 -4.28435,-0.65091 -5.41415,-1.15628 -0.88572,-0.39619 -1.65818,-0.47259 -5.10107,-0.50456 -4.16867,-0.0387 -5.44746,-0.29496 -5.44746,-1.09164 0,-0.18429 -0.0402,-0.47929 -0.0894,-0.65554 -0.0491,-0.17625 -0.0136,-0.78986 0.079,-1.36358 z m 3.19861,-14.41778 c 0.4868,-0.45463 0.9428,-0.52278 4.52135,-0.67583 4.4831,-0.19173 5.13187,-0.0397 6.01581,1.41003 0.98904,1.62208 0.52095,2.23604 -1.8975,2.48882 -1.53328,0.16026 -6.6216,-0.27477 -7.9327,-0.67821 -1.25186,-0.38521 -1.61597,-1.69588 -0.70696,-2.54481 z m 12.87606,4.1339 c 0.53202,-0.77192 1.98264,-0.49877 1.98264,0.37331 0,0.58678 -0.85416,1.1916 -1.45932,1.03334 -0.25613,-0.067 -0.46569,-0.20858 -0.46569,-0.31467 0,-0.10607 -0.053,-0.33709 -0.11779,-0.51334 -0.0648,-0.17626 -0.0378,-0.43665 0.0601,-0.57864 z m 9.77286,-5.12761 c 0.68994,-0.64816 3.80414,-1.77294 4.33973,-1.56741 0.68804,0.26402 0.51808,3.10022 -0.27909,4.65728 -1.29002,2.51971 -2.3981,2.67217 -3.85922,0.531 -0.98105,-1.43766 -1.05774,-2.81639 -0.20142,-3.62087 z m 2.09286,-22.881 c 0.26844,-0.59179 0.73771,-1.4039 1.04282,-1.8047 0.3051,-0.4008 0.78728,-1.1853 1.0715,-1.74334 0.72754,-1.42847 1.14076,-1.58062 3.97701,-1.46438 2.05624,0.0843 2.62939,0.20086 3.69682,0.75201 0.6948,0.35875 1.26328,0.6995 1.26328,0.75721 0,0.64893 -0.80356,1.36615 -2.55897,2.28401 -1.37943,0.72128 -2.16713,1.2938 -2.40022,1.74454 -0.22045,0.42632 -0.54209,0.67228 -0.88218,0.67463 -0.29437,0.002 -0.68176,0.0965 -0.86085,0.21002 -0.41659,0.26398 -0.16936,0.74556 1.56891,3.05617 1.33082,1.76899 1.5091,2.34499 0.95877,3.09762 -0.28477,0.38944 -0.56411,0.42739 -2.28026,0.30976 -1.41575,-0.097 -2.18985,-0.27874 -2.80363,-0.65807 -0.46633,-0.28822 -0.84788,-0.54249 -0.84788,-0.56507 0,-0.0225 -0.32485,-1.17754 -0.72188,-2.5666 -0.39704,-1.38906 -0.7195,-2.63408 -0.7166,-2.7667 0.003,-0.13262 0.22492,-0.72532 0.49336,-1.31711 z m 2.35271,123.27284 c 0.14957,-0.49965 1.81655,-2.00385 2.22069,-2.00385 0.10634,0 0.25512,0.0999 0.33062,0.22211 0.0755,0.12217 0.45596,0.29212 0.84548,0.37767 0.39648,0.0871 0.77311,0.36002 0.85565,0.62007 0.0811,0.2555 0.24842,0.46454 0.37185,0.46454 0.44605,0 0.24042,2.08038 -0.26974,2.72895 -0.5741,0.72985 -2.30717,1.30352 -2.71273,0.89796 -0.14198,-0.14197 -0.50987,-0.25814 -0.81754,-0.25814 -0.86282,0 -1.27768,-1.53473 -0.82428,-3.04931 z m 12.84954,-175.06798 c 0.16543,-0.21239 0.72195,-0.66622 1.23671,-1.00849 1.32329,-0.8799 3.64901,-0.85586 7.49204,0.0775 2.68415,0.65187 3.26874,0.70542 8.53621,0.78204 11.24042,0.16348 15.38978,0.0776 17.44543,-0.36115 2.07852,-0.44361 5.98119,-1.91715 5.73352,-2.16481 -0.0835,-0.08349 0.5069,-0.451135 1.31187,-0.817091 1.14815,-0.521963 1.48211,-0.795009 1.54959,-1.266925 0.0817,-0.571047 0.10918,-0.555777 0.54246,0.300784 0.45749,0.904389 1.08919,1.218397 1.08919,0.541407 0,-0.198515 0.21148,-0.360944 0.46994,-0.360944 0.7912,0 1.6957,0.534014 1.6957,1.001137 0,0.372904 0.19675,0.442623 1.24913,0.442623 1.11033,0 1.19954,0.03629 0.80291,0.326289 -0.40083,0.29309 -0.28457,0.35677 1.14283,0.62611 1.44017,0.27174 2.85824,0.23035 4.79659,-0.13999 0.61295,-0.11712 0.64587,-0.18862 0.5451,-1.18444 -0.1398,-1.381626 0.1992,-2.223108 1.02153,-2.535761 1.03408,-0.393157 2.03197,-0.08094 2.7937,0.874005 0.53574,0.671632 0.62181,0.926061 0.40263,1.190149 -0.15333,0.184747 -0.24339,0.585489 -0.20014,0.890557 0.0756,0.53284 0.15431,0.55206 2.00364,0.48871 3.15187,-0.10795 3.97034,-0.26332 3.97034,-0.753698 0,-0.236077 0.19868,-0.609026 0.44152,-0.828787 0.35446,-0.320792 0.58218,-0.350531 1.15493,-0.150878 0.59314,0.206773 1.1549,0.105597 3.33257,-0.600232 3.43432,-1.113136 4.21084,-1.098248 6.64857,0.127415 1.06801,0.536988 2.16335,0.943041 2.43409,0.902352 0.27074,-0.04065 0.68959,-0.443259 0.93077,-0.894576 0.24117,-0.451326 0.54317,-0.925252 0.67109,-1.053176 0.39089,-0.390893 1.29763,-9.1e-4 2.40932,1.036033 l 1.05868,0.987577 2.43041,-0.107343 c 1.33672,-0.05902 2.75669,-0.1825 3.1555,-0.274355 0.59068,-0.136037 0.8951,-0.03192 1.64215,0.561779 0.96868,0.769809 1.16406,0.812669 5.45363,1.196359 1.79774,0.16081 2.97835,0.41262 4.09065,0.87248 2.07019,0.85587 3.83084,1.01289 5.5912,0.49866 0.7594,-0.22183 1.47691,-0.5752 1.59446,-0.78526 0.18311,-0.32718 0.60597,-0.36204 2.95055,-0.24327 3.57235,0.18099 4.83747,0.62063 1.84866,0.64243 -1.1502,0.008 -2.15821,0.12353 -2.24,0.25588 -0.087,0.14084 0.16365,0.24062 0.60456,0.24062 0.69154,0 0.72161,0.0316 0.36696,0.3863 -0.21245,0.21246 -0.32694,0.57328 -0.25441,0.80182 0.0766,0.24117 -0.0647,0.5934 -0.33654,0.83945 -0.25763,0.23315 -0.40991,0.57641 -0.33839,0.76278 0.47735,1.24398 -1.03064,2.39405 -3.4533,2.63367 -0.77077,0.0762 -2.42787,0.36686 -3.68242,0.64585 l -2.28102,0.50724 -1.49379,-0.52135 c -1.7776,-0.62038 -2.32529,-0.64809 -2.83018,-0.14321 -0.49125,0.49125 -0.48463,1.06564 0.0123,1.06564 0.29664,0 0.32691,0.0765 0.12603,0.31853 -0.17545,0.21142 -0.1838,0.3991 -0.0248,0.55811 0.159,0.159 0.11661,0.58804 -0.12603,1.27578 -0.20108,0.56993 -0.3656,1.07675 -0.3656,1.12628 0,0.0496 0.36884,0.09 0.81966,0.09 0.7076,0 0.80205,-0.0674 0.6908,-0.49282 -0.1819,-0.69553 0.79448,-1.67282 1.67125,-1.67282 0.55001,0 0.75775,0.15746 1.01507,0.76943 0.17793,0.42319 0.27221,0.90313 0.20951,1.06656 -0.0627,0.16341 0.2196,0.46963 0.62736,0.68049 1.39108,0.71937 0.63928,1.84268 -1.5354,2.29414 -2.65108,0.55036 -5.82024,0.96995 -8.4311,1.11626 -3.05709,0.1713 -6.04993,-0.27982 -8.42194,-1.2695 -0.79406,-0.33131 -2.31001,-0.92165 -3.36877,-1.31187 -3.93463,-1.45017 -4.93284,-2.03073 -4.93284,-2.86891 0,-1.15568 3.0664,-2.28426 5.56437,-2.04796 1.86086,0.17602 1.97749,0.0577 1.59425,-1.61705 -0.23498,-1.02684 -0.2083,-1.16063 0.36805,-1.84557 0.34175,-0.40617 0.69198,-0.96094 0.77827,-1.23282 0.21226,-0.66876 -0.43518,-1.60076 -1.44731,-2.0834 -1.0596,-0.5053 -1.46012,-0.19618 -1.62346,1.25296 -0.20287,1.7999 -1.2694,2.36655 -5.16615,2.74473 -2.2345,0.21686 -2.9438,0.4384 -3.91806,1.22376 -0.33086,0.26672 -1.90094,0.97496 -3.48907,1.57389 -1.58814,0.59893 -3.15823,1.27896 -3.48909,1.51118 -0.33086,0.23223 -1.35955,0.79315 -2.28595,1.24649 -1.65399,0.80938 -1.7452,0.82505 -5.05316,0.86793 -2.76234,0.0358 -3.60552,-0.0384 -4.68389,-0.41196 -0.72331,-0.25061 -1.96855,-0.45713 -2.76721,-0.45894 -1.89746,-0.005 -2.53491,-0.18921 -2.53491,-0.73535 0,-0.4428 1.20102,-0.9397 2.28595,-0.94575 1.09469,-0.006 2.31564,-0.52376 2.57429,-1.09144 0.22205,-0.48735 0.16547,-0.73105 -0.35083,-1.51124 -0.89247,-1.34863 -1.80872,-1.66581 -3.23669,-1.12045 -1.66797,0.637 -2.28746,1.41326 -2.19221,2.74695 0.0701,0.98212 0.0189,1.10287 -0.55417,1.30563 -0.51583,0.18251 -0.95682,0.0627 -2.4084,-0.65458 -0.97731,-0.4829 -1.96014,-0.87801 -2.18405,-0.87801 -0.88944,0 -2.86433,-0.54288 -3.20152,-0.88007 -0.46859,-0.46859 -0.45751,-1.99812 0.0194,-2.67902 0.20727,-0.29591 0.79546,-0.75158 1.30712,-1.0126 1.04849,-0.5349 1.56647,-1.11034 0.7727,-0.85841 -0.27013,0.0858 -0.55565,0.0516 -0.63449,-0.076 -0.0822,-0.13308 -0.60654,0.0269 -1.23018,0.37553 -0.72026,0.40255 -1.28185,0.55852 -1.66495,0.46236 -0.31795,-0.0798 -1.3165,0.028 -2.219,0.23966 -1.41298,0.33131 -2.72708,0.3612 -9.46125,0.21519 -5.89174,-0.12775 -8.6215,-0.089 -11.06883,0.15706 -1.78665,0.17964 -4.06057,0.3027 -5.05316,0.27347 -1.39434,-0.041 -2.19689,0.082 -3.5295,0.54141 -0.94864,0.32702 -2.062,0.59457 -2.47415,0.59457 -0.93594,0 -2.38685,-0.59211 -2.80705,-1.14554 -0.40491,-0.53326 -0.42084,-1.53736 -0.0323,-2.03617 z m 88.95784,8.71612 c 0.75092,0 0.94694,-0.0996 1.06534,-0.54141 0.35497,-1.32457 0.0701,-1.3942 -1.45441,-0.35553 -0.93409,0.63638 -0.82106,0.89694 0.38907,0.89694 z m -88.24042,45.32613 c 1.68337,-0.84072 3.935,-2.12674 4.06562,-2.32207 0.0852,-0.12749 0.66526,-0.15505 1.33226,-0.0633 1.46616,0.20165 1.69801,-0.0305 2.45297,-2.4553 0.29873,-0.9595 0.64518,-1.74454 0.76989,-1.74454 0.38684,0 0.25733,-0.70218 -0.63935,-3.46622 -0.75258,-2.31987 -0.836,-2.80293 -0.63646,-3.68583 0.13967,-0.61801 0.14576,-1.51355 0.0155,-2.28595 -0.11777,-0.69845 -0.14976,-1.92639 -0.0711,-2.72878 0.0998,-1.01748 0.0306,-1.78193 -0.22874,-2.52658 -0.80819,-2.32109 -0.17898,-4.55683 1.78076,-6.32733 1.16431,-1.05189 1.8656,-1.35759 3.11433,-1.35759 1.45515,0 2.39524,0.81766 3.5649,3.10063 1.1435,2.23192 1.25417,3.09212 0.54536,4.23901 -0.67172,1.08684 -0.85489,2.70377 -0.42326,3.73622 0.19203,0.45933 0.86843,1.64514 1.50312,2.63512 0.93867,1.46411 1.19071,2.0927 1.35078,3.36877 0.10824,0.86285 0.2684,2.01977 0.35592,2.57093 0.37185,2.34163 -1.49465,6.66153 -3.94929,9.14045 -1.62326,1.63931 -3.81025,2.84462 -5.67639,3.12842 -0.61275,0.0932 -1.51719,0.54333 -2.40971,1.19931 -1.2475,0.91688 -1.58333,1.04945 -2.64689,1.04477 -1.56829,-0.007 -2.05205,-0.40772 -2.99979,-2.48553 -0.41361,-0.90678 -0.96898,-1.82718 -1.23417,-2.04533 -0.47997,-0.39482 -0.47968,-0.39789 0.0638,-0.66926 z m 13.23231,7.26444 c 0.67344,-0.4717 1.56902,-0.4764 2.6756,-0.014 2.03776,0.85144 1.72309,3.11705 -0.47386,3.41173 -0.95229,0.12773 -1.02008,0.0909 -1.8624,-1.01226 -1.00981,-1.32252 -1.08657,-1.86205 -0.33934,-2.38542 z m 2.21463,-51.05296 c 0.86006,-0.33004 1.3661,0.32031 0.86314,1.10929 -0.17805,0.2793 -0.32689,0.30067 -0.65804,0.0945 -0.56585,-0.35227 -0.67989,-1.02162 -0.2051,-1.20381 z m 7.3698,109.06858 c 0.27179,-0.34552 0.94855,-0.75952 1.50392,-0.92 0.55536,-0.16048 1.36544,-0.59621 1.80016,-0.9683 0.95993,-0.82161 1.97434,-0.87621 3.30952,-0.17813 0.78522,0.41052 1.21724,0.47308 2.45107,0.35486 1.30753,-0.12529 1.56132,-0.08 1.99748,0.35611 0.96439,0.9644 -0.0595,2.41388 -2.15489,3.05063 -0.73723,0.22403 -1.38054,0.435 -1.42957,0.46883 -0.049,0.0338 -0.1808,0.5521 -0.29283,1.15175 -0.28412,1.52083 -0.83009,2.25804 -1.80813,2.44152 -1.1177,0.20968 -1.93152,-0.35915 -2.26022,-1.5798 -0.28534,-1.05968 -0.79816,-1.4485 -1.91046,-1.4485 -1.50055,0 -2.16681,-1.50757 -1.20605,-2.72897 z m -0.1174,70.10443 c 0.44332,0 1.067,0.56755 1.067,0.97097 0,0.60775 -0.63012,0.61261 -0.95405,0.007 -0.2727,-0.50955 -0.32682,-0.97833 -0.11295,-0.97833 z m 4.79671,-9.14381 c 0.22058,0 0.36225,0.1164 0.31482,0.25867 -0.0474,0.14227 -0.18909,0.25868 -0.31482,0.25868 -0.12572,0 -0.2674,-0.11641 -0.31482,-0.25868 -0.0475,-0.14227 0.0942,-0.25867 0.31482,-0.25867 z m 0.25781,-24.40642 c 0.72837,-0.72836 1.98548,-0.21149 1.64482,0.67627 -0.20086,0.52344 -1.21626,0.7593 -1.66512,0.38677 -0.4546,-0.37728 -0.45049,-0.59224 0.0203,-1.06304 z m 0.51,-123.33835 c 0.0554,-0.33086 0.24838,-1.08883 0.42887,-1.68438 0.1805,-0.59555 0.51184,-1.94908 0.73631,-3.00783 0.22448,-1.05876 0.57381,-2.24987 0.77628,-2.6469 1.30802,-2.56499 4.14762,-5.75379 5.71914,-6.42245 3.7215,-1.58346 6.0431,-2.36059 7.05723,-2.36233 1.05185,-0.002 6.54181,-1.03035 6.99521,-1.31057 0.11498,-0.071 1.58008,-0.40201 3.25578,-0.73542 2.23645,-0.445 3.44483,-0.825 4.54371,-1.42884 0.82334,-0.45243 2.24314,-1.01004 3.1551,-1.23911 1.57618,-0.39593 1.83739,-0.39538 5.28649,0.0112 1.99559,0.23523 3.99826,0.55083 4.45035,0.70133 0.45208,0.1505 1.86144,1.19119 3.13188,2.31268 5.67406,5.00871 8.30113,9.22789 10.47694,16.82642 0.62861,2.19524 1.17746,4.67237 1.2494,5.63896 0.103,1.38368 0.27796,1.9613 0.88661,2.92701 0.67985,1.07864 0.75424,1.37741 0.71904,2.88752 -0.0217,0.9264 -0.48113,3.85002 -1.02117,6.49692 -0.54004,2.64688 -0.98117,5.40808 -0.9803,6.13597 0.002,1.84681 0.76025,3.32248 2.34152,4.5583 1.55731,1.2171 1.66629,1.93487 0.4698,3.09456 -0.83206,0.80646 -1.57622,0.95403 -2.68502,0.53247 -0.5246,-0.19945 -0.70191,-0.14506 -1.12916,0.34631 -0.27876,0.32061 -0.62839,0.79138 -0.77695,1.04617 -1.14064,1.95627 -1.5454,2.78423 -2.08171,4.25822 -0.71781,1.97289 -1.27597,2.24312 -1.38999,0.67295 -0.0527,-0.7257 -0.27634,-1.22863 -0.79163,-1.78026 l -0.71818,-0.76881 -2.53584,0.1436 -2.53584,0.1436 -1.03072,-0.95008 c -1.24437,-1.14702 -1.82431,-1.1865 -3.26286,-0.22211 -1.54175,1.03357 -3.36781,1.52331 -4.94507,1.32624 -2.3397,-0.29233 -2.87158,0.52948 -1.43153,2.21186 0.97002,1.13325 1.10236,2.16144 0.36416,2.82949 -0.51991,0.47051 -1.09899,0.51523 -3.14722,0.24304 -1.0245,-0.13615 -1.51345,-0.088 -2.08023,0.20517 -1.23681,0.63957 -2.52832,0.71899 -4.67691,0.28757 -3.05142,-0.6127 -6.05612,-1.69814 -7.42683,-2.68289 -2.09849,-1.50762 -6.38941,-6.52367 -9.03559,-10.56255 -1.83669,-2.80336 -4.70332,-8.24179 -5.97682,-11.33896 -0.53477,-1.30058 -1.66122,-6.13556 -2.31964,-9.9565 -0.22327,-1.29568 -0.26404,-5.54622 -0.0646,-6.73755 z m 3.94412,-33.98851 c 0.30296,-0.52108 1.14841,-0.55171 1.34147,-0.0486 0.16173,0.42146 -0.57285,1.09349 -1.10061,1.0069 -0.45056,-0.0739 -0.54245,-0.43956 -0.24086,-0.9583 z m 3.46938,180.77077 c 0.19852,0 0.36094,0.10829 0.36094,0.24063 0,0.13235 -0.16242,0.24063 -0.36094,0.24063 -0.19852,0 -0.36094,-0.10828 -0.36094,-0.24063 0,-0.13234 0.16242,-0.24063 0.36094,-0.24063 z m 5.72692,0.72188 c 0.48203,0 0.89032,0.51862 0.89032,1.13095 0,0.57245 -0.17128,0.65728 -0.82252,0.40738 -0.46562,-0.17868 -0.52555,-1.53833 -0.0678,-1.53833 z m 5.83882,-98.66288 c 0.33948,-0.12907 0.76884,-0.23467 0.95414,-0.23467 0.18529,0 0.73792,-0.35192 1.22807,-0.78204 1.29646,-1.13769 2.5469,-1.04767 5.51624,0.39711 1.24955,0.60798 2.27189,1.20075 2.27189,1.31728 0,0.11652 -0.16361,0.34765 -0.36359,0.51361 -0.29286,0.24305 -0.95299,0.2194 -3.39332,-0.12159 -2.91302,-0.40704 -3.07923,-0.40652 -4.31454,0.0134 -1.03945,0.35332 -1.40238,0.38315 -1.90047,0.15622 -0.78963,-0.35979 -0.78889,-0.95876 0.002,-1.2593 z m 16.38706,-88.384242 c 0.31933,-0.319337 0.80208,-0.15037 0.80208,0.28073 0,0.567682 -0.20225,0.761605 -0.62508,0.599349 -0.35453,-0.136045 -0.44938,-0.607689 -0.177,-0.880079 z m 3.66196,15.136462 c 0.11715,-0.0724 0.55581,-0.0121 0.97479,0.13394 0.8868,0.30914 0.92376,1.00772 0.0599,1.13074 -0.88293,0.12572 -1.68934,-0.86003 -1.03461,-1.26468 z m 1.24616,-15.786359 c 0.36864,-0.197297 0.5857,-0.191886 0.84219,0.02101 0.81002,0.67226 -0.008,1.911038 -0.92394,1.398633 -0.56712,-0.317372 -0.52227,-1.096366 0.0818,-1.419623 z m 4.18465,85.540069 c 0.83959,-0.83959 1.72974,-0.74974 3.98344,0.40208 2.05403,1.04976 1.86151,1.02793 4.82732,0.54762 0.52822,-0.0856 1.20018,0.004 1.74454,0.23082 0.86346,0.36077 0.88527,0.40155 0.88012,1.6455 -0.009,2.21325 -1.33631,4.27282 -3.0617,4.75144 -0.49685,0.13783 -1.5783,0.32023 -2.40323,0.40534 -1.74367,0.17992 -2.02194,0.0269 -2.6873,-1.4772 -0.24852,-0.56181 -1.06874,-1.60326 -1.82271,-2.31432 -2.14693,-2.02473 -2.52941,-3.12235 -1.46048,-4.19128 z m 15.152,-12.17611 c 1.96313,-0.89445 4.49344,1.38864 3.39573,3.06398 -0.65767,1.00373 -1.45928,1.23255 -2.44959,0.69923 -0.99926,-0.53813 -1.52929,-1.4525 -1.52929,-2.6382 0,-0.67584 0.1245,-0.91602 0.58315,-1.12501 z m -0.41731,9.8411 c 0.12962,-0.49595 1.20683,-0.82922 1.55497,-0.48108 0.133,0.133 0.20629,0.55279 0.16286,0.93286 -0.064,0.56041 -0.21049,0.70605 -0.77474,0.77046 -0.60233,0.0688 -1.15763,-0.28226 -1.07734,-0.68099 0.0134,-0.0662 0.0738,-0.30973 0.13425,-0.54125 z m 3.19077,30.69546 c 0.30584,-0.7125 0.98931,-1.03839 2.1778,-1.03839 1.40835,0 1.83031,0.30736 2.64932,1.92982 0.52918,1.0483 0.88244,1.46373 1.32234,1.55502 0.33014,0.0685 0.86896,0.18027 1.1974,0.24835 1.55674,0.32271 3.24903,2.90037 3.29145,5.01344 0.0297,1.48115 -0.71435,5.6701 -1.17116,6.59333 -0.45282,0.91514 -0.9111,0.97678 -2.23619,0.30077 -1.22179,-0.6233 -1.93983,-0.60781 -2.78903,0.0601 -0.46382,0.36484 -1.01549,0.5414 -1.69157,0.5414 -2.04657,0 -2.63386,-1.38562 -2.39671,-5.65472 0.0846,-1.52196 0.0453,-3.63346 -0.0873,-4.69222 -0.45261,-3.61528 -0.49189,-4.33152 -0.26635,-4.85696 z m 1.08456,-45.41066 c 0.20351,-0.56224 0.28978,-1.38313 0.2149,-2.04533 -0.10085,-0.89197 -0.002,-1.33563 0.51254,-2.29119 l 0.6376,-1.18502 -0.49897,-0.61968 c -0.98352,-1.22142 -1.05931,-1.70887 -0.48253,-3.10368 0.51647,-1.24898 0.53988,-2.20746 0.0927,-3.79657 -0.16962,-0.60279 0.43555,-1.29916 1.129,-1.29916 0.86798,0 2.24375,1.88936 3.11361,4.27594 0.15773,0.43278 0.59585,0.96943 0.97359,1.19256 1.21361,0.7169 1.48517,1.70419 1.53878,5.59452 0.0443,3.21448 -0.01,3.70726 -0.67156,6.14178 -0.90785,3.33879 -1.6103,4.74784 -2.75456,5.52539 -1.07739,0.73211 -1.28638,0.74761 -2.02349,0.15013 -0.52496,-0.42552 -0.56806,-0.63424 -0.56806,-2.75064 0,-2.15436 -0.0382,-2.3304 -0.64456,-2.96847 -0.83315,-0.87673 -0.99043,-1.65641 -0.569,-2.82058 z m 0.84054,91.18162 c 0.28448,-0.17582 0.70853,0.6037 0.55773,1.02525 -0.0854,0.23874 -0.18948,0.24586 -0.44874,0.0306 -0.38826,-0.32223 -0.4427,-0.84969 -0.10899,-1.05594 z m 7.72443,-137.05665 c 0.50871,-0.50871 1.35829,-0.45715 1.72856,0.1049 0.65894,1.00025 -0.22021,2.27951 -1.32885,1.93364 -1.00765,-0.31438 -1.19063,-1.24761 -0.39971,-2.03854 z m 4.23877,-5.60231 c 0.37035,-0.37035 1.25625,-0.14361 1.41692,0.36265 0.21949,0.69153 -0.47972,1.25056 -1.12932,0.9029 -0.44031,-0.23565 -0.60274,-0.95041 -0.2876,-1.26555 z m 2.48143,15.12286 0.95748,-0.66353 3.02281,0.17435 c 2.85752,0.16483 3.08366,0.21576 4.13562,0.9316 1.48959,1.01362 1.71497,1.67371 0.84987,2.4891 -1.20892,1.13947 -3.21408,2.2869 -4.03718,2.31024 -0.56647,0.016 -1.20398,-0.26093 -2.19893,-0.95539 -0.77065,-0.53788 -1.67188,-1.05767 -2.00274,-1.15506 -1.21545,-0.35778 -1.68439,-0.82101 -1.68439,-1.66386 0,-0.66562 0.16472,-0.91807 0.95746,-1.46745 z m 5.68976,-18.76799 c 0.58413,-0.58412 1.41377,-0.37905 1.41377,0.34945 0,0.63856 -0.89218,1.2683 -1.47823,1.0434 -0.44561,-0.17098 -0.41106,-0.91732 0.0645,-1.39285 z m 0.95135,127.45499 c 0.94222,-0.61048 0.96346,-0.97811 0.0825,-1.42761 -0.55315,-0.28223 -0.55665,-0.29741 -0.0692,-0.30079 0.3125,-0.002 0.56358,-0.19559 0.64172,-0.4944 0.10095,-0.38608 0.25621,-0.45878 0.72725,-0.34055 0.46935,0.11779 0.63319,0.0423 0.75743,-0.34918 0.0872,-0.27472 0.091,-0.60874 0.008,-0.74227 -0.0825,-0.13353 -0.0354,-0.24278 0.10477,-0.24278 0.14015,0 0.25483,0.2741 0.25483,0.60911 0,0.67798 0.6056,1.04717 1.02681,0.62597 0.39578,-0.39578 0.5845,-0.33734 0.732,0.22668 0.10901,0.41686 0.21031,0.45658 0.61382,0.24063 0.78325,-0.41919 0.87786,-0.29957 0.27262,0.34469 -0.55594,0.59176 -0.55789,0.6103 -0.10211,0.96739 0.25558,0.20023 0.76247,0.52707 1.12642,0.7263 0.36394,0.19923 0.66171,0.46774 0.66171,0.59669 0,0.3024 -0.15809,0.29555 -0.77298,-0.0336 -0.39734,-0.21265 -0.54341,-0.19169 -0.70749,0.10151 -0.11373,0.20321 -0.53875,0.4424 -0.94451,0.53152 -0.70696,0.15527 -0.7311,0.20121 -0.57897,1.10162 0.13001,0.76957 0.0885,0.9396 -0.2293,0.9396 -0.21343,0 -0.48524,-0.25562 -0.60403,-0.56805 -0.19818,-0.52125 -0.31981,-0.55806 -1.47672,-0.4469 -1.05099,0.10099 -1.23779,0.0613 -1.12265,-0.23876 0.15882,-0.41392 -0.54338,-1.11183 -0.97418,-0.96824 -0.6005,0.20017 -0.24997,-0.3262 0.57181,-0.85865 z m 3.36702,-120.57195 c 1.18323,-0.93073 3.11593,-0.36738 2.67566,0.77993 -0.18999,0.49509 -2.2696,0.54782 -2.91763,0.0739 -0.41238,-0.30154 -0.39864,-0.34999 0.24197,-0.85389 z m -0.30785,127.91605 c 0.18393,-0.0706 0.47572,-0.041 0.64844,0.0657 0.43675,0.26992 0.0995,1.01834 -0.41433,0.91939 -0.51946,-0.10004 -0.68838,-0.81082 -0.23411,-0.98514 z m 1.37359,-116.99709 c 0.13235,0.0818 0.24063,0.25061 0.24063,0.37514 0,0.12453 -0.10828,0.22642 -0.24063,0.22642 -0.13234,0 -0.24062,-0.16882 -0.24062,-0.37514 0,-0.20632 0.10828,-0.30822 0.24062,-0.22642 z m 0.88626,104.50716 c 0.0695,0.1737 0.0609,0.38125 -0.019,0.4612 -0.0799,0.0799 -0.13683,-0.0621 -0.12638,-0.31582 0.0115,-0.28032 0.0686,-0.33734 0.14538,-0.14538 z m 2.34583,12.17845 c 0.1944,-0.26585 0.46296,-0.34787 0.79452,-0.24264 1.05521,0.33491 0.81998,1.5844 -0.2983,1.5844 -0.64814,0 -0.92666,-0.7531 -0.49622,-1.34176 z m 2.26909,3.28456 c 0.58971,-0.31561 1.37926,0.22527 1.16061,0.79507 -0.21287,0.55473 -0.822,0.74356 -1.25075,0.38773 -0.48708,-0.40423 -0.44977,-0.89385 0.0901,-1.1828 z m 0.33159,-11.76997 c 0.15353,-0.15354 0.42151,-0.27915 0.5955,-0.27915 0.17399,0 0.50425,-0.30898 0.73391,-0.68662 0.22965,-0.37765 0.52585,-0.71333 0.65819,-0.74595 0.13234,-0.0327 0.21355,-0.15677 0.18046,-0.27588 -0.11984,-0.43145 0.64333,-0.20387 0.99368,0.29632 0.22033,0.31456 0.50558,0.45674 0.73768,0.36766 0.2296,-0.0881 0.4929,0.038 0.66943,0.32071 0.19223,0.30782 0.46098,0.42327 0.79188,0.34022 0.3589,-0.0901 0.57723,0.0317 0.77018,0.42969 0.49023,1.01113 0.57184,2.13093 0.1836,2.51917 -0.19855,0.19855 -0.30409,0.45307 -0.23454,0.56559 0.158,0.25565 -0.91696,1.44099 -1.3068,1.44099 -0.15807,0 -0.22284,0.10444 -0.14396,0.23209 0.0875,0.14149 -0.56456,0.22839 -1.67018,0.22262 -1.41034,-0.007 -1.81362,-0.0862 -1.81362,-0.3546 0,-0.18981 -0.32485,-0.68503 -0.72188,-1.10049 -0.71939,-0.75277 -0.90345,-1.16526 -0.51995,-1.16526 0.22708,0 0.20362,-1.22285 -0.0307,-1.60203 -0.0836,-0.13526 -0.0264,-0.37155 0.12716,-0.52508 z m 1.38603,5.73651 c 0.13235,0 0.24063,0.10829 0.24063,0.24063 0,0.13235 -0.10828,0.24063 -0.24063,0.24063 -0.13234,0 -0.24062,-0.10828 -0.24062,-0.24063 0,-0.13234 0.10828,-0.24063 0.24062,-0.24063 z m 4.90235,-132.31935 c 0.52467,-0.43544 1.15023,-0.0549 1.06618,0.6486 -0.0903,0.75559 -0.49357,0.91666 -1.00775,0.40247 -0.47516,-0.47516 -0.48739,-0.69506 -0.0585,-1.05107 z m 9.26339,156.39203 c 0.60954,-1.00171 1.45373,-1.66268 3.6886,-2.88806 1.07625,-0.5901 2.02246,-0.3523 2.25299,0.56622 0.21064,0.83927 -0.0564,1.50115 -1.04857,2.59942 -1.72693,1.9115 -3.87765,3.0059 -5.05287,2.57117 -0.74062,-0.27398 -0.67295,-1.48018 0.15985,-2.84875 z m 5.29333,-22.91459 c 0.20809,-0.88523 1.12507,-1.87997 1.73299,-1.87997 0.63517,0 1.9081,-1.25468 1.9081,-1.88075 0,-0.88725 0.67218,-0.78039 1.55127,0.24662 0.98022,1.14518 1.21993,2.10188 1.00324,4.00411 -0.27851,2.44502 -1.00995,5.93174 -1.24334,5.92699 -0.55412,-0.0113 -2.71283,-1.35815 -3.52666,-2.20036 -0.49061,-0.50772 -1.05909,-1.39695 -1.26328,-1.97605 -0.39332,-1.11549 -0.40121,-1.22434 -0.16232,-2.24059 z m 5.08485,-8.61751 c 0.10596,-0.33086 0.20345,-1.10817 0.21664,-1.72736 0.0228,-1.07181 0.46007,-1.88204 1.01563,-1.88204 0.35867,0 1.7524,0.75402 1.95234,1.05624 0.28672,0.43335 0.21026,1.46941 -0.17678,2.39573 -0.19851,0.47512 -0.36094,1.25124 -0.36094,1.72471 0,0.59316 -0.18367,1.04453 -0.59063,1.45149 -0.68825,0.68825 -1.02839,0.72995 -1.7621,0.21604 -0.43107,-0.30193 -0.53014,-0.59362 -0.5108,-1.50391 0.0132,-0.62114 0.11068,-1.40004 0.21664,-1.7309 z m 12.64888,2.76721 c 0.0342,-0.13235 0.12713,-0.53528 0.20643,-0.89541 0.18344,-0.8329 0.92296,-1.26215 1.57411,-0.91367 0.88954,0.47607 1.15831,2.8655 0.42678,3.79424 -0.31779,0.40348 -1.25483,0.38194 -1.60238,-0.0368 -0.32266,-0.38877 -0.6967,-1.59348 -0.60494,-1.94833 z"
       id="path245"
       inkscape:connector-curvature="0" />
  </g>
</svg>
