<?xml version="1.0" encoding="UTF-8" standalone="no"?>
<!-- Created with Inkscape (http://www.inkscape.org/) -->

<svg
   xmlns:dc="http://purl.org/dc/elements/1.1/"
   xmlns:cc="http://creativecommons.org/ns#"
   xmlns:rdf="http://www.w3.org/1999/02/22-rdf-syntax-ns#"
   xmlns:svg="http://www.w3.org/2000/svg"
   xmlns="http://www.w3.org/2000/svg"
   xmlns:sodipodi="http://sodipodi.sourceforge.net/DTD/sodipodi-0.dtd"
   xmlns:inkscape="http://www.inkscape.org/namespaces/inkscape"
   width="210mm"
   height="297mm"
   viewBox="0 0 210 297"
   version="1.1"
   id="svg8"
   inkscape:version="0.92.2 (5c3e80d, 2017-08-06)"
   sodipodi:docname="drawing.svg">
  <defs
     id="defs2" />
  <sodipodi:namedview
     id="base"
     pagecolor="#ffffff"
     bordercolor="#666666"
     borderopacity="1.0"
     inkscape:pageopacity="0.0"
     inkscape:pageshadow="2"
     inkscape:zoom="0.98994949"
     inkscape:cx="244.69817"
     inkscape:cy="400.57199"
     inkscape:document-units="mm"
     inkscape:current-layer="layer1"
     showgrid="false"
     inkscape:window-width="1920"
     inkscape:window-height="986"
     inkscape:window-x="-11"
     inkscape:window-y="-11"
     inkscape:window-maximized="1" />
  <metadata
     id="metadata5">
    <rdf:RDF>
      <cc:Work
         rdf:about="">
        <dc:format>image/svg+xml</dc:format>
        <dc:type
           rdf:resource="http://purl.org/dc/dcmitype/StillImage" />
        <dc:title />
      </cc:Work>
    </rdf:RDF>
  </metadata>
  <g
     inkscape:label="Layer 1"
     inkscape:groupmode="layer"
     id="layer1">
    <path
       style="fill:#000000;stroke-width:0.8675583"
       d="m 145.86149,286.92287 c -4.08238,-1.05262 -8.43357,-3.83903 -8.46385,-5.42006 -0.0211,-1.10083 -0.26163,-1.04089 -1.19081,0.29678 -1.72483,2.48305 -2.93641,1.01244 -2.93641,-3.56423 0,-3.50951 0.28258,-4.16323 2.13091,-4.92966 2.92031,-1.21093 5.36178,-1.09962 7.92922,0.3615 1.35652,0.77199 2.65152,0.93896 3.4592,0.44599 1.71535,-1.04697 4.13529,0.0312 3.58439,1.59692 -0.28313,0.80467 0.16627,1.24212 1.27612,1.24212 1.0145,0 1.89033,0.73897 2.14763,1.81204 0.23897,0.99663 0.86855,1.81206 1.39906,1.81206 0.90567,0 3.826,3.1199 3.826,4.08744 0,0.24347 -0.95664,0.44266 -2.12584,0.44266 -1.29507,0 -1.9117,-0.3779 -1.57787,-0.96701 0.30174,-0.53247 -0.23617,-1.19065 -1.19705,-1.4647 -0.95978,-0.27373 -1.74505,-0.85786 -1.74505,-1.29805 0,-0.91379 -3.36866,-1.072 -5.33178,-0.2504 -0.72272,0.30246 -1.31403,1.11788 -1.31403,1.81204 0,1.68148 1.35979,1.61429 1.96187,-0.0969 0.66538,-1.8911 2.38906,-1.69552 4.08395,0.46337 1.75376,2.23391 1.78608,2.70772 0.18462,2.70772 -0.68534,0 -1.24609,-0.40771 -1.24609,-0.90604 0,-0.49829 -0.58593,-0.90601 -1.30206,-0.90601 -0.92404,0 -1.14897,0.52612 -0.77474,1.81205 0.29002,0.99662 0.40867,1.77031 0.26366,1.7193 -0.14502,-0.0511 -1.51351,-0.41501 -3.04105,-0.80888 z m -2.3398,-7.50877 c 0.45877,-1.99448 0.45051,-1.99356 -1.15632,0.13 -1.88299,2.48862 -2.20055,4.49905 -0.46208,2.92546 0.63598,-0.57566 1.36426,-1.95064 1.6184,-3.05551 z m 4.28646,-3.36789 c -0.28238,-0.49832 -0.86519,-0.90604 -1.29512,-0.90604 -0.42993,0 -0.7817,0.40772 -0.7817,0.90604 0,0.4983 0.5828,0.90602 1.29511,0.90602 0.71233,0 1.0641,-0.40772 0.78171,-0.90602 z m -104.255459,2.98561 c -4.04e-4,-0.60029 1.401116,-1.3753 3.114489,-1.72222 1.713374,-0.34691 3.988239,-1.2505 5.055256,-2.00797 1.666917,-1.18333 2.047669,-1.19597 2.70462,-0.0898 0.420522,0.70806 0.668989,2.10281 0.552147,3.09944 -0.188772,1.61018 -0.837071,1.81205 -5.819106,1.81205 -3.818637,0 -5.606904,-0.34809 -5.607406,-1.09149 z m 12.922273,-1.98101 c -1.808526,-3.81428 -1.635652,-6.13163 0.502921,-6.74157 2.290628,-0.6533 4.209733,0.47409 5.587919,3.28266 1.691063,3.44618 0.913204,5.58108 -2.151692,5.90549 -2.224333,0.23544 -2.852463,-0.15469 -3.939148,-2.44658 z m 10.208219,1.10542 c -0.756361,-0.2188 -1.625184,-1.49659 -1.930715,-2.83947 -0.305533,-1.3429 -1.330323,-3.34704 -2.277312,-4.45362 -1.422906,-1.66273 -1.538768,-2.25253 -0.667427,-3.3976 1.471698,-1.93402 5.212748,-1.72745 7.723429,0.42645 1.295883,1.11175 3.370079,1.81205 5.366947,1.81205 3.18412,0 6.86727,2.7501 6.86727,5.1276 0,2.50424 -3.121053,3.931 -8.372677,3.82753 -2.93387,-0.0578 -5.953153,-0.28413 -6.709515,-0.50294 z M 43.742331,274.9703 c 0.51345,-1.67996 2.301804,-1.9586 2.301804,-0.35864 0,0.789 -0.591893,1.43455 -1.315316,1.43455 -0.723425,0 -1.167344,-0.48417 -0.986488,-1.07591 z m 3.992926,-1.09192 c 1.636138,-1.69717 4.95469,-2.7348 4.95469,-1.5492 0,1.17333 -2.73377,2.81099 -4.692396,2.81099 -1.292243,0 -1.32532,-0.1591 -0.262294,-1.26179 z m 89.727123,-4.57701 c -0.79865,-1.04952 -0.64132,-1.63265 0.79443,-2.94456 2.5767,-2.3545 4.09625,-5.9121 6.69272,-15.66925 1.26121,-4.73948 3.32123,-12.18593 4.57781,-16.54767 l 2.28468,-7.93044 4.64387,0.2956 c 5.57509,0.35489 6.28434,1.86418 3.04962,6.48951 -1.18065,1.68823 -3.8406,8.0903 -5.91102,14.22686 -2.07041,6.13652 -4.12585,12.09386 -4.56768,13.23851 -0.44182,1.14466 -0.8033,3.70565 -0.8033,5.69109 0,3.78834 -2.00069,5.88634 -3.34726,3.51005 -0.5502,-0.97094 -1.12157,-0.99729 -2.8628,-0.13209 -2.79393,1.38838 -3.34218,1.36097 -4.55107,-0.22768 z m -68.484387,-5.56059 c -0.277333,-0.78821 -0.504242,-3.03435 -0.504242,-4.99142 0,-2.19523 -1.421579,-7.18824 -3.711013,-13.03415 -3.363798,-8.58926 -5.287136,-12.40719 -9.23063,-18.32325 -1.60762,-2.41178 -1.06005,-3.57357 2.413472,-5.12075 l 2.636269,-1.17424 -2.49218,-1.3001 c -2.710469,-1.41398 -3.825189,-5.07443 -1.941815,-6.37644 0.611098,-0.42244 2.312874,-0.77434 3.781722,-0.78197 3.192032,-0.0166 5.177803,2.843 3.502813,5.04417 -0.793697,1.04303 -0.738339,1.64546 0.265262,2.88665 0.697556,0.86271 1.540419,2.99553 1.873029,4.73964 1.192001,6.25045 9.547542,29.18242 11.604321,31.84833 3.421859,4.43523 2.886469,5.69654 -2.260987,5.32658 -1.76723,-0.12699 -2.169037,0.15804 -1.780256,1.26302 0.374443,1.06423 -0.02593,1.42708 -1.574707,1.42708 -1.142249,0 -2.303725,-0.64491 -2.581058,-1.43315 z m 84.783697,-39.94191 c -1.12742,-1.2296 -0.50208,-3.89254 1.13901,-4.85043 3.2425,-1.89263 7.02137,1.37727 4.86558,4.21025 -0.9751,1.28144 -5.02112,1.7128 -6.00459,0.64018 z m -4.43879,-3.76282 c -0.48835,-0.33895 -1.30238,-2.74149 -1.80894,-5.33894 -1.00177,-5.1368 -7.22723,-15.4662 -16.09036,-26.69752 -4.48647,-5.68521 -5.13806,-6.17978 -8.14163,-6.17978 -2.59962,0 -3.55333,-0.48016 -4.68061,-2.35655 -1.01569,-1.69062 -1.18147,-2.76165 -0.58668,-3.79005 1.59886,-2.76447 3.37113,-3.36206 6.91306,-2.33097 2.71806,0.79124 3.35833,0.74255 3.35833,-0.25552 0,-0.67825 0.7023,-1.23315 1.56067,-1.23315 1.53983,0 2.82141,2.42779 3.86559,7.32294 1.11724,5.23763 18.79031,28.31049 23.23709,30.33689 3.65218,1.66428 5.12611,3.7603 3.99335,5.6787 -0.94551,1.60128 -2.51558,1.75107 -6.37302,0.60799 -2.14633,-0.636 -2.3234,-0.52215 -1.82921,1.17607 0.5969,2.05112 -1.79093,4.18901 -3.41764,3.05989 z m -95.179182,-10.2021 c -2.578325,-1.63785 -1.721633,-4.27169 2.076817,-6.38501 7.560701,-4.20649 22.627424,-22.72232 25.206117,-30.97633 1.241825,-3.97489 3.123868,-5.54965 3.838419,-3.2117 0.229951,0.75239 1.143153,0.70496 3.375166,-0.1753 2.857196,-1.12682 3.198637,-1.06465 5.153707,0.93851 3.30973,3.39116 2.730874,5.24595 -2.411221,7.72615 -3.719854,1.79421 -6.036371,4.076 -13.291624,13.09238 -6.640739,8.2527 -8.786622,11.53286 -8.786622,13.43105 0,2.95227 -2.076286,6.53885 -3.785375,6.53885 -0.659441,0 -1.198983,-0.61158 -1.198983,-1.35904 0,-1.69097 -0.783411,-1.68307 -2.858638,0.0288 -1.856386,1.53136 -5.207143,1.69237 -7.317763,0.35162 z m 48.805192,-27.74267 c -2.14661,-0.54825 -3.738265,-2.81203 -3.738265,-5.31683 0,-1.08951 -0.539872,-2.4696 -1.199717,-3.06688 -0.659851,-0.59725 -1.314039,-2.58379 -1.453771,-4.41454 -0.200181,-2.62262 -0.63771,-3.38821 -2.062874,-3.60952 -2.734259,-0.42461 -3.90308,-2.38576 -2.291355,-3.84461 1.106592,-1.00162 1.796564,-0.91496 4.26673,0.53589 1.620694,0.9519 3.516672,2.67946 4.213302,3.83901 0.69662,1.15957 2.314,2.69901 3.59416,3.421 4.07933,2.30071 6.40225,1.66893 10.59294,-2.88109 6.35772,-6.90278 12.74757,-8.53958 13.89374,-3.55896 1.24221,5.39803 -2.2039,8.29654 -8.785,7.38897 -4.69775,-0.64783 -5.91675,0.19709 -6.56561,4.55083 -0.42348,2.84139 -1.11689,3.8402 -3.82924,5.51558 -3.38971,2.09381 -3.76258,2.1748 -6.63504,1.44115 z m 22.73605,-14.17169 c 1.1483,-1.50901 0.39979,-2.40819 -2.00463,-2.40819 -1.95205,0 -4.05645,2.02896 -3.14049,3.02793 0.9493,1.03536 4.18199,0.64598 5.14512,-0.61974 z m -20.09821,-0.28627 c -1.00102,-1.09176 1.27276,-3.02794 3.55587,-3.02794 2.79686,0 3.62524,0.82433 2.42,2.4082 -0.95463,1.25451 -5.00838,1.6749 -5.97587,0.61974 z m -71.837367,-2.30313 c -0.54828,-0.59798 -0.996872,-1.82665 -0.996872,-2.73036 0,-0.90372 -0.432824,-2.39901 -0.961832,-3.32286 -1.262452,-2.20474 -0.400984,-4.46207 2.098392,-5.49845 1.105423,-0.45838 4.991688,-3.45899 8.636142,-6.66799 3.644454,-3.20904 9.011197,-7.59927 11.926095,-9.75612 2.914897,-2.15684 7.80835,-6.48891 10.874337,-9.62681 3.065985,-3.13793 6.056602,-5.69236 6.64581,-5.67654 0.589212,0.0158 2.305356,1.38219 3.813656,3.03637 l 2.742366,3.00761 -4.392697,5.73356 c -4.935712,6.44232 -12.977109,13.24873 -25.064788,21.21538 -4.496316,2.96339 -9.116954,6.7347 -10.268082,8.38071 -2.231281,3.19052 -3.452142,3.65094 -5.052527,1.9055 z m 15.153975,-16.26966 c 8.653903,-5.5591 17.76247,-13.49649 21.642158,-18.85942 l 1.656404,-2.28967 -1.817653,1.35904 c -8.144251,6.08935 -26.766598,21.01952 -27.625626,22.1484 -1.733674,2.27829 -0.09282,1.64852 6.144717,-2.35835 z m 56.122422,13.73283 c -1.71067,-1.15309 -0.29791,-2.43415 3.53053,-3.20144 2.50776,-0.5026 3.11524,-0.35011 3.11524,0.78204 0,0.77353 -0.28037,1.57796 -0.62305,1.78761 -1.68699,1.03221 -4.92478,1.37185 -6.02272,0.63179 z m -23.890551,-5.57982 c -1.653374,-1.80323 -1.195196,-2.81573 1.002014,-2.21428 1.118327,0.30612 3.779864,-0.0901 5.914529,-0.88055 4.399819,-1.62917 6.463218,-0.71759 4.823362,2.13088 -1.129355,1.96174 -10.14621,2.70209 -11.739905,0.96395 z m -56.369931,-1.15956 c -0.279726,-0.79503 1.343104,-3.26816 4.161645,-6.34217 4.703037,-5.12932 5.795521,-5.78748 6.765463,-4.07582 0.698666,1.23293 -1.667786,4.11431 -5.639755,6.86695 -1.713375,1.1874 -3.115226,2.76536 -3.115226,3.50658 0,1.72397 -1.569894,1.75609 -2.172127,0.0445 z m 80.012702,0.73103 c -1.08534,-1.18374 -0.5911,-2.09479 1.89797,-3.4986 4.53573,-2.55811 8.24113,-6.78951 8.80228,-10.05179 0.60023,-3.48952 1.71669,-4.67843 3.039,-3.23626 2.55969,2.79169 -0.488,10.74031 -5.52471,14.4089 -2.84318,2.07092 -7.3103,3.36394 -8.21454,2.37775 z m -30.423562,-5.05217 c -3.586781,-2.08803 -3.076726,-3.43211 1.318943,-3.47564 2.208347,-0.0218 5.409861,-0.58272 7.114473,-1.24631 2.633789,-1.02531 3.247382,-1.01191 4.085259,0.0891 2.703397,3.55263 -7.737088,7.41634 -12.518675,4.63279 z m 23.517347,-0.88152 c -0.360831,-0.63674 0.207759,-1.62833 1.404744,-2.44979 6.155401,-4.22436 11.564281,-13.38914 11.564281,-19.59445 0,-2.5749 0.83294,-3.38059 2.20807,-2.13588 1.66182,1.50419 1.32829,8.79317 -0.61642,13.47156 -2.097,5.04476 -4.42051,7.8219 -8.41204,10.05442 -3.5492,1.98511 -5.289489,2.17025 -6.148635,0.65414 z m -25.867446,-6.37823 c -1.028024,-0.54073 -1.869136,-1.27865 -1.869136,-1.63979 0,-1.25521 2.478135,-2.89029 3.64218,-2.40311 0.644136,0.26956 2.516678,-0.29639 4.161202,-1.25768 4.023916,-2.35217 5.673112,-2.27197 5.338339,0.2596 -0.310089,2.34491 -5.128449,6.17425 -7.657165,6.08545 -0.960457,-0.0337 -2.587396,-0.50374 -3.61542,-1.04447 z m 20.847149,-1.19834 c -0.27056,-0.76895 -0.352283,-1.49894 -0.181614,-1.62218 7.171217,-5.17847 9.687466,-9.59394 10.433646,-18.30885 0.27555,-3.21835 0.76284,-5.85155 1.08286,-5.85155 0.32001,0 1.20052,0.74559 1.95668,1.65688 4.7075,5.67321 -3.66124,25.52382 -10.760506,25.52382 -1.121529,0 -2.260511,-0.62917 -2.531066,-1.39812 z m -6.400495,-8.11036 c -0.297058,-0.84429 0.471531,-2.11874 2.040969,-3.38425 3.209625,-2.58805 5.372851,-6.51563 6.122926,-11.11688 0.658966,-4.04237 1.741279,-5.88915 3.451378,-5.88915 0.812541,0 1.14203,1.24792 1.136264,4.30361 -0.0096,5.23958 -3.022527,12.72191 -6.230299,15.47384 -2.651381,2.27462 -5.831398,2.57345 -6.521238,0.61283 z m -50.470224,-1.95273 c -1.194307,-1.4202 -2.568275,-3.88081 -3.053266,-5.46807 -0.484989,-1.58727 -2.589121,-5.60542 -4.675848,-8.92923 -4.113518,-6.55216 -6.298966,-13.12021 -6.297933,-18.927562 0.0016,-8.914006 8.943128,-22.022338 18.430715,-27.019477 3.919649,-2.06449 5.834537,-2.488347 11.241801,-2.488347 6.27095,0 6.720594,0.145615 11.890146,3.850598 6.083522,4.360022 10.69129,11.049997 13.400036,19.455416 l 1.669593,5.180865 -1.733225,1.530687 c -2.187411,1.9318 -2.216213,4.06563 -0.07177,5.31733 2.55034,1.48862 2.001506,3.78886 -1.900579,7.96558 -3.748992,4.01285 -5.019913,4.74161 -4.198699,2.40759 0.692835,-1.96915 -2.884034,-5.84305 -5.395033,-5.84305 -2.927051,0 -9.273852,4.25848 -9.273852,6.22243 0,0.88875 0.918753,2.55727 2.041674,3.70782 1.718588,1.76086 2.585514,1.99705 5.47836,1.49255 l 3.436687,-0.59937 -5.139581,4.88866 c -6.889492,6.55315 -11.452791,8.91708 -18.193383,9.4247 -5.190783,0.39091 -5.600621,0.27479 -7.655842,-2.16912 z m 11.766074,-1.69939 c 2.907943,-1.64007 3.110644,-3.80078 0.673561,-7.17985 -1.547863,-2.14614 -2.16268,-2.38552 -4.761385,-1.85381 -6.255836,1.27998 -8.083857,4.51658 -4.659996,8.25078 2.286236,2.49346 5.245278,2.75827 8.74782,0.78288 z m 9.304419,-4.61193 c 0.799573,-0.30761 1.449968,-1.02138 1.445322,-1.58614 -0.01101,-1.33637 -6.479286,-4.30385 -7.078052,-3.24722 -0.72344,1.27665 2.083957,6.47265 3.189282,5.90283 0.544322,-0.28062 1.643874,-0.76189 2.443448,-1.06947 z m 20.560481,-2.61299 c 0,-0.83053 0.401864,-1.36394 0.893031,-1.18538 0.491166,0.17856 0.893031,0.71198 0.893031,1.18538 0,0.47339 -0.401865,1.00682 -0.893031,1.18538 -0.491167,0.17856 -0.893031,-0.35485 -0.893031,-1.18538 z m 3.322906,-0.35608 c 0,-0.94332 -0.560741,-1.94979 -1.246091,-2.23663 -1.729828,-0.72395 -1.567395,-3.29771 0.207683,-3.29071 1.958451,0.007 4.522232,4.89249 3.279309,6.24809 -1.363106,1.48663 -2.240901,1.20432 -2.240901,-0.72075 z m -6.040509,-2.02855 c -0.789817,-0.48207 -1.43603,-1.69913 -1.43603,-2.70457 0,-1.41385 0.37529,-1.69817 1.656226,-1.25477 1.271416,0.4401 1.540284,0.2438 1.157211,-0.84498 -0.325255,-0.92442 -0.03417,-1.41828 0.835954,-1.41828 1.500923,0 1.788662,1.39929 0.47045,2.28785 -0.475484,0.3205 -0.647191,1.32951 -0.381571,2.24227 0.605424,2.08043 -0.425238,2.8381 -2.30224,1.69248 z m 7.078918,-4.28684 c -1.484925,-1.3864 -2.699862,-2.99949 -2.699862,-3.58467 0,-1.19516 5.669729,-8.31734 6.621173,-8.31734 0.337015,0 1.549014,0.91736 2.69333,2.03855 2.158795,2.1152 5.260004,4.30362 6.098648,4.30362 0.265433,0 0.255312,-0.78112 -0.02251,-1.73579 -0.653858,-2.24686 0.918439,-3.29269 2.626227,-1.7469 1.167864,1.05709 1.257903,0.95731 0.740495,-0.82069 -0.471054,-1.61866 -0.159863,-2.23739 1.553554,-3.08883 1.535467,-0.76303 2.005647,-1.53529 1.659307,-2.72541 -0.31699,-1.08929 -0.0687,-1.66068 0.72192,-1.66068 2.05063,0 2.23593,3.38395 0.27169,4.96209 l -1.78029,1.43033 1.86913,-0.5392 c 1.02802,-0.29656 1.86914,-0.27128 1.86914,0.0562 0,0.75491 -3.52167,3.98655 -4.388115,4.02673 -0.894175,0.0415 -12.105933,8.14477 -12.686377,9.16907 -0.790256,1.39456 -2.325746,0.86745 -5.147449,-1.76703 z m 4.008825,-7.10403 2.013941,-2.4502 -2.031287,1.39522 c -1.117209,0.76737 -2.176384,1.86996 -2.353726,2.4502 -0.508934,1.66519 0.197011,1.2498 2.371072,-1.39522 z m -5.020815,-3.21243 c 0.03598,-1.54231 2.032168,-4.30362 3.111158,-4.30362 0.482682,0 1.002209,-0.37036 1.154509,-0.82303 0.435662,-1.29486 3.388694,-1.56272 3.780329,-0.34291 0.194082,0.60452 -0.588569,1.35682 -1.739228,1.6718 -1.150658,0.31496 -2.68114,1.55314 -3.401071,2.75148 -1.405108,2.33884 -2.948816,2.89469 -2.905697,1.04628 z m 9.942298,0.24739 c 0,-0.48683 0.941241,-1.55776 2.091644,-2.37986 1.915836,-1.36908 1.973083,-1.58927 0.68102,-2.61968 -1.301037,-1.03757 -1.269917,-1.20712 0.400524,-2.18215 1.587868,-0.926816 1.811172,-0.827688 1.811172,0.80403 0,1.56078 0.355196,1.76395 2.20073,1.25877 3.082944,-0.8439 1.952854,0.7708 -2.556722,3.65311 -4.051645,2.58966 -4.628368,2.77229 -4.628368,1.46578 z m -2.349145,-2.42687 c 0.160275,-0.90768 0.941313,-1.78683 1.735642,-1.95366 2.01069,-0.42232 1.80972,1.36448 -0.29141,2.5909 -1.486439,0.86762 -1.6938,0.77613 -1.444232,-0.63724 z m 9.491558,-5.508645 c -1.000011,-1.09063 -0.45438,-2.051624 1.164866,-2.051624 0.913795,0 1.661455,0.364086 1.661455,0.809091 0,1.018398 -2.160819,1.968368 -2.826321,1.242533 z M 84.65341,94.807892 c -1.164441,-2.011789 -1.930661,-3.986914 -1.702708,-4.389176 0.22795,-0.402262 2.76475,-2.000691 5.637332,-3.552069 6.080723,-3.28399 26.880736,-21.083838 27.624636,-23.640124 0.27857,-0.957209 1.1111,-1.993427 1.85008,-2.302704 1.70655,-0.714217 7.88753,3.858575 7.558,5.591532 -0.13319,0.700621 -2.22589,2.162336 -4.65038,3.248257 -4.67461,2.093745 -29.012221,22.734319 -31.303608,26.548391 -1.779743,2.962436 -2.564325,2.727039 -5.013352,-1.504107 z m 42.38657,-32.583124 c -0.82698,-0.996626 -1.96063,-1.812046 -2.51922,-1.812046 -0.55858,0 -1.43117,-0.546109 -1.93907,-1.213571 -1.01305,-1.331277 -0.84806,-1.482586 11.65012,-10.68398 3.81179,-2.806307 10.66879,-7.191331 15.23778,-9.744499 4.56901,-2.553166 8.98277,-5.149622 9.8084,-5.769899 1.29304,-0.971447 1.84002,-0.717624 3.94595,1.831093 3.01785,3.652373 3.04989,4.536278 0.2072,5.715031 -1.23069,0.510319 -4.68859,2.888175 -7.68422,5.284119 -6.30315,5.041355 -12.77247,9.549744 -18.8976,13.169508 -2.37214,1.401873 -4.50993,3.108532 -4.75059,3.792575 -0.64028,1.81975 -3.3277,1.517828 -5.05875,-0.568331 z m 8.97157,-6.920823 c 1.46224,-0.816579 6.45426,-4.294879 11.09341,-7.729559 12.67371,-9.38321 13.99613,-12.029962 2.41394,-4.831307 -9.58827,5.959375 -19.15808,14.045551 -16.62257,14.045551 0.25113,0 1.65298,-0.66811 3.11522,-1.484685 z m 31.26269,-19.880427 c -0.86387,-1.135235 -0.88109,-1.797706 -0.0829,-3.191527 0.92309,-1.61207 0.86864,-1.664555 -0.65229,-0.628633 -1.31942,0.898678 -1.8703,0.900336 -2.6884,0.0081 -0.81808,-0.892247 -0.5696,-1.623159 1.21268,-3.566982 2.19827,-2.39752 2.26543,-2.410417 3.47396,-0.667163 0.67779,0.977694 1.24423,2.707768 1.25878,3.844612 0.0146,1.136841 0.59669,2.305658 1.2937,2.597369 0.97726,0.409 1.04904,0.817202 0.31366,1.783612 -1.25755,1.652577 -2.78559,1.586194 -4.12911,-0.179379 z m 5.87106,0.121243 c 0,-1.186715 7.36601,-5.936829 9.20625,-5.936829 1.87254,0 0.44061,2.029157 -3.18348,4.511237 -4.38026,2.999971 -6.02277,3.388752 -6.02277,1.425592 z m -2.07681,-4.124782 c 0.28238,-0.498313 0.67827,-0.906024 0.87976,-0.906024 0.20149,0 0.36633,0.407711 0.36633,0.906024 0,0.498311 -0.3959,0.906023 -0.87976,0.906023 -0.48386,0 -0.64872,-0.407712 -0.36633,-0.906023 z m 2.90902,-0.168534 c 0.001,-1.063975 6.4321,-6.173627 7.76985,-6.173627 0.29476,0 1.28358,-0.815421 2.19739,-1.812047 1.95038,-2.12717 3.3229,-2.339503 3.3229,-0.514066 0,0.713888 -0.81237,1.579187 -1.80527,1.922885 -0.99289,0.343698 -2.47964,1.310122 -3.30387,2.147607 -2.74,2.784075 -8.18263,5.730744 -8.181,4.429248 z m -3.79876,-3.73411 -2.25011,-2.110889 2.81602,-2.871098 c 2.87361,-2.929841 3.95062,-3.047059 8.00804,-0.871579 1.02803,0.551197 1.86453,1.239066 1.85887,1.528596 -0.008,0.442952 -3.01543,2.845936 -7.19003,5.746195 -0.57625,0.400347 -1.93661,-0.19586 -3.24279,-1.421225 z m 10.4431,-6.51662 c -0.56879,-0.74747 -1.76721,-1.359036 -2.66313,-1.359036 -2.546,0 -1.26289,-2.148892 1.6743,-2.804063 1.75854,-0.392258 2.93471,-0.178903 3.56261,0.646253 0.51556,0.67751 1.287,0.996172 1.71431,0.708139 0.46499,-0.31342 0.41099,-1.004606 -0.13442,-1.721409 -1.3225,-1.737943 0.38807,-2.587184 2.60489,-1.293241 1.77561,1.036408 1.74947,1.110724 -1.43659,4.084984 -3.74429,3.49536 -3.93705,3.558319 -5.32193,1.738373 z m 7.1686,-0.26341 c -0.60235,-1.062979 1.76645,-3.430999 2.56305,-2.562197 0.30444,0.33203 -0.0342,1.244675 -0.7525,2.028098 -0.77689,0.847301 -1.51043,1.063694 -1.81055,0.534099 z m 2.92398,-5.266796 c -0.61721,-0.761296 -0.90661,-1.619307 -0.64312,-1.906692 0.57774,-0.630093 3.01143,1.442587 3.01143,2.564709 0,1.201904 -1.11054,0.893349 -2.36831,-0.658017 z"
       id="path3849"
       inkscape:connector-curvature="0" />
  </g>
</svg>
