<?xml version="1.0" encoding="UTF-8" standalone="no"?>
<!-- Created with Inkscape (http://www.inkscape.org/) -->

<svg
   xmlns:dc="http://purl.org/dc/elements/1.1/"
   xmlns:cc="http://creativecommons.org/ns#"
   xmlns:rdf="http://www.w3.org/1999/02/22-rdf-syntax-ns#"
   xmlns:svg="http://www.w3.org/2000/svg"
   xmlns="http://www.w3.org/2000/svg"
   xmlns:sodipodi="http://sodipodi.sourceforge.net/DTD/sodipodi-0.dtd"
   xmlns:inkscape="http://www.inkscape.org/namespaces/inkscape"
   width="600mm"
   height="500mm"
   viewBox="0 0 600 500"
   version="1.1"
   id="svg8"
   inkscape:version="0.92.2 (5c3e80d, 2017-08-06)"
   sodipodi:docname="tree.svg">
  <sodipodi:namedview
     id="base"
     pagecolor="#ffffff"
     bordercolor="#666666"
     borderopacity="1.0"
     inkscape:pageopacity="0.0"
     inkscape:pageshadow="2"
     inkscape:zoom="0.35"
     inkscape:cx="957.1429"
     inkscape:cy="977.14286"
     inkscape:document-units="mm"
     inkscape:current-layer="layer1"
     showgrid="false"
     inkscape:window-width="1920"
     inkscape:window-height="986"
     inkscape:window-x="-11"
     inkscape:window-y="-11"
     inkscape:window-maximized="1" />
  <defs
     id="defs2" />
  <metadata
     id="metadata5">
    <rdf:RDF>
      <cc:Work
         rdf:about="">
        <dc:format>image/svg+xml</dc:format>
        <dc:type
           rdf:resource="http://purl.org/dc/dcmitype/StillImage" />
        <dc:title />
      </cc:Work>
    </rdf:RDF>
  </metadata>
  <g
     transform="translate(0,0)"
     id="layer1"
     inkscape:groupmode="layer"
     inkscape:label="Layer 1">
    <path
       id="path21"
       d="M 273.50763,489.60485 C 220.25998,484.24375 169.89578,460.32393 130.19711,421.54142 92.940623,385.14473 70.437508,342.24119 60.282471,288.24497 57.600524,273.98452 57.607878,223.36186 60.294047,208.8808 71.048733,150.9018 98.606513,102.31303 141.85356,65.078341 c 35.11046,-30.22927 77.96675,-49.4772 125.07153,-56.1730296 12.63833,-1.79651 48.3006,-2.08562 61.4339,-0.49805 54.12811,6.5430696 104.73914,31.4892096 143.25282,70.6092096 36.62483,37.201419 59.14191,82.065699 67.32488,134.141819 2.89524,18.42526 2.61197,56.49679 -0.55305,74.329 -4.72325,26.6114 -10.15451,43.72846 -20.9964,66.17184 -12.62484,26.1342 -26.51332,45.68613 -47.01328,66.18451 -46.60202,46.59835 -107.50464,71.48508 -173.37032,70.84456 -7.75367,-0.0754 -18.32686,-0.5629 -23.49597,-1.08335 0,0 -4e-5,0 -4e-5,0 z m 59.00099,-18.07648 c 38.02613,-6.32748 73.77455,-23.00321 107.03719,-49.93013 28.33346,-22.93663 54.97286,-58.26487 69.45197,-92.1048 24.45877,-57.16394 21.61618,-124.22519 -7.59132,-179.09149 -5.96649,-11.20806 -18.7195,-30.58135 -26.80928,-40.72636 C 466.6232,99.6758 449.27631,82.369971 438.52357,73.687421 393.44932,37.291091 344.90661,20.290741 291.78228,22.296501 243.7846,24.108701 202.04219,40.479461 160.48433,73.789641 125.91089,101.50154 96.862963,142.98946 83.812799,183.2963 c -12.297837,37.98319 -13.509176,81.17218 -3.324303,118.52411 10.202737,37.41746 32.923874,75.56675 62.243324,104.50794 37.3405,36.85873 83.58487,60.17646 131.29795,66.20415 14.78969,1.8684 44.25658,1.36244 58.47885,-1.00413 0,0 0,0 0,0 m -45.94767,-4.77573 C 238.40539,463.41522 196.37782,444.74105 155.26077,408.41183 134.80151,390.33495 113.5169,362.00179 100.76895,335.8747 74.02992,281.07272 74.295839,213.18443 101.46271,158.75607 c 6.56795,-13.15878 19.77442,-33.48141 29.802,-45.86051 19.75199,-24.383899 49.14856,-47.868669 78.66896,-62.848209 12.36473,-6.27424 36.2189,-14.41388 49.99852,-17.06076 49.05872,-9.42353 99.14815,-1.00726 141.49795,23.77514 28.7325,16.81377 52.31099,37.74483 72.54642,64.400789 29.85445,39.327 44.41129,80.91431 44.41129,126.87823 0,49.8447 -16.6479,93.65701 -52.06957,137.03162 -30.10178,36.86029 -77.41757,67.02893 -120.75075,76.99096 -17.53803,4.03188 -41.27442,5.91823 -59.00658,4.68931 0,0 0,0 0,0 m -6.63714,-10.89871 c 3.52848,-1.47429 3.69973,-1.76829 3.04938,-5.23496 -0.53596,-2.8569 -0.31195,-3.81765 1.00819,-4.32425 0.94179,-0.3614 2.44088,0.0923 3.36788,1.01934 1.32391,1.3239 1.43569,2.1862 0.53867,4.15495 -1.56962,3.44495 -0.032,5.40329 4.34573,5.53492 2.0143,0.0606 3.41392,-0.29187 3.11026,-0.78321 -0.30366,-0.49132 -1.43648,-0.89331 -2.51738,-0.89331 -2.49325,0 -3.7241,-1.91492 -2.20639,-3.43263 0.63917,-0.63918 1.16213,-2.00799 1.16213,-3.04181 0,-1.03382 0.49235,-1.87968 1.09413,-1.87968 1.46633,0 5.99248,4.9614 6.77481,7.42628 0.48792,1.53728 1.63294,1.97211 5.19312,1.97211 5.1553,0 6.67881,-1.38551 4.37842,-3.9818 -0.85849,-0.96892 -1.78984,-2.7015 -2.06969,-3.85019 -0.4131,-1.69569 -0.5316,-1.58765 -0.62994,0.57435 -0.0666,1.46458 0.44276,3.22678 1.13198,3.91598 0.97464,0.97466 0.52945,1.25313 -2.00336,1.25313 -2.59538,0 -3.71515,-0.74214 -5.51583,-3.65572 -3.32276,-5.37632 -5.93205,-6.78694 -12.55421,-6.78694 -6.54365,0 -8.33061,1.16961 -8.33061,5.45257 0,4.12736 -4.05399,5.99516 -7.75247,3.57182 -1.43919,-0.943 -3.60913,-1.71453 -4.82209,-1.71453 -1.97208,0 -1.85764,-0.29262 1.08175,-2.76595 2.4307,-2.04531 3.13762,-3.36169 2.71326,-5.05248 -0.31646,-1.26085 0.11903,-3.18203 0.9708,-4.28284 1.45661,-1.88249 1.60714,-1.89211 2.64008,-0.16885 1.36926,2.28439 7.52384,2.45631 9.34572,0.26107 1.7998,-2.16863 4.54365,-1.95756 6.78772,0.52214 1.03956,1.14869 3.10955,2.07013 4.59998,2.04765 0,0 2.70989,-0.0409 2.70989,-0.0409 0,0 -3.1328,-1.40119 -3.1328,-1.40119 -1.72304,-0.77064 -3.72417,-2.39697 -4.44697,-3.61405 -1.62972,-2.74423 -4.15962,-2.78583 -7.56208,-0.12439 -3.33289,2.60704 -4.87034,2.60704 -6.26559,0 -1.48323,-2.77145 -3.72383,-2.63671 -6.76754,0.40701 -1.61265,1.61266 -2.30059,3.241 -1.94452,4.60265 0.86419,3.30461 -3.04066,6.47726 -7.97211,6.47726 -4.70654,0 -6.41014,-1.83537 -8.27302,-8.91292 -1.06887,-4.0609 -4.95996,-8.62434 -10.51912,-12.33671 -1.87144,-1.24972 -4.9187,-1.7242 -11.07336,-1.7242 -7.58767,0 -8.78829,-0.27512 -11.28068,-2.585 -2.88223,-2.67117 -6.9141,-10.84106 -6.9141,-14.01024 0,-0.9913 0.70523,-2.71454 1.56717,-3.82941 1.47538,-1.90833 1.63131,-1.92003 2.66256,-0.1996 0.60245,1.0051 2.24682,1.82747 3.65415,1.82747 3.12938,0 3.4218,2.59743 0.47024,4.17705 -1.14869,0.61477 -2.08853,1.77008 -2.08853,2.56737 0,1.21149 0.51464,1.19289 3.13279,-0.11326 2.33285,-1.16377 3.1328,-2.28992 3.1328,-4.41029 0,-3.28799 -1.69229,-5.35371 -4.38591,-5.35371 -1.48818,0 -1.87968,-0.84674 -1.87968,-4.06532 0,-4.74787 0.95353,-5.33306 8.68993,-5.33306 0,0 5.3863,0 5.3863,0 0,0 -2.88809,2.678 -2.88809,2.678 -2.64892,2.45621 -2.83102,3.10821 -2.19892,7.87322 0.5145,3.87853 0.22292,6.22919 -1.15051,9.2749 -1.80855,4.01068 -1.60502,7.32478 0.44987,7.32478 0.57434,0 0.77378,-0.70488 0.44318,-1.5664 -0.3306,-0.86151 -0.30359,-2.34167 0.06,-3.28923 0.58019,-1.51195 0.98189,-1.42145 3.28202,0.73941 2.59258,2.43558 2.65876,2.44186 6.11815,0.57885 5.04458,-2.71669 7.27285,-1.96776 7.33874,2.46658 0.0437,2.94482 0.56698,3.80201 2.80334,4.59281 3.90037,1.37922 5.57116,0.40852 8.81021,-5.11847 2.57785,-4.39878 2.7464,-5.29538 1.78515,-9.49605 -0.91189,-3.98496 -0.78264,-4.9931 0.91711,-7.15401 2.54525,-3.23575 5.74249,-4.23482 7.88544,-2.46401 1.52747,1.26222 1.5471,1.1694 0.21096,-0.99835 -1.87293,-3.03865 -5.45527,-2.36113 -9.71366,1.83709 -2.92981,2.88841 -2.98249,3.12255 -1.77834,7.90468 1.16064,4.60928 1.06787,5.18961 -1.4337,8.96975 -1.88253,2.84469 -3.42393,4.04162 -5.20481,4.04162 -2.27847,0 -2.47464,-0.34234 -1.97182,-3.44088 0.75095,-4.62754 -2.48168,-6.30396 -8.86856,-4.59921 -4.79308,1.27935 -6.99153,0.2476 -5.84406,-2.74265 0.45927,-1.19685 1.40336,-1.54834 3.04922,-1.13525 3.00132,0.75328 5.9725,-3.02753 5.1027,-6.49313 -0.4942,-1.969 0.0515,-2.63258 3.27201,-3.97817 5.25575,-2.19599 6.16054,-1.22431 3.37904,3.62884 -1.84442,3.21814 -2.09907,4.49001 -1.19024,5.94484 0.6359,1.01796 1.81071,1.89606 2.61067,1.95137 0.96534,0.0667 1.0155,-0.0468 0.14913,-0.33764 -2.04237,-0.6856 -1.54057,-3.73751 1.23257,-7.49626 1.39582,-1.89196 2.28384,-4.10195 1.97334,-4.91109 -0.9543,-2.48686 -5.21261,-2.83612 -9.43417,-0.77379 -3.22592,1.57596 -4.01435,2.56678 -4.28502,5.38505 -0.18242,1.89956 -1.01076,3.71432 -1.84076,4.03281 -2.10355,0.80721 -4.61528,-1.54372 -4.61528,-4.31977 0,-5.31548 10.07524,-9.77575 28.39718,-12.5713 5.45986,-0.83305 10.24063,-6.95731 10.24063,-13.11842 0,0 0,-4.46989 0,-4.46989 0,0 2.4169,2.27057 2.4169,2.27057 1.3293,1.2488 2.93567,2.27056 3.56971,2.27056 0.63405,0 3.10919,-1.87969 5.5003,-4.17706 2.39112,-2.29739 4.98629,-4.17707 5.76705,-4.17707 4.49675,0 1.27287,7.72934 -3.63313,8.71054 -1.748,0.3496 -3.17818,1.08451 -3.17818,1.63311 0,1.84607 6.71923,-0.83009 9.19422,-3.66189 1.65439,-1.89292 2.30711,-3.77523 2.08853,-6.02293 -0.48697,-5.00738 -4.68352,-5.03103 -10.1887,-0.0574 -4.11451,3.7172 -4.34592,3.7916 -6.29836,2.02466 -1.11481,-1.00889 -2.57047,-3.5397 -3.23482,-5.62405 -0.66434,-2.08436 -2.62008,-6.12381 -4.34612,-8.97657 -1.72603,-2.85275 -3.35133,-7.08202 -3.61177,-9.39838 0,0 -0.47353,-4.21156 -0.47353,-4.21156 0,0 2.04573,2.52543 2.04573,2.52543 2.47183,3.05142 10.64031,8.2314 20.66453,13.10425 4.07336,1.98009 8.02067,4.34068 8.77181,5.24576 0.75113,0.90506 1.58473,3.92501 1.85244,6.71102 0.45953,4.78255 0.25504,5.29715 -3.66118,9.21337 -2.28135,2.28134 -6.73254,5.41245 -9.89153,6.95799 -6.67863,3.26755 -7.7663,5.02746 -8.71882,14.10754 -0.78892,7.52037 -3.65698,11.57829 -8.18332,11.57829 -2.76136,0 -5.85015,3.38852 -5.85015,6.41782 0,0.97683 1.25109,3.2629 2.78019,5.08013 2.31037,2.74571 2.61555,3.77225 1.80589,6.0745 -1.13204,3.21894 -4.48271,4.28221 -5.84175,1.85374 -0.51515,-0.92053 -1.67393,-1.67369 -2.57506,-1.67369 -1.15236,0 -0.67841,0.98193 1.59758,3.30986 2.8418,2.90667 3.54464,3.16923 5.76971,2.15542 3.5636,-1.6237 4.48882,-6.67048 2.16687,-11.81965 -2.01037,-4.45818 -0.97579,-7.22107 2.70397,-7.22107 1.03735,0 2.62091,-0.73484 3.51905,-1.63298 1.97871,-1.9787 3.73754,-1.11542 3.73754,1.83453 0,1.19174 0.56502,4.05273 1.25563,6.35773 1.1152,3.72221 1.98407,4.53181 7.76898,7.23889 3.73966,1.75 9.09722,3.2865 12.58088,3.60808 5.61321,0.51818 6.43129,0.94306 10.92569,5.67451 2.80578,2.95378 5.7836,5.11441 7.04879,5.11441 2.30968,0 2.46493,0.42803 2.27253,6.26558 -0.0662,2.01021 0.32949,4.34116 0.87939,5.1799 0.87056,1.32776 1.44691,1.30476 4.4574,-0.17792 0,0 3.45757,-1.70289 3.45757,-1.70289 0,0 -3.1328,0.17792 -3.1328,0.17792 -3.06034,0.17381 -3.12624,0.0747 -2.84969,-4.28768 0.34767,-5.48389 -1.1779,-8.58257 -4.23583,-8.6037 -3.11938,-0.0216 -4.2628,-0.93482 -6.25721,-4.99756 -2.03558,-4.14663 -1.05503,-4.8485 5.01245,-3.58787 4.07016,0.84566 5.01139,1.77854 12.29503,12.1861 1.46948,2.09973 2.75949,2.6809 5.95072,2.6809 2.93701,0 4.88962,0.75542 6.9942,2.70589 2.36571,2.19245 3.60776,2.59423 6.54595,2.11742 1.99443,-0.32365 4.87678,-1.51302 6.40521,-2.64304 1.52843,-1.13003 4.36349,-2.5104 6.30012,-3.06751 0,0 3.52114,-1.01291 3.52114,-1.01291 0,0 -3.78814,-0.0942 -3.78814,-0.0942 -2.08346,-0.0517 -4.31001,0.53464 -4.94786,1.3032 -1.34113,1.61596 -9.4515,4.25918 -10.34061,3.37007 -0.85621,-0.8562 4.02997,-5.86832 6.743,-6.91679 3.7906,-1.46491 4.78379,-4.5156 2.37449,-7.29356 -1.90173,-2.19271 -1.93345,-2.53042 -0.39704,-4.22813 1.73282,-1.91474 7.78189,-5.12573 9.65619,-5.12573 2.48879,0 4.35489,3.45054 4.35489,8.05252 0,8.07327 4.98518,9.67398 15.14577,4.86316 7.28961,-3.45146 9.9166,-6.68099 9.9166,-12.19109 0,-4.55426 2.28338,-8.03445 5.27146,-8.03445 2.56924,0 3.36336,2.90112 1.51605,5.53853 -2.56889,3.66761 -1.78196,4.24053 1.5304,1.11419 2.28799,-2.15948 2.94016,-3.54604 2.49747,-5.30984 -0.50873,-2.02692 -0.19058,-2.38715 2.10826,-2.38715 1.5026,0 4.19288,-1.32728 6.04555,-2.98264 3.19192,-2.85199 3.27754,-3.129 1.95424,-6.32369 -1.53486,-3.70551 -0.85023,-4.95214 3.01288,-5.48603 1.39088,-0.19223 2.69848,-0.86541 2.9058,-1.49598 0.25268,-0.76855 -0.91728,-0.9361 -3.54919,-0.5083 -4.48112,0.72838 -7.14963,4.39138 -5.47657,7.51754 2.22927,4.16544 -2.17968,7.19057 -10.47983,7.19057 -4.26193,0 -5.45079,0.45051 -7.26073,2.75149 -1.2982,1.65041 -2.16432,4.2879 -2.16432,6.59082 0,4.16287 -4.15869,10.19161 -5.0212,7.27909 -0.24098,-0.81375 -1.35281,-3.36675 -2.47073,-5.67333 0,0 -2.03259,-4.19376 -2.03259,-4.19376 0,0 2.76606,-4.94901 2.76606,-4.94901 3.59636,-6.43459 5.89964,-7.98736 10.86093,-7.32191 5.25168,0.70441 8.19259,-1.05062 10.58308,-6.31563 3.5395,-7.79562 1.86783,-12.18586 -4.64003,-12.18586 -3.96142,0 -7.40592,-2.1753 -6.71704,-4.242 0.33163,-0.99486 1.82593,-1.35224 4.76636,-1.13994 4.51925,0.3263 6.62562,-1.56194 6.44242,-5.77526 -0.0555,-1.27763 -0.42478,-0.95871 -1.13198,0.97773 -1.20079,3.28795 -4.8747,4.64068 -8.0249,2.95473 -1.75593,-0.93974 -2.40618,-0.73389 -3.75219,1.18783 -2.05104,2.92827 -2.05401,4.38352 -0.0124,6.07793 2.01964,1.67616 0.28419,3.05188 -3.88001,3.07579 -5.71661,0.0328 -7.86136,-2.43522 -4.52357,-5.20535 2.27056,-1.88441 1.9506,-2.88047 -1.49824,-4.66393 -2.17395,-1.1242 -3.76731,-1.30298 -5.48239,-0.61515 -2.14581,0.86057 -1.97728,0.97709 1.49822,1.03582 4.1777,0.0706 5.39843,2.26561 2.24231,4.03186 -2.50115,1.39971 -1.3698,4.43522 2.40707,6.45831 2.71002,1.45162 4.29395,1.60744 8.35412,0.82184 2.75555,-0.53317 6.6548,-1.04946 8.66501,-1.14734 3.24206,-0.15785 3.6915,0.13862 3.97868,2.62445 0.41563,3.59796 -2.45656,9.17808 -4.78869,9.30351 -0.99036,0.0532 -3.7374,0.0215 -6.10453,-0.0706 -3.80252,-0.14794 -4.69101,0.29698 -7.62686,3.81917 0,0 -3.32297,3.98661 -3.32297,3.98661 0,0 -1.98024,-2.40063 -1.98024,-2.40063 -2.20283,-2.67046 -1.79401,-4.95471 1.1707,-6.54138 4.02526,-2.15425 1.90422,-6.64631 -3.61041,-7.64632 -2.27057,-0.41173 -3.78258,0.27093 -6.96181,3.14316 -3.82006,3.4512 -4.32813,3.61635 -8.55394,2.78066 -5.3303,-1.05411 -6.18877,-3.76859 -1.35987,-4.2999 3.81428,-0.41967 7.83199,-3.94379 7.83199,-6.86983 0,-1.63968 -0.46243,-1.28598 -1.94452,1.48735 -1.66585,3.11717 -2.55214,3.68409 -6.18426,3.95577 -5.28736,0.39551 -7.15805,2.29791 -5.25543,5.3445 0.74547,1.19371 2.38657,2.17036 3.64689,2.17036 1.26033,0 3.505,0.46137 4.98816,1.02527 2.33799,0.8889 3.23195,0.54168 6.72121,-2.61066 4.00554,-3.61877 7.71955,-4.65172 9.04051,-2.51436 0.38123,0.61685 -0.29591,2.17438 -1.50477,3.46116 -2.73539,2.91169 -2.78168,5.31051 -0.16666,8.63497 1.61798,2.05693 1.91049,3.60212 1.43766,7.59446 -0.37777,3.18965 -0.16709,5.27569 0.57939,5.73704 1.74087,1.07593 1.42042,7.51495 -0.46799,9.40336 -1.96381,1.96382 -8.72885,2.21706 -8.96666,0.33565 -0.0908,-0.71793 -0.23027,-3.36184 -0.31004,-5.87537 -0.15687,-4.94253 -3.08924,-8.4833 -7.02562,-8.4833 -2.69928,0 -10.92915,4.86649 -12.83754,7.59108 -1.32492,1.8916 -1.29776,2.50424 0.22531,5.0826 1.72122,2.91381 1.70659,2.95421 -2.39202,6.60386 -2.82197,2.51282 -4.7832,3.4939 -6.2124,3.10765 -1.14869,-0.31047 -3.86406,-0.83861 -6.03414,-1.17364 -3.92336,-0.60576 -8.8927,-5.44949 -7.65137,-7.45801 0.99313,-1.60692 9.67738,-1.33982 11.07197,0.34055 0.71658,0.86344 1.92373,1.56989 2.68255,1.56989 0.80591,0 0.15704,-1.33862 -1.56031,-3.21887 -2.70578,-2.96244 -3.23426,-3.13761 -6.63405,-2.19889 -2.98282,0.82359 -4.29326,0.65559 -6.80612,-0.87257 -1.71161,-1.0409 -3.30076,-2.45872 -3.53143,-3.15069 -0.28048,-0.84148 -4.19551,-1.40333 -11.82095,-1.69647 -6.27085,-0.24106 -11.44928,-0.53579 -11.5076,-0.65493 -0.0583,-0.11915 0.0853,-2.68372 0.31926,-5.69903 0.40782,-5.25721 0.54982,-5.48239 3.4573,-5.48239 2.41555,0 3.03201,0.46099 3.03201,2.26737 0,2.77242 2.8321,6.08676 5.20114,6.08676 0.95957,0 2.88389,-1.26845 4.27629,-2.81876 0,0 2.53163,-2.81875 2.53163,-2.81875 0,0 -2.91934,1.82975 -2.91934,1.82975 -4.19532,2.6295 -7.00118,1.43171 -7.00118,-2.98871 0,-4.41984 -0.94194,-4.99037 -6.7908,-4.11328 0,0 -4.69613,0.70423 -4.69613,0.70423 0,0 0,5.10275 0,5.10275 0,0 0,5.10277 0,5.10277 0,0 -5.10122,0 -5.10122,0 -4.26956,0 -5.37619,-0.41964 -6.78773,-2.57393 -2.44747,-3.73532 -2.15206,-5.07919 0.9456,-4.30174 3.11169,0.78099 6.27104,-0.69039 7.86084,-3.66096 0.88292,-1.64975 0.7643,-2.7117 -0.52227,-4.67526 -0.91559,-1.39735 -2.19661,-2.54062 -2.84673,-2.54062 -0.68076,0 -0.44912,0.80986 0.5462,1.90969 2.44036,2.69655 2.14679,4.87421 -0.84056,6.23534 -2.31805,1.05618 -2.8787,0.79446 -5.74346,-2.68096 -2.61482,-3.17224 -3.17465,-4.78707 -3.17465,-9.15735 0,-5.94034 0.93894,-7.52258 6.38885,-10.76627 4.8294,-2.87437 5.26652,-2.8277 4.02796,0.42994 -1.68198,4.42396 -1.10484,7.04762 2.41891,10.99612 2.8172,3.15678 4.2439,3.85774 8.96486,4.40457 4.98431,0.57733 6.75874,1.35803 12.25046,5.38981 0.96401,0.70772 3.13183,0.16114 7.12147,-1.79557 6.06517,-2.97462 7.53517,-2.56151 6.43815,1.80935 -0.3699,1.47378 -1.5309,2.61411 -2.86338,2.81238 -3.26709,0.4861 -4.67498,3.27144 -3.43967,6.80501 0.85541,2.44691 1.70498,2.98229 5.18121,3.26502 2.28693,0.186 4.94673,1.05072 5.91068,1.92158 1.70023,1.53607 6.07936,1.12777 6.07936,-0.56682 0,-0.42734 0.99314,-1.843 2.20698,-3.14591 1.61648,-1.73506 2.89723,-2.19568 4.78669,-1.72144 1.65898,0.41637 2.34013,0.2598 1.90846,-0.43867 -1.33714,-2.16351 -6.69041,-1.20065 -8.47603,1.52455 -2.91405,4.44742 -5.88244,3.26655 -4.88639,-1.94389 0.38744,-2.02675 1.55733,-3.39184 3.66708,-4.27893 2.64222,-1.11097 2.8209,-1.40906 1.21417,-2.02562 -2.16522,-0.83088 -7.1931,2.44183 -7.23628,4.71019 -0.0793,4.1697 -5.79379,5.7287 -7.73091,2.10915 -1.20115,-2.24434 -0.526,-3.27009 2.15235,-3.27009 4.12884,0 5.53281,-8.94961 1.96386,-12.51856 -2.07171,-2.07171 -2.08523,-2.06935 -6.67019,1.16243 0,0 -4.59426,3.23835 -4.59426,3.23835 0,0 -3.25036,-2.40309 -3.25036,-2.40309 -3.23231,-2.38976 -4.16734,-4.09884 -2.24241,-4.09884 2.6422,0 8.44707,-6.82069 10.49633,-12.33312 1.21483,-3.26784 2.89227,-6.99692 3.72765,-8.28683 1.73613,-2.68078 12.8558,-8.61949 16.1392,-8.61949 2.52361,0 11.30849,5.74223 12.15343,7.9441 1.64248,4.28025 -5.98359,6.02214 -12.58441,2.87442 -3.43699,-1.63898 -3.75069,-1.61429 -7.29138,0.57398 -4.5638,2.82059 -5.57934,5.61649 -3.3023,9.0917 1.35166,2.06288 1.45525,2.95185 0.48086,4.12592 -0.68309,0.82309 -1.91707,1.49652 -2.74215,1.49652 -0.8251,0 -1.22251,0.44924 -0.88316,0.99832 0.81226,1.31428 4.85432,-0.21022 6.19572,-2.33679 0.73321,-1.16238 0.60324,-2.4858 -0.43457,-4.42497 -1.37536,-2.5699 -1.29769,-2.9072 1.09249,-4.74396 3.14025,-2.41315 2.97117,-2.40539 7.86351,-0.36123 0,0 3.97905,1.66255 3.97905,1.66255 0,0 -4.01879,3.37397 -4.01879,3.37397 -3.90379,3.27743 -3.99902,3.51819 -3.328,8.41368 0.92237,6.72953 2.21813,8.12603 6.87151,7.40573 4.47663,-0.69293 8.63461,1.71893 6.55263,3.80091 -1.92897,1.92898 -1.47874,5.85649 0.8119,7.08241 1.71312,0.91684 2.74826,0.48227 6.1311,-2.57391 4.96245,-4.48328 6.43184,-4.57379 8.72855,-0.53761 2.24317,3.94211 4.39998,4.17051 2.40296,0.25447 -0.80544,-1.57945 -1.73066,-3.75138 -2.05604,-4.8265 -0.8895,-2.9392 -6.55356,-1.42429 -9.96842,2.66616 -1.73555,2.0789 -3.23066,2.99976 -4.04914,2.49391 -0.99059,-0.61221 -0.87043,-1.27404 0.50783,-2.79698 1.53493,-1.69608 1.60616,-2.36738 0.47544,-4.48018 -1.51382,-2.82856 -5.16614,-4.80224 -8.03315,-4.34103 -2.82223,0.45401 -4.55435,-1.33972 -4.55435,-4.71631 0,-2.25078 1.15691,-3.8965 4.86527,-6.92093 8.94586,-7.29596 10.71998,-9.17145 11.3923,-12.04319 0.51882,-2.21613 0.11877,-3.31811 -1.7902,-4.93115 -9.0902,-7.6811 -11.78552,-9.44534 -14.43019,-9.44534 -2.5909,0 -17.2153,6.84205 -20.73578,9.70127 -0.75883,0.61631 -1.99464,2.56248 -2.74624,4.32482 -1.25093,2.93322 -1.43697,3.02761 -2.19907,1.11576 -0.80602,-2.02203 -2.41523,-3.60606 -3.6968,-3.63894 -1.52265,-0.039 -5.04266,4.01128 -5.67475,6.52971 -0.98033,3.906 -3.18383,5.5609 -5.18876,3.89696 -1.27875,-1.06128 -1.56639,-1.00019 -1.56639,0.33264 0,4.9208 6.18587,3.14568 8.88381,-2.54933 2.27379,-4.79968 3.3885,-5.44832 4.99266,-2.90521 4.56779,7.24144 -11.67265,18.54065 -17.35645,12.07571 -2.41247,-2.74402 -1.77009,-6.4275 2.14251,-12.28541 1.59712,-2.39121 3.72375,-5.57675 4.72584,-7.07895 1.00207,-1.50222 1.82443,-4.02358 1.82746,-5.60303 0.007,-3.31735 1.05919,-3.51263 7.21962,-1.3391 5.48165,1.93404 12.83792,0.72307 18.91613,-3.11393 3.51751,-2.22051 4.14036,-3.09444 3.55866,-4.99327 -1.15267,-3.76273 -2.602,-4.91234 -6.19294,-4.91234 -1.86956,0 -3.97773,-0.69709 -4.68484,-1.5491 -1.06623,-1.28473 -0.81288,-1.72883 1.48459,-2.60232 6.09925,-2.31894 7.94815,-2.39379 10.13984,-0.41049 2.12687,1.92466 2.15119,1.91568 1.78539,-0.65942 -0.3301,-2.32369 0.0407,-2.64516 3.37344,-2.92453 6.41727,-0.53794 8.67642,5.51319 2.33082,6.24308 -3.55606,0.40903 -4.31605,3.05821 -1.92443,6.70829 1.52589,2.32879 2.19759,2.54161 6.15082,1.94879 4.69684,-0.70434 6.22914,0.18957 7.21749,4.21048 0.40028,1.62845 0.54006,1.47235 0.6345,-0.7086 0.18102,-4.17989 -2.51413,-6.27542 -7.59383,-5.90437 -3.76228,0.27483 -4.3354,0.0247 -4.62777,-2.01907 -0.28386,-1.98438 0.14988,-2.33274 2.90449,-2.33274 3.92774,0 4.9322,-2.01771 3.14836,-6.32426 -2.41307,-5.82564 -6.095,-6.38422 -19.169,-2.90801 -10.44504,2.7772 -11.57401,3.64725 -10.02371,7.72482 1.46227,3.8461 2.7002,4.60445 7.54851,4.62426 4.71877,0.0192 5.33054,2.35646 1.04426,3.9895 -12.68569,4.83317 -16.88015,3.69973 -25.18384,-6.80521 -3.54557,-4.48549 -6.01885,-6.25057 -14.38487,-10.26586 -14.84465,-7.12474 -23.83134,-17.10173 -25.97937,-28.8422 0,0 -0.69964,-3.82408 -0.69964,-3.82408 0,0 4.53709,2.27655 4.53709,2.27655 2.4954,1.2521 6.50046,3.03934 8.90012,3.97163 3.47554,1.35028 4.88636,2.72712 6.93593,6.76884 3.43024,6.76448 5.45424,8.33216 11.79059,9.13235 2.93535,0.37069 9.115,2.31119 13.73255,4.31223 9.25838,4.01217 12.599,4.32649 25.77963,2.42564 9.44866,-1.36264 15.43292,-0.63905 18.28263,2.21066 1.05919,1.05919 2.66306,4.46188 3.56415,7.56152 1.65414,5.69002 8.20513,16.84466 11.46286,19.51824 2.05128,1.68346 8.1164,3.13239 16.56454,3.95717 5.58192,0.54495 6.23853,0.36201 10.32924,-2.87789 3.45742,-2.73834 5.36324,-3.4716 9.13886,-3.51622 4.29132,-0.0507 4.87449,0.23457 5.80619,2.84036 0.80941,2.26376 0.62627,3.58989 -0.83811,6.06888 -3.33094,5.63886 -0.59513,11.39756 5.41471,11.39756 5.14353,0 7.52528,-2.46395 7.52528,-7.78498 0,-2.38067 0.56391,-4.8924 1.25313,-5.58162 0.97464,-0.97464 0.88344,-1.25311 -0.41042,-1.25311 -1.94405,0 -2.93124,2.11376 -2.93124,6.27641 0,6.07676 -6.91234,8.68335 -9.27514,3.49758 -1.09319,-2.3993 -0.9608,-3.07169 1.01997,-5.18012 1.80849,-1.92506 2.14865,-3.20906 1.6554,-6.24858 -0.88789,-5.4715 -3.33613,-7.74368 -8.34364,-7.74368 -4.11091,0 -4.14713,-0.0331 -2.28696,-2.08853 1.37693,-1.52149 3.2163,-2.08854 6.77479,-2.08854 4.44318,0 5.18812,0.37756 8.24149,4.17707 1.84624,2.29739 4.0054,4.17706 4.79817,4.17706 2.31703,0 5.43464,-4.79307 6.18995,-9.51654 0.57042,-3.56719 0.30931,-4.78179 -1.42474,-6.62761 -2.40829,-2.5635 -1.71546,-4.0481 3.35443,-7.18789 3.20257,-1.98337 3.64413,-4.49676 1.32377,-7.53526 -1.45114,-1.90028 -1.5103,-1.82489 -0.94595,1.20566 0.53811,2.88969 0.17603,3.49736 -3.4123,5.72689 -2.20788,1.3718 -4.31333,2.64047 -4.6788,2.81927 -0.64021,0.31321 -2.99044,-5.39164 -2.99044,-7.25884 0,-0.50147 1.83477,-2.90226 4.07726,-5.33507 3.84216,-4.16824 4.04443,-4.71461 3.50782,-9.47522 -0.53961,-4.78746 -0.80771,-5.15406 -5.12151,-7.00318 -4.28948,-1.83868 -4.5521,-2.19224 -4.5521,-6.12869 0,-3.1229 0.53266,-4.46249 2.11012,-5.30672 2.46838,-1.32104 4.15548,-0.57059 4.15548,1.84844 0,1.29024 0.29634,1.41726 1.19949,0.51412 0.90316,-0.90316 0.76822,-1.85774 -0.5462,-3.86379 -2.11318,-3.22514 -2.72888,-3.27433 -6.25592,-0.49996 -2.23228,1.7559 -2.7515,3.03679 -2.7515,6.78772 0,4.80726 2.58942,8.80046 5.70673,8.80046 2.06876,0 3.8935,3.66514 3.49497,7.0199 -0.43202,3.63674 -2.93611,4.45611 -2.93611,0.96074 0,-2.91647 -1.5309,-4.3257 -4.69919,-4.3257 -1.16428,0 -2.54471,-1.03979 -3.11935,-2.34961 -1.4388,-3.27948 -2.60154,-2.94057 -1.68384,0.49083 0.47713,1.78408 1.6769,3.05694 3.22613,3.42266 3.49661,0.82544 4.90571,5.56073 2.91422,9.79329 -2.33517,4.96298 -1.20078,10.88939 2.97375,15.53567 3.64642,4.05849 4.29483,6.78158 2.44007,10.24722 -1.56984,2.9333 -2.90301,2.49557 -4.85289,-1.59339 -1.07354,-2.25124 -2.88911,-4.01976 -4.81644,-4.69163 -2.60793,-0.90913 -2.88747,-1.32648 -1.78125,-2.65939 1.05338,-1.26924 1.05307,-2.50634 -0.002,-6.27315 -0.72254,-2.58067 -1.84003,-4.7478 -2.48333,-4.81585 -2.66087,-0.28148 -4.12363,0.40644 -6.33787,2.98064 -3.10099,3.60511 -6.34914,2.65121 -5.31644,-1.56132 0.65274,-2.66263 0.58024,-2.74281 -1.04083,-1.15098 -2.06115,2.02398 -1.38184,5.05758 1.54132,6.88313 1.7376,1.08515 2.51434,0.88682 5.12267,-1.30792 3.86214,-3.24979 5.17557,-3.25763 5.98421,-0.0358 0.80659,3.21367 0.0967,4.34703 -4.06062,6.48336 -1.83021,0.94047 -6.38213,4.72966 -10.11537,8.42042 0,0 -6.78772,6.71045 -6.78772,6.71045 0,0 -6.70864,-0.69846 -6.70864,-0.69846 -8.28056,-0.86211 -8.96407,-1.12055 -10.94012,-4.13638 0,0 -1.58793,-2.42351 -1.58793,-2.42351 0,0 6.48913,0.1616 6.48913,0.1616 6.11491,0.15227 6.77025,-0.0731 11.36394,-3.90712 5.68351,-4.74366 6.3937,-6.55688 4.27863,-10.92403 -1.21305,-2.50467 -2.49466,-3.38843 -5.87807,-4.05335 -4.14172,-0.81394 -4.34012,-1.03041 -4.63813,-5.06058 -0.17123,-2.31565 0.18669,-5.52014 0.79536,-7.12108 1.19784,-3.15057 1.49927,-3.17112 15.57853,-1.06215 3.28725,0.49241 4.3696,0.35199 3.84385,-0.4987 -0.4025,-0.65126 -1.12685,-0.93994 -1.6097,-0.64154 -1.38355,0.8554 -4.19862,-0.58587 -4.19862,-2.14987 0,-1.77192 3.26438,-3.57994 6.46355,-3.57994 1.86081,0 2.74237,0.90957 3.79538,3.91599 2.29914,6.5643 2.12614,8.13407 -0.86054,7.80824 -1.43587,-0.15665 -4.96102,-0.55761 -7.83365,-0.891 -4.41566,-0.51248 -5.52479,-0.27269 -7.17544,1.55124 -1.20355,1.32993 -1.68322,2.85906 -1.25053,3.98664 0.61462,1.60167 0.86065,1.5091 1.97794,-0.7443 1.59575,-3.2184 6.55808,-3.90322 11.13458,-1.53663 3.92663,2.03053 6.51765,1.37707 8.38665,-2.11519 1.19723,-2.23704 1.1465,-3.13517 -0.35494,-6.28372 -0.9635,-2.02047 -1.75181,-4.53997 -1.75181,-5.59883 0,-3.2539 -2.60605,-4.54208 -7.51201,-3.71323 -2.44829,0.41364 -5.60884,1.51044 -7.02346,2.43733 -1.41461,0.92688 -4.93333,1.92478 -7.81937,2.21755 -5.86711,0.59516 -6.27986,1.10219 -9.54278,11.72247 -2.16476,7.04594 -1.37486,8.73219 4.59058,9.79977 4.02599,0.72051 7.466,3.06213 7.466,5.08217 0,1.35612 -5.57707,5.77798 -7.28747,5.77798 -0.64997,0 -0.84395,-1.04588 -0.4702,-2.53501 0.34994,-1.39426 0.19322,-3.32667 -0.34827,-4.29426 -0.82055,-1.46622 -1.09184,-1.22257 -1.62894,1.4629 -1.34188,6.70946 -12.45614,4.85763 -13.79877,-2.29911 -1.63419,-8.71109 -10.36619,-16.35262 -18.68619,-16.35262 -2.62466,0 -4.76045,-0.35244 -4.74622,-0.78319 0.0824,-2.49213 7.94186,-11.08063 11.77592,-12.86824 2.41137,-1.12428 5.89869,-3.01263 7.7496,-4.19633 3.95381,-2.52853 6.79944,-1.96915 8.45383,1.66182 0.99073,2.17444 0.86478,2.7347 -0.81714,3.63485 -1.09364,0.5853 -3.33509,1.06417 -4.98102,1.06417 -3.79595,0 -5.49883,1.70288 -5.49883,5.49883 0,6.13178 2.95791,8.46359 7.29796,5.75317 2.7939,-1.7448 5.20607,0.3618 3.19245,2.78803 -0.72912,0.87855 -1.01793,2.39937 -0.64176,3.37961 1.04506,2.7234 4.01641,-3.59242 3.2071,-6.81695 -0.58226,-2.31989 -0.99695,-2.4677 -5.27744,-1.88099 -3.99716,0.54787 -4.64551,0.37718 -4.64551,-1.22296 0,-2.82411 2.12631,-4.36594 6.02096,-4.36594 4.03465,0 7.55448,-1.589 7.55448,-3.41042 0,-0.68663 -1.02631,-3.72456 -2.28068,-6.75099 -2.19848,-5.3042 -2.42688,-5.50258 -6.33528,-5.50258 -2.61854,0 -5.23192,0.86994 -7.37876,2.45624 -6.57659,4.85943 -8.40266,4.36996 -5.39503,-1.44615 2.43167,-4.70235 6.51887,-6.31565 14.27207,-5.63347 10.37095,0.91249 10.73412,1.09158 14.88174,7.33835 3.88829,5.85619 3.93434,5.8858 8.2546,5.30754 3.51174,-0.47003 5.24529,-1.56552 9.04371,-5.71502 2.58456,-2.82345 6.03543,-5.94705 7.66861,-6.94138 4.2072,-2.56145 7.32089,-9.91996 5.84398,-13.81097 -2.89123,-7.61708 -6.60995,-11.8257 -12.35548,-13.98317 -3.09684,-1.16287 -6.81256,-3.04403 -8.25715,-4.18034 -3.08658,-2.4279 -4.86668,-2.04669 -11.91359,2.55133 -7.44861,4.86013 -7.9587,9.58335 -1.37251,12.70871 1.92658,0.91423 4.72373,3.50704 6.21587,5.76183 2.87563,4.34538 5.19304,5.04738 9.22418,2.79426 3.15758,-1.76485 3.86702,-2.89796 3.88584,-6.20638 0.009,-1.73539 -0.87285,-3.43508 -2.3049,-4.43813 -3.49673,-2.44919 -4.17736,-1.95319 -1.28658,0.9376 3.10729,3.10728 3.17841,4.13145 0.47467,6.83518 -3.11652,3.11653 -4.91941,2.57792 -8.53343,-2.54933 -1.79799,-2.55083 -4.60782,-5.19239 -6.24408,-5.87015 -3.97728,-1.64744 -3.76504,-4.30548 0.61025,-7.64268 4.69322,-3.5797 6.55585,-3.46041 15.86249,1.0159 12.99474,6.25022 16.60246,15.04124 9.00849,21.95116 -2.1538,1.95979 -6.03063,5.67859 -8.61519,8.26401 -4.70437,4.70591 -7.88446,5.76836 -10.2338,3.41901 -1.99954,-1.99953 -1.47131,-2.92395 1.67083,-2.92395 3.55983,0 5.43017,-1.69948 5.43017,-4.93415 0,-1.86598 0.73011,-2.57394 3.15453,-3.05881 4.26554,-0.85311 5.02154,-2.44968 1.15997,-2.44968 -2.18405,0 -3.76384,0.8606 -5.27161,2.87173 -3.80637,5.07716 -4.24914,5.42199 -6.09945,4.75036 -1.00083,-0.36328 -3.58325,-2.22686 -5.73869,-4.1413 -3.2564,-2.89229 -4.75714,-3.485 -8.87625,-3.50571 -2.72651,-0.0137 -6.78196,-0.44823 -9.01215,-0.96561 -5.18252,-1.20231 -7.99317,-0.122 -14.79011,5.68481 -3.72051,3.17853 -5.94141,6.12323 -7.24358,9.60431 -1.03287,2.76118 -2.33508,5.60254 -2.89379,6.31415 -1.28984,1.64282 -2.86772,0.70988 -2.86772,-1.69557 0,-3.47478 -4.32783,-6.19428 -11.05883,-6.94907 -6.08932,-0.68285 -6.45645,-0.59006 -8.63787,2.18316 -1.25304,1.59298 -2.55481,3.99821 -2.8928,5.34493 -0.70768,2.81959 2.01065,7.65471 4.3035,7.65471 2.60657,0 8.88761,-3.4577 8.88761,-4.89261 0,-1.83397 -1.52854,-1.7396 -3.13279,0.19341 -0.715,0.86152 -2.59741,1.5664 -4.18313,1.5664 -4.28181,0 -4.7681,-3.47584 -1.06597,-7.61924 0,0 2.94711,-3.2984 2.94711,-3.2984 0,0 5.05196,2.09373 5.05196,2.09373 6.50595,2.69633 7.8398,5.84102 5.07665,11.9686 -4.54648,10.0823 -12.10646,12.01271 -22.44634,5.73156 -3.86961,-2.35066 -7.33221,-3.65492 -9.70323,-3.65492 -4.14149,0 -6.11223,-1.95568 -12.0486,-11.95653 -3.24877,-5.47311 -4.11668,-6.15675 -13.21236,-10.40719 -5.94447,-2.77786 -10.41555,-5.58763 -11.48247,-7.21595 -1.6357,-2.49642 -1.63323,-2.907 0.0388,-6.43055 2.46849,-5.20193 5.1757,-6.3793 27.75449,-12.07049 11.25393,-2.83666 15.97659,-6.0123 26.35953,-17.7248 8.43398,-9.51397 11.1889,-11.90195 17.07543,-14.80104 5.83928,-2.87582 8.44868,-3.51777 15.52571,-3.81956 11.08126,-0.47254 18.44393,1.14118 28.75631,6.30269 25.13459,12.58027 50.15329,44.53028 56.81406,72.55414 7.81461,32.87841 -3.95301,73.26766 -29.28313,100.50664 -3.44607,3.70578 -5.40649,6.41764 -4.35648,6.02638 3.851,-1.43499 20.58224,-13.55139 33.37721,-24.17104 32.39169,-26.88468 60.07231,-69.18349 70.66242,-107.97945 6.24986,-22.89582 6.79707,-27.09957 6.81512,-52.35447 0.0147,-20.68264 -0.27945,-24.93391 -2.45726,-35.50502 C 501.39875,170.48068 480.10803,131.64379 448.01959,99.687215 391.78197,43.680721 320.70374,22.445341 250.53371,40.686201 c -23.82661,6.19378 -44.15066,15.72857 -54.66114,25.64362 -15.36189,14.49164 -30.14115,42.800339 -33.53334,64.230939 -1.58258,9.99808 -1.32155,27.14985 0.55291,36.33224 5.13937,25.176 26.78447,56.03079 49.83159,71.03421 12.10256,7.87862 17.94428,9.79797 31.54439,10.36419 10.01787,0.41709 12.26379,0.18497 17.56144,-1.81496 6.7226,-2.53786 15.82351,-10.34674 23.70948,-20.34353 5.89768,-7.4763 10.79714,-10.01624 29.59878,-15.34436 8.07524,-2.28842 15.54728,-4.62369 16.6045,-5.1895 2.09816,-1.1229 5.9774,-6.92384 5.98364,-8.94783 0.007,-2.3174 -4.60959,-5.75791 -13.0494,-9.72473 -9.28687,-4.36495 -10.99597,-5.94619 -16.62164,-15.37832 -3.50454,-5.87575 -4.23235,-6.52666 -7.29782,-6.52666 -1.96782,0 -6.82881,-1.80382 -11.5165,-4.27354 -6.42702,-3.3861 -8.80823,-4.14283 -11.46686,-3.64407 -6.17921,1.15923 -12.97323,10.55457 -11.59711,16.03746 0.57691,2.29856 7.37026,6.41684 10.68409,6.47693 2.04561,0.0371 5.52309,-4.34618 5.52309,-6.9617 0,-1.97269 -0.55884,-2.41375 -3.05821,-2.41375 -1.68202,0 -3.76308,0.70488 -4.6246,1.5664 -2.04556,2.04554 -2.76133,1.97768 -2.75325,-0.26107 0.007,-1.92281 5.25885,-5.48239 8.08887,-5.48239 2.85954,0 5.47998,3.27034 5.47998,6.83913 0,2.31458 -0.98591,4.43809 -3.12248,6.72529 -2.97821,3.18817 -3.37633,3.30933 -8.61519,2.62172 -6.75007,-0.88596 -10.02401,-2.86171 -11.43124,-6.8985 -1.40812,-4.03931 -3.26069,-2.59978 -5.55891,4.31948 -1.7407,5.24077 -5.24556,9.04752 -12.40242,13.47071 -3.72747,2.30369 -4.34401,2.37339 -11.10976,1.25606 -3.93982,-0.65065 -8.55555,-1.18299 -10.25719,-1.18299 -2.00646,0 -4.63155,-1.28466 -7.46858,-3.65493 -5.10814,-4.26773 -7.01776,-4.55919 -8.27118,-1.26242 -1.16212,3.0566 -2.95342,4.45015 -6.87066,5.34508 -1.72305,0.39364 -4.06896,0.99614 -5.21315,1.33888 -1.83181,0.54873 -1.9097,0.41756 -0.65187,-1.09802 0.78566,-0.94666 2.89589,-2.10145 4.6894,-2.5662 1.99949,-0.51811 3.40426,-1.62741 3.63142,-2.86755 0.56491,-3.08409 3.33312,-5.6775 6.06016,-5.6775 2.77682,0 3.16006,-1.24253 0.94916,-3.0774 -1.94923,-1.61772 -4.668,-0.19416 -8.60008,4.50306 -1.62447,1.94057 -4.49855,4.31459 -6.38684,5.27558 -3.9923,2.03178 -7.05758,7.63551 -6.12764,11.20215 1.52369,5.84388 4.77875,9.17995 12.55982,12.87238 4.27095,2.02674 8.8678,3.68281 10.21521,3.68015 2.40125,-0.005 9.23757,-5.43019 9.23757,-7.33114 0,-0.53047 -1.35907,-1.66731 -3.02015,-2.52629 -1.66108,-0.85899 -4.52008,-3.4556 -6.35334,-5.77028 -3.49097,-4.40771 -6.20012,-5.2675 -8.36776,-2.65566 -1.74789,2.10607 -0.49857,6.50589 2.0797,7.32419 2.18913,0.69481 2.89467,2.60989 0.96152,2.60989 -2.10325,0 -7.46053,-6.24592 -6.81042,-7.94009 0.34383,-0.89601 0.62515,-2.04852 0.62515,-2.56115 0,-1.35476 5.7562,-4.11847 8.57787,-4.11847 1.69196,0 3.18915,1.25096 4.99583,4.17422 1.41889,2.29583 4.06324,4.87817 5.87636,5.73854 6.57938,3.12212 6.18891,7.62073 -1.13083,13.02814 -6.39328,4.72298 -8.86862,5.13298 -13.04325,2.16039 -1.58312,-1.12729 -5.18006,-2.90305 -7.99319,-3.94614 -4.04592,-1.5002 -5.83018,-2.98135 -8.53814,-7.08771 -5.82267,-8.82951 -5.76264,-12.62891 0.29076,-18.40193 2.01706,-1.92362 6.36656,-6.16818 9.66558,-9.43233 5.5066,-5.44842 7.85767,-6.615 12.47469,-6.18981 1.04249,0.096 3.53874,3.19165 8.86818,10.99758 1.23624,1.8107 16.5787,2.62876 20.35205,1.08516 3.0251,-1.23748 7.46551,-7.2687 6.24794,-8.48627 -0.63578,-0.63577 -6.61161,2.41758 -7.47931,3.82155 -0.35749,0.57843 -2.98855,1.05169 -5.84679,1.05169 -5.17852,0 -5.20403,-0.0168 -7.24823,-4.78577 -3.57042,-8.32944 -2.80512,-9.90868 5.25843,-10.85112 3.97071,-0.46408 4.75397,-0.93656 5.05241,-3.04778 0.32555,-2.30279 0.0888,-2.44568 -3.02122,-1.82368 -5.65064,1.13014 -7.63633,-2.10688 -4.90291,-7.9926 1.94468,-4.18739 3.23234,-3.4129 2.45088,1.47412 -0.61592,3.85178 -0.4935,4.2196 1.17187,3.52065 6.06371,-2.54495 7.90589,-1.55148 9.06535,4.88884 0.58242,3.23515 0.32259,4.09191 -1.6626,5.48239 -1.29409,0.90642 -3.90779,1.64803 -5.80824,1.64803 -3.92176,0 -5.17786,1.88032 -3.43346,5.13973 1.54405,2.8851 4.65659,2.74046 8.78474,-0.40822 1.85922,-1.4181 5.06078,-3.28047 7.11458,-4.13861 2.26811,-0.94767 5.2178,-3.6253 7.51298,-6.82003 0,0 3.77878,-5.25979 3.77878,-5.25979 0,0 -4.34497,0 -4.34497,0 -3.08126,0 -5.81764,-0.945 -9.40844,-3.24922 -6.03469,-3.87245 -8.77849,-7.44925 -9.7704,-12.73663 -0.86361,-4.60344 -3.79441,-6.98798 -8.58881,-6.98798 -2.62927,0 -3.66519,0.56218 -4.32962,2.34959 -0.48037,1.29228 -0.6499,2.937 -0.37675,3.65493 0.27315,0.71794 0.008,1.30533 -0.58898,1.30533 -1.54407,0 -2.57307,-3.87413 -1.8229,-6.86308 0.77665,-3.09438 0.2178,-3.15142 -3.68039,-0.37567 -5.37013,3.82388 -3.70266,7.50597 3.97228,8.77151 3.0424,0.50167 4.59316,1.35036 5.04001,2.75828 0.68864,2.16971 -2.21132,15.28316 -3.81371,17.24535 -0.52695,0.64527 -3.34189,1.48943 -6.25541,1.87593 -2.91352,0.38649 -7.01016,1.62075 -9.10364,2.74278 -2.09348,1.12203 -5.77877,2.04007 -8.18954,2.04007 -3.65591,0 -4.49158,-0.38988 -5.03623,-2.3496 -0.35915,-1.29228 -1.3889,-4.08269 -2.28834,-6.20093 -3.21491,-7.57133 1.27729,-13.21191 7.82533,-9.82578 1.77412,0.91743 4.68146,1.66806 6.46075,1.66806 2.66053,0 3.48883,-0.60273 4.66394,-3.39386 0,0 1.42888,-3.39386 1.42888,-3.39386 0,0 0.76667,3.04792 0.76667,3.04792 0.61841,2.45849 0.30995,3.41773 -1.59498,4.96026 -2.7919,2.26074 -8.85462,2.45135 -12.56985,0.39519 -4.15799,-2.3012 -5.34605,-0.37932 -3.22297,5.21372 2.52063,6.64034 3.38588,7.25389 7.34357,5.20729 3.85134,-1.99161 3.71987,-4.06061 -0.28822,-4.53509 -1.53515,-0.18174 -2.79119,-0.71433 -2.79119,-1.18354 0,-1.68205 4.55269,-2.00036 7.418,-0.51865 1.60653,0.83077 4.80584,1.51048 7.10962,1.51048 4.0164,0 4.23582,-0.17511 5.3352,-4.25795 1.79841,-6.67877 1.10655,-8.56722 -3.62316,-9.88951 -4.99307,-1.39593 -8.41984,-5.5111 -7.53266,-9.04591 0.3437,-1.36944 3.10695,-4.51314 6.14055,-6.98601 5.32936,-4.34429 5.70078,-4.47456 10.99802,-3.8575 3.01531,0.35125 5.48239,0.23744 5.48239,-0.25291 0,-2.23676 -4.52047,-4.5552 -10.54095,-5.40619 0,0 -6.58005,-0.93008 -6.58005,-0.93008 0,0 -5.27602,4.79079 -5.27602,4.79079 -2.9018,2.63493 -6.00903,5.60858 -6.90494,6.6081 -0.89593,0.99953 -3.04479,2.54948 -4.77527,3.44434 -4.30953,2.22855 -5.90419,4.39784 -5.09862,6.93594 0.88356,2.78387 1.80225,2.69742 5.6385,-0.53056 2.59907,-2.18697 3.55464,-2.46453 5.28912,-1.53626 2.65951,1.42332 3.84559,5.8072 2.13034,7.87396 -1.93631,2.33312 -3.36308,1.86687 -2.01207,-0.65752 0.94534,-1.7664 0.84115,-2.55217 -0.51874,-3.91205 -1.57273,-1.57274 -1.90272,-1.44482 -4.35468,1.68822 -2.7578,3.5238 -5.64852,4.32709 -7.50166,2.08458 -1.87835,-2.27303 -2.66847,-9.01332 -1.25606,-10.71516 1.07149,-1.29109 0.92724,-1.55495 -0.85013,-1.55495 -1.98274,0 -4.18378,-2.13678 -7.14428,-6.93567 -1.4314,-2.32025 -3.03031,-1.16441 -4.03826,2.91926 -0.55035,2.22969 0.0278,3.55918 2.958,6.8026 4.35326,4.81855 6.07163,12.40139 3.60753,15.91941 -2.05101,2.92822 -1.1757,8.4453 1.33988,8.4453 2.58922,0 5.17308,3.94426 5.11185,7.80328 0,0 -0.0502,3.1615 -0.0502,3.1615 0,0 -1.78272,-3.64561 -1.78272,-3.64561 -1.29662,-2.65155 -2.63547,-3.79188 -4.9101,-4.18201 -2.47009,-0.42368 -3.19683,-1.13893 -3.45781,-3.40319 -0.32683,-2.83544 -1.61488,-3.74391 -2.73608,-1.92976 -0.31852,0.51536 -0.27785,2.44333 0.0903,4.28437 0.49058,2.45286 1.47191,3.62709 3.67232,4.39415 3.79252,1.32208 5.04729,3.66849 5.04729,9.43834 0,3.92201 -0.4698,4.91881 -3.30691,7.01637 0,0 -3.30691,2.4449 -3.30691,2.4449 0,0 -1.96388,-2.42529 -1.96388,-2.42529 -2.08772,-2.57822 -2.15195,-6.3411 -0.11966,-7.00985 0.76046,-0.25024 1.02232,0.36555 0.69223,1.62782 -0.68688,2.62658 1.12673,3.71173 3.80648,2.27757 3.94396,-2.11075 2.20945,-9.67867 -2.48851,-10.85778 -4.15239,-1.04219 -5.84402,-3.50463 -5.84402,-8.50692 0,-3.98196 0.56286,-5.14152 4.28419,-8.82584 3.62163,-3.58561 4.17389,-4.68109 3.57098,-7.08331 -0.39227,-1.56294 -1.23812,-3.47416 -1.87965,-4.24718 -0.96354,-1.16097 -1.3961,-1.09139 -2.48666,0.40003 -0.72611,0.99301 -2.39555,2.35521 -3.70986,3.0271 -2.42845,1.24145 -2.73246,2.68354 -1.30307,6.1812 0.70594,1.72737 0.54104,1.81224 -1.45039,0.74646 -1.46116,-0.78199 -2.24128,-2.19386 -2.23089,-4.03748 0.0201,-3.55359 0.94101,-4.97411 3.80354,-5.86679 3.28353,-1.02396 3.89469,-3.71302 1.4382,-6.32784 -1.97997,-2.10759 -2.02222,-2.59019 -0.67983,-7.76525 0.78724,-3.03491 2.15414,-6.24079 3.03754,-7.1242 2.3943,-2.39429 6.4643,-0.88924 9.09172,3.36203 2.07472,3.35696 2.67048,3.65669 7.26826,3.65669 3.17786,0 5.48341,-0.57249 6.30828,-1.5664 1.11304,-1.34113 0.77927,-1.5664 -2.32095,-1.5664 -4.08628,0 -6.1909,-1.89509 -7.96132,-7.16875 -1.23376,-3.67504 -1.01899,-4.54361 1.97151,-7.9731 1.33184,-1.52735 1.57742,-2.72607 0.914,-4.46127 -2.0649,-5.40076 -8.26721,-3.55747 -8.26721,2.45695 0,4.07671 -3.78801,8.81566 -7.00134,8.75896 -1.49289,-0.0263 -1.2898,-0.46963 0.99681,-2.17563 2.36346,-1.76333 2.87173,-2.94562 2.87173,-6.68005 0,-2.62706 0.65498,-5.19249 1.55565,-6.09316 2.33069,-2.33068 7.32513,-3.11154 9.84324,-1.53895 3.00547,1.87696 3.98326,7.81453 1.88807,11.4652 -1.10932,1.93288 -1.3932,3.82037 -0.8707,5.78926 0.65333,2.46191 1.4006,2.97353 4.75158,3.25316 3.18161,0.26551 4.78757,-0.3201 8.0352,-2.92997 6.24102,-5.01542 9.10283,-5.66181 16.58283,-3.74552 3.53046,0.90447 7.28096,1.64448 8.33446,1.64448 4.17483,0 13.92438,14.51148 16.65869,24.79523 1.72237,6.47783 5.19693,7.99744 16.1279,7.05355 17.66971,-1.52579 23.6061,-1.1387 30.39586,1.982 3.44608,1.58388 9.07933,3.34166 12.51833,3.90618 7.23739,1.18804 9.05699,2.55741 13.26019,9.97908 2.4022,4.24159 3.91028,5.68912 6.92111,6.64319 2.11732,0.67094 5.84682,2.30918 8.28779,3.64052 3.89112,2.12227 4.43802,2.20443 4.4373,0.66666 -10e-4,-2.27528 -5.46182,-13.80579 -8.45676,-17.85668 -2.95593,-3.99809 -11.4881,-9.67468 -21.18018,-14.0915 -6.07129,-2.76678 -8.31561,-4.47688 -11.41302,-8.69641 -6.63859,-9.04357 -12.00811,-11.00218 -21.60514,-7.8808 -6.67558,2.1712 -7.05401,3.82005 -0.98268,4.28158 3.74485,0.28468 4.45869,0.76346 5.75151,3.85762 1.82352,4.36429 1.05619,6.61171 -2.53441,7.42305 -1.5161,0.34258 -5.81102,1.53455 -9.54428,2.64884 -9.67833,2.88874 -14.01526,1.98893 -16.80913,-3.4875 -2.62948,-5.15422 -2.06849,-6.87405 2.38206,-7.30254 2.27678,-0.2192 3.56196,-0.94816 3.7895,-2.14941 0.29808,-1.57366 -0.26202,-1.73462 -4.1713,-1.1988 -5.32844,0.73035 -7.61614,-1.12212 -8.40269,-6.80414 -0.44149,-3.18923 -0.34712,-3.35675 0.91707,-1.62787 0.77506,1.05995 1.4092,2.49198 1.4092,3.18227 0,1.83471 2.92402,2.6566 6.83865,1.92221 2.89002,-0.54217 3.69689,-0.22841 5.16169,2.00714 2.71589,4.14498 1.73751,7.4037 -2.3409,7.79694 -3.78549,0.36499 -4.20819,1.31992 -1.69617,3.83193 2.35502,2.35501 7.14708,1.67987 7.28503,-1.02637 0.19256,-3.77787 0.39629,-3.91024 2.33446,-1.5167 1.83705,2.26866 2.12618,2.30836 6.78772,0.93198 6.06044,-1.78945 6.48487,-4.11447 0.75109,-4.11447 -4.34125,0 -7.36906,-2.66451 -7.36906,-6.48485 0,-2.31492 6.81947,-6.68816 13.01189,-8.34439 3.99525,-1.06856 5.461,-0.98916 9.68446,0.52463 6.90148,2.47365 7.58733,2.32062 7.58733,-1.6929 0,-2.39928 1.25224,-5.1447 4.06788,-8.91852 6.00253,-8.0452 7.0242,-11.00871 4.90845,-14.237767 -1.88648,-2.879122 -3.41703,-3.134082 -9.18988,-1.530772 -4.8673,1.351822 -8.14056,5.411419 -8.14056,10.096129 0,4.78434 2.92838,4.32427 4.56453,-0.71711 1.51962,-4.68228 6.33541,-6.798843 8.55689,-3.7608 1.73704,2.37555 0.85277,4.32504 -1.19204,2.628 -1.95422,-1.62186 -4.61953,-0.47885 -4.61953,1.98105 0,2.79506 -3.94986,7.48346 -6.30465,7.48346 -1.08679,0 -2.51559,-1.00826 -3.1751,-2.24058 -1.16117,-2.16963 -1.26854,-2.1191 -3.39157,1.59574 -1.61343,2.82317 -3.90309,4.64455 -8.66994,6.89677 -3.56263,1.68326 -6.77989,3.54974 -7.14947,4.14773 -0.36957,0.598 -2.95274,1.08726 -5.74033,1.08726 -4.56422,0 -5.70074,-0.52838 -11.42529,-5.31171 -8.94668,-7.47566 -8.63842,-9.82789 2.44355,-18.64608 6.97813,-5.552679 8.52209,-7.966609 7.38564,-11.547229 -0.48632,-1.53231 -1.58,-2.08854 -4.1066,-2.08854 -6.17542,0 -11.06593,-5.8172 -7.711,-9.17212 0.67965,-0.67965 0.90757,-1.56387 0.50649,-1.96495 -0.40107,-0.40107 -2.30969,0.80263 -4.24138,2.67489 -4.08498,3.95933 -9.21104,4.28675 -9.86626,0.6302 -0.20583,-1.14869 -1.34908,-3.14586 -2.54055,-4.43813 -1.46741,-1.59157 -1.71297,-2.3496 -0.76118,-2.3496 1.88284,0 5.22452,3.1092 5.22452,4.86104 0,2.49893 3.30206,1.49466 7.47177,-2.27244 3.26756,-2.95203 4.45215,-3.47248 6.00825,-2.63967 2.78712,1.49161 3.57671,4.32718 1.72154,6.18236 -1.41506,1.41506 -1.41472,1.76984 0.003,3.33657 1.19603,1.32161 2.72699,1.62461 6.21951,1.23095 5.09414,-0.57418 5.78533,0.21593 7.31309,8.35958 0.60559,3.22804 0.25878,4.01348 -3.22217,7.297564 0,0 -3.9008,3.680175 -3.9008,3.680175 0,0 3.72853,1.7693 3.72853,1.7693 3.50167,1.66165 3.89248,1.66188 6.4232,0.004 2.86465,-1.87699 3.34755,-3.0872 1.65041,-4.13609 -1.44346,-0.892098 -1.31117,-5.058839 0.20885,-6.578859 1.51209,-1.51209 8.14527,-1.68217 8.14527,-0.20886 0,0.57435 -1.18954,1.04427 -2.64343,1.04427 -2.94226,0 -4.54447,2.628192 -2.71655,4.45611 2.12545,2.125449 1.2645,5.732239 -2.03,8.504379 -3.78916,3.18837 -4.82571,3.27232 -11.43213,0.92593 -4.0538,-1.43979 -5.5191,-1.54326 -7.71108,-0.54453 -1.48844,0.67818 -2.70624,1.93551 -2.70624,2.79408 0,1.97974 10.23995,8.94519 13.03937,8.86969 1.15637,-0.0312 5.15696,-1.81495 8.8902,-3.96394 6.43706,-3.70537 6.90956,-4.2477 9.14588,-10.49782 2.96368,-8.282917 5.58687,-11.993319 9.67678,-13.687409 0,0 3.21287,-1.33082 3.21287,-1.33082 0,0 -2.8376,-2.96182 -2.8376,-2.96182 0,0 -2.83761,-2.96181 -2.83761,-2.96181 0,0 -3.74203,2.28276 -3.74203,2.28276 -2.05812,1.25554 -3.89866,2.65524 -4.09011,3.11046 -0.52805,1.25558 -3.77158,0.98951 -5.18652,-0.42544 -1.31102,-1.31102 -1.71064,-8.87074 -0.61926,-11.7148 0.34864,-0.90898 1.68009,-1.65229 2.95877,-1.65229 1.2787,0 2.6341,-0.3092 3.01202,-0.68712 1.19971,-1.19971 -1.54083,-3.48995 -4.17615,-3.48995 -1.8841,0 -2.82019,0.81202 -3.6369,3.15485 -1.4034,4.02579 -4.13435,5.46704 -8.72672,4.60551 -4.6133,-0.86546 -4.74131,-2.53903 -0.19423,-2.53903 4.21476,0 5.95232,-1.58513 5.95232,-5.43017 0,-3.59953 -1.30828,-3.72318 -3.94375,-0.37272 -2.65079,3.36994 -6.44737,4.26405 -9.10957,2.14532 -2.00831,-1.59832 -1.96671,-1.63891 1.08297,-1.0567 2.69167,0.51388 3.66562,0.0473 6.43755,-3.08358 3.53868,-3.99701 5.59129,-4.56869 7.62133,-2.12267 0.7428,0.89503 3.01977,1.5664 5.31245,1.5664 4.54127,0 6.52954,2.34795 5.97778,7.05914 -0.23106,1.97291 -1.08256,2.95409 -2.93611,3.38326 -2.01734,0.46709 -2.68513,1.36782 -2.93834,3.96333 0,0 -0.32768,3.35885 -0.32768,3.35885 0,0 4.92134,-2.61669 4.92134,-2.61669 6.14149,-3.26547 8.03177,-3.27734 11.23854,-0.0706 1.887,1.887 4.17822,2.73078 8.8507,3.25942 5.72817,0.64806 6.60908,1.0922 9.63525,4.85786 2.83203,3.52408 3.2487,4.75586 2.78305,8.227509 -0.67593,5.03941 0.52984,5.22102 5.80343,0.87409 3.42966,-2.827043 3.89285,-3.761377 3.89285,-7.852749 0,-3.16071 -0.838,-5.9714 -2.62376,-8.80023 -2.80043,-4.43617 -4.21019,-4.976 -7.22938,-2.76831 -1.58226,1.15697 -1.69366,1.77019 -0.66933,3.68418 0.67588,1.2629 1.67522,2.02032 2.22074,1.68317 0.54553,-0.33716 0.99188,-0.11537 0.99188,0.49287 0,2.2635 -4.24114,1.06353 -5.42509,-1.53493 -1.01239,-2.22197 -0.86205,-3.09154 0.94782,-5.48239 1.68868,-2.23074 2.96228,-2.81597 5.92484,-2.72245 4.27298,0.13486 4.886,-1.39951 1.70816,-4.27541 -2.47094,-2.23619 -6.97338,-2.89727 -9.72022,-1.42721 -1.57254,0.8416 -1.85415,1.77939 -1.34668,4.48453 0.75634,4.03155 -0.37731,5.23193 -5.8763,6.22226 -3.33604,0.6008 -4.092,0.35295 -5.50609,-1.80523 -0.90153,-1.3759 -1.37212,-3.19744 -1.04579,-4.04787 0.32634,-0.85043 -0.14172,-2.15631 -1.04016,-2.90193 -1.35461,-1.12423 -1.95622,-1.06364 -3.52361,0.35482 -1.03956,0.94079 -2.67118,1.71053 -3.62584,1.71053 -1.27785,0 -0.87651,-0.82113 1.52145,-3.11275 3.2024,-3.06037 3.30765,-3.08293 6.25609,-1.34124 2.1868,1.29177 2.9989,2.57767 2.9989,4.74849 0,2.63158 0.33323,2.93868 2.87173,2.64659 2.45659,-0.28266 2.84033,-0.76736 2.65452,-3.35275 -0.11946,-1.66228 0.2495,-3.89439 0.81994,-4.96026 0.57044,-1.06587 0.90313,-1.952 0.73935,-1.96917 -0.1638,-0.0171 -5.2265,-0.30181 -11.25045,-0.63251 -10.26426,-0.56349 -11.17591,-0.79731 -14.50502,-3.72032 -3.18011,-2.79217 -4.03518,-3.04664 -8.15927,-2.4282 -4.12098,0.61798 -4.82947,0.40789 -6.71715,-1.9919 -1.16064,-1.47552 -2.89851,-2.69705 -3.86193,-2.71452 -1.54253,-0.0279 -1.52312,-0.16463 0.16261,-1.14473 1.51048,-0.87821 2.41635,-0.64132 4.29436,1.12298 1.82409,1.71365 3.43061,2.16247 6.87717,1.92132 5.32625,-0.37267 5.91033,-1.44153 2.7992,-5.12263 -1.79747,-2.12676 -3.58303,-2.8675 -8.05301,-3.34079 -5.41146,-0.57296 -5.98292,-0.40403 -9.88575,2.92253 -3.96338,3.37816 -4.06487,3.61622 -2.3496,5.51155 3.3817,3.73674 2.14854,5.95748 -5.83792,10.51333 -5.14896,2.93721 -9.44021,2.90857 -12.24222,-0.0817 -1.80655,-1.92791 -2.08366,-3.14496 -1.54403,-6.78139 0.59308,-3.99675 0.40678,-4.54609 -1.89773,-5.59609 -1.95803,-0.89214 -3.2543,-0.83031 -5.54543,0.26451 -3.63571,1.73733 -4.28771,4.97567 -1.98067,9.83739 1.13877,2.39979 1.4709,4.78028 1.00985,7.23793 -0.4801,2.55908 -0.17996,4.43591 0.99647,6.23138 2.26449,3.45606 2.11947,6.38385 -0.44314,8.94647 -1.16965,1.16965 -1.84679,2.57941 -1.50478,3.13279 1.29718,2.09888 5.43208,0.88046 8.79826,-2.59256 3.59421,-3.70828 3.87103,-3.75474 12.29444,-2.0636 3.16326,0.6351 4.87697,3.99171 3.424,6.70661 -0.81389,1.52077 -2.18651,2.08853 -5.04921,2.08853 -4.50649,0 -6.43771,1.472349 -6.43771,4.908059 0,1.32099 -0.46992,2.4018 -1.04427,2.4018 -1.73839,0 -1.12689,-4.531225 0.98182,-7.275339 1.32992,-1.73069 3.03479,-2.58748 5.19468,-2.61067 4.65501,-0.0499 4.06758,-1.96495 -0.94012,-3.0647 -3.99912,-0.87827 -4.52141,-0.71528 -7.75706,2.42084 -2.87363,2.78523 -4.14479,3.30546 -7.40406,3.0302 -2.65532,-0.22426 -4.42904,-1.08073 -5.45465,-2.63391 -1.39269,-2.10903 -1.29345,-2.52794 1.18632,-5.00771 3.11195,-3.11194 3.391,-4.91991 1.05822,-6.85595 -1.40936,-1.16967 -2.02504,-0.88581 -4.25274,1.96067 -2.4073,3.07595 -3.07534,3.32833 -8.81008,3.32833 -5.87494,0 -6.31674,0.18065 -8.29993,3.39386 -1.15209,1.86662 -1.96753,4.56865 -1.81212,6.00452 0.24569,2.269936 0.75961,2.58973 3.9375,2.450239 2.01022,-0.0883 5.74349,-0.629259 8.29618,-1.20226 4.95467,-1.112189 8.54375,-0.309012 11.80401,2.64149 2.36457,2.13989 2.30574,2.89524 -0.42352,5.43793 -2.00909,1.87174 -2.06421,2.17133 -0.50931,2.768 0.95898,0.36799 3.77854,0.36392 6.26568,-0.009 3.66364,-0.54941 4.9993,-0.27628 7.03597,1.43869 0,0 2.51388,2.11683 2.51388,2.11683 0,0 -3.18655,-1.52841 -3.18655,-1.52841 -2.48919,-1.19392 -4.05641,-1.28823 -7.16121,-0.43096 -2.91267,0.80423 -4.78168,0.76318 -6.99503,-0.15362 -3.48087,-1.44182 -3.74659,-2.64145 -1.20679,-5.44792 1.72695,-1.90825 1.71447,-2.07744 -0.26106,-3.54093 -1.28973,-0.95544 -3.23113,-1.31073 -5.13131,-0.93907 -3.95598,0.77374 -4.12897,1.01158 -2.56141,3.52164 0.96,1.5372 1.02,2.76121 0.22252,4.53982 -0.92824,2.07023 -1.85769,2.43516 -6.20228,2.43516 -4.79874,0 -5.13058,0.17515 -5.44085,2.87173 -0.36452,3.1679 -1.70732,3.78244 -2.68691,1.22968 -0.77355,-2.01586 0.87602,-5.29425 3.30233,-6.56311 0.99194,-0.51874 3.33076,-0.71114 5.19739,-0.42754 2.00929,0.30527 3.39387,0.0664 3.39387,-0.58553 0,-1.66685 -2.07767,-2.68423 -7.832,-3.83509 -5.04053,-1.0081 -5.23239,-1.17731 -5.54106,-4.88687 -0.33827,-4.065569 2.47873,-10.846269 5.57285,-13.414149 0.98216,-0.81511 3.65187,-1.37048 6.08085,-1.26494 6.29372,0.27343 7.6848,-0.43528 10.59219,-5.39638 2.99246,-5.10622 3.25929,-7.72407 1.08089,-10.60416 -0.84324,-1.11489 -1.54812,-2.84941 -1.56639,-3.85452 -0.0183,-1.0051 -0.4456,-1.82747 -0.94962,-1.82747 -1.67472,0 -2.96741,2.55763 -3.69418,7.30903 -1.08199,7.07417 -4.80499,10.44385 -11.53854,10.44385 -6.94941,0 -10.34197,2.19073 -8.76211,5.65812 1.64047,3.60043 -0.86075,8.40575 -4.44655,8.5427 -1.48673,0.0569 -3.28827,0.46487 -4.00344,0.90687 -0.89398,0.5525 -1.18456,0.19393 -0.92992,-1.1475 0.22996,-1.21142 1.42222,-2.07319 3.1448,-2.27305 3.02146,-0.35056 4.70728,-3.03889 2.98541,-4.76076 -1.7819,-1.78191 -1.23536,-4.0377 1.72754,-7.13031 1.78098,-1.85895 3.88637,-2.92888 5.76336,-2.92888 2.59576,0 2.88082,-0.30477 2.33165,-2.49286 -0.4413,-1.75825 -0.0387,-2.91224 1.3659,-3.916 1.09536,-0.78272 2.52847,-2.36297 3.18469,-3.51166 1.06528,-1.86478 1.1965,-1.88881 1.22485,-0.22433 0.0175,1.02532 -0.68371,2.95615 -1.55816,4.29074 -1.43183,2.18526 -1.42314,2.56497 0.0875,3.8187 2.70275,2.24307 5.07456,-0.0891 5.72585,-5.63002 0.74386,-6.32849 3.53061,-9.9432 10.4704,-13.5812 10.52538,-5.51766 16.6341,-3.455 16.6341,5.61664 0,5.58728 1.52849,7.48533 5.27567,6.5512 3.30487,-0.82387 8.29979,-4.3089 8.29979,-5.79088 0,-0.63359 -0.74723,-1.97767 -1.66051,-2.98685 -2.24367,-2.47922 -1.07181,-5.64153 2.66402,-7.18896 3.32441,-1.37701 6.98258,-4.91007 6.04979,-5.84287 -0.95667,-0.95667 -7.91925,1.32143 -9.80639,3.20857 -0.99488,0.9949 -2.63206,1.50081 -3.837,1.18572 -1.15593,-0.30228 -2.96554,-0.0873 -4.02138,0.47778 -1.26855,0.67891 -1.9197,0.67319 -1.9197,-0.0169 0,-1.31343 3.45573,-3.20628 5.85364,-3.20628 0.99765,0 2.62882,-0.7375 3.62484,-1.63888 0.99601,-0.90139 3.96314,-2.2866 6.59358,-3.07825 4.58401,-1.37957 4.90883,-1.33319 7.82043,1.11675 1.99382,1.67769 4.33171,2.55612 6.80302,2.55612 4.33855,0 6.82527,2.0707 10.02963,8.35175 2.44341,4.7895 7.44721,8.34674 11.74919,8.35259 3.32926,0.005 3.33227,-0.006 1.41584,-4.59189 -1.15133,-2.75551 -2.24185,-3.63189 -5.21291,-4.18926 -4.15232,-0.77897 -5.24529,-2.9244 -4.64,-9.10796 0,0 0.34401,-3.51444 0.34401,-3.51444 0,0 -4.43813,0.28002 -4.43813,0.28002 -2.49866,0.15765 -4.43813,-0.18462 -4.43813,-0.7832 0,-0.58477 1.14707,-1.06321 2.54904,-1.06321 1.40196,0 2.83946,-0.46992 3.19443,-1.04427 0.90331,-1.46158 4.41535,-1.30409 5.37017,0.24083 0.43682,0.7068 0.81699,3.40226 0.84482,5.9899 0.0415,3.86639 0.42278,4.76945 2.13913,5.06747 1.1487,0.19947 4.24737,2.67313 6.88596,5.49702 4.15191,4.44351 5.34625,5.1364 8.87625,5.14956 4.39992,0.0163 10.7503,1.95035 17.18727,5.23425 4.03383,2.0579 4.83301,3.57027 6.66873,12.61956 0,0 0.55322,2.72715 0.55322,2.72715 0,0 5.23772,-2.50667 5.23772,-2.50667 2.88075,-1.37868 5.23771,-2.93148 5.23771,-3.45068 0,-0.51919 -1.00871,-2.65364 -2.24159,-4.74321 -2.11927,-3.5919 -2.15102,-3.98918 -0.58158,-7.2803 2.32117,-4.86757 5.52781,-5.66637 8.7588,-2.1819 1.39969,1.5095 2.98637,2.47169 3.52595,2.1382 0.53959,-0.33348 0.98108,-0.14784 0.98108,0.41254 0,1.96128 -2.63008,1.95372 -4.79792,-0.0137 -1.28292,-1.16437 -2.90203,-1.71087 -3.916,-1.32177 -2.48981,0.95543 -2.25843,6.94673 0.35979,9.31619 3.97968,3.60156 1.74552,10.96479 -3.32695,10.96479 -4.41572,0 -7.2247,4.16988 -7.84799,11.65019 -0.70717,8.486849 -2.00789,10.435329 -9.70484,14.537759 -3.47018,1.84958 -7.98012,5.21215 -10.0221,7.47237 -3.40135,3.7649 -3.65226,4.47425 -2.99236,8.45949 1.06624,6.43919 1.98199,7.58432 8.42333,10.53326 7.79901,3.57051 17.96751,9.67826 21.69972,13.03404 0,0 3.01654,2.71227 3.01654,2.71227 0,0 -0.6783,-3.58121 -0.6783,-3.58121 -0.37307,-1.96968 -2.08295,-5.77016 -3.79974,-8.44555 -1.71679,-2.67538 -3.12142,-5.26222 -3.12142,-5.74854 0,-0.48631 -0.98176,-2.91225 -2.1817,-5.39097 -2.67099,-5.51756 -4.61089,-5.69514 -9.30523,-0.85183 -4.14863,4.28031 -6.63687,4.60856 -8.88822,1.17253 -1.35006,-2.06045 -1.40874,-2.99232 -0.3451,-5.48239 1.51895,-3.55608 4.88317,-6.59928 7.33127,-6.6317 0.96409,-0.0127 2.542,-0.81236 3.50649,-1.77684 1.64196,-1.64197 1.72895,-1.62557 1.36627,0.2577 -0.21304,1.10622 -1.94297,2.74586 -3.8443,3.64361 -3.79119,1.79012 -5.3515,3.66722 -5.376,6.46749 -0.0263,3.01137 2.24672,2.09953 7.38674,-2.96321 4.44229,-4.37549 5.05629,-4.67047 7.08466,-3.40374 1.22146,0.76283 2.22085,1.74383 2.22085,2.18002 0,0.43619 0.50158,0.79307 1.11464,0.79307 0.61313,0 0.83609,-0.8776 0.49553,-1.9506 -0.81709,-2.57443 0.67246,-6.1491 4.30637,-10.33462 2.6177,-3.01504 4.04573,-3.60329 12.3581,-5.0907 9.44765,-1.69056 19.05983,-5.379881 21.41715,-8.220289 0.72062,-0.86829 0.98351,-2.66016 0.60914,-4.15179 -0.49132,-1.95757 -1.34555,-2.62423 -3.36262,-2.62423 -2.36976,0 -2.62219,0.32583 -2.04234,2.63616 1.30873,5.214372 -7.78358,10.355349 -12.70533,7.18387 -2.96514,-1.910698 -2.94088,-2.5904 0.26106,-7.30871 3.19119,-4.70249 3.23206,-5.48154 0.34359,-6.55005 -1.47003,-0.54381 -1.84475,-1.09965 -1.06584,-1.58105 0.66067,-0.40831 2.15078,-0.23421 3.31133,0.3869 2.60722,1.39534 2.74964,5.3944 0.33755,9.47776 -2.26638,3.836682 -1.35867,4.702091 2.71979,2.59303 2.45159,-1.26777 3.22984,-2.37962 3.22984,-4.61435 0,-3.73042 3.25522,-6.83394 6.19075,-5.90224 1.82151,0.57813 2.16337,0.24373 2.16337,-2.11614 0,-2.46515 -0.31448,-2.72521 -2.61067,-2.15891 -1.43585,0.35414 -3.78459,0.93345 -5.21938,1.28738 -1.63471,0.40323 -3.60955,-0.0123 -5.28924,-1.11284 -2.21788,-1.45321 -2.56435,-2.2852 -2.0075,-4.82057 0.9872,-4.49467 -2.48215,-4.06578 -5.56211,0.68761 -2.07952,3.20943 -2.3155,4.51618 -1.70209,9.42578 0.78977,6.32112 -0.41565,8.57612 -6.17704,11.555445 -2.83412,1.465584 -3.14379,1.396584 -5.99609,-1.336123 -3.53548,-3.387202 -3.28332,-4.454622 0.47119,-1.994572 2.50644,1.64228 2.79648,1.61071 5.83407,-0.63507 3.43383,-2.53874 4.00355,-5.32226 1.99265,-9.7357 -1.06296,-2.33294 -0.7562,-3.31635 2.62133,-8.40327 3.14113,-4.73089 4.35454,-5.76112 6.78546,-5.76112 3.74807,0 6.85173,3.25007 5.91675,6.19591 -0.97198,3.06244 1.76073,3.80957 5.61229,1.5344 2.77097,-1.63686 3.46916,-1.6813 6.0586,-0.38556 1.60969,0.80547 3.34547,1.65833 3.85729,1.89522 0.5118,0.2369 0.62034,-0.80534 0.24116,-2.31609 -0.75853,-3.02228 0.46277,-3.61486 2.46875,-1.19782 1.03977,1.25285 0.84277,2.29943 -1.03046,5.4743 -1.93485,3.27934 -2.20662,4.8558 -1.65145,9.57938 0.56975,4.84786 0.35306,5.985592 -1.51969,7.979046 0,0 -2.18419,2.324973 -2.18419,2.324973 0,0 3.79526,0.44307 3.79526,0.44307 5.3722,0.62717 8.34843,-1.11899 8.34843,-4.898047 0,-2.205242 -0.71227,-3.426222 -2.52623,-4.330572 -5.05546,-2.52044 -5.34285,-7.96628 -0.51721,-9.80099 1.38672,-0.52723 2.5213,-1.67511 2.5213,-2.55084 0,-0.87574 0.46992,-1.59225 1.04427,-1.59225 1.83851,0 1.1171,4.13513 -1.04427,5.98576 -2.85755,2.44671 -2.62206,4.45689 0.52214,4.45689 1.62442,0 2.61066,0.59175 2.61066,1.5664 0,2.42761 2.00482,1.84838 3.27861,-0.94725 1.52344,-3.34362 -1.36747,-11.0382 -5.98767,-15.93705 -3.21848,-3.41259 -3.61117,-3.54357 -8.62838,-2.87801 -8.20075,1.08787 -12.29585,-0.15722 -17.96833,-5.46317 -3.46744,-3.24338 -5.58421,-6.33372 -6.75706,-9.86481 -0.93932,-2.82804 -2.40645,-5.84047 -3.26028,-6.6943 -3.50118,-3.50118 -11.8459,-0.5673 -11.8459,4.16484 0,3.83062 -1.05914,5.72372 -4.07479,7.28317 -3.03553,1.56973 -6.36785,0.52847 -6.36785,-1.98977 0,-1.73256 -3.57522,-0.98507 -5.31499,1.11124 -1.88382,2.26986 -5.96109,1.71191 -8.45569,-1.15712 -1.39648,-1.60609 -3.37924,-2.61066 -5.15279,-2.61066 -1.58556,0 -3.17327,-0.46992 -3.52823,-1.04427 -1.30244,-2.10739 7.42361,-1.13783 9.39838,1.04427 2.38472,2.63507 4.19708,2.63507 7.54704,0 3.3549,-2.63897 5.72218,-2.64618 8.09465,-0.0246 2.50318,2.76598 3.67722,1.78175 3.67722,-3.0827 0,-3.17897 0.60549,-4.48009 2.87173,-6.17088 2.78912,-2.08091 2.80373,-2.14349 0.50796,-2.17563 -1.30007,-0.0182 -3.2263,-0.57175 -4.28051,-1.23011 -1.06564,-0.6655 -3.14598,-0.88852 -4.68503,-0.50224 -2.32484,0.58349 -2.76827,1.27118 -2.76827,4.29309 0,4.83439 -2.52674,6.11677 -10.17045,5.16176 -5.99034,-0.74844 -7.86232,-2.01268 -12.06894,-8.15073 -1.03192,-1.50571 -2.79412,-2.73764 -3.91599,-2.73764 -2.27709,0 -2.62161,1.08899 -0.89179,2.81881 1.31491,1.31492 0.30079,5.5353 -1.33009,5.5353 -0.5971,0 -0.78905,-0.77283 -0.42659,-1.71741 0.36827,-0.95967 -0.0991,-2.55513 -1.05918,-3.61603 -2.23034,-2.4645 -1.31278,-4.6952 2.20815,-5.36827 4.25491,-0.81337 5.98405,0.044 9.10924,4.51712 2.84363,4.07003 6.01446,5.44871 6.01446,2.61507 0,-0.81454 0.24434,-2.11773 0.54298,-2.89598 0.33803,-0.88089 -0.64741,-1.86432 -2.61066,-2.60536 -1.73451,-0.65471 -3.15365,-1.71764 -3.15365,-2.36209 0,-0.81377 0.58644,-0.85786 1.9197,-0.14432 1.05583,0.56506 2.85085,0.78389 3.98894,0.48628 3.23931,-0.8471 5.14173,2.13884 3.56606,5.59707 -1.09351,2.39998 -1.00988,2.99223 0.58744,4.16022 2.83298,2.07154 4.06805,0.99493 3.72509,-3.24715 -0.28779,-3.5598 -0.0243,-3.95814 3.62614,-5.48343 3.31259,-1.38408 4.85132,-1.45 9.70873,-0.41589 15.78902,3.36136 19.89805,5.70595 21.157,12.07202 0.48307,2.44273 2.43332,6.02457 4.7278,8.6831 3.18971,3.69578 4.85185,4.70124 9.06837,5.48556 2.83955,0.52818 5.48709,0.60506 5.88342,0.17083 0.39631,-0.43421 0.42147,-2.90412 0.0558,-5.48868 0,0 -0.66471,-4.6992 -0.66471,-4.6992 0,0 -5.6511,0 -5.6511,0 -3.21511,0 -5.81904,-0.50028 -6.04067,-1.16057 -0.21426,-0.63832 -1.30486,-2.95586 -2.42354,-5.15009 -2.07518,-4.07035 -2.13295,-5.89324 -0.10827,-3.41749 6.25671,7.65071 5.64702,7.25622 9.1446,5.91685 2.9252,-1.12018 3.60352,-0.98531 6.43573,1.27957 2.50255,2.00127 3.23964,3.49393 3.51787,7.12396 0.36317,4.73797 0.96432,5.38117 6.58742,7.04822 1.89376,0.56143 4.26076,2.64422 6.07504,5.34561 2.58399,3.84749 3.33841,4.3409 5.77361,3.7762 1.54068,-0.35727 3.34352,-1.32622 4.00632,-2.15322 0.66279,-0.82701 1.46554,-1.08218 1.78392,-0.56707 0.79112,1.28008 -2.25533,5.45401 -3.98077,5.45401 -2.04428,0 -2.6461,2.42706 -1.9987,8.06036 0.4892,4.2568 0.17476,5.53184 -2.1327,8.64788 -1.48856,2.010222 -3.52937,4.998669 -4.53512,6.641029 -4.3059,7.03137 -4.96565,7.48205 -10.35208,7.07149 -9.13148,-0.696 -15.50777,-0.52601 -17.23438,0.45949 -1.47189,0.84011 -1.17826,1.57249 2.19526,5.4753 3.81252,4.41068 4.05991,4.51796 11.7609,5.10039 8.90902,0.67378 8.97021,0.63842 14.77994,-8.5425 1.98777,-3.14121 4.97733,-6.13193 7.54595,-7.54885 3.75034,-2.06881 4.65631,-2.19473 7.65296,-1.06363 3.02322,1.14115 3.56441,1.05679 4.8951,-0.76304 1.92,-2.62574 1.50403,-3.716785 -2.25898,-5.925079 -4.65312,-2.73066 -7.40795,-2.43622 -8.63479,0.922872 0,0 -1.04886,2.871727 -1.04886,2.871727 0,0 -0.0824,-2.871727 -0.0824,-2.871727 -0.10736,-3.738902 3.46249,-7.444952 5.94602,-6.172912 0.99194,0.50805 3.09581,1.23266 4.67526,1.61022 2.61872,0.626 2.87173,0.42576 2.87173,-2.2728 0,-2.3496 -0.74734,-3.31566 -3.62752,-4.68912 -4.53081,-2.16059 -5.79634,-6.12345 -3.32864,-10.4232 2.49579,-4.34871 0.81292,-7.03056 -4.41171,-7.03056 -6.44344,0 -10.44744,-1.94899 -13.30562,-6.47661 -1.75944,-2.78713 -3.12992,-3.93912 -4.19843,-3.52909 -0.99034,0.38003 -1.41476,0.11804 -1.12968,-0.69731 0.72116,-2.06249 4.1765,-0.92761 7.02772,2.3082 3.49168,3.96267 6.3229,5.26201 11.46573,5.26201 7.13949,0 12.4082,7.70659 7.85318,11.48692 -2.56986,2.1328 -1.80088,4.05107 2.313,5.76996 2.13367,0.8915 4.20681,2.15069 4.607,2.7982 1.0861,1.75734 -0.006,15.433069 -1.46944,18.410649 -1.90843,3.88147 -4.31555,5.03009 -7.2501,3.45956 -2.56072,-1.37046 -6.84591,-0.42435 -10.02389,2.21314 -1.17678,0.97664 -0.7906,1.42688 2.05431,2.39504 3.2034,1.09016 3.50353,1.55515 3.50353,5.42809 0,5.49962 0.67903,6.03008 3.65879,2.85827 2.40685,-2.56198 7.30599,-3.60959 7.30599,-1.56229 0,0.57435 -0.75131,1.04427 -1.66956,1.04427 -0.91825,0 -2.98647,1.40976 -4.59603,3.13279 -3.23872,3.46706 -4.91027,3.83195 -7.81709,1.70643 -1.75232,-1.28134 -1.80877,-1.76897 -0.55509,-4.79564 1.18134,-2.85199 1.16961,-3.51459 -0.0764,-4.31579 -2.49821,-1.60639 -4.3014,-0.61012 -7.73245,4.27221 0,0 -3.30234,4.69919 -3.30234,4.69919 0,0 -8.79404,0.64246 -8.79404,0.64246 -7.49252,0.54736 -9.31584,0.34787 -12.31972,-1.3479 -3.18606,-1.7986 -3.69695,-1.83534 -5.30355,-0.38138 -1.01292,0.91668 -3.68333,1.60896 -6.20641,1.60896 -3.99524,0 -4.39588,0.22988 -4.09483,2.34959 0.25519,1.79688 1.19068,2.47243 3.97676,2.87173 2.55397,0.36604 3.76068,1.13657 4.03645,2.57743 0.33619,1.75658 0.15624,1.85849 -1.23818,0.70121 -0.89737,-0.74474 -2.76591,-1.20542 -4.15234,-1.02374 -3.60285,0.47214 -5.94396,-1.91609 -5.94396,-6.06354 0,-2.80679 0.53575,-3.7566 2.55111,-4.52284 1.4031,-0.53345 3.51585,-0.78413 4.69498,-0.55705 4.03175,0.77644 5.30136,-5.74431 1.40924,-7.23786 -1.85059,-0.71014 -8.27433,0.27101 -11.00493,1.68087 -1.46916,0.75856 -1.82745,2.33781 -1.82745,8.05477 0,6.54296 0.34233,7.6457 4.28412,13.79977 2.35628,3.67871 4.68544,7.11455 5.17592,7.63521 0.51625,0.54799 2.90896,-1.29695 5.68184,-4.38105 8.50512,-9.45975 10.09568,-10.04662 29.23939,-10.78879 18.54845,-0.71909 26.96204,-2.04005 29.89399,-4.69343 2.40989,-2.18092 2.46188,-3.8809 0.22319,-7.29758 -1.66732,-2.54464 -1.62958,-2.74806 0.99673,-5.37438 2.47489,-2.47488 3.07085,-2.62491 6.38567,-1.60757 2.84194,0.87222 4.07331,0.80561 5.52993,-0.29912 3.49318,-2.64928 4.38288,-1.50519 1.38335,1.77887 -2.77174,3.03466 -3.22327,3.18289 -6.36255,2.08853 -1.8585,-0.64787 -3.54392,-1.17795 -3.74538,-1.17795 -0.96966,0 -0.18574,3.48186 1.2915,5.73643 1.54823,2.36288 1.49977,2.81136 -0.73298,6.784 -1.55275,2.76274 -3.32353,4.44369 -5.05168,4.79539 -9.61357,1.95648 -9.62388,1.67236 0.23445,6.46737 7.52988,3.66249 10.11707,4.41197 15.22998,4.41197 4.20089,0 6.57254,-0.49803 7.45919,-1.5664 1.07164,-1.29123 0.9778,-1.5664 -0.53418,-1.5664 -3.73288,0 -10.06375,-2.51598 -11.07218,-4.40025 -1.61457,-3.01686 -0.15413,-6.0424 2.9167,-6.0424 2.4625,0 2.6072,-0.2628 1.98142,-3.59853 -0.57265,-3.0525 -0.313,-3.79147 1.71125,-4.87016 2.18121,-1.16233 2.26094,-1.11964 0.92748,0.49665 -1.13727,1.37849 -1.20099,2.33427 -0.2891,4.33566 1.51821,3.3321 0.59135,5.58227 -2.63268,6.39145 -4.26644,1.07081 -0.56517,3.52819 6.39627,4.24668 3.52114,0.36341 6.22021,1.18974 6.53093,1.99944 0.94828,2.4712 -3.73256,7.14567 -7.71757,7.70706 0,0 -3.70637,0.52213 -3.70637,0.52213 0,0 4.57148,2.98336 4.57148,2.98336 4.10712,2.68032 5.15489,2.91503 10.31495,2.31064 6.62759,-0.77629 8.7022,-2.38033 8.7022,-6.72834 0,-4.68973 -2.97529,-8.28892 -9.08614,-10.99143 -6.76868,-2.99344 -8.44937,-6.22092 -7.48226,-14.36845 1.0833,-9.12638 -4.28861,-16.32862 -11.19165,-15.00494 -1.57945,0.30287 -4.23969,0.83284 -5.91165,1.17771 -2.41688,0.49851 -3.28617,0.16688 -4.24143,-1.61805 -0.66085,-1.23478 -1.05508,-3.501644 -0.87608,-5.037463 0.26421,-2.266956 1.11143,-3.010646 4.5025,-3.952226 3.38696,-0.94042 4.23967,-1.68752 4.50807,-3.94961 0.33567,-2.82917 -0.0258,-3.12801 -5.12255,-4.23465 -1.87968,-0.40814 -3.27982,-1.86606 -4.59672,-4.78641 -1.04155,-2.30974 -2.29227,-4.19953 -2.77938,-4.19953 -1.60142,0 -2.45633,0.50934 -2.191,1.30534 0.14358,0.43077 -0.20886,0.7832 -0.78321,0.7832 -1.6249,0 -1.22778,-4.17219 0.45871,-4.81936 2.13856,-0.82065 4.25246,0.61939 7.07764,4.82144 1.46269,2.17553 3.49726,3.79694 5.03072,4.00912 3.80754,0.52687 6.2318,3.20106 6.21372,6.85438 -0.0211,4.26198 -0.8008,5.29583 -5.45578,7.233972 -2.89353,1.204758 -3.73554,2.068624 -3.24985,3.334287 0.47325,1.23329 1.26877,1.48582 2.86111,0.90823 1.21307,-0.44 4.67266,-0.79234 7.68798,-0.78295 3.87578,0.012 5.48239,-0.39021 5.48239,-1.372648 0,-0.764335 0.46992,-1.389689 1.04426,-1.389689 0.57435,0 1.04427,1.454685 1.04427,3.232657 0,1.77796 0.9563,4.57566 2.12513,6.21713 1.73928,2.44261 2.07138,4.30547 1.82904,10.26034 -0.257,6.31556 0.0102,7.60173 2.0233,9.74474 1.27566,1.35788 4.50293,3.05288 7.17174,3.76666 4.34404,1.16186 4.99991,1.10331 6.26101,-0.55895 2.54282,-3.35168 1.62817,-5.45667 -3.2241,-7.41996 -5.59316,-2.26306 -9.32193,-9.78212 -6.81637,-13.74514 0.71467,-1.13036 0.22853,-2.34403 -1.77776,-4.43813 -3.29779,-3.44215 -2.34091,-3.7469 2.0184,-0.64281 2.75261,1.96004 3.07095,2.69626 2.55108,5.89989 -0.72512,4.46832 2.43442,9.60465 5.92322,9.62913 3.27996,0.0231 4.44407,1.04524 6.31952,5.54926 1.60594,3.85679 1.5774,4.12793 -0.80328,7.63142 -2.07197,3.04917 -2.32453,4.25175 -1.57266,7.48806 1.39249,5.99367 1.16197,7.19129 -2.0992,10.90556 -2.59514,2.95571 -4.17575,3.66662 -10.70371,4.81428 -8.26295,1.45268 -9.51186,1.20139 -16.02798,-3.22501 -2.30558,-1.56617 -6.31058,-3.4852 -8.9,-4.2645 0,0 -4.70802,-1.41691 -4.70802,-1.41691 0,0 0,3.97584 0,3.97584 0,4.37054 -2.04442,6.58369 -7.00132,7.57916 -2.19581,0.44097 -2.87174,1.17978 -2.87174,3.1389 0,4.08436 2.54262,5.94125 6.32825,4.62157 2.60151,-0.90689 3.52894,-0.77444 5.20629,0.74355 2.4488,2.21614 2.58885,3.94562 0.46239,5.71043 -1.34016,1.11223 -1.53727,0.93443 -1.30533,-1.17748 0.29138,-2.65309 -0.2625,-2.75849 -7.20492,-1.37103 -2.72032,0.54365 -3.58368,0.2279 -4.90748,-1.79478 -0.88354,-1.34999 -1.91768,-4.40468 -2.29812,-6.78823 -0.66891,-4.19105 -0.56909,-4.39188 3.03199,-6.10072 2.04802,-0.97185 4.26768,-2.42248 4.93257,-3.22364 3.76119,-4.53194 -4.97902,-12.15566 -15.33067,-13.37229 -3.2551,-0.38257 -6.08196,-0.532 -6.28189,-0.33206 -0.19994,0.19993 0.57838,1.37455 1.7296,2.61022 3.5509,3.81145 4.18769,7.11296 3.47361,18.00921 -0.64975,9.91481 -0.56627,10.5169 1.99467,14.38675 2.79466,4.223 8.23686,7.50528 12.41539,7.4879 4.19437,-0.0174 13.78355,-5.1244 17.22877,-9.1756 2.94482,-3.46282 3.81153,-3.86751 8.28272,-3.86751 4.7359,0 5.03851,-0.17181 5.86099,-3.32751 0.97773,-3.75135 3.44583,-4.95637 7.80192,-3.8092 0,0 2.96053,0.77966 2.96053,0.77966 0,0 -3.13279,0.57457 -3.13279,0.57457 -2.34659,0.43039 -3.22343,1.22806 -3.49392,3.17853 -0.19862,1.43217 -0.81636,3.15858 -1.37276,3.83645 -1.92507,2.34538 3.03554,3.88835 7.62806,2.37269 4.56576,-1.50684 4.74025,-1.79967 2.19887,-3.68998 -4.41122,-3.28112 4.9958,-8.83764 10.32451,-6.09843 1.88944,0.97126 4.17031,1.17359 7.26809,0.64477 4.25819,-0.72693 4.62004,-1.06562 6.37292,-5.96502 3.01855,-8.43707 0.13024,-12.16957 -3.51701,-4.54492 -2.55611,5.3436 -4.53342,6.69647 -7.68717,5.25952 -3.63025,-1.65406 -3.56727,-8.22786 0.13944,-14.55288 2.01226,-3.43368 2.56003,-5.49364 2.10697,-7.92374 -0.57308,-3.07387 -0.51325,-3.15421 0.93574,-1.25675 2.2742,2.97808 1.97918,9.14863 -0.54058,11.3061 -1.44397,1.23637 -2.08852,3.08052 -2.08852,5.97553 0,4.84307 1.62944,5.46476 3.44801,1.31556 2.03253,-4.63729 5.04153,-8.61519 6.51681,-8.61519 2.40129,0 5.91102,5.47507 5.34544,8.33872 -1.2726,6.44361 -2.73035,10.85675 -4.00757,12.13243 -2.11672,2.11416 -12.9672,3.08254 -16.05038,1.43246 -2.99432,-1.6025 -4.47674,-0.71457 -2.59415,1.55383 2.00909,2.42079 0.6243,4.40239 -5.10556,7.30593 -6.31351,3.1993 -8.83381,3.3147 -12.33002,0.56459 -4.14248,-3.25847 -14.41998,-2.39564 -12.30114,1.03272 0.48332,0.78202 1.96479,1.02978 3.8742,0.64789 3.8458,-0.76915 7.09773,0.8699 7.09773,3.57745 0,2.41896 2.73397,2.72732 5.1391,0.57965 0.90675,-0.80969 2.3535,-1.57024 3.21501,-1.69013 4.13735,-0.57574 4.10876,0.28873 -0.10395,3.14327 -6.41985,4.35014 -11.6912,4.13948 -12.58998,-0.50313 -0.34413,-1.77761 -1.10056,-2.04152 -5.08106,-1.77279 -2.57221,0.17365 -7.21107,1.31285 -10.30861,2.53155 0,0 -5.63186,2.21581 -5.63186,2.21581 0,0 9.28033,1.91819 9.28033,1.91819 7.78647,1.60943 10.86381,1.7562 19.11737,0.9118 9.55302,-0.97734 9.96138,-1.12844 14.14357,-5.23294 2.3686,-2.3246 4.76908,-4.22654 5.33441,-4.22654 0.56534,0 2.66217,-1.33763 4.65967,-2.97252 5.98955,-4.90227 7.20001,-5.2567 13.81289,-4.04457 7.03261,1.28907 8.71638,0.37385 4.69776,-2.55351 -2.87356,-2.09325 -3.78697,-5.40329 -1.82555,-6.61552 0.57434,-0.35496 1.04427,0.0752 1.04427,0.95582 0,0.88067 1.43838,2.34502 3.1964,3.25414 2.53951,1.31323 3.12968,2.22583 2.87173,4.44074 -0.19305,1.65766 -1.30158,3.27217 -2.73445,3.98259 -2.22686,1.10408 -2.28066,1.32388 -0.70861,2.89592 0.93565,0.93564 2.63834,1.70117 3.78377,1.70117 5.63981,0 7.65466,4.00047 4.46593,8.86708 -0.91102,1.3904 -1.31553,3.07955 -0.89891,3.75366 0.47515,0.7688 0.21678,1.03986 -0.69317,0.72718 -1.49851,-0.51491 -1.68397,-3.86046 -0.4287,-7.73297 0.62296,-1.92182 0.20485,-2.31342 -3.14004,-2.94092 -2.37161,-0.44492 -5.12169,-2.05547 -7.13591,-4.17909 -4.90537,-5.17173 -7.32011,-5.31417 -13.17427,-0.77711 -2.73118,2.11671 -5.85094,4.40834 -6.93277,5.09249 -1.63012,1.0309 -0.66332,1.25444 5.64555,1.30533 5.57169,0.0449 8.79119,0.65293 12.00905,2.26779 5.9162,2.96901 9.09572,6.0395 9.09572,8.78377 0,3.49593 5.85564,10.93654 8.62174,10.95541 3.16197,0.0216 4.63194,1.09025 5.82844,4.23729 1.28246,3.37315 -0.20555,6.18722 -3.27622,6.19581 -1.26373,0.003 -3.58202,0.67642 -5.15174,1.49529 -1.56973,0.81888 -3.10128,1.08883 -3.40346,0.59989 -0.86271,-1.3959 2.26466,-3.94998 5.78276,-4.72269 4.051,-0.88974 3.77727,-3.69179 -0.47167,-4.82809 -3.59496,-0.96139 -10.0184,-6.88035 -10.0184,-9.23157 0,-0.90823 -0.73999,-2.70782 -1.64444,-3.9991 0,0 -1.64444,-2.34778 -1.64444,-2.34778 0,0 -2.95159,3.15969 -2.95159,3.15969 -1.62338,1.73782 -3.46794,3.15968 -4.09901,3.15968 -0.63109,0 -1.14744,0.70488 -1.14744,1.5664 0,1.11755 1.1371,1.5664 3.96822,1.5664 3.79572,0 6.47444,1.42878 6.47444,3.45337 0,0.52092 -0.82236,0.60244 -1.82747,0.18114 -1.0051,-0.4213 -3.56721,-0.68882 -5.69359,-0.59449 -3.03643,0.13469 -4.21809,-0.36565 -5.50609,-2.33138 -1.9861,-3.03117 -1.2939,-5.25501 2.11981,-6.8104 2.94456,-1.34163 3.53593,-5.82888 0.90141,-6.83983 -2.85741,-1.09649 -15.27814,-0.68888 -18.89829,0.62019 -4.2892,1.55099 -4.47844,2.92301 -0.40319,2.92301 1.68565,0 4.27021,0.45829 5.74345,1.01842 2.24375,0.85307 2.67865,1.68004 2.67865,5.09346 0,2.34831 -0.66374,4.62589 -1.56639,5.37504 -4.01283,3.33035 0.0661,8.22559 5.22093,6.26574 1.51086,-0.57443 5.01735,-1.04442 7.79219,-1.04442 4.46793,0 5.41597,0.42233 8.28614,3.69127 1.78253,2.03019 3.24097,4.79217 3.24097,6.13773 0,3.99839 2.46219,5.27822 6.38736,3.32009 1.83255,-0.91419 3.87667,-1.66217 4.5425,-1.66217 2.5933,0 6.58428,5.78433 7.20504,10.44266 0.54249,4.07077 0.26227,5.11104 -2.09541,7.7789 -1.89922,2.14907 -4.02385,3.25352 -7.03097,3.65492 -5.05782,0.67514 -6.27554,3.64385 -2.7889,6.79922 1.5368,1.39077 2.13451,3.22475 2.13451,6.54937 0,5.7912 -4.26889,10.72261 -9.28206,10.72261 -2.11847,0 -4.24001,1.03901 -6.36698,3.11818 -3.95785,3.86892 -6.93383,4.66294 -12.14483,3.24036 -3.52994,-0.96366 -4.5004,-1.95611 -7.47957,-7.64893 -1.88284,-3.59788 -3.41008,-7.37086 -3.39386,-8.38442 0.0345,-2.1512 5.81604,-5.97961 9.03894,-5.98527 1.22195,-0.002 2.80165,0.69488 3.51046,1.54893 1.45993,1.75911 0.59652,6.80129 -1.16463,6.80129 -0.62485,0 -0.84274,-0.76444 -0.48422,-1.69876 0.35853,-0.93431 0.12658,-2.3317 -0.51544,-3.10529 -0.97504,-1.17485 -1.66607,-1.14863 -4.19509,0.15918 -1.66525,0.86114 -3.02775,2.27506 -3.02775,3.14203 0,3.72548 7.66605,12.98976 10.74882,12.98976 1.10217,0 3.7163,-1.34332 5.80916,-2.98516 2.09285,-1.64183 5.68487,-3.59551 7.98225,-4.3415 4.14733,-1.34669 6.69083,-3.56727 6.75452,-5.89702 0.0252,-0.91964 -0.73731,-0.92378 -3.13958,-0.017 -5.7756,2.18004 -11.15197,-3.04214 -8.7548,-8.50376 0.60756,-1.38422 0.89861,-1.11799 1.38792,1.26961 0.78991,3.85437 3.57474,5.7607 6.10155,4.17675 2.26556,-1.42021 2.92854,-5.24203 1.2584,-7.25441 -0.97034,-1.16919 -0.97177,-2.18333 -0.007,-4.51411 1.01583,-2.45239 2.04719,-3.11372 5.59881,-3.5901 7.2893,-0.9777 10.28318,-7.11803 6.02048,-12.34781 0,0 -2.0094,-2.46528 -2.0094,-2.46528 0,0 -3.73725,1.99363 -3.73725,1.99363 -5.51289,2.94084 -8.29574,1.32109 -10.44756,-6.08094 -1.56939,-5.39826 -3.76796,-7.92174 -6.90188,-7.92174 -0.74979,0 -0.94002,0.70861 -0.4906,1.82747 0.40371,1.0051 0.97027,2.40465 1.25901,3.1101 0.82141,2.00694 -5.41517,7.59362 -8.477,7.59362 -1.69582,0 -2.691,0.57928 -2.691,1.56639 0,1.21756 1.38939,1.5664 6.23878,1.5664 5.99251,0 6.30613,0.13397 7.94474,3.39386 0.93827,1.86663 2.71253,4.20577 3.94281,5.19811 1.23027,0.99233 1.65081,1.81469 0.93452,1.82746 -0.71627,0.0127 -3.12283,-1.62149 -5.34789,-3.6317 -3.50318,-3.16492 -4.75566,-3.65493 -9.34218,-3.65493 -4.2395,0 -5.61114,-0.44906 -6.87256,-2.24999 -2.21625,-3.16415 -0.51987,-5.77237 4.66186,-7.16767 7.81017,-2.10305 5.82312,-7.92389 -2.26355,-6.63078 -3.29613,0.52707 -4.35563,0.19735 -6.61011,-2.05713 -3.03199,-3.032 -3.5872,-8.04067 -1.1184,-10.08959 2.43328,-2.01946 1.96721,-5.20024 -0.78321,-5.34499 -1.29226,-0.068 -2.75059,-0.0518 -3.24072,0.0359 -0.49011,0.0878 -3.07387,-1.11954 -5.74167,-2.68297 -4.79576,-2.8105 -11.00816,-3.50206 -13.05675,-1.45347 -1.17527,1.17528 3.20902,4.0086 7.54475,4.87575 3.84434,0.76887 5.87685,3.38749 6.789,8.74676 0.74197,4.35925 0.14857,5.43198 -4.25179,7.68628 -4.39246,2.25026 -7.34693,2.16 -12.32198,-0.37642 -2.2531,-1.14869 -5.28944,-2.08636 -6.74746,-2.0837 -3.14504,0.005 -15.20225,4.74225 -15.13615,5.94603 0.0822,1.49692 2.88003,6.58032 3.62171,6.58032 0.39697,0 2.19695,-1.40976 3.99994,-3.1328 3.69498,-3.53112 5.60434,-3.80751 10.93022,-1.58221 4.49359,1.87753 4.9058,2.47952 3.76491,5.49821 -1.1438,3.02642 -2.71168,3.03139 -2.60461,0.008 0.0656,-1.85306 -0.71636,-2.54056 -3.74963,-3.29658 -3.50909,-0.87461 -4.11075,-0.67702 -7.12911,2.34135 -4.82439,4.82438 -7.00162,4.30865 -10.46169,-2.47808 -3.47658,-6.81911 -2.95541,-8.19525 3.51727,-9.28735 1.63859,-0.27647 3.99508,-1.16826 5.23665,-1.98177 4.33273,-2.83891 8.59605,-3.08009 13.79491,-0.78039 5.5901,2.47277 7.63223,2.64523 11.33665,0.95737 2.15212,-0.98058 2.52044,-1.70415 1.9933,-3.91599 -0.94546,-3.96717 -1.10613,-4.11938 -5.63577,-5.33908 -3.78262,-1.01856 -4.46741,-0.8707 -7.82374,1.68931 -3.15443,2.40599 -4.04499,2.63848 -6.2531,1.63239 -3.02323,-1.37747 -3.47348,-3.34595 -0.59305,-2.59269 2.5184,0.65858 6.37235,-1.3636 6.37235,-3.34359 0,-2.55961 -9.59215,-6.62772 -17.376,-7.36931 -3.94032,-0.3754 -8.71833,-1.56861 -10.61778,-2.65157 -1.89946,-1.08301 -3.59267,-1.96907 -3.76271,-1.96907 -0.17002,0 -0.0886,2.29505 0.18091,5.10011 0.56343,5.86373 0.19374,6.35001 -9.6729,12.72323 -8.02498,5.18365 -12.43679,5.43186 -16.73858,0.94176 -2.64357,-2.75928 -3.00302,-3.86239 -2.80729,-8.61519 0.19509,-4.73737 0.66879,-5.82287 3.61957,-8.29436 1.86731,-1.56399 3.84267,-2.85627 4.38967,-2.87173 2.01417,-0.0569 7.8817,6.70187 7.8817,9.07887 0,2.93712 -4.38375,5.06498 -7.13151,3.46158 -1.51492,-0.884 -1.44337,-1.02229 0.54323,-1.04986 1.25838,-0.0174 2.59116,-0.52234 2.96174,-1.12195 0.8251,-1.33504 -2.22695,-6.21966 -3.88623,-6.21966 -2.592,0 -5.01795,3.50891 -4.98521,7.21064 0.0427,4.82323 2.04664,7.40907 5.74185,7.40907 3.75868,0 14.98344,-7.15163 15.73084,-10.02258 0.60309,-2.31667 -4.44629,-12.78233 -8.05731,-16.70004 -3.0105,-3.26619 -3.79797,-7.34494 -3.24496,-16.80758 0.27474,-4.70102 0.20156,-9.73448 -0.16261,-11.18547 -0.86254,-3.43665 -9.50628,-10.02878 -13.14993,-10.02878 -3.38068,0 -9.66385,5.88176 -12.82867,12.00905 -3.28322,6.35655 -3.18871,23.66287 0.17829,32.65073 3.50005,9.34298 2.78381,13.39596 -4.29362,24.29625 -3.15745,4.86296 -6.28896,9.88277 -6.95892,11.15516 -0.92351,1.75396 -4.18126,3.23367 -13.47083,6.11863 -19.93755,6.19179 -22.68942,7.47927 -27.60817,12.91667 -2.46708,2.72722 -7.54007,8.35448 -11.27333,12.50503 -3.73324,4.15055 -8.19747,8.40113 -9.92052,9.44575 -1.72303,1.04462 -8.77182,3.17684 -15.66397,4.73826 -21.85087,4.95035 -20.70946,4.19518 -30.77581,20.36161 -6.66202,10.69914 -7.46246,14.98151 -4.19648,22.4517 1.64961,3.7731 2.43011,8.11778 2.81403,15.66398 0.64208,12.62063 -1.50515,19.74413 -7.77817,25.80438 -5.95366,5.75173 -9.49816,5.68464 -16.30688,-0.30863 0,0 -4.84622,-4.26581 -4.84622,-4.26581 0,0 0,-12.3631 0,-12.3631 0,0 0,-12.36244 0,-12.36244 0,0 -3.44125,-4.51811 -3.44125,-4.51811 -4.37231,-5.74053 -8.31124,-13.8548 -7.86085,-16.19348 0.43408,-2.25393 11.02608,-10.40518 14.72828,-11.33437 3.55914,-0.89328 8.06075,3.61227 8.06075,8.06784 0,2.9674 -3.93997,8.15416 -6.19405,8.15416 -1.87707,0 -4.45933,-5.00082 -3.74479,-7.25215 0.52353,-1.64949 0.3064,-1.99088 -0.95766,-1.5058 -2.98115,1.14397 -2.42512,5.12705 1.25901,9.01902 3.38177,3.57254 4.11615,3.56953 8.33216,-0.034 3.00873,-2.57167 3.39386,-3.50711 3.39386,-8.24349 0,-4.82678 -0.36301,-5.66137 -3.75958,-8.6436 -4.72295,-4.1468 -7.09084,-3.76037 -17.1601,2.80045 -8.7351,5.69152 -9.94335,8.63487 -6.71697,16.36281 0.70141,1.68004 0.20891,1.56102 -3.24091,-0.7832 -2.23742,-1.52035 -5.48618,-2.77577 -7.21947,-2.78981 -8.61385,-0.0698 -22.47036,-5.29306 -22.47036,-8.47031 0,-2.34347 3.68829,-4.40671 6.54298,-3.6602 1.96096,0.51281 2.00577,0.41623 0.50375,-1.08578 -2.02695,-2.02695 -6.16033,-1.19771 -8.94874,1.79528 -1.07789,1.15699 -2.61812,1.89543 -3.42276,1.64098 -0.80462,-0.25444 -2.71871,-0.73662 -4.25355,-1.0715 -2.02141,-0.44106 -3.12125,-1.61082 -3.99024,-4.24386 -1.51171,-4.58053 -0.96754,-5.41848 4.07174,-6.26985 3.05802,-0.51665 5.11995,-0.1504 8.30704,1.47553 5.25082,2.67877 7.51412,2.70799 12.5058,0.16142 2.15763,-1.10074 5.70082,-2.33488 7.87376,-2.74252 5.15555,-0.96719 5.71313,-2.83624 2.5977,-8.70759 -3.29795,-6.21529 -6.12057,-6.77001 -10.89609,-2.14139 -3.44698,3.34094 -3.53454,3.36263 -7.45075,1.84501 -2.55326,-0.98945 -3.91119,-2.16049 -3.81774,-3.29231 0.0798,-0.96614 -0.27267,-1.75663 -0.78319,-1.75663 -0.51054,0 -0.92824,1.19877 -0.92824,2.66395 0,2.05275 0.83086,3.0111 3.62138,4.17706 5.20712,2.17567 7.05149,1.90405 10.99833,-1.61969 1.92993,-1.72303 3.8722,-3.13279 4.31615,-3.13279 0.44395,0 1.60844,1.68852 2.58776,3.75227 1.51148,3.1852 1.55834,3.89297 0.31006,4.68321 -0.80878,0.51201 -2.07664,0.93813 -2.81744,0.94692 -0.74081,0.009 -3.18917,0.95583 -5.4408,2.10452 -5.13803,2.62122 -7.39316,2.62122 -12.53117,0 -4.84853,-2.47353 -9.4336,-2.66397 -13.50077,-0.56076 -3.74663,1.93747 -4.40955,3.71383 -3.00624,8.05558 1.87973,5.81575 2.22405,6.16623 7.96496,8.1076 7.37125,2.49267 8.6608,3.84812 4.98918,5.24408 -4.40054,1.67307 -7.8311,1.29859 -11.40288,-1.24474 -1.798,-1.28029 -5.38957,-2.57257 -7.98127,-2.87173 -5.51125,-0.63616 -6.6113,-2.84571 -3.14334,-6.31367 1.6741,-1.67408 2.06718,-2.94887 1.54925,-5.02446 -1.18294,-4.74072 -3.51362,-6.43617 -8.84764,-6.43617 -2.67295,0 -5.77207,-0.67616 -6.88695,-1.50257 -1.80278,-1.33634 -1.85375,-1.6773 -0.46065,-3.0818 0.86151,-0.86858 3.44607,-2.18997 5.74346,-2.93642 2.88075,-0.93599 4.27371,-2.03342 4.48852,-3.53623 0.46657,-3.26424 -2.37353,-4.95762 -7.98189,-4.75912 -4.41523,0.15628 -5.23306,-0.17644 -7.29749,-2.96872 -3.0814,-4.1678 -4.61859,-4.01614 -2.52529,0.24915 2.21826,4.51992 2.9895,4.92557 9.40015,4.94428 3.98227,0.0116 5.48239,0.41401 5.48239,1.47066 0,1.58588 -2.19067,2.72238 -5.24752,2.72238 -3.76892,0 -7.17572,8.49813 -3.8898,9.70297 0.98185,0.36001 1.00963,0.79373 0.11213,1.75016 -0.93739,0.99891 -1.72104,0.99338 -3.65494,-0.0258 -3.10879,-1.63836 -3.76011,-2.61665 -5.17475,-7.7724 -1.95843,-7.13773 -4.33205,-8.3283 -10.37446,-5.20365 -2.844297,1.47085 -3.213787,1.43352 -5.169457,-0.52213 -3.127112,-3.12712 -2.811927,-8.70936 0.64528,-11.42881 1.51333,-1.19038 4.087047,-2.16432 5.719387,-2.16432 2.03819,0 3.52104,-0.84422 4.73371,-2.69498 1.65177,-2.52092 1.6531,-2.88578 0.0207,-5.64923 -2.13023,-3.6062 -1.34703,-6.07184 2.21247,-6.96521 2.14112,-0.53739 3.16099,-0.0658 5.10095,2.35861 2.26107,2.82572 2.42511,2.87671 2.42994,0.75528 0.0113,-4.81552 -5.88723,-7.77019 -10.05706,-5.03801 -3.21201,2.1046 -3.88729,1.64519 -2.59148,-1.76303 0.66318,-1.7443 2.61437,-3.19594 6.03373,-4.48893 2.77948,-1.05103 6.68791,-3.24555 8.6854,-4.87672 5.91173,-4.82756 9.09459,-3.90449 14.00737,4.0623 3.42416,5.55278 3.44051,7.97424 0.0642,9.51258 -3.74497,1.70633 -4.59285,1.53479 -5.62338,-1.13771 -0.80935,-2.0989 -0.98536,-2.15319 -1.64958,-0.50884 -0.95059,2.35335 1.17858,4.94812 4.0561,4.94306 3.32437,-0.006 9.00946,-3.85849 9.00946,-6.1055 0,-1.07968 -0.85405,-3.08375 -1.89791,-4.45348 -1.04385,-1.36973 -2.48537,-3.95671 -3.20337,-5.74883 -2.56876,-6.41147 -11.3405,-7.62176 -17.30225,-2.38727 -2.30062,2.01996 -5.24907,3.4411 -7.86812,3.7924 -3.28965,0.44123 -4.63701,1.2872 -6.27743,3.94147 -2.74732,4.44525 -2.72533,10.06533 0.0492,12.57625 1.33179,1.20526 2.02087,2.93977 1.82745,4.59997 -0.26724,2.29395 -0.89227,2.71172 -4.48755,2.99948 -6.164285,0.49337 -8.87625,3.50652 -8.87625,9.86201 0,4.16447 0.541247,5.70654 2.868343,8.17209 3.31634,3.51367 3.99348,3.6234 8.496807,1.37685 3.81621,-1.90379 6.38735,-0.69747 6.38735,2.99679 0,2.78863 4.78403,8.99346 7.82577,10.14993 1.54006,0.58554 4.72903,0.36867 8.9053,-0.60559 4.90148,-1.14344 6.85995,-1.2241 7.94083,-0.32704 1.90722,1.58285 1.81984,4.53672 -0.18337,6.19923 -1.09394,0.9079 -1.51677,2.72523 -1.30533,5.61025 0.31134,4.24785 0.33744,4.27213 5.71102,5.31162 2.96904,0.57434 5.69655,1.34385 6.06112,1.71002 1.30237,1.30802 -9.33854,4.03345 -15.74786,4.03345 -4.54139,0 -7.02635,-0.49924 -8.16811,-1.641 -2.65971,-2.65972 -1.98105,-5.13559 2.01395,-7.34719 2.80358,-1.55204 3.19378,-4.3006 0.96083,-6.76798 -1.41114,-1.55929 -2.63629,-1.87461 -5.32431,-1.37034 -2.15517,0.40431 -4.08652,0.16109 -5.04636,-0.6355 -0.85522,-0.70977 -1.55494,-0.85703 -1.55494,-0.32722 0,2.04007 2.66747,3.46951 6.47444,3.46951 3.0941,0 3.9682,0.40551 3.9682,1.84091 0,1.01249 -1.05731,2.30477 -2.34959,2.87172 -1.29228,0.56695 -2.81347,2.08815 -3.38042,3.38043 -0.56696,1.29228 -1.36267,2.34959 -1.76825,2.34959 -1.12744,0 -3.98865,-4.44239 -3.98865,-6.19284 0,-2.16966 -7.35127,-9.47113 -9.53573,-9.47113 -1.849217,0 -5.083987,-2.62214 -5.083987,-4.12113 0,-0.46152 1.48245,-1.13563 3.29433,-1.49801 3.485167,-0.69702 6.104057,-2.37714 6.104057,-3.91597 0,-0.51051 -0.81915,-0.47877 -1.82747,0.0708 -1.0051,0.54783 -3.589647,1.27799 -5.743447,1.62257 -3.480169,0.55679 -3.915994,0.96331 -3.915994,3.65278 0,3.19163 3.151094,6.27748 6.410194,6.27748 2.410977,0 8.209517,7.53781 8.209517,10.67195 0,5.58822 10.68398,11.25761 21.215,11.25761 3.95726,0 6.98015,0.45224 6.98015,1.04426 0,0.57436 -0.42772,1.04427 -0.95049,1.04427 -0.52277,0 -3.39056,1.92876 -6.37286,4.28614 -4.55162,3.59785 -5.94027,4.18256 -8.64746,3.64112 -1.7738,-0.35476 -4.7259,-2.28352 -6.56022,-4.28613 -2.39302,-2.61257 -4.2225,-3.64113 -6.47644,-3.64113 -3.72185,0 -4.68762,-1.77391 -2.84262,-5.22132 2.13338,-3.98625 0.59887,-5.90004 -1.69989,-2.12005 -3.354477,5.516 -2.03611,9.39764 3.21408,9.46311 1.46458,0.0183 3.5323,0.69188 4.59491,1.49693 2.0279,1.53633 1.53888,3.69119 -0.83767,3.69119 -0.76618,0 -1.68893,0.77108 -2.05058,1.71351 -0.79046,2.0599 0.18821,5.59635 1.54872,5.59635 0.53564,0 1.8966,0.9227 3.02434,2.05045 1.13657,1.13656 2.32632,1.60404 2.66944,1.04887 0.34045,-0.55086 -0.58225,-2.11485 -2.05044,-3.47552 -1.46819,-1.36067 -2.66944,-3.00747 -2.66944,-3.65954 0,-1.48054 4.50341,-1.51831 9.67846,-0.0811 3.6604,1.0165 4.24341,0.84906 8.35412,-2.39949 2.43052,-1.92076 5.75696,-4.16362 7.39209,-4.98418 1.63515,-0.82056 4.072,-2.79801 5.41525,-4.39437 1.34324,-1.59636 3.71421,-3.38606 5.26881,-3.97712 3.97987,-1.51315 24.89554,-1.27935 31.76851,0.35512 0,0 5.74345,1.36586 5.74345,1.36586 0,0 -4.69919,2.45382 -4.69919,2.45382 -6.19154,3.23309 -17.3192,3.71963 -17.07368,0.74653 0.23741,-2.87486 -4.0549,-4.43121 -7.86659,-2.85236 -1.70766,0.70733 -3.3588,1.94792 -3.66921,2.75686 -0.31042,0.8089 -1.28402,1.47076 -2.16357,1.47076 -0.87954,0 -1.59917,0.50158 -1.59917,1.11464 0,1.37626 4.04599,0.25428 6.34782,-1.7603 2.14841,-1.88029 5.1391,-1.85182 5.1391,0.049 0,2.92525 3.1407,4.86695 6.77078,4.18593 4.14376,-0.77737 6.0094,1.23662 3.10969,3.35694 -2.67563,1.95648 -5.59865,1.76055 -10.15321,-0.68055 -5.12513,-2.7469 -8.11745,-2.63461 -14.38168,0.53973 -5.62827,2.85205 -6.15133,3.9562 -3.35916,7.09093 1.7874,2.00667 1.74732,2.03458 -1.82746,1.27267 -4.50635,-0.96046 -11.47981,-1.0395 -14.94646,-0.16943 -2.14814,0.53915 -2.98477,1.92261 -4.8235,7.97622 -2.30134,7.57669 -2.06865,9.57147 1.45789,12.49825 1.37476,1.14095 1.99922,1.04168 3.82485,-0.60802 1.20002,-1.08436 2.9534,-3.5824 3.89641,-5.55117 2.55283,-5.32975 4.32522,-5.31689 4.32522,0.0313 0,3.07535 -0.67248,5.17366 -2.1684,6.76599 -1.4492,1.5426 -2.03554,3.29667 -1.76786,5.28863 0,0 0.40053,2.98049 0.40053,2.98049 0,0 1.22562,-2.88681 1.22562,-2.88681 0.67409,-1.58774 2.16348,-4.1723 3.30976,-5.74346 2.5179,-3.45117 2.41433,-10.47643 -0.17856,-12.11199 -2.69254,-1.6984 -6.56679,0.66406 -7.72781,4.71228 -0.69656,2.42876 -1.62584,3.4988 -3.03859,3.4988 -2.40489,0 -3.24489,-2.98929 -1.72586,-6.14179 0.58633,-1.21679 1.33022,-3.43974 1.65311,-4.9399 0.50031,-2.32437 1.29469,-2.82454 5.3741,-3.38369 3.15435,-0.43234 5.74207,-0.1731 7.58721,0.76012 5.67359,2.86953 13.72538,-2.59947 8.95868,-6.08499 -1.71044,-1.2507 -1.58404,-1.49905 1.6015,-3.14636 2.32522,-1.20242 4.60339,-1.57369 6.95231,-1.13303 3.2658,0.61267 3.45606,0.87423 2.91557,4.00841 -0.93805,5.4397 -1.1811,5.79455 -4.2518,6.20759 0,0 -2.9334,0.39458 -2.9334,0.39458 0,0 2.9138,0.84877 2.9138,0.84877 3.60544,1.05024 7.00672,-1.59343 7.00672,-5.44602 0,-2.47127 0.21758,-2.56093 4.71763,-1.94413 4.48012,0.61407 4.91382,0.4396 8.61518,-3.46574 2.14366,-2.26179 6.61055,-5.34788 9.9264,-6.85796 7.97786,-3.63319 12.76917,-2.93121 18.7362,2.74508 0,0 4.27414,4.06591 4.27414,4.06591 0,0 -0.6698,12.45685 -0.6698,12.45685 0,0 -0.66979,12.45686 -0.66979,12.45686 0,0 3.64165,4.35878 3.64165,4.35878 2.00291,2.39733 3.64166,4.51532 3.64166,4.70666 0,0.19133 -2.70205,0.092 -6.00453,-0.22064 -9.14137,-0.86551 -18.01358,-6.45542 -18.01358,-11.34941 0,-2.2643 1.9207,-4.01819 9.20466,-8.40526 1.01407,-0.61077 -1.46168,-8.31511 -3.39382,-10.56136 -2.255,-2.62159 -2.30342,-2.62839 -5.80753,-0.81636 -3.46461,1.79163 -3.57045,1.78174 -5.42337,-0.50652 -1.79978,-2.22264 -1.8898,-2.23491 -1.8898,-0.25745 0,3.4473 2.56071,4.82436 6.44999,3.46855 3.67889,-1.28247 5.3148,-0.3813 6.46742,3.56273 0.86654,2.96511 -0.3723,4.40708 -5.1173,5.9564 -3.87889,1.26651 -4.16581,1.63856 -4.46628,5.79158 -0.17662,2.44097 -0.68933,4.43813 -1.13938,4.43813 -2.74044,0 -11.17216,-3.35456 -13.18525,-5.24577 -4.30277,-4.04223 -9.07361,-5.02015 -16.4323,-3.36823 -8.29155,1.86134 -9.23276,2.38164 -11.59136,6.40796 -1.69548,2.89431 -1.7883,3.93148 -0.72849,8.14034 1.12586,4.47123 1.02716,5.08675 -1.3518,8.43029 -2.45316,3.44783 -2.49645,3.77474 -0.9816,7.4134 1.79486,4.31124 2.98525,5.33407 6.23448,5.35693 3.70046,0.026 6.83624,4.94008 6.06508,9.50454 -0.58134,3.44097 -0.31394,4.08208 2.55469,6.12471 1.7622,1.2548 3.204,1.76479 3.204,1.13331 0,-0.63148 -0.66854,-1.4047 -1.48565,-1.71825 -2.19963,-0.84407 -2.78442,-3.239 -1.48649,-6.08765 1.55632,-3.41575 -2.2596,-9.65955 -7.15303,-11.70415 -1.94763,-0.81377 -3.80918,-2.17806 -4.13676,-3.03175 -0.80774,-2.10494 1.72865,-7.9813 3.17907,-7.36532 0.63929,0.27152 2.95237,1.07682 5.14019,1.7896 2.18781,0.71276 5.16168,2.70285 6.60859,4.4224 2.38608,2.83569 2.56528,3.69048 1.92688,9.19091 -0.59884,5.15966 -0.36705,6.60939 1.55359,9.71704 1.24157,2.00891 2.30088,5.18117 2.354,7.04945 0.0905,3.17914 0.16435,3.24497 1.15397,1.02714 0.74213,-1.66315 1.54895,-2.13657 2.70604,-1.58777 1.5607,0.74022 5.74534,0.78472 11.56917,0.12302 4.22832,-0.48039 3.46476,3.40655 -0.96199,4.89702 -3.47524,1.17011 -5.0802,3.34161 -5.2302,7.07648 -0.10316,2.5685 3.63893,6.00454 6.53937,6.00454 1.6692,0 3.2309,1.23235 4.96257,3.91599 1.90414,2.95095 3.29833,3.96647 5.65735,4.12082 2.90739,0.19021 2.94499,0.14978 0.52767,-0.56736 -1.47112,-0.43644 -3.59098,-2.53386 -4.87557,-4.82393 -1.53195,-2.73106 -3.40661,-4.41824 -5.7513,-5.1761 -2.90612,-0.93932 -3.47856,-1.63347 -3.47856,-4.21807 0,-2.64537 0.52967,-3.2414 3.65493,-4.11286 4.56019,-1.27159 5.38302,-2.41398 4.58732,-6.36887 -0.94416,-4.69282 -1.85761,-5.11398 -7.1675,-3.30473 -5.80849,1.97914 -8.44437,1.2197 -12.50155,-3.60199 -2.65829,-3.1592 -2.84954,-3.97448 -2.40938,-10.27149 0.62124,-8.88757 -1.08024,-12.07477 -8.1293,-15.22771 -6.48058,-2.89866 -9.86155,-8.10171 -8.26442,-12.71825 0.80465,-2.32586 2.20431,-3.30146 6.95331,-4.84665 0,0 5.94588,-1.93461 5.94588,-1.93461 0,0 5.42361,3.50102 5.42361,3.50102 5.31608,3.43158 5.36367,3.50701 2.39976,3.80387 -3.90418,0.39105 -9.24986,6.21155 -7.56706,8.2392 0.62921,0.75815 2.37876,1.38108 3.88788,1.38428 4.64344,0.009 10.57586,2.0843 10.57586,3.69818 0,0.83452 -0.9233,1.51731 -2.0518,1.51731 -2.92356,0 -4.17966,3.04698 -2.70075,6.55132 0.67228,1.59302 1.53018,2.58855 1.90645,2.21229 0.37624,-0.37624 0.20898,-1.57185 -0.37173,-2.6569 -1.30154,-2.43195 -0.43368,-4.01817 2.19844,-4.01817 2.73816,0 4.45112,-3.38894 2.80638,-5.55218 -1.51711,-1.99541 -6.17849,-3.84621 -9.68697,-3.84621 -2.77183,0 -2.84215,-0.0931 -1.90881,-2.52526 0.48894,-1.27419 2.20154,-1.6518 7.49135,-1.6518 5.94218,0 8.01481,0.57603 15.52825,4.3156 8.47782,4.21958 10.05626,6.12705 5.07018,6.12705 -4.3738,0 -7.3382,1.77052 -9.41205,5.62144 -1.9303,3.58434 -1.94051,3.89356 -0.22428,6.7989 2.86031,4.84212 2.40855,5.5517 -3.01666,4.73814 -3.57559,-0.53618 -5.04957,-0.3511 -5.72747,0.71921 -1.46706,2.31631 -1.08267,3.37777 0.69034,1.90629 1.32962,-1.10347 2.31915,-1.10971 5.29576,-0.0332 3.19598,1.15568 3.91622,1.09235 5.6747,-0.49905 2.47675,-2.24143 2.55823,-4.38829 0.26283,-6.92468 -1.64355,-1.8161 -1.62357,-2.1062 0.32461,-4.71559 1.14174,-1.52922 3.2221,-3.09687 4.62301,-3.48366 9.12453,-2.51926 14.14159,-3.08343 27.42003,-3.08343 14.63815,0 15.01249,-0.0571 19.65077,-2.99862 2.60059,-1.64925 6.73324,-5.37631 9.18364,-8.28234 0,0 4.45529,-5.28372 4.45529,-5.28372 0,0 4.69139,6.97701 4.69139,6.97701 6.64226,9.87829 8.04477,20.47802 3.24419,24.51842 -2.91523,2.45361 -11.06068,2.08749 -12.72834,-0.5721 -1.74548,-2.78368 0.47571,-5.39421 5.10901,-6.00452 4.87143,-0.64169 6.5757,-2.95079 5.16185,-6.99369 -0.8787,-2.51263 -1.66331,-2.97298 -5.54411,-3.25292 -2.99383,-0.21595 -4.28902,0.0486 -3.83498,0.7832 0.37706,0.6101 2.03593,1.10928 3.68637,1.10928 2.14244,0 3.20224,0.6347 3.70504,2.21892 0.92021,2.89932 -1.18438,4.25548 -5.45161,3.51289 -2.55723,-0.44501 -3.81491,-0.0487 -5.46466,1.72214 -2.11825,2.27369 -2.16853,2.27709 -4.3588,0.29486 -1.79211,-1.62188 -3.94218,-2.03343 -11.24357,-2.15219 -9.89006,-0.16088 -10.6295,0.15651 -14.44472,6.20023 -2.05326,3.25256 -3.04628,3.93503 -5.34037,3.67026 -2.63059,-0.30362 -2.79602,-0.62093 -2.48596,-4.76888 0.24603,-3.29153 -0.0931,-4.60677 -1.30767,-5.07288 -2.67617,-1.02695 -6.17179,0.48943 -8.76336,3.80151 -2.72726,3.48547 -1.31506,4.23775 1.90688,1.01579 3.88709,-3.88709 7.20806,-2.16673 5.0329,2.60721 -1.48182,3.25223 -0.0917,4.6604 4.62656,4.68667 3.82868,0.0213 3.62745,1.66245 -0.52213,4.25832 -3.12671,1.95598 -5.7038,2.14501 -11.12325,0.81587 -0.80509,-0.19746 -2.58532,1.26447 -3.95607,3.24875 -2.17759,3.15223 -2.45425,4.60202 -2.19113,11.4822 0,0 0.30114,7.87444 0.30114,7.87444 0,0 3.916,1.84041 3.916,1.84041 4.17943,1.9642 5.10995,4.75438 2.34959,7.04528 -2.16456,1.79642 -1.95899,4.44056 0.59792,7.69117 1.86294,2.36832 2.95316,2.75148 7.82899,2.75148 5.07823,0 6.11387,0.4054 10.00388,3.91599 0,0 4.33922,3.916 4.33922,3.916 0,0 -1.71958,-3.33048 -1.71958,-3.33048 -2.41392,-4.67522 -5.37864,-6.42636 -12.18334,-7.19624 -7.24715,-0.81992 -9.3606,-3.12451 -6.20355,-6.76461 2.34725,-2.70642 2.49587,-4.05204 0.84714,-7.67061 -0.70697,-1.55164 -2.39936,-2.87445 -4.17706,-3.2649 -2.58209,-0.56713 -2.98854,-1.14492 -2.98854,-4.24825 0,-3.40789 0.14707,-3.55263 2.87172,-2.82591 4.58132,1.22194 8.89803,0.95866 9.42254,-0.57467 0.34716,-1.01481 -0.12305,-1.22224 -1.66275,-0.73356 -1.18072,0.37475 -3.23347,0.11607 -4.56167,-0.57485 -1.3282,-0.69092 -3.1198,-1.58598 -3.98131,-1.98903 -2.17425,-1.01719 -2.42718,-3.30158 -0.63671,-5.75022 1.34243,-1.83588 1.8891,-1.9258 4.86922,-0.80093 3.00385,1.13383 3.84405,0.9817 7.98671,-1.44605 3.18818,-1.86839 5.61844,-4.46517 7.80526,-8.33999 1.74656,-3.09474 4.14133,-6.14366 5.3217,-6.77538 1.26916,-0.67923 5.07726,-0.93885 9.3192,-0.63534 6.85386,0.49039 7.35747,0.71295 11.31622,5.00105 2.27871,2.4683 4.14313,4.85825 4.14313,5.31101 0,1.4702 -7.27212,2.23567 -14.48604,1.52483 -3.87497,-0.38182 -7.84072,-0.38904 -8.81278,-0.0161 -0.97206,0.37302 -3.14119,2.71382 -4.82032,5.2018 -1.67911,2.48797 -4.14487,6.00052 -5.47945,7.80563 -1.92173,2.59928 -2.42673,4.62186 -2.42754,9.72259 -9e-4,5.66055 -0.28316,6.56437 -2.33061,7.46278 -2.88564,1.26619 -4.23491,4.06131 -1.57984,3.27272 6.37604,-1.89376 7.36635,-1.86468 8.03304,0.23587 1.01784,3.20692 6.95695,8.52251 9.5222,8.52251 3.15375,0 5.05645,2.64945 4.9367,6.87415 -0.078,2.75057 0.61915,4.16289 3.07467,6.22906 1.98062,1.66659 3.80811,2.41003 4.85674,1.97577 4.34266,-1.79834 5.16833,-1.58422 7.94902,2.06144 1.571,2.05969 3.34333,3.74489 3.93853,3.74489 0.59519,0 0.30446,-0.85936 -0.64607,-1.90969 -0.95054,-1.05029 -1.72825,-2.63746 -1.72825,-3.52702 0,-2.8099 -2.86062,-4.27181 -7.05445,-3.60516 -5.298,0.84217 -6.55318,-0.21863 -7.01871,-5.93173 0,0 -0.39663,-4.8674 -0.39663,-4.8674 0,0 5.28376,0 5.28376,0 4.83442,0 5.66608,0.38233 9.77922,4.49546 3.11198,3.11197 4.87298,5.99475 5.72218,9.36721 1.03126,4.09552 1.94498,5.29269 5.73469,7.51359 2.47937,1.45302 5.83404,2.66838 7.4548,2.70079 1.62076,0.0323 4.59156,0.68124 6.60177,1.4418 4.97227,1.8813 6.75356,1.89252 11.11537,0.07 0,0 0.001,3e-5 0.001,3e-5 z m -59.4344,-17.86568 c -0.347,-0.347 -1.24767,-0.38408 -2.0015,-0.0824 -0.83304,0.33335 -0.58561,0.58079 0.63092,0.6309 1.10082,0.0453 1.71759,-0.20147 1.37058,-0.54846 0,0 0,-4e-5 0,-4e-5 z"
       style="fill:#000000;stroke-width:0.39074039"
       inkscape:connector-curvature="0" />
  </g>
</svg>
