<?xml version="1.0" encoding="UTF-8" standalone="no"?>
<!-- Created with Inkscape (http://www.inkscape.org/) -->

<svg
   xmlns:dc="http://purl.org/dc/elements/1.1/"
   xmlns:cc="http://creativecommons.org/ns#"
   xmlns:rdf="http://www.w3.org/1999/02/22-rdf-syntax-ns#"
   xmlns:svg="http://www.w3.org/2000/svg"
   xmlns="http://www.w3.org/2000/svg"
   xmlns:sodipodi="http://sodipodi.sourceforge.net/DTD/sodipodi-0.dtd"
   xmlns:inkscape="http://www.inkscape.org/namespaces/inkscape"
   width="210mm"
   height="297mm"
   viewBox="0 0 210 297"
   version="1.1"
   id="svg4542"
   inkscape:version="0.92.2 (5c3e80d, 2017-08-06)"
   sodipodi:docname="wolf.svg">
  <defs
     id="defs4536" />
  <sodipodi:namedview
     id="base"
     pagecolor="#ffffff"
     bordercolor="#666666"
     borderopacity="1.0"
     inkscape:pageopacity="0.0"
     inkscape:pageshadow="2"
     inkscape:zoom="0.35"
     inkscape:cx="1772.0091"
     inkscape:cy="560"
     inkscape:document-units="mm"
     inkscape:current-layer="layer1"
     showgrid="false"
     inkscape:window-width="1920"
     inkscape:window-height="986"
     inkscape:window-x="-11"
     inkscape:window-y="-11"
     inkscape:window-maximized="1" />
  <metadata
     id="metadata4539">
    <rdf:RDF>
      <cc:Work
         rdf:about="">
        <dc:format>image/svg+xml</dc:format>
        <dc:type
           rdf:resource="http://purl.org/dc/dcmitype/StillImage" />
        <dc:title></dc:title>
      </cc:Work>
    </rdf:RDF>
  </metadata>
  <g
     inkscape:label="Layer 1"
     inkscape:groupmode="layer"
     id="layer1">
    <path
       style="fill:#000000;stroke-width:0.23064083"
       d="m 98.766282,261.24486 c -0.197425,-0.49339 -0.786426,-2.33564 -1.308912,-4.09387 -0.981362,-3.30242 -2.366149,-6.45539 -3.279172,-7.46622 -0.730142,-0.80835 -1.998303,-1.71389 -2.896229,-2.06806 -0.693656,-0.2736 -0.806718,-0.25403 -1.320384,0.22853 -1.098786,1.03226 -1.351818,2.22831 -1.181851,5.58656 l 0.153509,3.03315 -3.405104,-3.33441 c -3.257314,-3.18967 -4.489071,-4.16595 -4.828255,-3.82675 -0.08544,0.0854 -0.03374,0.81541 0.11497,1.62221 0.292016,1.58482 0.348756,2.68223 0.138681,2.68223 -0.07234,0 -0.617269,-0.40171 -1.210863,-0.89268 -2.572687,-2.12793 -4.460102,-2.67724 -4.613158,-1.34259 -0.109326,0.95335 0.657123,2.99788 2.001559,5.33924 0.99479,1.73244 1.481632,3.12333 1.093232,3.12333 -0.240436,0 -5.555377,-5.97484 -7.693777,-8.64903 -2.775997,-3.47156 -6.928107,-9.62398 -9.183543,-13.60781 -1.508918,-2.66523 -4.621718,-9.03102 -5.164239,-10.56104 -0.253861,-0.71594 -0.273752,-0.72527 -0.602798,-0.28329 -0.483051,0.64885 -1.448753,3.81803 -1.713788,5.62421 -0.12347,0.84143 -0.293262,3.11263 -0.377313,5.04714 -0.08403,1.93451 -0.239059,3.51727 -0.344466,3.51727 -0.487514,0 -2.937465,-4.728 -4.196706,-8.09898 -2.257678,-6.04374 -3.542068,-13.08286 -4.447465,-24.37446 l -0.412346,-5.14251 -0.564078,0.0684 c -1.125695,0.13651 -1.482139,1.08269 -2.002464,5.31549 -0.0741,0.60254 -0.206152,1.09538 -0.293516,1.09521 -0.228345,-4.6e-4 -0.891726,-2.36952 -1.365599,-4.87684 -0.329359,-1.74265 -0.407735,-3.40991 -0.407735,-8.67304 0,-3.5836 -0.01648,-6.51563 -0.03661,-6.5156 -0.02014,2e-5 -0.784281,0.8563 -1.698098,1.90284 -2.454834,2.81137 -4.638191,4.3734 -2.901431,2.07576 2.587492,-3.4231 4.608908,-8.0147 5.660717,-12.85822 0.526314,-2.42363 1.06363,-7.06088 0.875071,-7.55224 -0.07165,-0.18677 -0.580309,-0.41013 -1.130299,-0.49634 -1.865537,-0.29243 -6.716055,-1.55539 -8.621208,-2.24476 -1.043068,-0.37742 -2.792062,-1.19974 -3.886652,-1.82736 -1.094591,-0.62764 -2.033592,-1.14114 -2.086668,-1.14114 -0.05308,0 -0.12967,0.22539 -0.170206,0.50087 -0.04054,0.27548 -0.202164,0.54318 -0.359175,0.59489 -0.401884,0.13233 -2.300096,-1.88056 -4.02122,-4.26415 l -1.459327,-2.02104 -0.0716,0.86505 c -0.03937,0.47578 0.09591,1.75893 0.300631,2.85146 0.204721,1.09253 0.322403,2.03623 0.261514,2.09713 -0.06088,0.0608 -0.430546,-0.44386 -0.821458,-1.12166 -1.109257,-1.92332 -2.053836,-5.16919 -2.369572,-8.14257 l -0.280778,-2.64418 -2.358246,0.0491 c -3.1842,0.0663 -3.45608,-0.2372 -1.078155,-1.20331 4.630453,-1.88127 5.010358,-2.13704 8.954704,-6.02892 5.74407,-5.66767 7.054287,-6.72268 23.657698,-19.04994 10.941293,-8.12338 17.18059,-14.25949 21.565569,-21.2089 1.15903,-1.83686 3.095986,-5.42349 3.095986,-5.73278 0,-0.2613 -0.512132,-0.0941 -1.369269,0.44696 -1.110075,0.70076 -2.090344,0.97676 -2.090344,0.58853 0,-0.15285 0.91312,-1.27981 2.029158,-2.50439 1.116036,-1.22456 3.059251,-3.420045 4.318249,-4.87885 1.25899,-1.458794 2.369745,-2.686961 2.468335,-2.729239 0.500442,-0.214649 0.05909,-0.482298 -0.898265,-0.544756 -0.592635,-0.0387 -1.111156,-0.17408 -1.152275,-0.300935 -0.04115,-0.126845 0.573501,-0.566523 1.365817,-0.97705 1.652002,-0.855948 3.729591,-2.397591 7.667879,-5.689826 3.082988,-2.577247 5.842248,-4.620525 6.976879,-5.166512 0.412277,-0.198384 0.749587,-0.449701 0.749587,-0.558495 0,-0.609121 -2.294689,-2.527495 -4.492001,-3.755363 -1.834032,-1.024838 -2.403835,-1.451232 -2.296162,-1.718238 0.71185,-1.765329 1.793201,-5.549808 2.10233,-7.357659 0.209071,-1.222712 0.45383,-2.308844 0.543914,-2.413601 0.241071,-0.28039 4.040189,1.05513 6.378212,2.242149 2.016967,1.024007 3.417696,1.968846 5.469449,3.689269 0.588679,0.493631 1.106206,0.856879 1.150073,0.80725 0.261129,-0.295491 3.172695,-7.012383 3.286665,-7.582243 0.11843,-0.592134 -0.0514,-0.92783 -1.19682,-2.36507 C 99.571434,59.948375 92.442075,52.908937 89.738274,50.751542 84.10544,46.25707 76.164437,41.665706 70.014377,39.347541 c -2.657609,-1.001744 -2.625024,-1.036629 0.643351,-0.688796 11.787952,1.254511 23.85158,6.735955 34.573312,15.709324 1.03899,0.869576 1.93439,1.581027 1.98979,1.581027 0.0555,0 0.86071,-1.063823 1.78958,-2.364061 0.92888,-1.300248 2.88983,-3.869014 4.35767,-5.708365 3.2466,-4.068328 4.97758,-6.637994 6.21486,-9.225957 0.94402,-1.974621 1.86435,-5.060962 1.86435,-6.252222 0,-0.527318 0.2662,-0.833338 1.47575,-1.696451 1.50789,-1.076006 4.72431,-2.681278 7.13693,-3.561934 l 1.34748,-0.491863 1.67058,1.676879 c 1.86921,1.876241 3.44089,4.671253 4.3114,7.667199 0.3957,1.361841 0.61354,1.743127 1.19066,2.084045 0.38849,0.229491 1.54465,1.260317 2.56924,2.290727 2.94495,2.961703 4.68204,6.510342 5.59529,11.430472 0.47335,2.550181 0.55608,10.377376 0.21572,20.411707 -0.34761,10.247815 0.52776,15.57907 3.40191,20.71853 1.1286,2.018131 2.12796,3.037148 3.33247,3.398024 1.35894,0.407156 2.11475,0.110435 2.68332,-1.053201 0.37877,-0.77524 0.46998,-1.595962 0.57663,-5.188223 0.0697,-2.34703 0.21065,-4.397061 0.31325,-4.555617 0.10256,-0.158567 0.44759,-0.288306 0.76667,-0.288306 0.78689,0 3.0514,2.183517 3.88724,3.748223 1.16628,2.183284 1.54708,2.383941 2.95164,1.555224 0.97238,-0.573718 1.31154,-1.290647 1.34112,-2.834917 0.0127,-0.659992 0.091,-1.441596 0.17402,-1.736888 l 0.151,-0.536885 0.4903,0.663153 c 0.51463,0.696073 1.6179,1.315961 3.83527,2.154867 2.71374,1.026713 3.21575,2.618915 3.19503,10.133755 l -0.0136,4.958769 -1.99361,1.83828 c -4.63699,4.27564 -8.76285,9.53864 -16.00693,20.41856 -5.22395,7.84591 -7.92769,11.68885 -10.12433,14.39006 l -1.48013,1.82013 0.27966,1.87012 c 0.80732,5.39857 2.71195,11.93427 4.99402,17.13676 0.71267,1.62469 1.35038,3.13562 1.41714,3.35762 0.19298,0.64173 -0.37081,0.47794 -1.47813,-0.42942 -0.55914,-0.45818 -1.06343,-0.78624 -1.12067,-0.72901 -0.25293,0.25294 2.76712,22.63045 3.7282,27.62446 l 0.15535,0.80724 -0.74555,-0.69192 c -0.41005,-0.38056 -1.14628,-1.41843 -1.63607,-2.30641 -1.56341,-2.83439 -1.53383,-2.82849 -1.68733,-0.33697 -0.82906,13.45722 -0.89558,15.1057 -0.76618,18.99188 0.15062,4.52449 0.63407,7.47323 1.67858,10.23871 0.95737,2.53476 0.95304,2.39079 0.0627,2.09289 -0.47168,-0.15782 -1.60611,-1.10675 -2.89423,-2.42098 -1.16517,-1.18879 -2.16902,-2.07966 -2.23081,-1.97972 -0.0618,0.0999 -0.33233,1.06095 -0.6013,2.13556 -0.59155,2.36361 -1.89075,6.40078 -2.81833,8.75776 -1.41383,3.59252 -4.42046,8.59162 -6.16409,10.24901 l -0.71267,0.67741 -0.002,-2.52254 c -8.8e-4,-2.42557 -0.2601,-4.10158 -0.67291,-4.35671 -0.10766,-0.0666 -0.88282,1.13234 -1.72244,2.66422 -4.3609,7.9563 -10.14727,15.74127 -16.13666,21.71023 -2.67215,2.66307 -6.08028,5.62445 -6.26282,5.4419 -0.0504,-0.0503 0.17106,-0.81424 0.49204,-1.69758 1.2399,-3.4122 1.79364,-6.25698 1.79411,-9.21717 2.4e-4,-1.92942 -0.10215,-3.0025 -0.33833,-3.54296 l -0.3388,-0.77526 -1.77401,1.81315 c -3.67446,3.75553 -6.88081,8.87871 -8.965601,14.32541 -0.303454,0.79283 -0.618851,1.44151 -0.70086,1.44151 -0.08205,0 -0.310637,-0.40369 -0.508052,-0.89709 z m 2.677558,-16.34333 c 2.38102,-3.60822 3.33831,-5.26523 5.13685,-8.89162 7.96886,-16.06755 10.64905,-34.19109 7.69052,-52.00358 -0.38508,-2.31836 -0.65632,-4.34224 -0.60278,-4.49749 0.1534,-0.44492 2.17924,3.96044 3.06579,6.66683 2.71196,8.27886 3.08827,16.32407 1.58988,33.98965 -0.32818,3.86899 -0.65749,9.51668 -0.73183,12.55041 l -0.13515,5.51587 0.82746,-0.63113 c 3.35501,-2.55897 7.42532,-9.82536 8.6683,-15.47472 0.13955,-0.63427 0.52284,-2.9176 0.85173,-5.0741 1.62881,-10.67944 4.4664,-22.25684 5.45509,-22.25684 0.25584,0 0.24613,0.0785 -0.40257,3.25492 -1.31621,6.445 -1.63052,11.4118 -0.9144,14.44914 0.37472,1.58932 1.3958,3.70996 2.30319,4.78342 0.70354,0.8323 0.76359,0.76715 1.58421,-1.71906 1.23542,-3.7429 1.37457,-5.18117 1.45134,-15.00239 0.0392,-5.01068 0.0805,-9.16221 0.0917,-9.22563 0.0744,-0.41867 0.78059,2.62316 1.47762,6.36414 0.85025,4.56338 1.43848,6.7266 1.73946,6.39699 0.70449,-0.77146 1.17213,-11.51099 0.70298,-16.144 -0.8997,-8.88438 -3.22632,-17.6127 -7.82841,-29.36813 -0.47016,-1.20093 -0.47234,-1.23781 -0.041,-0.69192 0.70234,0.889 2.32545,3.69119 4.34177,7.49583 2.115,3.9908 4.37606,7.96836 4.7199,8.30306 0.16201,0.15769 0.18754,-0.41096 0.0807,-1.79772 -0.33835,-4.39211 -1.23074,-8.53043 -3.01321,-13.97334 -0.56192,-1.71578 -0.97939,-3.16187 -0.92771,-3.21355 0.0517,-0.0517 0.43715,0.40858 0.85662,1.02274 1.03948,1.52192 3.13754,3.73149 3.71813,3.91577 0.33073,0.105 0.59501,0.004 0.86789,-0.3336 0.47576,-0.58754 0.41606,-3.37954 -0.15272,-7.14303 -0.70401,-4.65822 -1.57287,-6.64106 -3.34696,-7.63816 -1.33358,-0.74953 -2.17656,-0.59691 -3.49496,0.63276 -0.55752,0.52 -0.63427,0.53997 -0.63427,0.16507 0,-0.94638 1.14609,-2.36494 2.87793,-3.56217 2.12612,-1.46979 3.49033,-3.22291 10.96246,-14.08762 8.5525,-12.43559 12.69222,-17.66057 17.76093,-22.41705 1.39429,-1.30839 2.63146,-2.67189 2.76068,-3.04253 0.38178,-1.09521 0.2663,-4.909776 -0.21447,-7.083548 -0.48418,-2.189217 -1.02937,-3.667481 -1.35258,-3.667481 -0.11563,0 -0.61391,0.276531 -1.10731,0.614488 -10.09849,6.917306 -14.91256,9.713071 -19.57898,11.370481 -3.79176,1.34676 -5.82462,1.69885 -10.1027,1.74978 -4.43967,0.0528 -4.26207,-0.0207 -5.9651,2.47362 -0.50019,0.73262 -0.99941,1.27643 -1.10938,1.20847 -0.2409,-0.1489 -1.19407,-3.00726 -1.83764,-5.51078 -1.07469,-4.180661 -1.27623,-6.502898 -1.27898,-14.737062 -0.002,-8.836754 0.0373,-8.688577 -1.68491,-6.219813 -0.55237,0.791816 -1.16337,1.439667 -1.35781,1.439667 -0.19445,0 -0.3013,-0.129727 -0.23748,-0.288295 0.0639,-0.158567 1.07214,-2.571647 2.24068,-5.362402 4.40195,-10.512914 5.59382,-13.731315 6.89403,-18.615842 1.06604,-4.00484 1.42971,-6.426635 1.56846,-10.444902 0.1284,-3.718079 -0.30451,-8.317368 -0.88495,-9.401941 -0.29834,-0.557457 -1.93945,-1.311163 -2.86935,-1.317789 l -0.71089,-0.0051 0.10333,-1.246784 c 0.0936,-1.128913 0.0449,-1.297901 -0.51557,-1.787466 -0.83894,-0.73284 -1.86011,-1.078759 -3.24647,-1.099737 -1.33556,-0.02021 -2.18723,0.45117 -2.17967,1.206396 0.002,0.278224 0.21035,0.958297 0.46127,1.511274 0.25094,0.552975 0.45623,1.084155 0.45623,1.180399 0,0.09624 -1.11573,1.010879 -2.47939,2.032527 -9.38497,7.031147 -15.90187,17.088008 -22.91792,35.36688 l -1.472345,3.835884 -2.864052,1.4293 c -12.948108,6.461705 -23.52899,18.706795 -28.484,32.964056 -1.768044,5.08728 -2.627858,9.66245 -2.833251,15.07614 -0.07584,1.99793 -0.200155,3.6293 -0.276351,3.62527 -0.07619,-0.005 -0.340003,-0.15972 -0.586245,-0.34596 -0.616728,-0.46648 -1.825951,-0.42397 -2.848113,0.10012 -0.470639,0.2413 -2.187425,1.85003 -3.81508,3.57494 -4.229901,4.48264 -4.459555,4.17311 -0.589976,-0.79517 2.036846,-2.61519 3.727071,-5.60355 4.023176,-7.11307 0.149961,-0.7645 0.139316,-0.77766 -0.506283,-0.6258 -1.622259,0.38158 -6.622554,2.13439 -9.058889,3.1755 -6.081115,2.59861 -12.37322,6.47824 -18.008957,11.10406 -4.988992,4.09498 -12.70013,12.72749 -13.053999,14.61378 -0.392841,2.09402 1.27047,5.35707 4.08201,8.00798 2.629595,2.47936 5.666061,3.90858 9.867103,4.64432 2.49505,0.43696 7.580787,0.43143 10.519193,-0.0114 2.085827,-0.31437 5.750988,-1.18229 6.91993,-1.63866 0.29776,-0.11626 0.124019,0.18195 -0.493468,0.84694 -3.828382,4.123 -6.247334,9.12457 -7.140579,14.7643 -0.443048,2.79731 -0.333073,8.72131 0.200974,10.82533 l 0.321977,1.26852 0.372369,-0.80724 c 0.204801,-0.44399 0.848692,-2.18079 1.430874,-3.85959 0.58219,-1.67877 1.255206,-3.49508 1.495598,-4.03621 l 0.437086,-0.98388 0.01168,1.0379 c 0.0061,0.57083 -0.140154,2.43902 -0.325769,4.15153 -0.185614,1.7125 -0.4024,5.03374 -0.48176,7.3805 -0.133522,3.94874 -0.09032,4.67095 0.579453,9.68692 1.012591,7.58336 2.390422,14.56385 2.792691,14.14854 0.296687,-0.30629 1.758655,-6.54324 2.39742,-10.22766 0.753709,-4.34744 1.330218,-8.44738 2.20533,-15.68356 1.550177,-12.81825 3.024271,-20.74593 4.921162,-26.46604 0.304978,-0.91969 0.45669,-1.67214 0.337144,-1.67214 -0.119556,0 -1.169194,0.61524 -2.332531,1.3672 -2.048666,1.32425 -3.383668,1.90433 -3.383668,1.47029 0,-0.32661 0.873788,-1.42444 2.831133,-3.55706 0.986283,-1.0746 2.428567,-2.88319 3.205063,-4.01909 1.359759,-1.98912 2.647498,-4.41388 2.449357,-4.61203 -0.05256,-0.0524 -1.334583,0.57696 -2.849021,1.39886 -7.791512,4.22853 -15.497929,6.45266 -22.35799,6.45266 -3.42251,0 -6.581383,-0.43012 -6.171233,-0.84026 0.107531,-0.10755 1.799511,-0.56017 3.759968,-1.00589 1.960459,-0.4457 4.083411,-0.97948 4.717671,-1.18616 1.180152,-0.38456 3.344293,-1.39835 3.344293,-1.56661 0,-0.0516 -0.752463,-0.0381 -1.672147,0.0298 -2.22266,0.16413 -8.73901,-0.30324 -10.453824,-0.74977 -2.369998,-0.61715 -4.262446,-2.00842 -5.180997,-3.80893 -0.248805,-0.48769 -0.452373,-0.93276 -0.452373,-0.98904 0,-0.0563 0.54489,0.19052 1.210864,0.54844 2.455794,1.31987 5.607299,1.78566 7.729665,1.14246 1.936243,-0.58681 3.519091,-2.93085 3.184275,-4.71559 -0.407814,-2.1738 -2.577727,-3.2453 -6.220795,-3.07181 l -2.098435,0.0999 1.2059,-0.54768 c 2.6411,-1.1995 5.541496,-0.91647 11.554849,1.12758 1.861264,0.63267 4.214411,1.34999 5.229233,1.59405 2.259472,0.54336 5.297629,0.57632 7.034544,0.0763 0.697694,-0.20086 1.908215,-0.454 2.690056,-0.56255 3.437582,-0.47721 7.923856,-3.23294 8.943194,-5.49343 0.483303,-1.07179 0.371776,-1.79961 -0.41613,-2.71561 l -0.542275,-0.63042 0.889756,-1.64956 c 1.571674,-2.91379 1.874534,-4.5553 1.903055,-10.31483 0.01369,-2.75857 0.0789,-5.01597 0.144871,-5.01643 0.06598,-4.7e-4 1.000117,2.0466 2.075767,4.54903 1.075651,2.50243 2.456436,5.4232 3.068414,6.49061 l 1.112673,1.94072 -0.697224,2.21608 c -2.103854,6.687 -2.991894,14.00464 -2.704036,22.28185 0.138663,3.98716 0.66726,10.51458 0.958204,11.83243 0.102652,0.46495 0.0618,0.50138 -0.328052,0.29272 -0.244898,-0.13107 -1.000709,-0.73603 -1.679573,-1.34437 -1.944758,-1.74273 -3.160519,-2.43533 -4.46326,-2.54266 l -1.153206,-0.095 -0.901675,1.54706 c -2.954454,5.06916 -4.596361,10.38203 -5.20228,16.83353 -1.038159,11.05367 1.438518,24.59242 6.766631,36.98984 1.559957,3.6297 3.709584,7.84049 4.502504,8.81971 0.410088,0.50643 0.401494,0.39022 -0.112949,-1.52707 -0.893157,-3.32865 -2.109738,-9.01768 -2.515319,-11.76212 -0.54415,-3.68221 -0.498114,-8.50684 0.103261,-10.82144 0.261,-1.00453 0.507085,-1.85897 0.546861,-1.89874 0.03975,-0.0399 0.302485,1.49025 0.583804,3.40005 0.545362,3.70224 1.635491,7.42367 3.115521,10.63561 0.962093,2.08793 1.523642,2.72073 2.414393,2.72073 1.513625,0 2.346608,-2.01402 2.346608,-5.67375 0,-1.30429 0.09292,-2.42888 0.206475,-2.49906 0.349705,-0.21613 0.434174,0.20466 1.17771,5.8664 0.363174,2.76543 1.287669,6.83034 2.229363,9.80225 0.930101,2.93532 3.474711,8.29404 4.311957,9.08061 l 0.572872,0.53818 0.190654,-1.11914 c 0.341344,-2.00375 0.185866,-14.41542 -0.262492,-20.95426 -0.459235,-6.69747 -0.596783,-17.20917 -0.259543,-19.83512 l 0.207337,-1.61448 0.312822,1.03788 c 0.172059,0.57085 0.470778,1.97198 0.663828,3.11366 1.547596,9.15225 5.228981,24.09949 7.736879,31.41348 1.001128,2.91966 2.784165,6.84648 3.958544,8.71801 0.750396,1.19585 1.998945,2.88302 2.133508,2.88302 0.0424,0 0.744808,-1.01195 1.560968,-2.24876 z M 80.691785,187.37686 c -4.620002,-7.69299 -6.832078,-17.78303 -6.090259,-27.77978 0.632872,-8.52861 2.75124,-17.03931 6.441054,-25.87745 0.748899,-1.79382 1.309749,-3.31337 1.246341,-3.37679 -0.224126,-0.22413 -1.480072,0.69241 -2.274752,1.66002 -0.782094,0.95228 -1.469727,1.2776 -1.462544,0.69191 0.0018,-0.15856 0.633413,-1.74133 1.403258,-3.51727 5.100255,-11.7656 5.595641,-13.18574 5.591597,-16.02953 -0.0027,-1.97442 -0.466672,-3.69026 -0.997625,-3.69026 -0.560554,0 -2.521526,1.18041 -3.657134,2.20143 -1.556391,1.39933 -3.006861,3.44256 -4.434693,6.24701 l -1.137908,2.23501 v -1.04739 c 0,-0.8881 0.378899,-3.74844 1.054957,-7.96391 0.0944,-0.58863 0.06765,-0.98022 -0.06695,-0.98022 -0.123285,0 -0.907374,0.96004 -1.742432,2.13343 -1.339797,1.88264 -3.858395,4.6737 -3.858395,4.27581 0,-0.0807 0.836505,-2.15255 1.858911,-4.60416 4.143864,-9.93649 7.41251,-15.478366 11.515491,-19.524119 1.206659,-1.189837 2.86614,-2.577358 3.082508,-2.577358 0.273257,0 0.15432,0.621784 -0.32711,1.710122 -0.261985,0.592268 -0.443615,1.221126 -0.403621,1.397456 0.04306,0.189935 1.200829,-0.781304 2.840407,-2.382833 3.974072,-3.881798 8.024207,-6.974108 9.455303,-7.219182 0.831799,-0.142445 1.268727,1.197332 1.269153,3.89161 4.54e-4,2.896843 0.142588,3.048292 2.329418,2.481636 2.41893,-0.626806 2.51078,-0.410593 0.54136,1.274392 -7.811594,6.683385 -13.621585,17.591356 -16.093067,30.213956 -0.583175,2.97842 -0.642713,3.45961 -0.428098,3.45961 0.114734,0 0.680259,-0.41516 1.256706,-0.92257 1.951547,-1.71783 1.892184,-1.21228 -0.38596,3.28662 -5.956549,11.76309 -8.482563,20.60913 -8.512464,29.81034 -0.01221,3.7517 0.505044,8.43422 0.988864,8.95232 0.09654,0.10334 0.300653,-0.30898 0.453586,-0.91633 1.023409,-4.0643 5.361491,-16.35785 5.996272,-16.99265 0.40723,-0.40722 0.303758,0.28191 -0.660183,4.39676 -1.486411,6.34518 -1.68748,7.70157 -1.580538,10.66187 0.09722,2.69128 0.557182,4.56301 1.459832,5.94064 0.357637,0.54582 0.387224,0.55144 0.823498,0.15661 0.507652,-0.45939 1.575979,-2.61543 2.155635,-4.3503 0.476948,-1.42749 0.90428,-3.746 1.404147,-7.61827 0.415058,-3.21525 0.676257,-4.08798 0.940857,-3.14355 0.251236,0.89673 1.333381,2.8865 1.615764,2.97094 0.522016,0.15608 1.094986,-3.96497 1.082311,-7.78451 -0.01666,-5.01808 -0.939088,-9.76275 -2.838909,-14.60238 l -0.890603,-2.2687 0.888598,0.15013 c 1.826292,0.30855 3.702363,-1.14788 5.464558,-4.24222 2.497193,-4.38498 3.17744,-5.42289 3.247702,-4.9553 0.176008,1.17134 -0.949136,3.68626 -4.303557,9.61934 l -1.67317,2.95938 1.424061,3.48614 c 1.713561,4.19484 2.7746,7.34849 3.687952,10.9615 0.375089,1.48373 0.682252,2.77553 0.682593,2.87066 0.0019,0.40632 -0.690099,0.12303 -1.126034,-0.46127 l -0.473224,-0.63427 -0.0085,2.76769 c -0.0085,2.79509 -0.345778,9.35706 -0.595774,11.5897 -0.07453,0.66597 -0.23559,1.21088 -0.357822,1.21088 -0.122231,0 -0.427043,-0.4778 -0.677356,-1.06176 -0.525511,-1.22596 -1.246462,-2.2175 -1.458315,-2.00564 -0.457753,0.45775 0.06851,6.49917 0.930215,10.67854 0.326927,1.58566 0.6479,3.14248 0.713279,3.45961 l 0.118867,0.57661 -0.557958,-0.51196 c -0.498925,-0.45779 -3.292422,-5.73735 -4.213928,-7.96411 -0.453291,-1.09533 -0.981165,-1.10348 -1.432983,-0.0221 -0.918411,2.19805 -5.244333,7.69094 -6.057004,7.69094 -0.155008,0 -0.22396,-0.74379 -0.191429,-2.06503 0.04167,-1.69468 -0.02075,-2.13704 -0.348039,-2.46641 -0.378882,-0.38126 -0.429119,-0.37312 -1.002671,0.16225 -1.747184,1.63091 -2.0926,4.35857 -1.257037,9.92653 0.277789,1.85112 0.470672,3.65044 0.428621,3.99848 -0.07234,0.5989 -0.116059,0.56684 -0.815766,-0.59828 z M 96.591318,93.626003 c 0.643935,-0.983403 1.468672,-6.97341 0.926983,-6.732659 -0.15564,0.06918 -1.219966,0.756002 -3.826115,2.469084 -2.718107,1.786661 -4.752284,5.85539 -4.761846,9.5246 -0.0061,2.381672 -0.03949,2.394192 3.889053,-1.463273 1.979683,-1.943865 3.677048,-3.652845 3.771925,-3.797752 z m 7.641792,83.178827 c 2.64483,-6.11896 4.73339,-13.96788 5.68521,-21.36544 0.45963,-3.57236 0.98306,-14.6891 0.81841,-17.38222 -0.0503,-0.82455 -0.16124,-2.70143 -0.24628,-4.17086 -0.0851,-1.46943 -0.24524,-2.8183 -0.35597,-2.99747 -0.15823,-0.25601 -0.42779,-0.10367 -1.25871,0.71125 -3.09414,3.03462 -5.6469,8.25489 -7.61263,15.5674 l -0.80599,2.99831 0.12806,-2.07575 c 0.54084,-8.76696 3.08311,-15.53333 11.56865,-30.79054 7.315,-13.15258 9.54941,-18.063958 11.21497,-24.651178 l 0.72951,-2.885234 0.27606,1.523215 c 0.15185,0.837775 0.54719,3.945775 0.87855,6.90665 1.03011,9.204687 1.63271,12.125197 3.32189,16.099537 0.9033,2.12529 1.93571,3.1524 2.88652,2.87169 0.99423,-0.2935 2.01172,-1.61152 2.65837,-3.44354 0.73833,-2.09178 1.03799,-1.97984 1.01638,0.37967 -0.0185,2.01428 -1.02728,4.29497 -2.25034,5.08746 -1.28921,0.83534 -1.16087,1.69803 1.12109,7.53563 0.46412,1.18732 0.78877,2.21383 0.72142,2.28117 -0.0673,0.0673 -0.82397,-0.38903 -1.68142,-1.01413 -2.24033,-1.63328 -4.57852,-4.51439 -6.87017,-8.4654 -0.7485,-1.29047 -0.76016,-1.28149 -1.62108,1.24973 -0.48766,1.43378 -1.42231,3.13107 -1.61701,2.93638 -0.0401,-0.0401 0.0734,-0.69472 0.2522,-1.45478 0.49435,-2.10171 0.40576,-6.35293 -0.22494,-10.79629 -0.30283,-2.13344 -0.60048,-3.92886 -0.66144,-3.98982 -0.19141,-0.1914 -2.3932,4.31863 -3.10966,6.36962 -1.95644,5.60058 -2.52005,9.66024 -3.63181,26.15969 -0.40747,6.0473 -0.81854,9.32133 -1.6239,12.93392 -0.74466,3.34033 -4.11442,13.58292 -5.59828,17.01636 -1.12558,2.60445 -3.19257,6.33189 -4.185,7.54689 -0.42991,0.52635 -0.42317,0.46603 0.0773,-0.69192 z M 131.04998,59.565773 c -0.0832,-0.331349 -0.31167,-2.085024 -0.50781,-3.897055 -0.19613,-1.812042 -0.46505,-3.70803 -0.59758,-4.213313 -0.32314,-1.23186 -1.29103,-3.11034 -1.67943,-3.259393 -0.17228,-0.06608 -0.81673,0.134528 -1.43213,0.445852 -1.59518,0.807018 -4.11219,1.541155 -5.28387,1.541155 -1.18151,0 -2.0576,-0.334675 -2.91627,-1.114039 -0.6064,-0.550412 -0.61328,-0.585172 -0.25425,-1.282676 0.68873,-1.33798 1.96522,-2.673068 4.13746,-4.327378 2.9758,-2.266276 3.12943,-2.026221 0.60333,0.942729 -1.37759,1.619099 -1.50826,2.092395 -0.5766,2.08837 1.6928,-0.0066 4.53676,-1.152254 7.88665,-3.175108 1.07121,-0.646856 2.0194,-1.131754 2.1071,-1.077555 0.39068,0.24146 0.72574,4.803053 0.61749,8.406934 -0.0927,3.086866 -0.22536,4.226142 -0.70229,6.032428 -0.32339,1.224764 -0.73707,2.511397 -0.91928,2.859177 l -0.33131,0.632319 z m 29.1982,34.092994 c 1.6232,-1.274281 1.7796,-1.775496 1.02107,-3.272365 -0.71158,-1.404231 -2.28684,-3.423571 -2.94577,-3.77622 l -0.49123,-0.262915 0.12057,3.655783 c 0.12454,3.775621 0.26385,4.693761 0.71219,4.693506 0.14378,-7.7e-5 0.85621,-0.467086 1.58317,-1.037789 z m 43.42256,162.790273 c -9.00124,-8.48243 -20.25994,-17.99653 -32.86632,-27.77351 -4.64064,-3.59909 -17.38301,-13.37497 -19.6606,-15.08349 l -1.5373,-1.1532 -0.0111,-2.5829 c -0.01,-2.42202 0.45424,-6.96752 0.86397,-8.46166 l 0.18256,-0.66574 5.41047,4.57543 c 11.46201,9.69301 16.86006,14.60995 24.89962,22.68047 10.17772,10.21692 17.61717,19.22207 23.21693,28.10318 0.65987,1.04653 1.18084,1.8983 1.15772,1.89282 -0.0231,-0.006 -0.76855,-0.69461 -1.65652,-1.5314 z m -54.89252,-3.45451 c -0.5074,-0.0412 -2.27181,-0.18323 -3.92088,-0.31566 -3.44642,-0.27678 -8.37248,-0.94866 -11.87802,-1.62008 -3.70867,-0.71035 -10.14819,-2.31527 -10.14819,-2.52926 0,-0.21601 0.55538,-0.90722 2.92222,-3.63692 0.91169,-1.05145 2.03384,-2.47853 2.49367,-3.17132 0.45983,-0.69277 0.87858,-1.25959 0.93052,-1.25959 0.052,0 0.64161,0.21566 1.31037,0.47927 3.82883,1.50919 10.34012,2.62086 17.36776,2.96523 8.2268,0.40312 16.26016,0.39204 16.26016,-0.0224 0,-0.41142 -3.77464,-4.04131 -6.2273,-5.98849 -1.20509,-0.95674 -4.26685,-3.21276 -6.8039,-5.01337 -7.09658,-5.03667 -8.87474,-6.35578 -8.87731,-6.58569 -0.002,-0.11645 0.50615,-1.31 1.12767,-2.65237 0.6215,-1.34236 1.29589,-2.84195 1.49861,-3.33244 l 0.36861,-0.89178 0.6348,0.40563 c 6.36139,4.06476 13.20597,9.78189 20.82928,17.39821 4.48026,4.47618 6.43149,6.69644 8.21722,9.35021 0.95918,1.42545 2.42918,4.06294 2.32327,4.16846 -0.0328,0.0327 -1.40899,0.32172 -3.05806,0.64221 -6.33795,1.23171 -12.56895,1.77993 -19.59293,1.72383 -2.67024,-0.0214 -5.27016,-0.0724 -5.77757,-0.11363 z m 42.64811,-27.6939 c -9.53045,-12.04449 -22.69384,-24.85769 -34.73873,-33.81461 -1.48506,-1.10432 -2.75813,-2.10173 -2.82902,-2.21645 -0.36601,-0.59222 -1.47733,-11.4165 -1.20054,-11.6933 0.12311,-0.1231 3.29062,2.43918 6.84499,5.53711 3.8506,3.35615 11.43495,11.02629 14.85766,15.02573 6.94765,8.11835 12.53731,16.40519 16.78616,24.88607 1.56356,3.12089 2.09386,4.29 1.94594,4.29 -0.0399,0 -0.78971,-0.90655 -1.66646,-2.01455 z M 20.753007,136.13725 c -3.5424,-4.08784 -5.907828,-7.67598 -8.358653,-12.6793 C 8.7324568,115.98223 6.3165617,106.95382 5.4387952,97.464392 5.1008938,93.811381 4.8662129,85.698285 5.0746893,84.876975 l 0.1711931,-0.674429 0.4624963,0.922553 c 6.0676233,12.103399 15.3369553,22.701871 33.2721683,38.043081 1.895838,1.62164 3.738081,3.16366 4.09388,3.42671 0.35579,0.26306 0.646898,0.56571 0.646898,0.67259 0,0.45147 -3.24999,2.98364 -5.605273,4.36723 l -1.569063,0.92172 -1.766295,-1.57414 c -3.413443,-3.04209 -12.859731,-12.46391 -17.186937,-17.1424 -2.405217,-2.60047 -4.478013,-4.76732 -4.606215,-4.81518 -0.153744,-0.0574 -0.190355,1.00252 -0.107548,3.11364 0.244279,6.22786 1.806392,10.94574 6.448051,19.47436 2.789283,5.12505 3.455639,6.44863 3.235871,6.42732 -0.09727,-0.009 -0.912186,-0.86567 -1.810909,-1.90278 z m 25.910535,-13.50119 c -2.095382,-1.66568 -6.472376,-6.30354 -8.954397,-9.48809 -5.063938,-6.49728 -8.284848,-12.35179 -10.350927,-18.814474 -3.797635,-11.878971 -2.613831,-23.193935 3.585161,-34.267451 0.685248,-1.224087 1.245905,-2.287909 1.245905,-2.364061 0,-0.646178 -4.553866,1.180278 -7.034545,2.821401 -2.14894,1.42165 -5.135292,4.314601 -6.944263,6.727049 -2.451568,3.269438 -4.914738,8.657098 -6.432197,14.069096 L 11.4226,82.588056 11.527565,80.621439 C 11.828226,74.988295 14.463858,67.097466 17.765489,61.9457 23.403541,53.148241 31.046983,47.950261 39.82413,46.944549 c 1.694934,-0.194215 3.378578,-0.601072 5.742325,-1.387655 5.821956,-1.937381 10.844865,-2.807985 16.260173,-2.81832 5.998626,-0.01144 10.88301,2.125953 14.990759,6.559935 6.852077,7.396288 8.656497,18.661513 4.371668,27.292888 -1.652848,3.32948 -7.278458,9.970907 -9.546081,11.269815 l -0.750171,0.429687 0.271749,-0.507756 c 0.149455,-0.27927 0.609467,-0.887793 1.022232,-1.352251 1.712813,-1.927389 3.379057,-4.802001 4.232788,-7.302452 1.610664,-4.7174 1.643318,-11.061708 0.08029,-15.603011 -0.531361,-1.543881 -1.977473,-4.431733 -2.753881,-5.499447 -1.06751,-1.468053 -3.140112,-3.489133 -4.073169,-3.971953 -6.353029,-3.287401 -15.563098,-2.4036 -22.288671,2.138833 -1.94495,1.313621 -5.092881,4.519194 -6.618476,6.739689 -1.760808,2.562855 -3.367907,6.087968 -4.22924,9.276665 -0.728539,2.697084 -0.747922,2.891232 -0.759921,7.611149 -0.01087,4.253939 0.0528,5.134236 0.522648,7.232533 1.133683,5.062885 3.026374,9.603568 5.717013,13.715452 3.572298,5.45923 6.796652,8.58932 13.121856,12.73819 2.506804,1.64429 3.315702,2.2866 3.336954,2.64974 0.01691,0.28883 -2.329131,2.85424 -3.700728,4.04677 -1.661546,1.44464 -3.987601,2.90171 -5.458364,3.41915 l -0.978672,0.34434 z m 9.974517,-20.94061 c -5.879078,-6.284759 -8.701268,-14.024239 -7.59665,-20.832761 0.946394,-5.833181 5.931155,-11.966043 12.323944,-15.16238 3.921995,-1.960962 9.168218,-2.912155 11.073957,-2.007831 1.750628,0.830735 2.725909,3.442831 2.749332,7.363536 l 0.01517,2.537042 -0.922569,-0.05521 c -0.507407,-0.03038 -2.116128,-0.06952 -3.574932,-0.08682 -2.312044,-0.02749 -2.903912,0.04934 -4.61281,0.599575 -3.825984,1.231815 -5.86351,2.465925 -8.569577,5.190518 -1.669846,1.681283 -2.166706,2.36446 -3.038262,4.177633 -1.739547,3.618937 -1.908407,5.968862 -0.724655,10.084602 0.620303,2.156707 2.169816,5.680312 3.111127,7.074716 0.80147,1.18726 1.441413,2.43677 1.313506,2.56468 -0.05509,0.0551 -0.751452,-0.59623 -1.54757,-1.44728 z"
       id="path4555"
       inkscape:connector-curvature="0" />
  </g>
</svg>
