<?xml version="1.0" encoding="UTF-8" standalone="no"?>
<!-- Created with Inkscape (http://www.inkscape.org/) -->

<svg
   xmlns:dc="http://purl.org/dc/elements/1.1/"
   xmlns:cc="http://creativecommons.org/ns#"
   xmlns:rdf="http://www.w3.org/1999/02/22-rdf-syntax-ns#"
   xmlns:svg="http://www.w3.org/2000/svg"
   xmlns="http://www.w3.org/2000/svg"
   xmlns:sodipodi="http://sodipodi.sourceforge.net/DTD/sodipodi-0.dtd"
   xmlns:inkscape="http://www.inkscape.org/namespaces/inkscape"
   width="300mm"
   height="300mm"
   viewBox="0 0 300 300"
   version="1.1"
   id="svg8"
   inkscape:version="0.92.2 (5c3e80d, 2017-08-06)"
   sodipodi:docname="zebra.svg">
  <defs
     id="defs2" />
  <sodipodi:namedview
     id="base"
     pagecolor="#ffffff"
     bordercolor="#666666"
     borderopacity="1.0"
     inkscape:pageopacity="0.0"
     inkscape:pageshadow="2"
     inkscape:zoom="0.98994949"
     inkscape:cx="570.389"
     inkscape:cy="500.61184"
     inkscape:document-units="mm"
     inkscape:current-layer="layer1"
     showgrid="false"
     scale-x="0.99999999"
     inkscape:window-width="1920"
     inkscape:window-height="1046"
     inkscape:window-x="-11"
     inkscape:window-y="-11"
     inkscape:window-maximized="1" />
  <metadata
     id="metadata5">
    <rdf:RDF>
      <cc:Work
         rdf:about="">
        <dc:format>image/svg+xml</dc:format>
        <dc:type
           rdf:resource="http://purl.org/dc/dcmitype/StillImage" />
        <dc:title></dc:title>
      </cc:Work>
    </rdf:RDF>
  </metadata>
  <g
     inkscape:label="Layer 1"
     inkscape:groupmode="layer"
     id="layer1"
     transform="translate(0,3)">
    <path
       style="fill:#000000;stroke-width:0.20337527"
       d="m 232.50983,286.09798 c -6.49342,-0.53392 -8.35058,-1.25893 -12.42757,-4.85152 -2.45734,-2.16537 -3.15752,-3.97649 -3.02862,-7.83393 0.058,-1.73595 0.0854,-1.83381 0.53051,-1.8969 0.70036,-0.0993 1.33638,0.41988 2.0385,1.664 0.75479,1.33743 1.02221,1.53765 1.38713,1.03859 0.5569,-0.7616 0.34301,-2.84587 -0.56555,-5.51051 -0.91708,-2.68972 -0.95635,-3.72499 -0.15751,-4.1525 0.87638,-0.46902 3.28152,1.67358 6.01655,5.35984 1.34331,1.8105 1.67252,2.68274 1.8954,5.02198 0.16863,1.76992 0.34105,2.40428 1.22395,4.5033 1.1004,2.61609 1.69652,3.67603 2.46341,4.37997 0.59269,0.54407 2.15955,1.32511 3.58497,1.78704 0.5881,0.19058 1.01742,0.43044 0.95402,0.533 -0.13096,0.2119 -0.92789,0.20328 -3.91519,-0.0423 z m 14.09438,-0.15588 c -0.73189,-0.11127 -0.54828,-0.18056 1.83038,-0.69067 3.36124,-0.72082 4.95566,-1.46534 5.816,-2.71581 0.34814,-0.506 1.03815,-2.03355 1.53337,-3.39454 l 0.90038,-2.47455 -0.12031,1.2889 c -0.25139,2.69258 -1.72076,6.04545 -3.06764,6.99979 -1.3292,0.94183 -4.34653,1.37388 -6.89218,0.98688 z m -5.52243,-2.20108 c -0.79996,-0.75757 -4.35272,-5.16263 -5.83834,-7.23894 -0.67079,-0.93747 -2.02923,-3.40002 -3.1067,-5.63174 -1.05307,-2.1812 -2.15643,-4.42341 -2.45189,-4.98269 -1.42918,-2.70536 -3.6114,-5.28776 -5.5121,-6.5229 -1.44376,-0.93819 -1.7414,-1.27923 -1.43678,-1.64629 0.31679,-0.38169 1.07949,-0.3365 1.96767,0.1166 1.81679,0.92689 4.16908,4.25606 6.83922,9.67959 2.04659,4.15694 3.2243,5.98938 7.47559,11.6315 1.91989,2.548 3.21974,4.45339 3.17951,4.66077 -0.10915,0.56302 -0.47488,0.54145 -1.11618,-0.0659 z m 17.21651,-10.3914 c 0,-0.0905 0.48269,-0.5813 1.07264,-1.09064 2.34252,-2.02238 4.92898,-5.78114 5.95529,-8.65454 1.18332,-3.31289 1.31941,-3.64974 1.62959,-4.03359 0.29575,-0.36598 0.31021,-0.30848 0.19935,0.79277 -0.30332,3.01344 -3.23411,8.86914 -5.71838,11.42529 -1.10169,1.13354 -3.13849,2.14642 -3.13849,1.56071 z m -9.36305,-3.25693 c -1.05834,-0.65141 -2.53007,-1.56932 -3.27048,-2.03981 -3.07046,-1.95102 -5.07199,-2.13243 -9.01026,-0.81661 -1.94321,0.64925 -2.68,0.80917 -3.2421,0.70371 -2.09562,-0.39314 -3.07364,-2.77383 -3.22426,-7.84853 l -0.0573,-1.93206 0.8135,0.032 c 4.45605,0.17528 5.7265,0.14061 6.44134,-0.17586 1.28063,-0.56693 1.45946,-1.06083 1.59739,-4.4116 0.14316,-3.47816 0.43317,-4.28072 1.91553,-5.30061 1.29809,-0.8931 2.46172,-1.3495 5.76536,-2.26127 4.07784,-1.12544 4.99582,-1.63764 7.58452,-4.232 1.72094,-1.7247 2.30496,-2.4663 2.90961,-3.69471 1.03168,-2.09593 1.29576,-3.74705 0.96512,-6.03402 -0.55027,-3.80589 -4.69211,-14.87176 -7.26058,-19.39832 -0.49648,-0.87501 -0.9027,-1.6318 -0.9027,-1.6818 0,-0.31905 3.8854,2.60394 4.89276,3.68081 2.36126,2.5242 5.66176,7.29261 7.46418,10.78391 0.41842,0.8105 0.88321,1.47401 1.03286,1.47447 0.32176,0.002 0.31645,-0.0381 -0.79455,-5.8571 -0.43362,-2.27112 -0.83807,-4.60485 -0.89882,-5.18607 l -0.11043,-1.05678 0.38306,0.82066 c 0.81549,1.74718 2.90861,8.19151 3.68213,11.33671 1.76887,7.19236 2.95608,16.94982 2.95016,24.24681 -0.003,4.10752 -0.21356,5.53591 -0.84519,5.74284 -0.30584,0.10021 -0.41163,-0.53785 -0.67668,-4.08076 -0.45317,-6.05729 -1.36944,-7.58809 -3.42845,-5.72788 -1.4045,1.2689 -2.04618,3.53897 -2.05462,7.26895 -0.005,2.16221 -0.23282,2.27834 -1.39204,0.70919 -2.01695,-2.73027 -5.82343,-3.1537 -9.98631,-1.11089 -1.72031,0.84421 -3.88724,2.94217 -4.58329,4.43744 -1.22751,2.63697 -0.22576,5.5103 3.45004,9.89596 2.36507,2.82179 2.41983,2.8976 2.09377,2.8976 -0.15345,0 -1.1449,-0.53298 -2.20325,-1.18439 z m 6.93827,-2.32383 c -4.42124,-4.66253 -5.77409,-6.50658 -6.03116,-8.22075 -0.27102,-1.80723 1.40945,-4.03179 3.52708,-4.66911 1.12981,-0.34002 2.02611,-0.0891 2.18429,0.61141 0.0536,0.23752 0.2438,1.164 0.42263,2.05885 0.17885,0.89485 0.77287,3.10428 1.32009,4.90985 1.3048,4.30533 1.57667,7.19098 0.67751,7.19098 -0.17414,0 -1.11932,-0.84655 -2.10044,-1.88123 z m -40.8982,-1.74298 c -0.17002,-0.076 -0.81066,-0.5198 -1.42363,-0.98619 -1.69192,-1.28724 -7.15214,-4.2387 -9.55459,-5.16461 -1.17449,-0.45265 -2.38712,-0.92056 -2.69472,-1.03979 -0.94047,-0.36458 -0.68796,-0.85693 1.07187,-2.09007 3.27178,-2.29262 3.6865,-3.59608 2.75781,-8.6678 -0.38125,-2.08211 -0.22738,-3.53865 0.39926,-3.77912 0.79699,-0.30581 2.66934,1.74105 4.06959,4.4489 0.62594,1.21045 1.18303,1.98521 1.75486,2.4405 1.4681,1.16892 1.99659,1.74329 1.99659,2.17 0,0.22861 -0.59361,1.07475 -1.31915,1.88032 -1.49688,1.66198 -1.7573,2.39665 -1.21869,3.43821 0.18998,0.36737 0.51983,1.17491 0.73301,1.79454 0.67647,1.96621 1.63166,2.64349 4.07558,2.88985 0.85956,0.0867 1.75277,0.25919 1.98486,0.38341 1.46105,0.78194 -1.07378,2.97898 -2.63265,2.28185 z m -19.41829,-12.19569 c -2.75911,-1.47178 -3.85347,-2.40511 -7.68179,-6.55138 l -1.78391,-1.93207 0.12432,-3.66075 c 0.11515,-3.39098 0.078,-3.98299 -0.50404,-8.03332 -0.65981,-4.59149 -0.80464,-8.0005 -0.40157,-9.45238 0.30162,-1.08641 1.48993,-2.24116 2.62779,-2.55352 0.65613,-0.18012 2.09187,-0.21464 5.17869,-0.12447 6.58244,0.19225 8.89594,0.6624 14.13458,2.87237 3.07353,1.29661 5.20552,2.01132 5.48481,1.8387 0.44767,-0.27667 -1.8354,-3.96169 -3.4626,-5.58892 -2.17925,-2.17924 -6.90772,-4.80721 -10.11213,-5.62009 -3.53301,-0.89621 -9.08784,-1.09967 -12.45098,-0.45605 -3.54082,0.67763 -5.74852,3.02924 -6.7025,7.13937 -0.59021,2.54288 -0.67638,4.34548 -0.4189,8.76226 0.25676,4.40422 0.0612,7.65867 -0.57616,9.58904 -0.52029,1.57574 -0.86867,1.43722 -3.2769,-1.30294 -2.49029,-2.83354 -3.34967,-3.57737 -6.71611,-5.81313 -1.44912,-0.96242 -2.68233,-1.82682 -2.74046,-1.92091 -0.0581,-0.0941 0.32685,-0.23589 0.85556,-0.31519 1.25037,-0.18749 1.92488,-0.55023 3.16629,-1.70269 1.585,-1.47144 2.38303,-2.90804 4.29039,-7.72355 0.97372,-2.45835 2.08187,-4.98698 2.46255,-5.61916 0.95846,-1.59169 3.04188,-4.04639 4.98894,-5.87807 2.21047,-2.07943 4.06757,-3.00876 6.26694,-3.13608 2.04968,-0.11865 3.37278,0.26312 5.33461,1.53928 3.28609,2.1376 6.97796,3.907 7.35834,3.52663 0.62542,-0.62542 -5.20538,-7.31287 -9.96931,-11.43402 -3.00589,-2.60031 -4.5037,-3.26293 -6.21286,-2.74856 -1.16923,0.35188 -1.98267,0.92152 -4.58174,3.20843 -3.584,3.15356 -4.7558,4.25664 -6.11332,5.75489 -1.24859,1.37801 -5.51953,6.88175 -5.91787,7.62607 -0.10646,0.1989 -0.17499,1.58636 -0.15231,3.08325 0.0455,3.00031 -0.22375,4.64612 -0.93186,5.6967 -0.24518,0.36373 -1.57836,1.46762 -2.96262,2.45303 -3.09764,2.20516 -3.37758,2.24909 -5.4203,0.85039 -0.75609,-0.51771 -2.11664,-1.2931 -3.02342,-1.72309 -1.5779,-0.74822 -1.61605,-0.78202 -0.88823,-0.78739 1.10928,-0.008 2.54359,-0.61847 4.28872,-1.82489 2.70475,-1.86979 4.01199,-3.61113 4.69783,-6.2579 0.6023,-2.32435 0.30041,-5.53849 -0.55089,-5.86518 -0.78692,-0.30197 -2.35583,0.9723 -5.02178,4.07867 -0.86398,1.00671 -2.1344,2.62575 -2.82316,3.59786 -1.10666,1.56192 -1.40336,1.84184 -2.55134,2.40698 -1.64931,0.81196 -3.32144,0.99697 -4.72044,0.52231 -1.01251,-0.34354 -4.1465,-2.42494 -4.1465,-2.75386 0,-0.0994 0.48521,-0.17645 1.07824,-0.17112 0.78268,0.007 1.60497,-0.19831 2.99978,-0.74909 2.47996,-0.97928 9.52947,-4.58752 10.8348,-5.5457 0.55478,-0.40726 1.62778,-1.56959 2.38445,-2.58299 0.75668,-1.01338 1.86468,-2.31287 2.46224,-2.88774 1.25661,-1.20893 8.92285,-6.92683 12.42298,-9.26574 1.31341,-0.87767 2.5449,-1.8352 2.73665,-2.12785 0.38019,-0.58026 0.405,-1.11899 0.1717,-3.72952 -0.13014,-1.45624 -0.0845,-2.00115 0.28963,-3.45739 0.85582,-3.33117 1.53789,-4.17017 2.74643,-3.3783 0.9845,0.64507 6.49592,7.70696 11.28698,14.46226 3.43675,4.84572 7.39719,9.61548 13.73462,16.54126 9.95652,10.88088 15.94555,15.08359 21.49469,15.08359 1.95852,0 2.55958,0.31178 3.71048,1.92462 0.66432,0.93095 1.50074,1.74956 2.62903,2.57305 3.7952,2.76991 4.89378,3.80188 3.04111,2.85671 -0.43366,-0.22123 -1.31584,-0.55556 -1.96035,-0.74293 l -1.17189,-0.34068 -2.17768,0.75599 c -1.27354,0.44212 -2.72956,0.79695 -3.50686,0.85464 -1.24617,0.0925 -1.43356,0.0461 -3.00134,-0.74211 -0.9197,-0.46242 -2.51803,-1.08108 -3.55184,-1.37482 -2.42901,-0.69013 -3.69655,-1.34272 -5.96329,-3.07017 -3.16643,-2.41307 -5.00086,-2.98264 -13.64172,-4.23561 -5.93556,-0.86069 -8.64954,-0.88766 -10.67949,-0.10609 -2.08263,0.80185 -2.87673,1.76953 -2.32092,2.82824 0.43962,0.8374 1.73303,1.98944 2.86333,2.55039 1.53414,0.76136 3.0243,0.9464 7.6212,0.9464 4.67647,0 5.60754,0.15241 7.88604,1.29089 1.73721,0.868 2.67692,1.17315 6.62546,2.15142 2.91748,0.72284 3.42822,0.92099 5.88582,2.28356 1.48012,0.82063 3.97702,2.04199 5.54867,2.71413 1.57164,0.67215 3.12747,1.3982 3.45737,1.61348 1.01127,0.65983 5.2317,3.98318 6.04015,4.75629 1.47697,1.41239 0.97999,1.37893 -3.44235,-0.23168 -3.70208,-1.3483 -5.41037,-2.20254 -7.38738,-3.69407 -3.17556,-2.39578 -5.88082,-3.28111 -10.88058,-3.5609 -2.78585,-0.15588 -3.72215,-0.30287 -6.50801,-1.02161 -5.04167,-1.30073 -8.5199,-1.37195 -9.69338,-0.19848 -0.85682,0.85682 -0.79332,2.06816 0.26473,5.04947 1.32056,3.72097 1.64173,5.06524 1.50628,6.30444 -0.11862,1.08526 -0.57832,2.24016 -1.00367,2.52158 -0.56382,0.37302 -1.89234,0.12387 -3.27647,-0.61449 z m 47.90545,-21.55031 c -0.14196,-0.3076 -0.47019,-1.19991 -0.72939,-1.98291 -0.2592,-0.78299 -1.72687,-4.4895 -3.26152,-8.23669 -1.53463,-3.7472 -3.12429,-7.68251 -3.53258,-8.74515 -0.40825,-1.06263 -1.16936,-2.58331 -1.6913,-3.37927 -1.00167,-1.52756 -1.90129,-3.53548 -1.58403,-3.53548 0.45804,0 3.94377,6.24089 5.2954,9.48099 2.34006,5.60947 6.10297,15.9326 6.10297,16.74279 0,0.40933 -0.34257,0.21262 -0.59955,-0.34428 z m -8.02008,-4.26402 c -1.5894,-4.32504 -2.93682,-6.21125 -5.26984,-7.37708 -1.07417,-0.53675 -1.44072,-0.61269 -2.97231,-0.6158 -0.96089,-0.002 -2.38769,-0.1372 -3.17068,-0.30057 -6.9497,-1.45013 -18.94844,-12.77865 -32.20438,-30.40556 -7.27389,-9.67236 -8.25585,-11.63897 -8.77857,-17.58122 -0.16236,-1.84579 -0.33987,-2.71082 -0.73853,-3.59915 -1.44023,-3.20928 -2.22086,-2.17386 -3.32456,4.40964 -0.79243,4.72683 -1.88908,9.10469 -3.15668,12.60154 -1.7579,4.84944 -2.14918,5.36091 -6.17283,8.06862 -3.83106,2.57811 -4.61757,3.19908 -9.48429,7.48819 -10.90062,9.60685 -12.98703,11.22536 -15.44185,11.97884 -2.46509,0.75662 -6.18654,1.1447 -7.48747,0.7808 -0.37393,-0.10459 -0.65718,-0.39337 -0.85852,-0.87525 -0.16527,-0.39552 -0.5771,-1.05472 -0.91519,-1.46489 -0.78362,-0.95068 -0.61202,-1.13957 1.41656,-1.55942 3.32676,-0.6885 7.66784,-3.5093 12.99188,-8.442 3.5505,-3.28953 4.89171,-4.34327 9.07434,-7.12938 5.35145,-3.56468 7.93236,-5.78284 9.58848,-8.24076 0.45021,-0.66818 4.13243,-7.94103 8.18269,-16.1619 4.05028,-8.22086 7.50728,-15.16549 7.68223,-15.4325 0.25349,-0.38687 0.35534,-0.4284 0.50145,-0.20443 0.10084,0.15458 0.17178,2.61477 0.15766,5.46711 -0.0156,3.14841 0.062,5.55768 0.19745,6.13186 0.29751,1.2609 1.26144,3.88498 3.26102,8.87736 3.5321,8.81863 4.32698,10.13577 10.21864,16.93275 1.60554,1.85227 4.02972,4.73523 5.38705,6.40658 2.95483,3.6385 5.26412,5.90142 7.59921,7.4466 0.95078,0.62914 3.9709,2.25942 6.71138,3.6228 2.74048,1.36339 5.72567,2.97191 6.63376,3.57447 3.20721,2.12818 6.40933,6.1104 8.61736,10.71675 1.18299,2.4679 2.50897,5.95089 2.39535,6.2918 -0.0325,0.0975 -0.32086,-0.53514 -0.64081,-1.4058 z M 82.317645,225.19978 c -2.345681,-0.36498 -6.435157,-1.74478 -10.218299,-3.44766 -5.224206,-2.35155 -5.744891,-2.54827 -7.363056,-2.78183 -2.160418,-0.31179 -3.879777,0.0666 -7.411428,1.63109 -4.541626,2.01193 -6.097468,2.32423 -8.808172,1.76817 -4.362544,-0.89496 -10.392039,-5.23311 -13.456697,-9.68197 -3.855764,-5.59727 -5.361251,-11.97099 -5.087884,-21.54035 0.13497,-4.7246 0.388697,-7.42569 1.671595,-17.79533 0.498185,-4.02683 1.136214,-9.79253 1.417836,-12.81265 0.710413,-7.6184 1.378481,-11.46561 3.262565,-18.78816 3.311152,-12.86886 9.287333,-28.68244 18.839394,-49.850999 4.693015,-10.400299 9.419558,-20.5199 9.470044,-20.275506 0.02759,0.133672 -0.07333,3.53772 -0.224311,7.564551 l -0.27452,7.32151 -0.659735,2.033753 c -0.362855,1.118564 -2.014411,5.46571 -3.670117,9.660325 -3.49351,8.850536 -4.634166,12.068016 -5.62385,15.863276 -1.123677,4.30912 -2.201226,7.98557 -4.142783,14.13459 -5.439709,17.22783 -6.190984,20.3795 -8.120189,34.06536 -1.713871,12.1582 -2.418173,21.96818 -1.854137,25.82565 1.105514,7.56062 7.685357,17.30312 15.829435,23.43798 6.951038,5.23614 11.543304,5.36796 11.182194,0.321 -0.216417,-3.0248 -2.212072,-5.71628 -6.564154,-8.8529 -7.536766,-5.43185 -13.121184,-13.47722 -15.347138,-22.11033 -0.998915,-3.87417 -1.299862,-6.59457 -1.295081,-11.70665 0.0069,-7.54722 1.094253,-14.92302 3.447397,-23.38815 1.079671,-3.88398 1.744588,-5.82485 4.563649,-13.32108 3.353744,-8.91804 3.823204,-10.29343 6.629345,-19.42235 2.886504,-9.39034 5.803893,-18.282559 7.529587,-22.950225 1.564143,-4.23073 2.340485,-6.965512 2.982118,-10.505008 l 0.479276,-2.643879 0.122717,3.355692 c 0.06749,1.84563 0.364907,5.597905 0.660919,8.338386 0.354154,3.278807 0.494496,5.434747 0.410405,6.304634 -0.228201,2.360557 -1.077488,6.06648 -3.046417,13.29324 -1.062461,3.89966 -2.220858,8.4756 -2.574205,10.16877 -1.411471,6.76336 -3.615488,11.87415 -10.975185,25.44975 -6.045423,11.15133 -6.215235,11.61699 -6.036137,16.5526 0.08673,2.39011 0.226064,3.42898 0.712189,5.31024 1.88762,7.30488 6.556852,14.83475 11.986353,19.32989 1.007163,0.83385 2.762304,2.28521 3.900316,3.22526 2.602545,2.14982 5.298114,4.96479 6.69349,6.98998 0.592423,0.85983 1.884929,2.96077 2.87223,4.66877 0.987301,1.70801 2.470243,4.26741 3.295433,5.68756 0.825189,1.42015 2.14097,3.74823 2.923968,5.17348 2.371524,4.31683 4.461825,6.07679 8.207048,6.91002 2.92247,0.65019 5.444267,0.0942 7.853118,-1.73148 0.562846,-0.42657 2.121585,-1.80611 3.463862,-3.06563 1.342277,-1.25953 3.584487,-3.18124 4.982697,-4.2705 3.69744,-2.88046 5.91852,-5.33384 7.85299,-8.67432 1.01212,-1.74779 1.00268,-1.56147 -0.0683,1.34765 -0.9772,2.65427 -2.34236,5.2475 -3.79098,7.20125 -3.01561,4.06714 -3.0903,4.76925 -0.43375,4.07731 1.77708,-0.46288 3.67749,-1.46963 4.92317,-2.60813 2.23325,-2.04105 3.74661,-4.72736 6.29346,-11.17118 2.2145,-5.60295 2.90808,-6.86027 3.19454,-5.79108 0.068,0.25403 0.125,0.78711 0.12653,1.18461 0.004,1.03801 0.776,2.44928 3.19772,5.84554 3.39796,4.76539 3.6704,5.55145 2.6235,7.56964 -2.24575,4.32927 -9.95464,12.7977 -12.93658,14.21116 -1.07522,0.50968 -1.25642,0.52993 -4.67762,0.523 -1.95749,-0.004 -5.4352,-0.0843 -7.72826,-0.17849 -4.854848,-0.1994 -6.706171,0.0375 -9.456962,1.21045 -4.713615,2.00982 -7.606607,2.45519 -11.755101,1.8097 z m 150.959385,-8.67491 c -2.43878,-4.70686 -4.12421,-7.65877 -5.36844,-9.40239 -1.18552,-1.66135 -1.89068,-2.03296 -5.60772,-2.95508 -6.37623,-1.58183 -9.02088,-2.89578 -11.22445,-5.57666 -0.56082,-0.6823 -2.63481,-2.8879 -4.60883,-4.90132 -3.72882,-3.80323 -5.54808,-6.0328 -7.25665,-8.89331 -2.63799,-4.41651 -7.79289,-15.50291 -9.77324,-21.0188 -0.89633,-2.49657 -1.21089,-4.14216 -1.71328,-8.96296 -0.23488,-2.25385 -0.64104,-5.04518 -0.90258,-6.20295 -0.26153,-1.15777 -0.46148,-2.1211 -0.44432,-2.14073 0.0171,-0.0196 0.50409,0.37172 1.08206,0.86967 1.00005,0.8616 1.09053,1.02555 1.87143,3.39139 0.45132,1.3673 1.28649,4.08759 1.85593,6.04508 2.0591,7.07828 2.71323,7.79426 9.12119,9.98358 1.67394,0.57192 3.02669,1.19364 4.04845,1.86064 1.76187,1.15018 5.51096,4.83094 7.20086,7.06968 2.01938,2.67521 5.63728,8.51175 7.94221,12.81265 1.22888,2.29305 3.2824,5.77077 4.56336,7.72825 1.28096,1.95749 2.63511,4.1997 3.00922,4.9827 3.34699,7.00514 4.63488,9.74991 5.10531,10.88057 1.03575,2.48942 3.13834,8.00044 3.07611,8.06268 -0.0342,0.0342 -0.92368,-1.60051 -1.97662,-3.63269 z m -10.2765,-17.58733 c -0.86015,-1.54419 -2.46799,-4.337 -3.57303,-6.20625 -1.94828,-3.2957 -2.10345,-3.4928 -5.12335,-6.50801 -3.08178,-3.07696 -7.97967,-8.56903 -12.58497,-14.11165 -2.8489,-3.42877 -3.96856,-4.33867 -6.61312,-5.3742 -2.74199,-1.0737 -3.10811,-1.15317 -3.10811,-0.67461 0,0.78601 1.61421,2.79372 5.7962,7.20916 1.9364,2.0445 2.81554,3.18003 4.25624,5.49752 0.99865,1.60643 2.29534,3.56362 2.88151,4.34931 2.54187,3.40695 15.07261,16.2639 17.31481,17.76555 1.40141,0.93853 2.15622,1.28292 2.25366,1.02822 0.0352,-0.0921 -0.6397,-1.43087 -1.49984,-2.97504 z m 15.08199,11.06152 c -0.31824,-0.58108 -1.55116,-2.70048 -2.73985,-4.70976 -1.87982,-3.17762 -2.37284,-3.85287 -3.78638,-5.18607 -0.89384,-0.84305 -3.15925,-3.08862 -5.03429,-4.99018 l -3.40912,-3.45738 -1.29922,-2.64388 c -0.71458,-1.45413 -1.55204,-3.35823 -1.861,-4.23133 -0.30897,-0.87309 -1.27824,-2.8754 -2.15391,-4.44958 -0.8757,-1.57416 -1.82814,-3.45196 -2.11655,-4.17287 -0.43746,-1.09347 -1.92309,-6.9616 -1.92309,-7.59603 0,-0.37498 0.45423,-0.18495 1.0292,0.43055 0.74915,0.80196 3.84986,7.06511 4.67535,9.44375 1.28219,3.69464 3.38416,7.2675 6.95039,11.81408 3.84953,4.90775 7.2028,9.89633 8.8053,13.09939 1.39972,2.79779 3.58188,7.56572 3.50006,7.64754 -0.032,0.032 -0.31865,-0.41717 -0.63689,-0.99823 z M 96.130449,207.19104 c -2.597903,-0.60988 -5.207874,-2.85368 -10.384231,-8.92736 -6.259457,-7.34451 -9.151142,-9.82858 -16.68863,-14.33618 -5.979787,-3.57607 -8.200253,-5.31869 -10.259807,-8.05193 -2.001136,-2.65571 -2.998252,-4.88103 -4.456958,-9.94687 -1.428421,-4.96064 -1.928674,-9.19817 -1.466355,-12.4212 0.50721,-3.53604 2.002643,-7.02215 6.449316,-15.03446 4.692608,-8.45546 6.257074,-12.80132 9.810555,-27.25229 1.999706,-8.13222 2.672685,-10.21695 4.604749,-14.264334 0.835006,-1.749199 1.66822,-3.762615 1.851592,-4.474253 0.432942,-1.680197 0.215172,-3.167112 -1.035403,-7.069619 -0.506956,-1.582006 -0.921742,-3.257737 -0.921742,-3.723846 0,-0.599425 0.352063,-1.624981 1.202849,-3.503894 1.730982,-3.822751 2.133384,-5.275601 2.144046,-7.740805 0.0046,-1.118563 -0.05481,-2.445588 -0.132525,-2.948941 l -0.141319,-0.915189 0.293452,0.65856 c 1.069948,2.401164 1.164993,8.070724 0.183288,10.933831 -0.434756,1.267966 -0.558641,2.008477 -0.561393,3.355692 -0.0031,1.575495 0.100564,2.035076 1.171065,5.186069 1.594229,4.692566 1.614061,5.411487 0.223558,8.103974 l -1.006425,1.948777 0.249562,2.295137 c 0.735348,6.762831 -1.154854,11.641111 -13.629446,35.175101 -2.308701,4.35549 -3.887749,7.84885 -4.621261,10.22369 -0.448045,1.45058 -0.562722,2.96085 -0.224818,2.96085 0.499977,0 2.207445,-2.68401 4.390231,-6.90113 1.306572,-2.52426 3.018276,-5.6878 3.80378,-7.03007 3.60455,-6.15944 4.47114,-7.77148 7.871772,-14.64303 5.610852,-11.3377 5.425074,-10.81402 6.252885,-17.62655 0.575113,-4.732923 0.577327,-4.81138 0.437991,-15.523625 l -0.0741,-5.694508 0.973296,-4.35015 c 1.090817,-4.875412 1.645714,-8.269074 1.965624,-12.02156 0.259446,-3.04327 0.351985,-3.510397 0.675216,-3.408487 0.653178,0.205939 1.779884,5.093898 2.299953,9.977843 0.389966,3.662099 0.28356,8.995103 -0.223988,11.225981 -0.924847,4.065141 -0.945055,4.267108 -1.109234,11.083953 -0.199791,8.295393 -0.236379,8.486163 -2.180672,11.367183 -1.196723,1.77328 -3.480081,6.46978 -6.783738,13.95304 -3.935529,8.91456 -5.124143,11.30957 -8.024137,16.16834 -3.89615,6.52778 -5.511886,10.05564 -5.997435,13.09502 -0.543513,3.40227 1.611655,15.6943 2.94583,16.80157 0.22973,0.19066 0.42557,0.14447 0.93972,-0.22163 0.415316,-0.29573 1.047119,-0.49546 1.752313,-0.55394 1.64845,-0.1367 1.651048,-0.16113 0.587188,-5.52949 -1.320223,-6.66205 -1.703479,-10.24529 -1.359971,-12.71503 0.188699,-1.3567 0.398744,-1.91765 1.328956,-3.54921 1.344675,-2.3585 1.787163,-3.34826 3.594043,-8.03911 1.325965,-3.44233 3.793126,-9.5116 6.117761,-15.04976 1.833029,-4.36701 4.3073,-8.99394 6.090312,-11.38902 2.067779,-2.7776 3.945214,-5.63045 5.018974,-7.626582 2.486002,-4.621512 3.23165,-10.337852 2.221974,-17.034255 C 91.904403,79.5722 91.856708,78.57851 91.925403,74.409817 92.088336,64.522492 92.027382,60.781795 91.658616,58.038108 90.930101,52.617819 89.955052,47.943302 88.071268,40.839859 c -0.669336,-2.523942 -1.354022,-5.498305 -1.521536,-6.609697 -0.499101,-3.311429 -0.347974,-10.281998 0.27329,-12.604989 0.105722,-0.395313 0.358665,0.684449 0.913686,3.900247 1.010899,5.85722 1.655814,8.524076 3.82953,15.835915 2.070461,6.964513 3.008452,10.586751 3.607517,13.931207 0.230415,1.286348 0.785875,3.711599 1.234358,5.389444 2.887058,10.800905 3.00288,11.398423 3.25238,16.77846 0.101149,2.1812 0.247125,4.706236 0.324391,5.611191 0.161106,1.887055 -0.139942,4.018751 -0.731236,5.177782 -0.214242,0.419954 -1.117612,1.639481 -2.007477,2.710063 -3.088795,3.716047 -7.720386,10.409388 -10.290855,14.871818 -1.603591,2.78389 -4.281988,9.42696 -6.815822,16.90488 -2.508568,7.40336 -3.393253,11.1998 -3.661693,15.7134 -0.209214,3.51793 -0.56891,5.39559 -1.621309,8.46353 -1.013181,2.95364 -1.085681,3.45448 -1.103945,7.62657 l -0.01737,3.96582 -0.884046,2.44051 c -1.257993,3.47284 -1.658136,4.93509 -1.658136,6.05938 0,1.64583 0.360718,2.10302 3.559069,4.51102 4.507521,3.39364 6.202222,5.76636 11.697006,16.37682 4.212531,8.13441 5.558536,10.2783 7.662165,12.20416 2.175839,1.99196 4.093752,2.48453 10.896945,2.79865 l 3.21958,0.14865 -2.2982,1.36381 c -4.49499,2.66747 -7.117361,3.41211 -9.799147,2.78254 z M 231.06965,194.42319 c -4.15477,-6.25187 -7.81733,-11.94892 -8.13906,-12.6601 -0.85458,-1.88921 -1.73592,-4.47632 -2.86142,-8.39961 -1.74557,-6.08473 -2.02755,-7.23141 -1.77828,-7.23141 0.47696,0 2.35314,2.26729 3.14545,3.80115 0.45125,0.87357 1.50756,3.64748 2.34735,6.16424 2.24329,6.72282 3.42631,9.25425 7.44409,15.92909 3.07428,5.10736 7.7742,13.7637 7.47294,13.7637 -0.0424,0 -3.47632,-5.11517 -7.63107,-11.36706 z m 22.48304,8.06221 c -2.39604,-3.48198 -3.9367,-6.06498 -4.8219,-8.08417 -1.22255,-2.78871 -10.81488,-21.92149 -10.65516,-21.25271 0.41106,1.72115 1.83825,6.64687 2.67477,9.2316 0.92013,2.84308 1.66835,4.49714 3.89675,8.61458 0.59024,1.0906 1.03032,1.98291 0.97793,1.98291 -0.0524,0 -0.73636,-0.98383 -1.51993,-2.18628 -3.34339,-5.13075 -5.77449,-10.44297 -7.46157,-16.30436 -1.01289,-3.51901 -1.30939,-5.3378 -1.64382,-10.08359 -0.56463,-8.01244 -1.39889,-11.75907 -5.14853,-23.1218 -2.63005,-7.96999 -2.92962,-9.04464 -4.49644,-16.12963 -1.63679,-7.40143 -2.48289,-10.13974 -3.9816,-12.88599 -1.07256,-1.9654 -3.0739,-4.90784 -4.99905,-7.34985 -3.23209,-4.09981 -4.41105,-5.746289 -5.28942,-7.386948 -1.07842,-2.014294 -2.56656,-4.029518 -5.05784,-6.849323 -2.04842,-2.318519 -3.04667,-3.732583 -3.04667,-4.315731 0,-0.88509 1.91008,-0.903718 5.64149,-0.05503 l 1.42961,0.325157 2.41319,3.54455 c 5.69538,8.365564 7.49291,11.432855 9.29212,15.855895 2.30468,5.66569 4.17445,13.12052 5.62966,22.44564 0.79506,5.09477 0.94776,5.73823 1.60933,6.78142 1.17352,1.85044 2.01808,4.93881 4.99368,18.26106 2.19993,9.84932 3.72237,15.8254 4.69197,18.41736 1.58112,4.22666 4.21995,9.50382 9.93895,19.87588 2.23404,4.05172 6.86542,13.16612 6.68798,13.16173 -0.0226,0 -0.81261,-1.12213 -1.7555,-2.49237 z m -123.71166,0.98593 c -0.2379,-0.1721 -0.73171,-0.7961 -1.09737,-1.38665 -0.36566,-0.59057 -0.97181,-1.55282 -1.347,-2.13833 -0.37519,-0.58555 -0.68217,-1.11178 -0.68217,-1.16941 0,-0.0576 0.43836,-0.10483 0.97414,-0.10483 2.98398,0 8.57472,-2.78607 17.73638,-8.83873 4.75083,-3.13863 7.00297,-4.8901 9.92954,-7.7221 5.99584,-5.80207 10.27434,-12.11826 18.4011,-27.16484 3.87896,-7.18183 4.53667,-8.90142 4.36207,-11.40447 -0.1243,-1.78196 -0.9801,-3.38395 -3.63137,-6.79762 -2.5859,-3.32951 -3.53001,-4.91756 -4.36126,-7.33594 -1.26202,-3.67163 -1.3612,-7.14875 -0.2652,-9.29801 0.40973,-0.80351 8.2383,-11.88808 8.86381,-12.55041 0.36492,-0.38638 -1.38527,2.68266 -4.29119,7.52488 -2.66023,4.43282 -3.16618,5.7205 -3.17359,8.07706 -0.006,2.03698 0.22377,2.77125 2.02633,6.46428 2.52502,5.17315 4.32547,7.3584 7.40633,8.98922 2.78276,1.47303 5.8172,4.60107 5.13,5.28826 -0.0682,0.0682 -0.60539,-0.18141 -1.19383,-0.55465 -1.75951,-1.11602 -3.48693,-2.01921 -3.87132,-2.02413 -0.43852,-0.005 -0.75763,0.75992 -0.75763,1.81758 0,0.94364 -0.51163,2.64092 -1.85531,6.15479 -1.0672,2.79084 -1.20508,3.88547 -0.54174,4.30091 0.5817,0.3643 1.52918,-0.75491 2.64636,-3.12602 1.18356,-2.512 1.66982,-3.19655 3.03995,-4.27957 2.21788,-1.75313 2.44859,-0.58933 0.49927,2.51858 -1.43844,2.29341 -2.9728,5.27935 -5.6077,10.91288 -1.98849,4.2515 -2.19403,4.59392 -6.26383,10.43562 -1.62184,2.32796 -3.68234,5.43961 -4.57889,6.91475 -2.79189,4.59372 -3.11253,4.92583 -8.89588,9.21431 -1.95749,1.45152 -5.43521,4.14751 -7.72826,5.9911 -4.91531,3.95184 -6.90229,5.40224 -9.89148,7.22032 -5.22515,3.178 -9.84642,4.89144 -10.98026,4.07117 z m -22.60226,-4.82168 c -1.72917,-0.28807 -3.45296,-0.94197 -5.9462,-2.25565 -2.922584,-1.53991 -3.719602,-2.08627 -4.926871,-3.3774 -1.432766,-1.53226 -2.646499,-3.53041 -4.572836,-7.52816 -0.952696,-1.97713 -2.17241,-4.50997 -2.710473,-5.62853 -1.243027,-2.58411 -2.307594,-4.16519 -5.253139,-7.80191 -4.384251,-5.41301 -5.160016,-6.6579 -5.8473,-9.38331 -0.505419,-2.00419 -0.280939,-5.21823 0.632094,-9.05019 0.399774,-1.67785 0.910658,-4.19462 1.135291,-5.59283 0.497863,-3.09887 1.448706,-7.55717 3.028938,-14.20201 1.708867,-7.18579 2.180526,-9.63511 2.640417,-13.71171 0.988408,-8.76138 2.724186,-13.9738 6.213667,-18.65922 0.874707,-1.17449 3.21563,-4.201244 5.202048,-6.726108 4.681544,-5.950549 6.011594,-7.814158 6.375974,-8.933789 0.23207,-0.713128 0.32777,-2.801098 0.43343,-9.45695 0.14723,-9.274771 0.0188,-11.697898 -0.8161,-15.392633 -0.59338,-2.626067 -1.22104,-4.179793 -2.66825,-6.605052 C 97.333222,49.607906 94.986655,42.437219 93.980868,35.463453 93.746072,33.83548 93.478217,30.351818 93.355369,27.328441 92.885516,15.764587 92.889944,16.616213 93.295644,15.852195 c 0.689552,-1.29849 1.256194,-1.540434 3.59399,-1.534562 1.706608,0.0043 2.198752,0.07803 2.780667,0.416641 1.043139,0.606999 1.015819,1.200684 -0.193218,4.199129 -1.487562,3.689179 -1.715801,4.803328 -1.698975,8.293351 0.0226,4.688788 0.880511,10.164692 2.392042,15.268022 0.90424,3.052991 1.79119,5.321603 3.59882,9.20505 2.39235,5.139655 4.23892,11.190586 5.28573,17.320547 0.36185,2.118845 0.45379,3.474587 0.46302,6.827017 l 0.0115,4.183136 -0.85918,1.735281 c -0.47254,0.954403 -2.25022,3.739455 -3.95038,6.189001 -6.372964,9.181944 -7.949621,12.135412 -9.324145,17.466342 -0.930381,3.60835 -1.238346,6.276 -1.432579,12.40929 -0.252183,7.9629 -0.470545,9.08687 -3.279529,16.88016 -1.944601,5.39515 -2.729367,8.2379 -3.027008,10.96509 -0.205733,1.88508 -0.156761,2.70054 0.60559,10.08424 1.429413,13.84452 2.21384,19.29073 2.997015,20.8081 0.609012,1.17993 1.098696,0.35187 1.670803,-2.82535 1.090794,-6.05774 1.105337,-12.69898 0.03912,-17.84827 -0.702142,-3.39088 -0.786203,-5.42081 -0.308764,-7.45599 0.170566,-0.72706 0.985541,-3.38111 1.811061,-5.89788 0.825521,-2.51676 1.692082,-5.3263 1.925693,-6.24342 1.378543,-5.41198 1.723964,-10.79563 1.133924,-17.67318 -0.84712,-9.8742 0.01629,-13.93037 4.248199,-19.957726 2.53237,-3.606741 7.50436,-11.367989 8.88157,-13.864057 1.43904,-2.608129 2.65994,-5.603436 3.28537,-8.060175 0.4378,-1.719733 0.46402,-2.206424 0.45974,-8.535111 -0.007,-10.194144 -0.23815,-11.541313 -3.78802,-22.066216 -4.38848,-13.01131 -6.21256,-20.061576 -6.42103,-24.81797 -0.12838,-2.929174 0.10264,-4.046211 1.31613,-6.363788 1.21619,-2.322764 3.62632,-4.612291 4.85523,-4.612291 1.29709,0 1.48333,1.903414 0.43231,4.418118 -0.64278,1.53791 -0.66055,1.659846 -0.64548,4.428707 0.0178,3.259758 -0.0793,2.776949 3.53746,17.59196 3.09038,12.658779 3.51479,14.662514 4.803,22.676344 0.6218,3.868138 0.89606,10.46998 0.51115,12.304204 -0.37514,1.787674 -1.38511,4.057335 -3.96679,8.914436 -4.68308,8.810581 -5.72856,12.475823 -6.97108,24.439115 -0.51218,4.93138 -0.50397,17.30919 0.0146,22.06622 0.47433,4.351 0.48674,10.22994 0.0288,13.62615 -0.79448,5.89151 -1.99776,9.89271 -4.67934,15.5601 -4.567713,9.6536 -6.486978,15.15479 -6.739968,19.31875 -0.102839,1.69262 -0.03797,2.28494 0.523421,4.77932 0.352447,1.56599 0.913732,3.67093 1.247308,4.67763 0.79635,2.40335 2.981269,6.77071 4.237209,8.46963 1.59149,2.15284 4.16179,4.11177 6.41923,4.89237 l 1.01953,0.35255 -0.91519,-0.0171 c -0.50335,-0.009 -1.3968,-0.0974 -1.98544,-0.19545 z m 128.24968,-4.83049 c -3.443,-3.72437 -7.39876,-10.53362 -10.25607,-17.65436 -1.96133,-4.88779 -2.33355,-6.42864 -2.93312,-12.14161 -0.21941,-2.09047 -0.4699,-2.93571 -3.23259,-10.90713 -0.79471,-2.29306 -1.30217,-3.98616 -1.12769,-3.76244 0.65305,0.83736 2.92756,5.16355 3.8493,7.32151 1.07006,2.50519 1.8417,5.23952 2.03751,7.21981 0.31849,3.22114 1.76064,9.33488 2.92643,12.4059 0.88615,2.33443 4.8614,9.82155 8.82747,16.62593 0.73345,1.25838 1.30326,2.28797 1.26623,2.28797 -0.037,0 -0.6479,-0.62801 -1.35747,-1.39558 z m 1.40988,-3.43459 c -1.66878,-2.33217 -3.99739,-5.91695 -4.54699,-6.99985 -1.31396,-2.58891 -3.54474,-8.94623 -4.54826,-12.96168 -0.72259,-2.8914 -0.95397,-4.50017 -1.23142,-8.56185 -0.27907,-4.08595 -0.55432,-5.03006 -1.9235,-6.59781 -2.09234,-2.39577 -3.28862,-4.74075 -3.88064,-7.6069 -0.27938,-1.35255 -0.68058,-9.07524 -0.69841,-13.44415 -0.003,-0.7724 -0.0795,-1.23233 -0.18565,-1.11857 -0.0991,0.10626 -0.5593,2.70492 -1.02257,5.77478 -0.46327,3.06986 -0.8982,5.63239 -0.96653,5.6945 -0.18744,0.17041 0.0965,-10.35612 0.3453,-12.80139 0.11951,-1.17449 0.39437,-3.14214 0.6108,-4.37256 0.21645,-1.23043 0.58375,-3.60992 0.81622,-5.28777 0.23249,-1.67784 0.50505,-3.13417 0.6057,-3.23627 0.5097,-0.5171 1.11722,3.75627 1.31083,9.22069 0.0905,2.55466 0.27133,4.28615 0.64772,6.20295 0.68384,3.48251 0.82542,6.81905 0.39619,9.33715 -0.17944,1.05271 -0.32625,2.49936 -0.32625,3.21477 0,1.22344 0.054,1.37298 0.90886,2.51587 0.49987,0.6683 1.66344,2.66689 2.58573,4.4413 0.92229,1.77442 1.70636,3.13775 1.7424,3.02963 0.036,-0.10812 -0.36011,-1.55939 -0.88037,-3.22506 -1.82727,-5.8504 -1.72792,-5.32678 -1.92511,-10.14662 -0.17283,-4.2243 -0.47438,-8.11942 -0.71637,-9.25357 l -0.10848,-0.50844 0.36608,0.48344 c 1.18514,1.5651 5.19566,11.77582 6.26908,15.96095 1.2279,4.78745 3.27277,16.38457 3.65449,20.72573 0.32957,3.74805 0.65558,5.49499 1.43275,7.67729 0.58699,1.64826 3.11695,6.91021 5.27879,10.9791 1.79719,3.38256 1.29758,2.71169 -2.46513,-3.31016 -4.30116,-6.8836 -4.8832,-8.26704 -5.45249,-12.95986 -1.17829,-9.71298 -1.59098,-12.93071 -1.86231,-14.51973 -0.31097,-1.82143 -1.96556,-7.8126 -3.09506,-11.20724 -0.57196,-1.71893 -0.61025,-1.77865 -0.62875,-0.98075 -0.0291,1.25465 0.31563,3.60339 1.09924,7.48875 1.06013,5.25645 1.72828,11.25068 1.72828,15.50495 0,3.23104 1.05717,7.44012 3.25766,12.97034 1.59949,4.01978 2.90309,6.68007 4.37154,8.92121 0.19207,0.29314 0.30764,0.53299 0.25682,0.53299 -0.0508,0 -0.5999,-0.70927 -1.22019,-1.57616 z m -111.99654,0.2305 c -0.23023,-0.29268 -0.57425,-1.02593 -0.76448,-1.62942 -0.33582,-1.06534 -0.33395,-1.11346 0.0646,-1.65412 0.55703,-0.75575 1.96287,-1.49882 4.74976,-2.51054 9.53991,-3.46327 13.56253,-5.67678 17.86543,-9.83074 2.76764,-2.67184 4.34551,-4.78748 8.95762,-12.01049 1.14277,-1.7897 2.996,-4.58103 4.11825,-6.20295 2.757,-3.98448 4.92169,-7.63899 7.43088,-12.54512 2.01833,-3.94635 2.0995,-4.15544 2.0995,-5.40846 0,-1.69752 -0.38401,-2.76501 -2.50368,-6.95989 -2.22463,-4.40261 -2.66246,-5.65482 -2.66655,-7.62658 -0.003,-1.2976 0.0947,-1.73397 0.65245,-2.92303 0.97066,-2.06937 1.81853,-3.13498 5.44153,-6.83898 1.80527,-1.84563 3.39582,-3.56945 3.53457,-3.8307 0.13875,-0.26126 0.3017,-0.42559 0.36211,-0.36517 0.21153,0.21152 -1.23052,2.49761 -3.80132,6.02624 -2.81392,3.86236 -3.86779,5.45921 -4.22795,6.40633 -0.93814,2.46703 -0.22462,4.94964 2.75741,9.59408 1.73797,2.70684 2.26355,3.73763 3.06561,6.01236 0.73663,2.08916 1.49233,5.84272 1.52521,7.57573 0.0428,2.25536 -1.11038,4.18074 -6.28776,10.49831 -3.96437,4.83744 -4.20978,5.18466 -5.44655,7.70639 -1.6337,3.33106 -5.76237,8.46119 -11.2173,13.93824 -4.78051,4.7999 -7.12017,6.23727 -16.88014,10.37031 -7.20352,3.05046 -8.00831,3.25174 -8.82915,2.2082 z m -15.67758,-1.34588 c -2.27117,-1.5053 -3.20701,-2.32833 -3.99236,-3.51114 -1.60714,-2.42053 -2.25537,-6.0262 -2.0293,-11.28759 0.4043,-9.40913 1.83037,-15.60245 4.98827,-21.66367 3.6769,-7.05736 4.89591,-12.43541 4.89931,-21.61484 7.7e-4,-2.65085 0.10534,-6.10101 0.2319,-7.667 0.12656,-1.56599 0.24347,-6.59953 0.2598,-11.18564 0.0293,-8.22562 0.0385,-8.40027 0.68341,-12.914331 0.7,-4.899899 1.30428,-7.500408 2.27039,-9.770759 1.29899,-3.052555 3.70425,-6.215183 12.52182,-16.464654 3.67425,-4.270926 4.54197,-5.408996 5.36168,-7.032193 0.97448,-1.929665 1.31901,-3.537853 1.30373,-6.085513 -0.0147,-2.445501 -0.0275,-2.511056 -1.96438,-10.10298 C 132.2621,44.103857 130.113,33.804875 130.21,32.963828 c 0.0535,-0.463726 0.19726,-0.27718 0.9077,1.177685 1.97559,4.045726 3.93755,9.612286 6.55876,18.608838 1.72812,5.931293 2.05462,7.491281 2.05206,9.804282 -0.002,1.950646 -0.49227,3.411755 -1.41841,4.228611 -1.35642,1.196372 -5.31925,6.929748 -7.80163,11.287328 -3.30246,5.797139 -4.09164,8.79409 -4.3379,16.473397 -0.17973,5.604701 0.23959,7.921171 2.11685,11.694081 0.77893,1.5655 2.60441,4.38842 3.35364,5.18607 1.36878,1.45723 1.50192,2.37874 0.59094,4.08972 -1.62632,3.05447 -3.4194,9.3917 -4.08199,14.42685 -0.43376,3.29627 -0.52994,3.57259 -2.47439,7.10872 -0.81026,1.47351 -0.83508,1.57366 -0.73098,2.94894 0.0593,0.783 0.27868,1.88122 0.48757,2.4405 0.31371,0.8399 0.46646,1.01688 0.87768,1.01688 0.60618,0 0.63058,-0.0379 3.40838,-5.28776 3.14077,-5.93589 3.37031,-6.57468 4.20786,-11.70995 0.3908,-2.39618 0.98479,-5.41368 1.31995,-6.70555 1.51141,-5.82559 1.28663,-10.64582 -0.80091,-17.17517 -1.76152,-5.509627 -2.50355,-9.599879 -2.52733,-13.931214 -0.0157,-2.852921 0.0364,-3.345474 0.54728,-5.186069 1.60976,-5.798722 3.08405,-8.404716 7.38318,-13.050628 4.03347,-4.358837 5.16995,-6.266145 5.16995,-8.676491 0,-1.45078 -0.52549,-3.135618 -2.30296,-7.38379 -1.52151,-3.636439 -1.81177,-4.756952 -2.99549,-11.564145 -1.2355,-7.104883 -1.7645,-9.465603 -2.88318,-12.866442 l -0.85198,-2.59008 -0.008,-4.169192 c -0.009,-4.651335 0.0539,-4.978426 1.55041,-8.034412 1.44213,-2.944857 3.5342,-5.3640497 4.36352,-5.045809 0.15197,0.05832 0.37344,0.46676 0.49216,0.907657 0.46857,1.740132 1.88338,1.567292 6.90754,-0.843858 4.21305,-2.0218937 5.32346,-2.2914527 9.45611,-2.2955187 3.66285,-0.0036 5.1894,0.245033 11.62665,1.89369 2.59469,0.6645327 5.49223,1.2962577 6.43897,1.4038327 2.06563,0.234714 2.87476,0.547661 3.96679,1.534245 0.95328,0.861232 1.34129,1.837154 1.20636,3.034234 -0.10352,0.918469 -4.7495,10.067171 -6.77649,13.344045 -1.9406,3.137212 -4.04353,5.065372 -5.54011,5.079692 -0.63581,0.0061 -1.39326,-0.800497 -1.64497,-1.751689 -0.1144,-0.432319 -0.30215,-2.02154 -0.4172,-3.531602 -0.25566,-3.355492 -0.44933,-4.077137 -1.36668,-5.092535 -1.52175,-1.684401 -4.86885,-2.552134 -6.31846,-1.638058 -0.36053,0.227337 -0.71732,0.659581 -0.79285,0.96054 -0.13949,0.555798 0.39115,13.2449 0.75584,18.074257 0.29964,3.96789 0.46202,9.674485 0.30507,10.721129 -0.15524,1.035219 -2.17138,4.690287 -4.33579,7.860418 -1.54631,2.264822 -1.60697,2.397015 -3.37188,7.3488 -1.58607,4.45004 -1.71967,4.928563 -1.33361,4.776718 0.53457,-0.210253 2.00852,-2.46671 3.53178,-5.406766 2.5516,-4.924875 4.75609,-7.895697 6.70767,-9.039399 0.71411,-0.418497 3.58986,-1.312817 4.22146,-1.312817 0.4437,0 -0.0773,0.446494 -2.08324,1.785252 -2.28212,1.523096 -4.07309,3.239114 -4.92903,4.722757 -0.51244,0.888214 -0.98725,2.322263 -2.07956,6.280748 -0.28999,1.050895 -1.19787,3.301714 -2.0208,5.009959 -0.82183,1.705979 -1.61082,3.587737 -1.75331,4.181687 -0.33506,1.396687 -0.14421,9.01529 0.29669,11.843394 0.39962,2.563362 1.25769,6.410693 1.77547,7.960655 0.22251,0.6661 1.21094,2.908325 2.19652,4.982705 2.12124,4.46469 2.38753,5.2488 2.56578,7.55522 0.18202,2.35525 -0.0419,2.94173 -1.86867,4.89513 -0.82094,0.87784 -2.14512,2.57892 -2.94262,3.78017 -1.83954,2.77086 -4.5321,8.26531 -5.85453,11.94679 -0.56266,1.56635 -1.98042,5.14364 -3.1506,7.94951 -2.98278,7.1522 -3.25974,8.04784 -3.2735,10.58596 -0.009,1.75277 0.047,2.12715 0.37625,2.49135 1.08567,1.20105 2.75978,-0.30748 4.84242,-4.3635 2.2661,-4.4133 3.25728,-7.43185 3.50902,-10.68641 0.40693,-5.26071 3.7326,-13.60784 7.44591,-18.68854 4.25733,-5.82505 6.13727,-7.93784 11.77051,-13.22842 l 3.34688,-3.14329 -2.44561,2.94894 c -1.34508,1.62192 -3.53072,4.35121 -4.85696,6.06509 -1.32625,1.71388 -3.33627,4.09337 -4.46672,5.28775 -2.83847,2.99902 -4.27779,5.50225 -5.87372,10.21536 -1.01948,3.01074 -1.30998,4.67355 -1.54418,8.8388 -0.23559,4.19015 -0.33228,4.6255 -1.57748,7.10238 -2.13059,4.23801 -5.79506,9.28539 -9.53337,13.13107 -1.95858,2.01485 -2.92437,3.18979 -3.62879,4.41466 -1.09446,1.90305 -2.52054,3.31543 -4.58741,4.54335 -2.91638,1.73259 -7.03329,3.23432 -10.03306,3.65975 -2.98981,0.42404 -5.08407,-0.55901 -3.84042,-1.80266 0.20381,-0.20381 1.18763,-0.81415 2.18629,-1.35632 3.83907,-2.08422 9.02021,-5.50303 10.90785,-7.19761 2.0636,-1.85256 3.78368,-4.87958 4.75187,-8.36243 0.76613,-2.75595 4.26476,-13.21074 5.0888,-15.20658 0.98579,-2.38764 3.39126,-7.13584 4.54228,-8.96612 0.53759,-0.85485 1.86566,-2.83554 2.95126,-4.40153 1.08559,-1.56599 2.40193,-3.70786 2.9252,-4.75972 0.9358,-1.88112 0.9514,-1.94476 0.9514,-3.88206 0,-1.94155 -0.0137,-1.99682 -0.95918,-3.88372 -0.52756,-1.05278 -1.79648,-3.1954 -2.81983,-4.76139 -2.55283,-3.90648 -3.0573,-5.02109 -3.25585,-7.19363 -0.39952,-4.371517 -0.63783,-11.468879 -0.48231,-14.36416 0.1664,-3.097834 0.17694,-4.700094 0.0609,-9.253575 -0.0776,-3.043698 -0.053,-3.111504 2.65309,-7.295565 3.31271,-5.122113 3.97126,-6.935465 3.96091,-10.906522 -0.008,-2.813957 -0.35838,-4.764177 -1.50094,-8.338386 -1.46351,-4.57823 -1.44479,-4.478847 -1.52317,-8.083096 -0.0407,-1.873004 -0.13185,-3.498957 -0.20247,-3.613227 -0.22706,-0.367392 -0.52098,0.01029 -1.24486,1.59953 -0.87213,1.914741 -1.55379,2.673596 -2.40163,2.673596 -0.50703,0 -0.87374,-0.264698 -1.97226,-1.423628 -0.74219,-0.782994 -1.45149,-1.423626 -1.57624,-1.423626 -0.28227,0 -0.28846,1.075025 -0.0224,3.880971 0.14484,1.527241 0.58868,3.564874 1.52837,7.016447 0.78443,2.881326 1.41089,5.651757 1.53678,6.79623 0.11689,1.062636 0.34425,2.699085 0.50522,3.636552 0.37667,2.193522 0.37302,4.560922 -0.009,5.847405 -0.16596,0.558812 -0.67237,1.533618 -1.12538,2.166233 -1.871,2.612823 -2.84882,6.739478 -4.37161,18.44935 -0.40002,3.076052 -0.95049,6.828326 -1.22327,8.338387 -1.25362,6.939826 -1.47414,12.305344 -0.82457,20.062544 0.4113,4.91185 0.2923,5.87352 -1.18914,9.60937 -1.41979,3.58042 -1.86026,5.0542 -2.3633,7.90738 -0.22667,1.28575 -0.5094,2.51945 -0.62827,2.74156 -0.11886,0.2221 -0.9921,1.23328 -1.94053,2.24706 -2.11925,2.26529 -2.76068,3.18342 -3.50934,5.0231 -0.75228,1.84855 -1.32354,2.57756 -3.23125,4.12348 -2.72535,2.20852 -3.41048,2.99614 -3.56091,4.09363 -0.0728,0.53088 -0.68218,2.63435 -1.35427,4.67439 -0.67209,2.04003 -1.22198,3.927 -1.22198,4.19326 0,0.46982 0.0217,0.46342 0.73327,-0.21675 0.4033,-0.38548 2.17617,-2.53125 3.9397,-4.76837 1.76352,-2.23713 3.7213,-4.64271 4.35061,-5.34574 1.32889,-1.48456 1.69621,-2.15729 2.4668,-4.51797 0.31036,-0.95077 0.7006,-1.99809 0.86719,-2.32737 0.16659,-0.32927 1.46604,-1.84756 2.88766,-3.37397 2.98065,-3.20034 4.31432,-4.98307 4.97135,-6.64518 0.2561,-0.64786 0.97348,-2.36768 1.59419,-3.82181 2.03952,-4.77796 2.43024,-6.35417 2.4199,-9.76201 -0.009,-2.86645 -0.50791,-5.98958 -1.54417,-9.66033 -1.08128,-3.83023 -0.97434,-4.50211 0.75796,-4.76188 1.52926,-0.22933 1.48312,-0.28997 2.77202,3.64331 0.32989,1.00671 0.93193,2.74557 1.33785,3.86414 0.67326,1.8552 0.73002,2.17658 0.64662,3.66075 -0.14045,2.49886 -1.69971,6.96045 -4.76214,13.62614 -0.66806,1.45414 -1.32364,3.09243 -1.45683,3.64064 -0.3858,1.58806 -0.75101,2.12772 -2.97925,4.40237 -1.15574,1.17981 -2.20084,2.40681 -2.32245,2.72666 -0.14031,0.36905 -0.1726,1.29446 -0.0884,2.53252 0.12084,1.7763 0.0839,2.09663 -0.4124,3.57797 -0.66953,1.99832 -1.42337,3.22062 -4.36152,7.07191 -3.05868,4.0093 -5.08878,6.00719 -9.58085,9.42887 -2.06934,1.57626 -4.15718,3.2945 -4.63964,3.81833 -0.8616,0.93547 -2.45012,4.01593 -4.34141,8.41889 -0.97206,2.26298 -0.9634,2.31235 0.84162,4.79672 1.04972,1.44481 1.39744,2.16671 2.32478,4.82638 1.46506,4.20187 2.24898,6.12485 2.89455,7.10036 0.29652,0.44807 0.4859,0.8679 0.42085,0.93295 -0.2171,0.21709 -2.13815,-0.54804 -3.362,-1.33905 -1.63054,-1.05388 -3.28767,-2.77713 -4.0521,-4.21379 -0.87373,-1.64208 -1.87599,-5.46374 -2.02166,-7.7087 -0.13764,-2.12127 0.11241,-3.49562 1.35621,-7.45401 1.2928,-4.11431 2.18661,-6.55543 3.96633,-10.83247 2.05079,-4.92852 4.58629,-11.49779 5.1619,-13.37412 0.232,-0.75623 0.61702,-2.81541 0.85561,-4.57594 0.23858,-1.76054 0.92688,-5.54883 1.52954,-8.41844 1.16762,-5.55961 2.04479,-10.65391 2.24642,-13.04634 0.16251,-1.9282 -0.21878,-3.37781 -1.62707,-6.18586 -1.64282,-3.27567 -1.75617,-3.78341 -2.01062,-9.00557 -0.20597,-4.226937 -0.18919,-4.886168 0.21999,-8.643448 0.59874,-5.497803 0.57012,-6.609696 -0.17011,-6.609696 -0.43199,0 -1.58749,1.238832 -2.30012,2.466004 -1.19893,2.064601 -1.84341,5.518026 -1.637,8.771831 0.0961,1.515289 -0.007,2.727879 -0.5313,6.252439 -0.76796,5.16177 -0.87291,8.67279 -0.32168,10.76129 0.37517,1.42144 1.27644,3.32316 2.58819,5.46125 2.33919,3.81275 2.554,5.26652 1.1699,7.91733 -1.75829,3.36747 -2.68058,5.95786 -5.97198,16.7732 -2.91117,9.56595 -3.49294,11.16092 -5.95898,16.33708 -2.82286,5.9251 -3.5462,8.0737 -3.66305,10.88058 -0.0971,2.33381 -0.0931,2.35123 1.75003,7.44977 0.93431,2.58458 2.5301,8.28848 2.43321,8.69707 -0.0439,0.18512 -0.55561,-0.0523 -1.59006,-0.73799 z m 11.684,-8.57679 c -1.46816,-0.63949 -2.44439,-2.93149 -1.9506,-4.57962 0.25424,-0.84858 1.19287,-1.78983 1.92551,-1.93091 0.24306,-0.0468 1.2656,-0.23424 2.2723,-0.41654 3.9069,-0.70749 14.71592,-4.79327 16.77446,-6.3407 2.34566,-1.76326 5.30371,-5.4964 11.0155,-13.90183 1.78625,-2.62861 3.69788,-5.41994 4.24806,-6.20294 1.05268,-1.49809 1.89156,-3.51795 2.23833,-5.38945 0.114,-0.6152 0.29223,-2.85742 0.39606,-4.98269 0.10384,-2.12527 0.33677,-4.63604 0.51764,-5.5795 0.78985,-4.12012 3.00498,-9.99231 4.8228,-12.78498 1.66793,-2.56238 5.54924,-7.36577 8.66068,-10.71818 1.27271,-1.37129 1.22697,-1.23593 -0.27491,0.8135 -3.18419,4.34509 -6.84973,9.89958 -8.4147,12.75105 -1.27909,2.33056 -1.66914,3.65159 -1.66954,5.65441 -4.1e-4,1.71585 0.0834,2.20874 1.13986,6.71138 1.14574,4.88297 0.38734,7.64252 -5.25398,19.11728 -3.08474,6.27456 -5.1956,9.29607 -9.59185,13.72988 -2.65129,2.67394 -5.11048,4.73802 -7.04531,5.91336 -0.67771,0.41169 -2.80172,1.46978 -4.72002,2.3513 -1.9183,0.88151 -4.17421,2.02724 -5.01313,2.54605 -3.15107,1.94871 -4.25142,2.54095 -5.61468,3.02199 -1.57803,0.55683 -3.47114,0.64894 -4.46248,0.21714 z m 88.78339,-19.46671 c -2.08743,-0.96525 -3.18248,-1.21814 -6.50801,-1.50299 -3.72976,-0.31948 -5.1511,-0.69943 -6.86301,-1.83465 -1.42154,-0.94267 -2.29292,-2.18265 -3.42491,-4.87368 -1.21003,-2.87654 -1.5885,-3.52051 -3.22396,-5.48551 -1.63592,-1.96555 -1.79621,-2.42532 -1.05526,-3.02676 0.44678,-0.36265 0.55905,-0.65926 0.66556,-1.75818 0.20293,-2.09404 0.20004,-2.09236 2.04414,-1.18996 3.46217,1.69421 6.97921,2.31915 12.06082,2.1431 3.62678,-0.12565 5.86452,-0.52311 8.13163,-1.44432 2.06871,-0.8406 2.05274,-0.85478 2.26041,2.00691 0.1189,1.63826 0.31483,2.50699 0.98841,4.38215 1.86129,5.18176 3.02354,9.90452 2.66773,10.84034 -0.41104,1.08116 -1.78205,0.50854 -2.75423,-1.15034 -0.6702,-1.14361 -1.60729,-2.01596 -2.07111,-1.92802 -0.51059,0.0968 -0.58529,1.0807 -0.18453,2.43022 0.37905,1.27644 0.40647,2.2462 0.0729,2.57977 -0.3762,0.37621 -1.79135,0.28138 -2.80658,-0.18808 z m 1.42362,-5.059 c 0.53932,-0.53931 0.51306,-1.02162 -0.12487,-2.29474 -1.07557,-2.14652 -1.3559,-2.19599 -4.24027,-0.74829 -2.8343,1.42254 -3.84186,1.56909 -6.92989,1.00787 -2.58292,-0.46941 -2.99673,-0.62993 -4.83813,-1.87659 -0.6518,-0.44128 -1.22417,-0.76324 -1.27194,-0.71547 -0.18886,0.18886 2.52981,2.57197 3.48809,3.05756 1.06338,0.53886 2.88741,0.95953 4.16051,0.95953 0.40937,0 1.26996,0.18084 1.9124,0.40188 l 1.16811,0.40189 1.19644,-0.50358 c 1.61941,-0.6816 2.55024,-0.65551 3.66941,0.10286 1.06154,0.7193 1.27366,0.74356 1.81014,0.20708 z m -2.97615,-7.62671 c 1.69009,-0.80326 2.53764,-2.96722 1.44307,-3.68441 -0.4342,-0.2845 -0.74922,-0.30948 -1.98291,-0.15723 -0.80669,0.0996 -2.72509,0.16853 -4.26311,0.15327 -3.22263,-0.032 -3.31078,0.0335 -2.12903,1.58293 1.73481,2.27448 4.68865,3.17165 6.93198,2.10544 z m 7.1943,-5.66078 c -0.97744,-1.05468 -1.2196,-3.06809 -0.63648,-5.292 0.44557,-1.69931 0.26973,-3.66245 -0.61287,-6.84242 -1.1081,-3.99246 -1.22147,-4.81537 -1.01794,-7.38842 0.32622,-4.12409 0.19196,-10.89254 -0.27897,-14.0654 -0.23228,-1.56474 -0.39042,-2.87685 -0.35147,-2.9158 0.14149,-0.1415 1.74917,2.56831 3.05579,5.15065 1.70297,3.36564 2.01779,4.75042 1.84954,8.13501 -0.0667,1.34228 -0.26722,3.63025 -0.44551,5.08438 -0.24534,2.00091 -0.28587,3.31159 -0.16661,5.38945 0.0867,1.51006 0.13978,3.43196 0.11804,4.27088 -0.0598,2.30801 -0.67632,8.61903 -0.8618,8.82213 -0.0899,0.0984 -0.38259,-0.058 -0.65172,-0.34846 z m -29.32409,-4.24962 c -1.14125,-4.90594 -1.1976,-5.72996 -0.73577,-10.76051 0.34162,-3.72105 0.16433,-5.29362 -1.10879,-9.83525 -0.90134,-3.2154 -1.13606,-5.86066 -0.64731,-7.29509 0.54207,-1.59087 1.75704,-3.17938 4.53122,-5.9243 1.46964,-1.45413 2.86637,-2.93038 3.10385,-3.28054 0.23749,-0.35016 0.71614,-1.51979 1.06368,-2.599175 0.54019,-1.677767 1.48451,-3.365942 1.73993,-3.110523 0.13934,0.139343 -0.94657,4.153855 -1.47614,5.457118 -0.28502,0.70143 -0.77256,1.64605 -1.08343,2.09916 -0.90849,1.32418 -1.95235,3.53912 -2.54481,5.39977 -1.00281,3.14944 -0.93296,5.11872 0.42923,12.10083 0.94103,4.82337 0.89845,5.89243 -0.38469,9.66033 -1.18246,3.47224 -1.56302,5.51823 -1.73994,9.35419 l -0.14105,3.05842 z m 16.53122,1.86059 c -4.26602,-3.04084 -4.55119,-3.47606 -7.38499,-11.27071 l -1.77452,-4.88101 -0.40758,-5.99957 c -0.34858,-5.13107 -0.37472,-6.45591 -0.1806,-9.15188 0.28348,-3.93696 0.93938,-7.19409 2.25774,-11.211729 1.06545,-3.246887 1.6903,-4.82366 1.52096,-3.838053 -0.048,0.279641 -0.22399,1.469389 -0.39099,2.643874 -0.16701,1.174493 -0.44424,2.867598 -0.61608,3.762448 -0.51619,2.68816 -0.43539,3.54483 0.50102,5.31223 0.90682,1.71157 0.96174,2.18314 0.56988,4.89336 -0.34908,2.41433 -0.16399,3.39187 1.97609,10.437 l 0.77223,2.5422 0.12597,5.38944 c 0.11976,5.12373 0.15031,5.44399 0.61964,6.49567 0.55848,1.25147 2.25902,3.61318 3.85291,5.35094 0.58993,0.64318 1.0257,1.16941 0.96838,1.16941 -0.0574,0 -1.14186,-0.73963 -2.41006,-1.64362 z m -7.6953,-0.99271 c -2.79906,-1.78124 -3.68163,-2.6348 -4.15216,-4.01572 -0.41763,-1.2257 -0.22736,-3.81482 0.32063,-4.36281 0.91369,-0.91369 1.66271,-0.0686 2.20321,2.48585 0.53202,2.51438 1.54585,4.5478 3.09103,6.1996 0.67529,0.72189 1.19444,1.31215 1.15365,1.31169 -0.0408,-4.1e-4 -1.21815,-0.72885 -2.61636,-1.61861 z m 12.80138,-0.075 c -4.17444,-3.45339 -4.54637,-4.59338 -5.48525,-16.81275 -0.48766,-6.34658 -0.80578,-8.63646 -1.52581,-10.98226 -1.45557,-4.74225 -1.6896,-6.10393 -1.83511,-10.67721 -0.0534,-1.677845 -0.13695,-3.999431 -0.18571,-5.159066 -0.0487,-1.159646 -0.0494,-2.069225 -0.002,-2.021289 0.048,0.04793 0.49753,2.277999 0.9991,4.955696 1.07687,5.748929 1.92755,9.232639 2.55468,10.461899 0.24982,0.48973 1.17833,1.82841 2.06335,2.97483 2.52392,3.26946 2.47391,3.09075 2.64,9.43052 0.10413,3.97344 0.22613,5.68163 0.46437,6.50149 0.49224,1.69412 0.40549,2.83736 -0.39907,5.25741 -0.53193,1.59999 -0.68866,2.35985 -0.59497,2.88413 0.16427,0.91922 0.9639,2.28699 1.98403,3.3937 0.44472,0.48245 0.76896,0.87718 0.72054,0.87718 -0.0484,0 -0.67782,-0.48793 -1.39868,-1.08428 z m 2.80438,-1.71587 c -1.24417,-1.27684 -1.46333,-2.03629 -1.36332,-4.72473 0.21313,-5.73041 0.0702,-8.89618 -0.61092,-13.52446 -0.96782,-6.57699 -1.39516,-7.8573 -4.58205,-13.72784 -2.30133,-4.23923 -2.35655,-4.49213 -2.40245,-11.003494 -0.0298,-4.23724 0.0108,-5.180656 0.20325,-4.721619 0.1323,0.31551 1.22796,3.548018 2.43477,7.183348 l 2.19422,6.609705 1.7901,2.7064 c 0.98457,1.48852 2.05731,3.18162 2.38389,3.76244 1.40428,2.49761 1.93137,6.527 1.61462,12.34337 -0.35282,6.4786 -0.54188,8.13312 -1.19127,10.42513 -0.75057,2.64898 -0.76469,3.2445 -0.10444,4.39956 0.28092,0.49142 0.47978,0.92445 0.44194,0.96231 -0.0378,0.0378 -0.40159,-0.2727 -0.80834,-0.69012 z m -30.74329,-3.14963 c -0.46653,-0.712 -3.39123,-7.07834 -3.63267,-7.90742 -0.16775,-0.57599 -0.13858,-1.07064 0.13189,-2.23713 0.27393,-1.18147 0.33517,-2.27044 0.29004,-5.15839 -0.0468,-2.99576 0.006,-3.86395 0.2899,-4.77932 0.47375,-1.5267 1.57918,-3.2905 3.53817,-5.64537 1.80562,-2.17051 6.39208,-7.0248 6.51813,-6.89875 0.0963,0.0963 -3.66468,5.65885 -4.65469,6.88431 -1.33644,1.6543 -2.38942,3.36475 -2.93456,4.76688 -0.48141,1.23823 -0.54365,1.67365 -0.53458,3.74018 0.0112,2.54216 0.30621,4.1975 1.26877,7.11839 0.84963,2.57819 1.23099,4.79228 1.23099,7.14689 0,2.90336 -0.67975,4.23898 -1.51139,2.96973 z m -14.71253,-29.11912 c -3.93841,-1.46306 -4.49145,-3.20653 -2.68148,-8.453368 0.8188,-2.373588 0.8767,-2.683815 0.8729,-4.677631 -0.006,-3.302637 -0.73597,-5.088728 -3.86351,-9.45695 -0.96105,-1.342277 -2.03312,-3.035376 -2.3824,-3.762442 -0.57847,-1.204137 -0.64103,-1.531347 -0.70203,-3.671817 -0.071,-2.490975 0.12045,-3.751381 0.56977,-3.751381 0.1714,0 0.62458,1.063407 1.2134,2.847254 1.46885,4.449928 2.24463,5.743883 5.44223,9.077379 3.52719,3.677079 4.75238,5.57136 4.78363,7.396018 0.0114,0.668651 -0.20419,1.139416 -1.21107,2.643878 -2.27556,3.40009 -2.38618,4.620888 -0.78639,8.67875 1.06922,2.71207 1.19088,3.63136 0.47838,3.61486 -0.25168,-0.006 -1.03172,-0.22388 -1.73343,-0.48455 z m 60.45804,-7.734553 c -1.45784,-0.551969 -3.11933,-1.506932 -4.37256,-2.513201 -3.46442,-2.781687 -4.85763,-4.374708 -8.44008,-9.650525 -2.2691,-3.341654 -2.8139,-4.012734 -3.84328,-4.734073 -1.80958,-1.26806 -2.05666,-1.868735 -2.04527,-4.972044 0.009,-2.3097 0.067,-2.705835 0.64015,-4.331576 1.16762,-3.312196 1.77331,-3.83216 8.29903,-7.124339 2.34899,-1.185048 4.75136,-2.522812 5.3386,-2.972808 0.58725,-0.449999 1.06772,-0.776432 1.06772,-0.725411 0,0.05102 -0.22022,0.59072 -0.48938,1.199328 l -0.48936,1.106561 1.55708,0.297391 1.5571,0.297394 -1.57616,0.02547 c -0.86689,0.01401 -1.57615,0.103361 -1.57615,0.198558 0,0.09519 0.90981,0.527653 2.02181,0.961017 1.11201,0.433362 2.00054,0.80922 1.97453,0.835238 -0.0261,0.02602 -0.85607,-0.08362 -1.84455,-0.243629 l -1.79725,-0.290938 -0.78306,0.553708 c -0.43069,0.30454 -0.785,0.614781 -0.78739,0.689426 -0.002,0.07465 1.00236,0.471166 2.23278,0.88116 1.23042,0.409994 2.23713,0.761384 2.23713,0.780868 0,0.01949 -1.39566,0.0094 -3.10147,-0.02234 l -3.10148,-0.05777 1.52531,0.71804 c 0.83893,0.394923 2.77561,1.289719 4.30375,1.988437 1.62748,0.744138 2.70536,1.346684 2.60207,1.454561 -0.17721,0.185053 -8.03135,-0.224336 -8.43113,-0.439462 -0.13559,-0.07296 -0.13559,-0.04278 0,0.09056 0.11186,0.109999 2.8329,1.330067 6.04678,2.711261 3.21385,1.381195 5.82214,2.531249 5.79619,2.555676 -0.026,0.02443 -2.92425,-0.448238 -6.44063,-1.050369 -3.51638,-0.602134 -6.42359,-1.064613 -6.46048,-1.027735 -0.0369,0.03688 2.49177,1.245261 5.6192,2.685291 3.12744,1.440032 5.66008,2.644416 5.62809,2.676409 -0.032,0.03199 -1.58213,-0.308781 -3.44472,-0.757278 -1.86261,-0.448496 -3.45569,-0.814536 -3.54017,-0.813423 -0.0845,9.99e-4 2.48105,1.568664 5.70124,3.483446 3.22018,1.914782 5.82506,3.511241 5.78861,3.547686 -0.0364,0.03644 -2.16778,-0.477955 -4.73631,-1.14311 -2.56852,-0.665155 -4.73364,-1.187178 -4.81135,-1.16005 -0.0777,0.02713 1.72979,1.228895 4.01666,2.670594 4.04481,2.549933 5.2599,3.415041 3.09026,2.200164 -2.05418,-1.150211 -9.12881,-4.759703 -9.1909,-4.689207 -0.0344,0.03913 1.83636,2.176081 4.15736,4.748778 2.321,2.572698 4.19067,4.710792 4.15481,4.75132 -0.0359,0.04052 -1.60312,-0.912894 -3.4828,-2.118717 -6.28529,-4.032055 -5.9986,-3.946265 -3.01083,-0.90099 1.45413,1.482119 2.55236,2.64809 2.4405,2.591046 -0.11185,-0.05705 -1.95653,-1.121621 -4.09925,-2.365721 -2.14274,-1.244101 -3.9607,-2.262001 -4.03989,-2.262001 -0.0792,0 2.03042,2.244182 4.68806,4.987067 2.65763,2.742892 4.7959,5.021983 4.75171,5.064667 -0.0442,0.04266 -0.62949,-0.130296 -1.30063,-0.384408 z M 183.3545,88.527061 c -0.22371,-0.035 -1.31003,-0.123416 -2.41405,-0.196487 -1.97454,-0.130687 -2.00096,-0.139182 -1.61952,-0.520624 0.81919,-0.819196 3.80405,-2.069167 8.70345,-3.644754 6.668,-2.144346 7.62359,-2.516645 8.59602,-3.349007 1.04877,-0.897706 1.45359,-1.775387 1.81803,-3.941602 0.27218,-1.617881 0.66952,-2.877292 2.67043,-8.46434 0.67957,-1.897555 0.72917,-2.199522 0.74057,-4.50905 0.0155,-3.132314 -0.13018,-3.383503 -2.41791,-4.170011 -0.87037,-0.299225 -1.91515,-0.809966 -2.32174,-1.134976 -1.98371,-1.585674 -2.75017,-2.083938 -3.83374,-2.49223 -1.26945,-0.478332 -1.71151,-0.479443 -7.27766,-0.0183 -3.32043,0.275083 -4.69261,0.71278 -6.1933,1.975528 -0.87266,0.734297 -1.03062,1.219746 -1.22003,3.749443 -0.19145,2.556869 -0.4294,3.091831 -2.0595,4.630249 -3.50866,3.311316 -10.08978,6.748669 -12.92094,6.748669 -1.22878,0 -2.63741,-0.669483 -3.16079,-1.502233 -0.304,-0.4837 -0.37081,-0.847829 -0.28296,-1.542187 0.23896,-1.888759 2.03554,-4.057538 6.92362,-8.358008 1.67785,-1.476148 5.53852,-5.016446 8.57928,-7.867328 7.32583,-6.868398 7.66601,-7.115692 13.27071,-9.647415 3.51655,-1.58848 6.48197,-3.175478 8.6465,-4.627347 3.72516,-2.498658 5.90028,-3.515419 9.67012,-4.520296 1.28635,-0.342885 2.7049,-0.80634 3.15232,-1.029904 2.315,-1.156726 4.13277,-3.158746 8.66608,-9.544538 3.85386,-5.42869 5.28538,-6.693752 6.39496,-5.651364 0.27344,0.256891 0.49717,0.566284 0.49717,0.687541 0,0.121254 0.36595,0.78054 0.81324,1.465076 1.01862,1.558984 1.79007,1.960617 2.60625,1.356918 0.30048,-0.222252 0.94767,-1.128078 1.43819,-2.012947 2.85004,-5.141244 4.44438,-7.395664 5.63012,-7.961109 0.67469,-0.321742 0.72615,-0.318994 1.09282,0.05836 0.64187,0.660597 1.0523,2.472578 1.17223,5.175324 0.22862,5.151099 -0.76508,9.369429 -3.20981,13.626143 -1.32157,2.301079 -2.11921,4.556678 -2.63959,7.464355 -0.23615,1.319641 -0.60984,3.406054 -0.83038,4.636474 -0.22054,1.23042 -0.7219,3.236707 -1.11413,4.458417 -0.39221,1.22171 -0.93302,3.151981 -1.20181,4.289496 -0.26878,1.137512 -0.57579,2.297304 -0.68224,2.577314 -0.65702,1.72805 -2.23711,1.574754 -5.40417,-0.524302 -0.77774,-0.515473 -1.5583,-0.937225 -1.73454,-0.937225 -0.17627,0 -1.14151,0.683734 -2.14498,1.519407 -2.7116,2.258139 -5.15056,3.418754 -5.33267,2.537623 -0.1429,-0.691549 1.11058,-1.976809 2.63553,-2.702337 2.48292,-1.181307 2.80171,-1.82304 2.80355,-5.643753 0,-1.296346 0.14142,-3.813115 0.3129,-5.59282 0.52026,-5.399922 0.43403,-6.794892 -0.42009,-6.794892 -0.48628,0 -2.25833,1.574645 -3.23665,2.876074 -1.33842,1.780482 -2.16139,3.486769 -3.90806,8.102553 -0.96191,2.54196 -2.08137,5.028836 -3.12311,6.937982 -1.97447,3.618557 -2.96477,5.733676 -4.38215,9.359672 -1.36477,3.491388 -1.83172,5.344623 -2.1206,8.41608 -0.5702,6.062592 -1.98848,9.740023 -4.91545,12.745021 -1.15272,1.183463 -3.5781,2.397151 -5.76448,2.884613 -2.45063,0.546379 -7.28514,0.883042 -8.94704,0.623048 z m -67.41891,-3.701509 c 0,-0.185349 1.44966,-2.399293 3.95697,-6.043166 2.36554,-3.437846 3.506,-6.328197 3.9722,-10.067076 0.11856,-0.95078 0.26996,-3.970903 0.33647,-6.711384 0.18032,-7.430637 -0.30232,-10.342658 -3.18536,-19.218963 -1.72491,-5.310642 -3.80866,-13.402246 -4.58267,-17.795337 -0.48182,-2.734694 -0.56789,-3.855983 -0.64972,-8.463767 -0.089,-5.012209 -0.071,-5.364112 0.31917,-6.246202 0.45611,-1.0310947 0.97252,-1.2900107 2.13719,-1.0715177 1.03016,0.193258 2.4677,1.1976857 2.77462,1.9386567 0.2291,0.553092 0.21745,0.979276 -0.0772,2.823708 -0.19087,1.194764 -0.37652,2.386572 -0.41257,2.648462 -0.11319,0.822434 0.28089,3.710478 0.80383,5.891005 0.6351,2.648141 1.19945,4.329509 2.95904,8.815806 1.7076,4.353733 2.5922,7.365898 3.52639,12.007937 0.83357,4.141971 1.30465,7.667532 1.47565,11.043639 0.28955,5.716739 -1.84146,15.853129 -4.05353,19.281064 -1.24524,1.929679 -9.30048,11.601652 -9.30048,11.167135 z m 50.04837,-29.967243 c -0.51047,-0.547923 -0.59206,-0.940361 -0.81886,-3.938336 -0.10154,-1.342277 -0.28321,-2.698137 -0.40371,-3.013025 -0.54181,-1.415785 0.0112,-4.961161 0.96246,-6.170572 l 0.34376,-0.437027 1.52425,0.616347 c 4.29075,1.735009 9.53111,1.819149 12.50609,0.2008 1.71227,-0.931448 1.48362,-1.444623 -1.5813,-3.548901 -2.81807,-1.934814 -3.59848,-3.079148 -3.60109,-5.280416 -0.002,-2.0779 0.83248,-4.232122 1.70547,-4.400245 0.57662,-0.111046 0.69507,0.135949 1.14747,2.392618 0.69305,3.457135 1.31275,4.285588 3.20574,4.285588 1.66906,0 3.66276,-0.77221 10.21021,-3.954655 8.66122,-4.209863 10.64358,-4.909441 13.45114,-4.746915 2.47585,0.143325 4.85263,1.503964 4.85263,2.777982 0,0.433416 -1.19102,1.571231 -2.62372,2.50651 -1.86674,1.218612 -5.0786,2.79511 -10.90073,5.350449 -9.6743,4.246063 -11.52955,5.425539 -18.07219,11.489397 -1.74998,1.621918 -3.89077,3.428397 -4.75732,4.014398 -3.01221,2.037015 -6.20867,2.866719 -7.1503,1.856003 z"
       id="path3783"
       inkscape:connector-curvature="0" />
  </g>
</svg>
